<?xml version="1.0" encoding="utf-8"?>
<!-- Generator: Adobe Illustrator 23.0.0, SVG Export Plug-In . SVG Version: 6.00 Build 0)  -->
<svg version="1.1" id="Capa_1" xmlns="http://www.w3.org/2000/svg" xmlns:xlink="http://www.w3.org/1999/xlink" x="0px" y="0px"
	 viewBox="0 0 186.6 114.2" style="enable-background:new 0 0 186.6 114.2;" xml:space="preserve">
<style type="text/css">
	.st0{fill:#727272;}
	.st1{fill:#505050;}
	.st2{filter:url(#Adobe_OpacityMaskFilter);}
	.st3{clip-path:url(#SVGID_2_);fill:url(#SVGID_4_);}
	.st4{clip-path:url(#SVGID_2_);mask:url(#SVGID_3_);fill:url(#SVGID_5_);}
</style>
<g>
	<path class="st0" d="M79.9,51.3H59.8c-2.2-14.4-12.9-24.7-29.3-24.7c-8.8,0-18.1,3-25.5,8.8l6.5,10.4c5.3-3.9,12.1-6.3,17.9-6.3
		c9.1,0,14.1,4.5,15.7,11.7H23c-13.4,0-18.6,7.9-18.6,17c0,13.4,11.7,20.6,24.9,20.6c17.7,0,28.5-11.9,30.6-26.7h20.1V51.3z
		 M29.4,76.7c-6.4,0-10.4-3.7-10.4-7.9c0-3.8,2.6-6.5,7.5-6.5h19C43.7,71.7,36.8,76.7,29.4,76.7"/>
	<path class="st1" d="M118.8,36.5c2,3,3.1,6.5,3.1,10.7c0,12.2-10.2,20-26.6,20c-3.3,0-6.3-0.4-9-1C85,67,84,68,84,69.6
		c0,3.1,3.2,4.4,10.1,5.1c11.5,1.3,16.8,1.9,21.5,3.9c6.8,2.7,10.2,7.5,10.2,14.6c0,13.2-12,19.6-31.1,19.6
		c-16.9,0-28.6-5.8-28.6-17.1c0-6.3,3.8-10.7,9.7-13.1c-3.3-2.4-5.2-5.7-5.2-9.7c0-4.3,2.1-7.8,6.3-10.7c-4.8-3.3-7.4-8.4-7.4-14.7
		c0-12.6,10.3-20.8,26.3-20.8c5.2,0,9.9,0.8,13.8,2.5c3.9-1.8,8.3-5.2,10.8-8l7.3,8.4C125.6,32.1,122.3,34.6,118.8,36.5 M97.7,87.9
		c-4.6-0.5-8-0.8-10.6-1.2c-3.7,1.8-6.2,4.2-6.2,7.3c0,4.9,4.4,7.5,14.5,7.5c9.4,0,15.2-2.1,15.2-7.3
		C110.6,89.7,105.4,88.7,97.7,87.9 M107.5,47.1c0-5.7-4.5-9-11.9-9c-7.5,0-11.9,3.4-11.9,9.3c0,5.8,4.4,8.7,11.8,8.7
		S107.5,53,107.5,47.1"/>
	<rect x="135.7" y="28" class="st1" width="16" height="59.4"/>
	<rect x="166" y="2.6" class="st1" width="16.3" height="84.9"/>
	<path class="st0" d="M134.3,11.1c0-5.9,3.7-9.7,9.5-9.7c5.8,0,9.6,3.8,9.6,9.7c0,5.9-3.8,9.7-9.6,9.7
		C138,20.9,134.3,17.1,134.3,11.1"/>
	<g>
		<defs>
			<rect id="SVGID_1_" x="25.5" y="51.3" width="53.8" height="10.9"/>
		</defs>
		<clipPath id="SVGID_2_">
			<use xlink:href="#SVGID_1_"  style="overflow:visible;"/>
		</clipPath>
		<defs>
			<filter id="Adobe_OpacityMaskFilter" filterUnits="userSpaceOnUse" x="25.5" y="51.3" width="53.8" height="10.9">
				<feColorMatrix  type="matrix" values="1 0 0 0 0  0 1 0 0 0  0 0 1 0 0  0 0 0 1 0"/>
			</filter>
		</defs>
		<mask maskUnits="userSpaceOnUse" x="25.5" y="51.3" width="53.8" height="10.9" id="SVGID_3_">
			<g class="st2">
				
					<linearGradient id="SVGID_4_" gradientUnits="userSpaceOnUse" x1="-322.7574" y1="355.3447" x2="-322.1662" y2="355.3447" gradientTransform="matrix(57.504 0 0 -57.504 18593.1211 20490.5313)">
					<stop  offset="0" style="stop-color:#000000"/>
					<stop  offset="1" style="stop-color:#FFFFFF"/>
				</linearGradient>
				<rect x="25.5" y="51.3" class="st3" width="53.8" height="10.9"/>
			</g>
		</mask>
		
			<linearGradient id="SVGID_5_" gradientUnits="userSpaceOnUse" x1="-322.7574" y1="355.3447" x2="-322.1662" y2="355.3447" gradientTransform="matrix(57.504 0 0 -57.504 18593.1211 20490.5313)">
			<stop  offset="0" style="stop-color:#505050"/>
			<stop  offset="1" style="stop-color:#505050"/>
		</linearGradient>
		<rect x="25.5" y="51.3" class="st4" width="53.8" height="10.9"/>
	</g>
</g>
</svg>
