<?xml version="1.0" encoding="utf-8"?>
<!-- Generator: Adobe Illustrator 23.0.0, SVG Export Plug-In . SVG Version: 6.00 Build 0)  -->
<svg version="1.1" id="Capa_1" xmlns="http://www.w3.org/2000/svg" xmlns:xlink="http://www.w3.org/1999/xlink" x="0px" y="0px"
	 viewBox="0 0 176.78 76.66" enable-background="new 0 0 176.78 76.66" xml:space="preserve">
<g>
	<path fill="#3F3F3F" d="M116.61,24.83c0-4.01,1.97-6.1,5.98-6.1h5.9v56.81h-11.88V24.83z"/>
	<path fill="#3F3F3F" d="M140.37,18.73h5.9V65.1h28.37v10.44h-40.25V24.83C134.38,21.57,137.03,18.73,140.37,18.73z"/>
	<circle fill="#5B5B5B" cx="122.57" cy="8.07" r="7.14"/>
	<g>
		<g>
			<path fill="#3F3F3F" d="M84.7,18.2c6.48,0,12.15,1.64,16.82,4.92c4.27,3.45,6.65,8.29,7.06,14.61l-7.06,0
				c-2.05,0-3.69-0.98-5.01-2.87c-2.22-4.51-6.07-6.73-11.49-6.73c-9.6,0-14.53,6.07-14.61,18.3c-0.08,12.23,4.93,18.79,15.18,19.53
				c7.71,0,12.23-5.17,13.46-11.9l-6.73,0c-3.2,0-5.75-2.54-5.75-5.74l0-3.53l22.73,0l0,30.12l-2.87,0c-2.71,0-5.33-1.81-5.58-4.35
				l-0.49-2.71c-3.94,5.09-7.96,7.88-16,7.88c-16,0-25.69-12.39-25.69-28.72C58.44,30.51,68.21,17.54,84.7,18.2z"/>
		</g>
	</g>
	<path fill="#3F3F3F" d="M37.31,18L58.5,75.73H44.7L39,58.51l-18.97,5.42l-3.91,11.8H2.15l19.71-53.91
		c0.87-2.55,2.78-3.82,5.73-3.82H37.31z M21.03,60.89l16.38-6.72l-7.13-23.5L21.03,60.89z"/>
	<path fill="#5B5B5B" d="M2.15,75.73h14.51c0,0,29.88-37.44,83.82-9.17c0.06,0.14-20.35-26.85-62.2-17.89
		C25.98,51.3,13.79,61.19,2.15,75.73z"/>
	<polygon fill="#3F3F3F" points="44.7,75.73 58.5,75.73 47.85,46.71 35.72,48.54 	"/>
</g>
<g>
</g>
<g>
</g>
<g>
</g>
<g>
</g>
<g>
</g>
<g>
</g>
<g>
</g>
<g>
</g>
<g>
</g>
<g>
</g>
<g>
</g>
<g>
</g>
<g>
</g>
<g>
</g>
<g>
</g>
</svg>
