<?xml version="1.0" encoding="utf-8"?>
<!-- Generator: Adobe Illustrator 23.0.0, SVG Export Plug-In . SVG Version: 6.00 Build 0)  -->
<svg version="1.1" id="Capa_1" xmlns="http://www.w3.org/2000/svg" xmlns:xlink="http://www.w3.org/1999/xlink" x="0px" y="0px"
	 viewBox="0 0 299.05 91.6" enable-background="new 0 0 299.05 91.6" xml:space="preserve">
<g>
	<g>
		<path fill="#2F2F2F" d="M111.91,53.44h-6.76l-2.71-8.54H90.07l-2.56,8.54h-6.63l12.04-37.69h6.61L111.91,53.44z M100.43,38.53
			l-4.27-13.99l-4.19,13.99H100.43z"/>
		<path fill="#2F2F2F" d="M129.58,39.61v-6.38h13.45v15.02c-1.35,1.59-3.27,2.97-5.76,4.11c-2.49,1.15-4.98,1.72-7.48,1.72
			c-3.05,0-5.74-0.75-8.07-2.25c-2.33-1.5-4.18-3.75-5.54-6.74c-1.36-2.99-2.04-6.51-2.04-10.55c0-4.15,0.69-7.7,2.07-10.64
			c1.38-2.95,3.17-5.15,5.37-6.61c2.2-1.46,4.84-2.18,7.91-2.18c3.69,0,6.64,0.94,8.86,2.82c2.22,1.88,3.65,4.63,4.28,8.27
			l-6.17,1.41c-0.46-1.94-1.31-3.42-2.55-4.45c-1.23-1.03-2.71-1.54-4.42-1.54c-2.66,0-4.81,1.03-6.45,3.1
			c-1.65,2.07-2.47,5.22-2.47,9.45c0,4.54,0.89,8,2.67,10.36c1.53,2.04,3.59,3.06,6.2,3.06c1.22,0,2.48-0.29,3.79-0.86
			c1.31-0.57,2.48-1.35,3.51-2.35v-4.77H129.58z"/>
		<path fill="#2F2F2F" d="M148.81,53.44V15.75h13.14c3.36,0,5.76,0.34,7.2,1.02c1.44,0.68,2.62,1.85,3.55,3.52
			c0.93,1.67,1.39,3.67,1.39,6c0,2.95-0.71,5.32-2.12,7.12c-1.41,1.8-3.42,2.93-6.03,3.39c1.34,0.96,2.44,2.01,3.32,3.15
			c0.87,1.14,2.07,3.18,3.57,6.13l3.75,7.35h-7.45l-4.52-8.2c-1.63-2.96-2.73-4.82-3.31-5.57c-0.58-0.75-1.2-1.26-1.85-1.54
			c-0.65-0.28-1.7-0.42-3.14-0.42h-1.29v15.74H148.81z M155.03,31.69h4.63c2.83,0,4.63-0.12,5.4-0.37c0.77-0.25,1.4-0.75,1.88-1.5
			c0.48-0.75,0.72-1.76,0.72-3.01c0-1.2-0.24-2.16-0.72-2.89c-0.48-0.73-1.13-1.23-1.95-1.5c-0.58-0.19-2.27-0.28-5.06-0.28h-4.89
			V31.69z"/>
		<path fill="#2F2F2F" d="M178.68,34.83c0-4.49,0.66-8.19,1.99-11.09c1.33-2.91,3.06-5.07,5.21-6.49c2.14-1.42,4.74-2.13,7.79-2.13
			c4.42,0,8.03,1.69,10.81,5.06c2.78,3.38,4.18,8.19,4.18,14.42c0,6.31-1.47,11.24-4.42,14.78c-2.59,3.14-6.1,4.71-10.54,4.71
			c-4.47,0-8.01-1.55-10.59-4.65C180.16,45.88,178.68,41.02,178.68,34.83z M185.11,34.57c0,4.34,0.82,7.59,2.47,9.76
			c1.65,2.17,3.69,3.25,6.13,3.25c2.45,0,4.49-1.08,6.1-3.23c1.61-2.15,2.42-5.45,2.42-9.91c0-4.37-0.79-7.6-2.36-9.69
			c-1.57-2.09-3.63-3.14-6.17-3.14c-2.54,0-4.61,1.05-6.21,3.16C185.91,26.88,185.11,30.15,185.11,34.57z"/>
		<path fill="#2F2F2F" d="M221.47,53.44l-11.06-37.69h6.76l7.83,27.9l7.57-27.9h6.63l-11.08,37.69H221.47z"/>
		<path fill="#2F2F2F" d="M242.37,53.44V15.75h22.93v6.38h-16.71v8.36h15.53v6.35h-15.53v10.23h17.28v6.38H242.37z"/>
		<path fill="#2F2F2F" d="M278.11,53.44V22.13h-9.18v-6.38h24.55v6.38h-9.15v31.32H278.11z"/>
	</g>
	<g>
		<path fill="#2F2F2F" d="M139.51,72.52h1.48v6.85h3.32v1.24h-4.8V72.52z"/>
		<path fill="#2F2F2F" d="M145.36,80.6v-5.84h1.49v5.84H145.36z M147.9,72.23l-1.48,1.78h-1.02l1.04-1.78H147.9z"/>
		<path fill="#2F2F2F" d="M153.82,72.09v6.87c0,0.6,0.02,1.25,0.05,1.64h-1.32l-0.06-0.92h-0.02c-0.35,0.65-1.06,1.06-1.91,1.06
			c-1.39,0-2.5-1.19-2.5-2.99c-0.01-1.96,1.21-3.12,2.62-3.12c0.8,0,1.38,0.34,1.64,0.77h0.02v-3.31H153.82z M152.34,77.2
			c0-0.12-0.01-0.26-0.04-0.38c-0.13-0.58-0.6-1.04-1.27-1.04c-0.95,0-1.48,0.84-1.48,1.93c0,1.07,0.53,1.85,1.46,1.85
			c0.6,0,1.13-0.41,1.27-1.04c0.04-0.13,0.05-0.28,0.05-0.43V77.2z"/>
		<path fill="#2F2F2F" d="M156.45,78.1c0.04,1.06,0.86,1.51,1.8,1.51c0.68,0,1.18-0.1,1.62-0.26l0.22,1.02
			c-0.5,0.2-1.2,0.36-2.04,0.36c-1.9,0-3.01-1.16-3.01-2.95c0-1.62,0.98-3.14,2.86-3.14c1.9,0,2.52,1.56,2.52,2.84
			c0,0.28-0.02,0.49-0.05,0.62H156.45z M159.02,77.06c0.01-0.54-0.23-1.43-1.21-1.43c-0.91,0-1.3,0.83-1.36,1.43H159.02z"/>
		<path fill="#2F2F2F" d="M161.6,76.64c0-0.79-0.01-1.36-0.05-1.88h1.28l0.05,1.12h0.05c0.29-0.83,0.97-1.25,1.6-1.25
			c0.14,0,0.23,0.01,0.35,0.04v1.39c-0.12-0.02-0.25-0.05-0.43-0.05c-0.71,0-1.19,0.46-1.32,1.12c-0.02,0.13-0.05,0.29-0.05,0.46
			v3.02h-1.48V76.64z"/>
		<path fill="#2F2F2F" d="M169.4,78.1c0.04,1.06,0.86,1.51,1.8,1.51c0.68,0,1.18-0.1,1.62-0.26l0.22,1.02
			c-0.5,0.2-1.2,0.36-2.04,0.36c-1.9,0-3.01-1.16-3.01-2.95c0-1.62,0.98-3.14,2.86-3.14c1.9,0,2.52,1.56,2.52,2.84
			c0,0.28-0.02,0.49-0.05,0.62H169.4z M171.96,77.06c0.01-0.54-0.23-1.43-1.21-1.43c-0.91,0-1.3,0.83-1.36,1.43H171.96z"/>
		<path fill="#2F2F2F" d="M174.54,76.5c0-0.67-0.01-1.24-0.05-1.74h1.3l0.07,0.88h0.04c0.25-0.46,0.89-1.01,1.86-1.01
			c1.02,0,2.08,0.66,2.08,2.51v3.47h-1.48v-3.3c0-0.84-0.31-1.48-1.12-1.48c-0.59,0-1,0.42-1.15,0.86
			c-0.05,0.13-0.06,0.31-0.06,0.48v3.43h-1.49V76.5z"/>
		<path fill="#2F2F2F" d="M189.75,80.36c-0.35,0.18-1.12,0.36-2.09,0.36c-2.57,0-4.13-1.61-4.13-4.07c0-2.66,1.85-4.27,4.32-4.27
			c0.97,0,1.67,0.2,1.97,0.36l-0.32,1.18c-0.38-0.17-0.91-0.31-1.58-0.31c-1.64,0-2.83,1.03-2.83,2.98c0,1.78,1.04,2.92,2.82,2.92
			c0.6,0,1.22-0.12,1.61-0.3L189.75,80.36z"/>
		<path fill="#2F2F2F" d="M194.13,80.6l-0.1-0.65h-0.04c-0.36,0.46-0.97,0.78-1.73,0.78c-1.18,0-1.84-0.85-1.84-1.74
			c0-1.48,1.31-2.22,3.47-2.21v-0.1c0-0.38-0.16-1.02-1.19-1.02c-0.58,0-1.18,0.18-1.57,0.43l-0.29-0.96
			c0.43-0.26,1.19-0.52,2.11-0.52c1.87,0,2.41,1.19,2.41,2.46v2.11c0,0.53,0.02,1.04,0.08,1.4H194.13z M193.93,77.75
			c-1.04-0.02-2.04,0.2-2.04,1.09c0,0.58,0.37,0.84,0.84,0.84c0.59,0,1.02-0.38,1.15-0.8c0.04-0.11,0.05-0.23,0.05-0.32V77.75z"/>
		<path fill="#2F2F2F" d="M196.94,72.09h1.49v8.52h-1.49V72.09z"/>
		<path fill="#2F2F2F" d="M201.59,73.13c0,0.44-0.32,0.79-0.84,0.79c-0.49,0-0.82-0.35-0.82-0.79c0-0.46,0.34-0.8,0.83-0.8
			C201.27,72.33,201.58,72.67,201.59,73.13z M200.02,80.6v-5.84h1.49v5.84H200.02z"/>
		<path fill="#2F2F2F" d="M208.48,72.09v6.87c0,0.6,0.02,1.25,0.05,1.64h-1.32l-0.06-0.92h-0.02c-0.35,0.65-1.06,1.06-1.91,1.06
			c-1.39,0-2.5-1.19-2.5-2.99c-0.01-1.96,1.21-3.12,2.62-3.12c0.8,0,1.38,0.34,1.64,0.77H207v-3.31H208.48z M207,77.2
			c0-0.12-0.01-0.26-0.04-0.38c-0.13-0.58-0.6-1.04-1.27-1.04c-0.95,0-1.48,0.84-1.48,1.93c0,1.07,0.53,1.85,1.46,1.85
			c0.6,0,1.13-0.41,1.27-1.04c0.04-0.13,0.05-0.28,0.05-0.43V77.2z"/>
		<path fill="#2F2F2F" d="M213.35,80.6l-0.1-0.65h-0.04c-0.36,0.46-0.97,0.78-1.73,0.78c-1.18,0-1.84-0.85-1.84-1.74
			c0-1.48,1.31-2.22,3.47-2.21v-0.1c0-0.38-0.16-1.02-1.19-1.02c-0.58,0-1.18,0.18-1.57,0.43l-0.29-0.96
			c0.43-0.26,1.19-0.52,2.11-0.52c1.87,0,2.41,1.19,2.41,2.46v2.11c0,0.53,0.02,1.04,0.08,1.4H213.35z M213.16,77.75
			c-1.04-0.02-2.04,0.2-2.04,1.09c0,0.58,0.37,0.84,0.84,0.84c0.59,0,1.02-0.38,1.15-0.8c0.04-0.11,0.05-0.23,0.05-0.32V77.75z"/>
		<path fill="#2F2F2F" d="M221.55,72.09v6.87c0,0.6,0.02,1.25,0.05,1.64h-1.32l-0.06-0.92h-0.02c-0.35,0.65-1.06,1.06-1.91,1.06
			c-1.39,0-2.5-1.19-2.5-2.99c-0.01-1.96,1.21-3.12,2.62-3.12c0.8,0,1.38,0.34,1.64,0.77h0.02v-3.31H221.55z M220.07,77.2
			c0-0.12-0.01-0.26-0.04-0.38c-0.13-0.58-0.6-1.04-1.27-1.04c-0.95,0-1.48,0.84-1.48,1.93c0,1.07,0.53,1.85,1.46,1.85
			c0.6,0,1.13-0.41,1.27-1.04c0.04-0.13,0.05-0.28,0.05-0.43V77.2z"/>
		<path fill="#2F2F2F" d="M226.54,74.76l1.06,3.13c0.12,0.36,0.24,0.8,0.32,1.14h0.04c0.1-0.34,0.2-0.77,0.31-1.15l0.91-3.12h1.58
			l-1.46,3.98c-0.8,2.18-1.34,3.16-2.04,3.76c-0.58,0.52-1.18,0.71-1.55,0.76l-0.34-1.25c0.25-0.06,0.56-0.19,0.86-0.41
			c0.28-0.18,0.6-0.53,0.8-0.92c0.06-0.11,0.1-0.19,0.1-0.26c0-0.06-0.01-0.14-0.08-0.29l-2.14-5.36H226.54z"/>
		<path fill="#2F2F2F" d="M235.23,73.75h-2.3v-1.24h6.11v1.24h-2.33v6.85h-1.48V73.75z"/>
		<path fill="#2F2F2F" d="M240.04,78.1c0.04,1.06,0.86,1.51,1.8,1.51c0.68,0,1.18-0.1,1.62-0.26l0.22,1.02
			c-0.5,0.2-1.2,0.36-2.04,0.36c-1.9,0-3.01-1.16-3.01-2.95c0-1.62,0.98-3.14,2.86-3.14c1.9,0,2.52,1.56,2.52,2.84
			c0,0.28-0.02,0.49-0.05,0.62H240.04z M242.6,77.06c0.01-0.54-0.23-1.43-1.21-1.43c-0.91,0-1.3,0.83-1.36,1.43H242.6z"/>
		<path fill="#2F2F2F" d="M249.48,80.42c-0.31,0.14-0.92,0.3-1.66,0.3c-1.82,0-3.01-1.16-3.01-2.98c0-1.75,1.2-3.12,3.25-3.12
			c0.54,0,1.09,0.12,1.43,0.28l-0.26,1.1c-0.24-0.11-0.59-0.23-1.12-0.23c-1.13,0-1.8,0.83-1.79,1.9c0,1.2,0.78,1.88,1.79,1.88
			c0.52,0,0.88-0.11,1.16-0.23L249.48,80.42z"/>
		<path fill="#2F2F2F" d="M250.57,76.5c0-0.67-0.01-1.24-0.05-1.74h1.3l0.07,0.88h0.04c0.25-0.46,0.89-1.01,1.86-1.01
			c1.02,0,2.08,0.66,2.08,2.51v3.47h-1.48v-3.3c0-0.84-0.31-1.48-1.12-1.48c-0.59,0-1,0.42-1.15,0.86
			c-0.05,0.13-0.06,0.31-0.06,0.48v3.43h-1.49V76.5z"/>
		<path fill="#2F2F2F" d="M262.99,77.63c0,2.15-1.51,3.11-3,3.11c-1.66,0-2.93-1.14-2.93-3.01c0-1.92,1.26-3.1,3.02-3.1
			C261.83,74.63,262.99,75.85,262.99,77.63z M258.59,77.69c0,1.13,0.55,1.98,1.45,1.98c0.84,0,1.43-0.83,1.43-2
			c0-0.91-0.41-1.96-1.42-1.96C259.01,75.71,258.59,76.72,258.59,77.69z"/>
		<path fill="#2F2F2F" d="M264.21,72.09h1.49v8.52h-1.49V72.09z"/>
		<path fill="#2F2F2F" d="M272.84,77.63c0,2.15-1.51,3.11-3,3.11c-1.66,0-2.93-1.14-2.93-3.01c0-1.92,1.26-3.1,3.02-3.1
			C271.68,74.63,272.84,75.85,272.84,77.63z M268.44,77.69c0,1.13,0.55,1.98,1.45,1.98c0.84,0,1.43-0.83,1.43-2
			c0-0.91-0.41-1.96-1.42-1.96C268.86,75.71,268.44,76.72,268.44,77.69z"/>
		<path fill="#2F2F2F" d="M279.4,74.76c-0.02,0.4-0.05,0.88-0.05,1.68v3.31c0,1.22-0.25,2.1-0.86,2.65
			c-0.61,0.54-1.45,0.71-2.26,0.71c-0.74,0-1.54-0.16-2.04-0.47l0.32-1.12c0.37,0.22,1,0.44,1.7,0.44c0.96,0,1.68-0.5,1.68-1.76
			v-0.5h-0.02c-0.34,0.52-0.94,0.86-1.7,0.86c-1.45,0-2.48-1.2-2.48-2.86c0-1.92,1.25-3.08,2.65-3.08c0.89,0,1.42,0.43,1.69,0.91
			h0.02l0.06-0.78H279.4z M277.87,77.1c0-0.13-0.01-0.28-0.05-0.4c-0.16-0.54-0.58-0.95-1.2-0.95c-0.83,0-1.44,0.72-1.44,1.91
			c0,1,0.5,1.8,1.43,1.8c0.55,0,1.03-0.36,1.2-0.89c0.04-0.16,0.06-0.36,0.06-0.53V77.1z"/>
		<path fill="#2F2F2F" d="M280.88,80.6v-5.84h1.49v5.84H280.88z M283.43,72.23l-1.48,1.78h-1.02l1.04-1.78H283.43z"/>
		<path fill="#2F2F2F" d="M287.24,80.6l-0.1-0.65h-0.04c-0.36,0.46-0.97,0.78-1.73,0.78c-1.18,0-1.84-0.85-1.84-1.74
			c0-1.48,1.31-2.22,3.47-2.21v-0.1c0-0.38-0.16-1.02-1.19-1.02c-0.58,0-1.18,0.18-1.57,0.43l-0.29-0.96
			c0.43-0.26,1.19-0.52,2.11-0.52c1.87,0,2.41,1.19,2.41,2.46v2.11c0,0.53,0.02,1.04,0.08,1.4H287.24z M287.05,77.75
			c-1.04-0.02-2.04,0.2-2.04,1.09c0,0.58,0.37,0.84,0.84,0.84c0.59,0,1.02-0.38,1.15-0.8c0.04-0.11,0.05-0.23,0.05-0.32V77.75z"/>
	</g>
	<g>
		
			<radialGradient id="SVGID_1_" cx="-273.1893" cy="-220.4525" r="29.7569" fx="-273.1088" fy="-221.4525" gradientTransform="matrix(1.1621 0 0 1.1621 347.6897 279.5248)" gradientUnits="userSpaceOnUse">
			<stop  offset="0" style="stop-color:#FFFFFF"/>
			<stop  offset="1" style="stop-color:#838383"/>
		</radialGradient>
		<circle fill="url(#SVGID_1_)" stroke="#FFFFFF" stroke-width="0.8803" stroke-miterlimit="10" cx="38.31" cy="39.61" r="32.75"/>
		<g>
			<g>
				<path fill="#646464" d="M26.88,49.85c-0.41-0.98-0.8-1.91-1.16-2.74c-0.82-1.89-1.5-3.32-1.93-3.96
					c-2.17-3.3-5.79-12.79-5.23-24.06l6.76-5.15c0,0-1.13,10.78,1.21,18.02c0.87,2.71,2.78,7.69,4.83,12.85
					c0.37,0.92,0.73,1.85,1.1,2.77"/>
				<path fill="#FFFFFF" d="M26.65,49.94l0.45-0.18c-0.41-0.98-0.8-1.91-1.16-2.74c-0.89-2.04-1.54-3.39-1.95-4
					c-2.29-3.47-5.71-12.99-5.2-23.8l6.23-4.75c-0.19,2.3-0.76,11.3,1.27,17.57c0.76,2.37,2.39,6.7,4.84,12.87
					c0.37,0.92,0.74,1.85,1.1,2.77l0.45-0.18c-0.37-0.92-0.74-1.85-1.1-2.77c-2.44-6.16-4.07-10.48-4.83-12.84
					c-2.29-7.11-1.21-17.82-1.2-17.92l0.06-0.56l-7.29,5.56l-0.01,0.11c-0.55,10.97,2.94,20.67,5.27,24.2
					c0.39,0.59,1.03,1.91,1.91,3.92C25.85,48.04,26.24,48.96,26.65,49.94z"/>
			</g>
			<g>
				<path fill="#646464" d="M18.44,61.46l6.76,5.15c0,0-0.87-8.32,0.5-15.26h25.07c1.4,6.95,0.52,15.34,0.52,15.34l6.76-5.15
					c0.56-11.26-3.06-20.76-5.23-24.06c-2.17-3.3-11.1-27.37-11.1-27.37h-3.24h-3.7c0,0-8.93,23.99-11.1,27.29
					C21.49,40.7,17.87,50.2,18.44,61.46z M48.64,44.59H27.81c3.13-8.43,9.13-22.96,10.41-26.07C39.42,21.42,45.48,36.07,48.64,44.59
					z"/>
				<path fill="#FFFFFF" d="M51.05,66.67c0.01-0.08,0.84-8.28-0.48-15.07H25.9c-1.3,6.78-0.47,14.91-0.46,14.99l0.06,0.56
					l-7.29-5.56l-0.01-0.11c-0.55-10.97,2.94-20.67,5.27-24.2c2.13-3.24,10.99-27,11.08-27.24l0.06-0.16h7.28l0.06,0.16
					c0.09,0.24,8.95,24.08,11.08,27.32c2.33,3.54,5.82,13.23,5.27,24.2l-0.01,0.11l-7.29,5.56L51.05,66.67z M52.61,37.62
					c-2.09-3.18-10.23-24.99-11.07-27.26h-6.61c-0.84,2.26-8.98,24-11.07,27.18c-2.29,3.47-5.71,12.99-5.2,23.8l6.23,4.75
					c-0.16-1.98-0.61-8.91,0.56-14.78l0.04-0.19h25.46L51,51.31c1.18,5.89,0.74,12.88,0.57,14.86l6.23-4.75
					C58.32,50.61,54.9,41.09,52.61,37.62z M27.58,44.51C30.73,36.03,36.81,21.3,38,18.43l0.22-0.54l0.22,0.54
					c1.19,2.87,7.27,17.59,10.42,26.08l0.12,0.33H27.46L27.58,44.51z M38.22,19.16c-1.57,3.78-7.06,17.12-10.07,25.19h20.14
					C45.28,36.28,39.79,22.94,38.22,19.16z"/>
			</g>
			<g>
				<path fill="#646464" d="M33.42,51.47c2.57,6.41,4.14,8.66,4.92,10.55c1.43-3.45,9.73-23.53,11.86-30.14
					c2.33-7.24,1.21-18.02,1.21-18.02l6.76,5.15c0.56,11.26-3.06,20.76-5.23,24.06c-2.17,3.3-11.1,27.37-11.1,27.37h-3.24l0,0h-3.7
					c0,0-4.22-10.76-7.62-18.96H33.42z"/>
				<path fill="#FFFFFF" d="M34.67,70.52c-0.04-0.11-4.26-10.85-7.62-18.95l-0.14-0.33h6.68l0.06,0.15
					c1.69,4.23,2.93,6.61,3.84,8.34c0.34,0.64,0.62,1.18,0.85,1.69c2.01-4.87,9.61-23.32,11.63-29.6c2.29-7.11,1.21-17.82,1.2-17.92
					l-0.06-0.56l7.29,5.56L58.41,19c0.55,10.97-2.94,20.67-5.27,24.2C51,46.44,42.15,70.28,42.06,70.52L42,70.67h-7.27L34.67,70.52z
					 M52.73,42.93c2.29-3.47,5.71-12.99,5.2-23.8l-6.23-4.75c0.19,2.3,0.76,11.3-1.27,17.57c-2.11,6.55-10.25,26.27-11.86,30.16
					l-0.22,0.54l-0.22-0.54c-0.26-0.63-0.62-1.31-1.06-2.17c-0.9-1.72-2.12-4.07-3.8-8.23h-5.63c3.12,7.53,6.9,17.15,7.42,18.48
					h6.61C42.51,67.93,50.64,46.11,52.73,42.93z"/>
			</g>
		</g>
	</g>
	<rect x="80.88" y="61.37" fill="#919191" width="212.61" height="3.36"/>
</g>
<g>
</g>
<g>
</g>
<g>
</g>
<g>
</g>
<g>
</g>
<g>
</g>
<g>
</g>
<g>
</g>
<g>
</g>
<g>
</g>
<g>
</g>
<g>
</g>
<g>
</g>
<g>
</g>
<g>
</g>
</svg>
