<?xml version="1.0" encoding="utf-8"?>
<!-- Generator: Adobe Illustrator 23.0.0, SVG Export Plug-In . SVG Version: 6.00 Build 0)  -->
<svg version="1.1" id="Capa_1" xmlns="http://www.w3.org/2000/svg" xmlns:xlink="http://www.w3.org/1999/xlink" x="0px" y="0px"
	 viewBox="0 0 347.85 77.15" enable-background="new 0 0 347.85 77.15" xml:space="preserve">
<g>
	<polygon fill="#1D1D1D" points="73.04,58.19 73.04,61.67 70.91,61.67 70.91,52.02 77.37,52.02 77.37,53.87 73.04,53.87 
		73.04,56.39 77.08,56.39 77.08,58.19 	"/>
	<g>
		<path fill="#1D1D1D" d="M81.12,53.77v2.72H83c0.93,0,1.61-0.56,1.61-1.37c0-0.84-0.68-1.35-1.61-1.35H81.12z M84.66,57.91
			l3.19,3.76h-2.69l-2.78-3.46h-1.25v3.46h-2.14v-9.65h4.04c2.3,0,3.89,1.13,3.89,3.01C86.91,56.36,86.02,57.42,84.66,57.91"/>
	</g>
	<path fill="#1D1D1D" d="M92.26,57.68h3.6l-1.79-3.65L92.26,57.68z M96.69,59.37h-5.26l-1.12,2.3H88l4.97-9.65h2.28l5.03,9.65h-2.48
		L96.69,59.37z"/>
	<polygon fill="#1D1D1D" points="108.54,61.67 103.29,55.45 103.29,61.67 101.19,61.67 101.19,52.02 103.18,52.02 108.42,58.25 
		108.42,52.02 110.58,52.02 110.58,61.67 	"/>
	<g>
		<path fill="#1D1D1D" d="M121.5,59.82c-0.87,1.11-2.17,2.06-4.21,2.06c-2.99,0-5.4-2.09-5.4-5.12c0-2.81,2.33-4.95,5.29-4.95
			c1.71,0,3.1,0.74,4.1,1.86l-1.5,1.42c-0.55-0.72-1.46-1.27-2.57-1.27c-1.72,0-3.15,1.25-3.15,2.94c0,1.9,1.51,3.1,3.17,3.1
			c1.24,0,2.11-0.55,2.75-1.37L121.5,59.82z"/>
	</g>
	<polygon fill="#1D1D1D" points="123.04,61.67 123.04,52.02 129.76,52.02 129.76,53.87 125.18,53.87 125.18,55.93 129.52,55.93 
		129.52,57.68 125.18,57.68 125.18,59.82 129.75,59.82 129.75,61.67 	"/>
	<rect x="136.06" y="52.02" fill="#1D1D1D" width="2.2" height="9.65"/>
	<g>
		<path fill="#1D1D1D" d="M142.43,57.23c-1.01-0.44-2.12-1.19-2.12-2.64c0-1.57,1.51-2.78,3.72-2.78c1.43,0,2.49,0.47,3.38,1.14
			l-1.06,1.48c-0.63-0.45-1.43-0.79-2.23-0.79c-0.98,0-1.48,0.39-1.48,0.89s0.37,0.74,0.9,0.96l2.06,0.87
			c1.32,0.56,2.15,1.35,2.15,2.66c0,1.62-1.58,2.86-3.84,2.86c-1.45,0-2.82-0.63-3.7-1.33l1.05-1.64c0.71,0.61,1.78,1.1,2.64,1.1
			c0.93,0,1.48-0.35,1.48-0.92c0-0.44-0.27-0.71-0.84-0.95L142.43,57.23z"/>
	</g>
	<rect x="154.03" y="52.02" fill="#1D1D1D" width="2.2" height="9.65"/>
	<polygon fill="#1D1D1D" points="166.06,61.67 160.82,55.45 160.82,61.67 158.71,61.67 158.71,52.02 160.7,52.02 165.95,58.25 
		165.95,52.02 168.1,52.02 168.1,61.67 	"/>
	<polygon fill="#1D1D1D" points="176.61,61.67 176.61,53.87 173.85,53.87 173.85,52.02 181.48,52.02 181.48,53.87 178.73,53.87 
		178.73,61.67 	"/>
	<polygon fill="#1D1D1D" points="189.69,61.67 189.69,57.79 185.1,57.79 185.1,61.67 182.94,61.67 182.94,52.02 185.1,52.02 
		185.1,55.9 189.69,55.9 189.69,52.02 191.84,52.02 191.84,61.67 	"/>
	<polygon fill="#1D1D1D" points="194.05,61.67 194.05,52.02 200.77,52.02 200.77,53.87 196.19,53.87 196.19,55.93 200.54,55.93 
		200.54,57.68 196.19,57.68 196.19,59.82 200.76,59.82 200.76,61.67 	"/>
	<path fill="#1D1D1D" d="M210.28,57.68h3.6l-1.79-3.65L210.28,57.68z M214.7,59.37h-5.26l-1.13,2.3h-2.3l4.97-9.65h2.28l5.04,9.65
		h-2.48L214.7,59.37z"/>
	<rect x="219.35" y="52.02" fill="#1D1D1D" width="2.21" height="9.65"/>
	<g>
		<path fill="#1D1D1D" d="M226.17,53.77v2.72h1.88c0.93,0,1.61-0.56,1.61-1.37c0-0.84-0.67-1.35-1.61-1.35H226.17z M229.7,57.91
			l3.19,3.76h-2.69l-2.78-3.46h-1.26v3.46h-2.14v-9.65h4.04c2.3,0,3.89,1.13,3.89,3.01C231.96,56.36,231.07,57.42,229.7,57.91"/>
		<path fill="#5B5B5B" d="M283.89,19.38l-13.23,19.14c-1.74,2.52-4.57,4.94-7.98,5.2v0.59h14.72c3.91,0,6.76-2.54,8.69-5.35
			l13.59-19.59H283.89z"/>
		<path fill="#1D1D1D" d="M150,34.55h7.25l-3.77-6.97L150,34.55z M162.78,44.32l-2.85-5.01h-12.43l-2.57,5.01h-6.19l12.38-22.81
			h5.63l14.01,22.81H162.78z M16.62,34.55h7.44l-3.86-6.97L16.62,34.55z M29.75,44.32l-2.92-5.01H14.07l-2.66,5.01H5.06l12.71-22.81
			h5.79l14.41,22.81H29.75z M66.83,31.98c2.64,0,3.91-1.34,3.91-2.85c0-1.51-1.13-2.75-3.91-2.75h-7.09v5.6H66.83z M72.15,35.75
			l9.2,8.57h-7.11c-1.58,0-2.61-0.49-3.44-1.3l-6.26-6.07c-0.12-0.12-0.31-0.19-0.54-0.19h-4.26v7.56h-6.66V21.49h14.43
			c7.49,0,10.64,3.37,10.64,7.09C78.15,32.9,74.29,34.97,72.15,35.75 M124.01,31.98c2.64,0,3.91-1.34,3.91-2.85
			c0-1.51-1.13-2.75-3.91-2.75h-7.09v5.6H124.01z M129.33,35.75l9.2,8.57h-7.11c-1.58,0-2.61-0.49-3.44-1.3l-6.26-6.07
			c-0.12-0.12-0.31-0.19-0.54-0.19h-4.26v7.56h-6.66V21.49h14.43c7.49,0,10.64,3.37,10.64,7.09
			C135.33,32.9,131.47,34.97,129.33,35.75 M232.68,44.32V21.49h23.12v4.9h-16.46v3.95h16.2v4.9h-16.2v4.19h16.38v4.9H232.68z
			 M83.92,44.32V21.49h22.27v4.9H90.58v5.67h15.25v4.9H90.58v7.37H83.92z M228.65,28.85c-3.01-1.48-6.4-2.68-10.9-2.68
			c-5.37,0-9.37,2.78-9.37,6.64c0,3.95,4.07,6.76,9.32,6.76c4.33,0,7.77-1.11,11.16-3.06v5.65c-2.99,1.48-6.97,2.59-11.44,2.59
			c-9.13,0-16.31-4.66-16.31-11.94c0-7.16,7.32-11.75,16.29-11.75c4.24,0,8.07,0.8,11.25,2.1V28.85z M193.83,44.32l-16.01-13.56
			v13.56h-5.63V21.49h4.78l15.8,13.35V21.49h5.63v22.83H193.83z M40.18,21.49h6.66v22.83h-6.66V21.49z"/>
		<path fill="#2E2E2E" d="M337.12,23.18l-0.02,0.01c2.64,2.67,4.39,6.27,4.67,10.31c0.63,8.93-6.1,16.68-15.03,17.29
			c-4.2,0.3-8.13-1.03-11.19-3.45l-0.02,0.02c3.18,2.96,7.52,4.63,12.17,4.31c8.93-0.62,15.66-8.36,15.04-17.29
			C342.43,29.86,340.31,25.9,337.12,23.18"/>
		<path fill="#2E2E2E" d="M308.4,41.62c-0.52,0.29-0.63,0.72-0.36,1.39c0.24,0.6,0.62,0.86,1.03,0.7c0.33-0.13,0.38-0.42,0.25-1.15
			l-0.06-0.28c-0.14-0.72-0.15-1.02-0.07-1.34c0.09-0.34,0.29-0.57,0.59-0.69c0.73-0.29,1.43,0.16,1.84,1.19
			c0.44,1.1,0.21,1.95-0.67,2.31l-0.21-0.54c0.6-0.26,0.75-0.83,0.43-1.64c-0.26-0.65-0.67-0.94-1.13-0.77
			c-0.35,0.15-0.44,0.47-0.3,1.23l0.05,0.31l0.05,0.28c0.1,0.55,0.11,0.75,0.05,0.99c-0.07,0.3-0.26,0.51-0.56,0.63
			c-0.69,0.27-1.35-0.13-1.73-1.05c-0.4-1.01-0.18-1.76,0.6-2.1L308.4,41.62z"/>
	</g>
	<polygon fill="#2E2E2E" points="307.94,35.77 310.4,33.69 310.41,34.46 308.32,36.19 309,36.93 310.47,36.91 310.48,37.51 
		306.3,37.6 306.29,36.99 307.93,36.97 308.16,36.97 308.37,36.96 308.23,36.81 308.09,36.66 306.24,34.66 306.22,33.87 	"/>
	<g>
		<path fill="#2E2E2E" d="M309.79,29.29l1.61,0.57l-0.2,0.58l-1.61-0.58l-2.88,0.87l0.23-0.69l1.79-0.5l0.22-0.06
			c0.09-0.03,0.15-0.04,0.31-0.08c-0.14-0.16-0.17-0.2-0.32-0.41l-1.1-1.5l0.22-0.66L309.79,29.29z"/>
	</g>
	<polygon fill="#2E2E2E" points="312.61,21.61 311.72,22.69 314.36,24.85 313.73,25.63 311.1,23.47 310.22,24.54 309.61,24.05 
		312.02,21.12 	"/>
	<polygon fill="#2E2E2E" points="318.26,17.65 316.15,18.89 316.59,19.66 318.53,18.52 318.89,19.15 316.95,20.28 317.48,21.16 
		319.62,19.9 320.02,20.57 317,22.33 314.89,18.73 317.86,16.98 	"/>
	<g>
		<path fill="#2E2E2E" d="M323.95,17.12c-0.23-0.38-0.32-0.55-0.45-0.85c-0.03,0.3-0.07,0.52-0.18,0.95l-0.17,0.79l1.21-0.18
			L323.95,17.12z M326.34,19.27l-1.1,0.08l-0.53-0.91l-1.69,0.27l-0.23,1.03l-1.04,0.27l1.09-4.57l1.04-0.16L326.34,19.27z"/>
		<path fill="#2E2E2E" d="M333.06,20.61l-0.88-0.33l0.34-1.25c0.03-0.15,0.08-0.34,0.16-0.6c0.07-0.26,0.13-0.46,0.17-0.61
			c0.06-0.16,0.11-0.34,0.17-0.52l0.1-0.29c-0.25,0.42-0.34,0.57-0.57,0.91c-0.09,0.15-0.19,0.28-0.25,0.38l-1.18,1.67l-0.76-0.21
			l-0.24-2c-0.02-0.1-0.02-0.24-0.03-0.44c-0.02-0.26-0.03-0.46-0.04-0.6c-0.01-0.11-0.01-0.28,0-0.51l-0.11,0.51
			c-0.12,0.55-0.18,0.79-0.34,1.45l-0.34,1.35l-0.93-0.14l1.04-4.09l1.4,0.27l0.2,1.94c0.05,0.46,0.06,0.83,0.04,1.37
			c0.16-0.31,0.21-0.42,0.39-0.69c0.13-0.19,0.23-0.35,0.33-0.49l1.09-1.58l1.34,0.46L333.06,20.61z"/>
		<path fill="#2E2E2E" d="M332.96,34.11c1.2-0.81,2.21-1.25,2.83-1.23c0.37,0.01,0.81,0.12,0.81,0.58c0,0.47-0.45,0.86-1.32,1.17
			c-0.77,0.28-1.94,0.35-3.23,0.2C332.41,34.53,332.71,34.28,332.96,34.11 M316,35.59c-0.75-0.05-1.11-0.35-1.11-0.93
			c0-0.07,0.05-1.91,4.24-2.12c0.48-0.02,1-0.04,1.82,0.05c-0.03,0.01-0.47,0.41-0.47,0.41l-0.27,0.24
			C319.21,34.16,317.52,35.7,316,35.59 M325.07,28.67c-0.51,0.45-1.51,1.41-2.47,2.34l-1.12,1.06c-0.89-0.17-1.78-0.24-2.69-0.24
			c-2.04,0-3.9,0.56-4.75,1.44c-0.33,0.33-0.49,0.69-0.48,1.07c0.02,0.98,1.15,1.48,1.49,1.61c1.8,0.67,3.32,0.48,4.92-0.64
			c0.88-0.61,1.93-1.61,2.76-2.4c0.64,0.15,1.37,0.34,2.16,0.58l0.72,0.2c-0.95,0.93-1.91,1.9-2.8,2.68l-0.07,0.06
			c-1.24,1.09-2.14,1.89-3.43,2.18c-0.92,0.2-1.57,0.01-1.78-0.12c-0.02,0-0.05,0.04-0.05,0.04c0.76,0.62,1.46,0.97,2.68,0.87
			c1.17-0.1,2.52-0.84,3.89-2.13l1.86-1.82l1.31-1.3c0,0.01,2.63,0.77,2.63,0.77c0.02,0.01,0.05,0.02,0.05,0.02
			c-0.03,0-1.63,1.58-1.63,1.58l-1.4,1.39c-1.44,1.39-2.21,2.11-3.05,2.71c-1.38,0.97-2.56,1.49-3.61,1.56
			c-0.55,0.03-1.32-0.01-1.96-0.38c-0.04-0.01-0.07,0.03-0.07,0.03c0.7,0.61,1.57,1.33,3.06,1.29c1.68-0.05,3.18-0.86,5.51-2.99
			c1.06-0.98,2.11-2.07,3.04-3.02l1.73-1.76c1.15,0.25,2.15,0.36,3.28,0.34c1.63-0.04,3.03-0.82,3.05-1.72
			c0.02-0.66-0.54-1.02-0.86-1.23c-0.27-0.18-1-0.59-2.01-0.59c-1.23,0-2.51,0.55-3.81,1.61l-0.86,0.77c0.01,0-0.32-0.09-0.32-0.09
			l-2.4-0.68c0.71-0.66,1.31-1.23,1.86-1.7c1.31-1.18,2.76-1.66,3.62-1.72c0.62-0.03,1.71,0.02,2.15,0.33
			c0.02,0,0.05-0.04,0.05-0.04c-1.18-1.01-2.21-1.15-3.06-1.15c-0.83,0-2.17,0.26-3.79,1.53c-0.67,0.52-1.54,1.38-2.44,2.3
			c0,0-1.22-0.38-1.22-0.38l-0.29-0.1l-1.28-0.39c0.02,0,0.73-0.68,0.73-0.68c0.86-0.85,1.67-1.65,2.31-2.19
			c2.31-1.94,3.76-2.19,4.77-2.2c1.1,0,1.99,0.22,2.62,0.68c0.01,0,0.04-0.04,0.04-0.04c-1.3-1.17-2.23-1.55-3.83-1.56
			C328.4,26.44,326.72,27.23,325.07,28.67"/>
		<path fill="#2E2E2E" d="M335.42,17.46c0.08,0.05,0.21,0.14,0.27,0.03c0.04-0.07-0.04-0.13-0.12-0.17l-0.18-0.09l-0.09,0.17
			L335.42,17.46z M335.5,18.03l-0.11-0.06l-0.02-0.41l-0.11-0.06l-0.16,0.3l-0.08-0.06l0.35-0.66l0.29,0.16
			c0.12,0.07,0.22,0.16,0.14,0.31c-0.08,0.13-0.19,0.13-0.3,0.07L335.5,18.03z M335.92,17.83c0.15-0.28,0.04-0.64-0.23-0.79
			c-0.28-0.16-0.65-0.06-0.79,0.23c-0.16,0.29-0.04,0.64,0.23,0.79C335.39,18.2,335.76,18.11,335.92,17.83 M334.77,17.27
			c0.15-0.34,0.55-0.51,0.9-0.35c0.35,0.15,0.51,0.54,0.36,0.9c-0.15,0.35-0.55,0.51-0.9,0.36
			C334.78,18.02,334.63,17.63,334.77,17.27"/>
	</g>
</g>
<g>
</g>
<g>
</g>
<g>
</g>
<g>
</g>
<g>
</g>
<g>
</g>
<g>
</g>
<g>
</g>
<g>
</g>
<g>
</g>
<g>
</g>
<g>
</g>
<g>
</g>
<g>
</g>
<g>
</g>
</svg>
