<?xml version="1.0" encoding="utf-8"?>
<!-- Generator: Adobe Illustrator 23.0.0, SVG Export Plug-In . SVG Version: 6.00 Build 0)  -->
<svg version="1.1" id="Capa_1" xmlns="http://www.w3.org/2000/svg" xmlns:xlink="http://www.w3.org/1999/xlink" x="0px" y="0px"
	 viewBox="0 0 126.79 117.16" enable-background="new 0 0 126.79 117.16" xml:space="preserve">
<g>
	<g>
		<rect x="0.55" y="0.55" fill="#4D4D4D" stroke="#FFFFFF" stroke-width="1.1085" width="125.68" height="116.05"/>
		<rect x="0.55" y="18.87" fill="#FFFFFF" width="125.68" height="18.83"/>
	</g>
	<g>
		<path fill="#4D4D4D" d="M12.62,30.97H5.85l-1.17,2.56c-0.29,0.63-0.44,1.11-0.44,1.42c0,0.25,0.12,0.47,0.38,0.66
			c0.25,0.19,0.8,0.31,1.64,0.37v0.44H0.75v-0.44c0.73-0.12,1.2-0.28,1.42-0.47c0.44-0.39,0.92-1.17,1.45-2.35l6.14-13.39h0.46
			l6.07,13.54c0.49,1.09,0.93,1.8,1.33,2.12c0.4,0.33,0.95,0.51,1.67,0.55v0.44H12.4v-0.44c0.7-0.03,1.17-0.14,1.41-0.33
			c0.25-0.18,0.37-0.41,0.37-0.67c0-0.35-0.17-0.91-0.51-1.67L12.62,30.97z M12.22,30.08L9.29,23.5l-3.03,6.58H12.22z"/>
		<path fill="#4D4D4D" d="M34.74,20.13L23.27,35.42h7.14c1.09,0,1.93-0.22,2.52-0.67c0.59-0.45,1.11-1.36,1.56-2.73l0.43,0.07
			l-0.83,4.31H19.91v-0.45l11.18-14.86h-5.57c-0.92,0-1.6,0.09-2.01,0.28c-0.41,0.19-0.73,0.46-0.95,0.81
			c-0.22,0.36-0.42,1.03-0.6,2h-0.49l0.35-4.07H34.74z"/>
		<path fill="#4D4D4D" d="M50.83,20.13L39.36,35.42h7.14c1.1,0,1.94-0.22,2.52-0.67c0.59-0.45,1.11-1.36,1.56-2.73l0.43,0.07
			l-0.83,4.31H36v-0.45l11.19-14.86h-5.58c-0.92,0-1.59,0.09-2.01,0.28c-0.41,0.19-0.73,0.46-0.95,0.81c-0.22,0.36-0.41,1.03-0.6,2
			h-0.49l0.35-4.07H50.83z"/>
		<path fill="#4D4D4D" d="M64.32,20.57v-0.44h6.17v0.44h-0.66c-0.68,0-1.21,0.27-1.58,0.81c-0.18,0.25-0.27,0.83-0.27,1.73v6.6
			c0,1.63-0.17,2.9-0.52,3.8c-0.35,0.9-1.03,1.67-2.05,2.31c-1.02,0.64-2.4,0.97-4.16,0.97c-1.9,0-3.35-0.31-4.33-0.92
			c-0.99-0.62-1.69-1.44-2.1-2.48c-0.27-0.71-0.41-2.05-0.41-4.01v-6.36c0-1-0.15-1.66-0.45-1.97c-0.3-0.31-0.77-0.47-1.43-0.47
			h-0.66v-0.44h7.54v0.44h-0.67c-0.72,0-1.23,0.21-1.54,0.64c-0.22,0.29-0.32,0.89-0.32,1.8v7.09c0,0.63,0.06,1.36,0.18,2.17
			c0.13,0.82,0.35,1.45,0.68,1.91c0.33,0.46,0.79,0.83,1.41,1.13c0.61,0.3,1.37,0.45,2.25,0.45c1.14,0,2.16-0.23,3.06-0.7
			c0.9-0.46,1.52-1.06,1.84-1.78c0.33-0.72,0.5-1.95,0.5-3.67v-6.59c0-1.02-0.12-1.66-0.36-1.91c-0.33-0.35-0.83-0.53-1.49-0.53
			H64.32z"/>
		<path fill="#4D4D4D" d="M88.59,36.41h-4.66L78,28.8c-0.43,0.01-0.78,0.02-1.05,0.02c-0.11,0-0.23,0-0.35-0.01
			c-0.13,0-0.26-0.01-0.39-0.02v4.73c0,1.03,0.12,1.66,0.35,1.91c0.33,0.35,0.81,0.53,1.46,0.53h0.68v0.44h-7.48v-0.44h0.65
			c0.73,0,1.27-0.23,1.58-0.68c0.18-0.25,0.27-0.84,0.27-1.77V23.01c0-1.02-0.12-1.66-0.36-1.91c-0.34-0.35-0.83-0.53-1.49-0.53
			h-0.65v-0.44h6.35c1.85,0,3.22,0.13,4.09,0.38c0.88,0.25,1.62,0.72,2.24,1.39c0.61,0.68,0.92,1.48,0.92,2.42
			c0,1-0.35,1.87-1.05,2.61c-0.7,0.74-1.78,1.26-3.24,1.56l3.61,4.66c0.82,1.08,1.53,1.79,2.12,2.15c0.59,0.35,1.36,0.58,2.31,0.68
			V36.41z M76.21,28.05c0.15,0,0.29,0,0.41,0.01c0.12,0,0.21,0.01,0.29,0.01c1.64,0,2.88-0.34,3.72-1.01
			c0.84-0.67,1.25-1.53,1.25-2.57c0-1.02-0.34-1.84-1.01-2.48c-0.68-0.64-1.57-0.96-2.68-0.96c-0.49,0-1.16,0.08-1.99,0.24V28.05z"
			/>
		<path fill="#4D4D4D" d="M106.16,36.41h-4.67l-5.92-7.61c-0.43,0.01-0.78,0.02-1.05,0.02c-0.11,0-0.23,0-0.35-0.01
			c-0.13,0-0.26-0.01-0.4-0.02v4.73c0,1.03,0.12,1.66,0.37,1.91c0.33,0.35,0.81,0.53,1.46,0.53h0.68v0.44H88.8v-0.44h0.65
			c0.74,0,1.26-0.23,1.58-0.68c0.18-0.25,0.27-0.84,0.27-1.77V23.01c0-1.02-0.12-1.66-0.36-1.91c-0.33-0.35-0.83-0.53-1.49-0.53
			H88.8v-0.44h6.35c1.85,0,3.22,0.13,4.1,0.38c0.88,0.25,1.62,0.72,2.24,1.39c0.61,0.68,0.91,1.48,0.91,2.42
			c0,1-0.34,1.87-1.05,2.61c-0.7,0.74-1.77,1.26-3.24,1.56l3.62,4.66c0.82,1.08,1.53,1.79,2.12,2.15c0.6,0.35,1.37,0.58,2.32,0.68
			V36.41z M93.77,28.05c0.17,0,0.31,0,0.42,0.01c0.12,0,0.21,0.01,0.29,0.01c1.64,0,2.88-0.34,3.72-1.01
			c0.83-0.67,1.25-1.53,1.25-2.57c0-1.02-0.34-1.84-1.01-2.48c-0.68-0.64-1.57-0.96-2.68-0.96c-0.49,0-1.16,0.08-2,0.24V28.05z"/>
		<path fill="#4D4D4D" d="M117.98,30.97h-6.77l-1.18,2.56c-0.29,0.63-0.44,1.11-0.44,1.42c0,0.25,0.13,0.47,0.38,0.66
			c0.26,0.19,0.8,0.31,1.64,0.37v0.44h-5.51v-0.44c0.73-0.12,1.2-0.28,1.41-0.47c0.44-0.39,0.92-1.17,1.45-2.35l6.14-13.39h0.47
			l6.07,13.54c0.49,1.09,0.93,1.8,1.33,2.12c0.4,0.33,0.96,0.51,1.67,0.55v0.44h-6.89v-0.44c0.7-0.03,1.16-0.14,1.41-0.33
			c0.25-0.18,0.37-0.41,0.37-0.67c0-0.35-0.17-0.91-0.51-1.67L117.98,30.97z M117.59,30.08l-2.94-6.58l-3.03,6.58H117.59z"/>
	</g>
	<g>
		<path fill="#E7E7E7" d="M45.29,51.63c-0.51,0-0.9-0.16-1.19-0.47c-0.29-0.31-0.43-0.74-0.43-1.27c0-0.23,0.04-0.45,0.11-0.65
			c0.07-0.2,0.19-0.38,0.34-0.54c0.14-0.16,0.31-0.29,0.53-0.38c0.21-0.1,0.45-0.15,0.69-0.15c0.34,0,0.63,0.08,0.85,0.23
			c0.21,0.15,0.32,0.36,0.32,0.63c0,0.11-0.03,0.21-0.09,0.3c-0.06,0.08-0.15,0.13-0.28,0.13c-0.14,0-0.25-0.03-0.33-0.1
			c-0.07-0.07-0.11-0.14-0.11-0.22c0-0.1,0.01-0.2,0.04-0.31c0.03-0.11,0.05-0.18,0.05-0.23c-0.04-0.07-0.11-0.11-0.19-0.14
			c-0.08-0.02-0.17-0.03-0.27-0.03c-0.11,0-0.23,0.02-0.33,0.07c-0.1,0.04-0.2,0.13-0.3,0.25c-0.09,0.11-0.16,0.26-0.21,0.45
			c-0.06,0.19-0.08,0.41-0.08,0.68c0,0.41,0.1,0.75,0.29,1.01c0.19,0.26,0.45,0.39,0.76,0.39c0.23,0,0.43-0.05,0.58-0.15
			c0.16-0.1,0.3-0.26,0.43-0.47l0.23,0.15c-0.15,0.26-0.36,0.47-0.62,0.62C45.83,51.56,45.57,51.63,45.29,51.63z"/>
		<path fill="#E7E7E7" d="M53.33,49.87c0,0.23-0.04,0.46-0.12,0.68c-0.08,0.22-0.19,0.41-0.33,0.57c-0.16,0.18-0.35,0.31-0.57,0.4
			c-0.21,0.09-0.46,0.13-0.73,0.13c-0.22,0-0.43-0.04-0.64-0.12c-0.2-0.08-0.38-0.19-0.54-0.34c-0.15-0.15-0.28-0.33-0.37-0.55
			c-0.09-0.21-0.14-0.45-0.14-0.72c0-0.51,0.16-0.93,0.48-1.26c0.32-0.33,0.74-0.49,1.26-0.49c0.49,0,0.9,0.15,1.22,0.47
			C53.17,48.95,53.33,49.36,53.33,49.87z M52.6,49.88c0-0.17-0.02-0.34-0.05-0.53c-0.04-0.19-0.09-0.34-0.16-0.47
			c-0.07-0.14-0.18-0.25-0.3-0.33c-0.13-0.08-0.28-0.12-0.46-0.12c-0.18,0-0.34,0.04-0.47,0.13c-0.13,0.09-0.23,0.2-0.31,0.35
			c-0.08,0.13-0.13,0.29-0.17,0.46c-0.03,0.17-0.04,0.34-0.04,0.5c0,0.21,0.01,0.41,0.05,0.59c0.04,0.18,0.1,0.34,0.18,0.48
			c0.08,0.14,0.18,0.25,0.31,0.33c0.12,0.08,0.27,0.13,0.45,0.13c0.3,0,0.53-0.14,0.71-0.41C52.51,50.72,52.6,50.35,52.6,49.88z"/>
		<path fill="#E7E7E7" d="M60.64,51.55h-1.72v-0.22c0.05,0,0.12-0.01,0.18-0.01c0.07-0.01,0.12-0.01,0.16-0.03
			c0.07-0.02,0.12-0.06,0.15-0.1c0.03-0.05,0.04-0.12,0.04-0.2V49.3c0-0.23-0.06-0.41-0.17-0.54c-0.12-0.13-0.26-0.19-0.43-0.19
			c-0.13,0-0.24,0.02-0.35,0.05c-0.11,0.04-0.19,0.08-0.28,0.13c-0.08,0.05-0.14,0.11-0.19,0.17c-0.05,0.06-0.08,0.11-0.1,0.14v1.89
			c0,0.07,0.02,0.14,0.05,0.19c0.03,0.05,0.08,0.08,0.15,0.11c0.05,0.02,0.1,0.04,0.16,0.05c0.05,0.01,0.12,0.02,0.18,0.02v0.22
			h-1.72v-0.22c0.05,0,0.11-0.01,0.17-0.01c0.06-0.01,0.1-0.01,0.15-0.03c0.06-0.02,0.11-0.06,0.14-0.1
			c0.03-0.05,0.05-0.12,0.05-0.2v-2.02c0-0.07-0.02-0.14-0.05-0.21c-0.03-0.07-0.09-0.11-0.14-0.15c-0.05-0.03-0.1-0.05-0.16-0.06
			c-0.06-0.01-0.13-0.02-0.2-0.03V48.3l1.16-0.07l0.05,0.05v0.46h0.02c0.06-0.06,0.13-0.12,0.21-0.19c0.09-0.07,0.17-0.13,0.25-0.18
			c0.09-0.05,0.19-0.1,0.31-0.13c0.13-0.04,0.26-0.06,0.41-0.06c0.34,0,0.59,0.1,0.75,0.3c0.17,0.2,0.25,0.46,0.25,0.78v1.71
			c0,0.08,0.01,0.14,0.04,0.19c0.03,0.05,0.08,0.08,0.15,0.11c0.06,0.02,0.11,0.04,0.15,0.05c0.04,0.01,0.1,0.02,0.17,0.02V51.55z"
			/>
		<path fill="#E7E7E7" d="M66.31,49.94c0.09,0.08,0.17,0.17,0.22,0.27c0.05,0.11,0.08,0.23,0.08,0.38c0,0.3-0.12,0.55-0.36,0.75
			c-0.24,0.19-0.56,0.29-0.95,0.29c-0.2,0-0.39-0.03-0.56-0.1c-0.17-0.07-0.29-0.13-0.37-0.19l-0.07,0.21h-0.27L64,50.42h0.25
			c0.02,0.08,0.06,0.19,0.12,0.3c0.06,0.12,0.14,0.22,0.23,0.31c0.09,0.1,0.2,0.18,0.33,0.25c0.13,0.07,0.27,0.1,0.43,0.1
			c0.23,0,0.41-0.05,0.53-0.15c0.13-0.1,0.18-0.24,0.18-0.42c0-0.09-0.01-0.17-0.05-0.24c-0.04-0.07-0.1-0.13-0.17-0.18
			c-0.08-0.05-0.17-0.1-0.29-0.14c-0.11-0.04-0.24-0.08-0.38-0.12c-0.11-0.03-0.24-0.07-0.37-0.13c-0.13-0.05-0.25-0.12-0.35-0.19
			c-0.1-0.08-0.19-0.17-0.25-0.29c-0.07-0.11-0.1-0.25-0.1-0.4c0-0.27,0.11-0.49,0.32-0.68c0.21-0.19,0.5-0.28,0.86-0.28
			c0.14,0,0.28,0.02,0.42,0.05c0.15,0.03,0.27,0.07,0.35,0.12l0.09-0.17h0.26l0.05,1.06h-0.24c-0.05-0.24-0.16-0.43-0.32-0.58
			c-0.17-0.15-0.37-0.22-0.61-0.22c-0.19,0-0.35,0.04-0.46,0.14c-0.11,0.09-0.17,0.2-0.17,0.33c0,0.1,0.02,0.18,0.05,0.25
			c0.04,0.07,0.1,0.12,0.17,0.17c0.07,0.05,0.16,0.09,0.27,0.13c0.1,0.04,0.24,0.08,0.4,0.13c0.16,0.05,0.3,0.1,0.44,0.17
			C66.1,49.8,66.22,49.86,66.31,49.94z"/>
		<path fill="#E7E7E7" d="M72.24,51.4c-0.16,0.06-0.31,0.11-0.44,0.15c-0.14,0.04-0.31,0.06-0.51,0.06c-0.29,0-0.5-0.07-0.62-0.21
			c-0.12-0.14-0.18-0.33-0.18-0.59V48.6h-0.63v-0.32h0.65v-1.02h0.65v1.02h1.01v0.32h-1v1.83c0,0.14,0,0.25,0.02,0.35
			c0.01,0.09,0.03,0.17,0.07,0.24c0.04,0.07,0.1,0.12,0.17,0.15c0.07,0.03,0.18,0.05,0.31,0.05c0.06,0,0.15-0.01,0.27-0.01
			c0.11-0.01,0.19-0.03,0.24-0.04V51.4z"/>
		<path fill="#E7E7E7" d="M78.19,48.69c0,0.11-0.03,0.21-0.09,0.3c-0.06,0.09-0.15,0.13-0.28,0.13c-0.13,0-0.23-0.04-0.3-0.1
			c-0.07-0.06-0.11-0.13-0.11-0.21c0-0.05,0.01-0.09,0.01-0.13c0.01-0.04,0.02-0.08,0.02-0.12c-0.11,0-0.24,0.04-0.39,0.12
			c-0.15,0.09-0.27,0.21-0.38,0.36v1.91c0,0.08,0.01,0.14,0.04,0.19c0.03,0.05,0.09,0.09,0.15,0.11c0.07,0.02,0.14,0.04,0.23,0.05
			c0.09,0.01,0.17,0.02,0.24,0.02v0.22h-1.85v-0.22c0.05,0,0.11-0.01,0.17-0.01c0.06-0.01,0.11-0.01,0.15-0.03
			c0.07-0.02,0.12-0.06,0.15-0.1c0.03-0.05,0.05-0.12,0.05-0.2v-2.02c0-0.07-0.02-0.14-0.05-0.2c-0.03-0.07-0.09-0.12-0.15-0.16
			c-0.05-0.03-0.1-0.05-0.16-0.06c-0.06-0.01-0.13-0.02-0.2-0.03V48.3l1.17-0.07l0.05,0.05v0.46h0.02c0.15-0.18,0.31-0.32,0.49-0.41
			c0.18-0.09,0.34-0.14,0.49-0.14c0.15,0,0.27,0.05,0.37,0.14C78.15,48.42,78.19,48.54,78.19,48.69z"/>
		<path fill="#E7E7E7" d="M85.18,51.49l-1.15,0.07l-0.05-0.04V51.1h-0.02c-0.06,0.06-0.13,0.12-0.19,0.18
			c-0.07,0.07-0.15,0.12-0.25,0.17c-0.11,0.06-0.21,0.11-0.31,0.14c-0.1,0.03-0.24,0.05-0.43,0.05c-0.31,0-0.55-0.1-0.71-0.28
			c-0.17-0.19-0.24-0.46-0.24-0.83v-1.57c0-0.08-0.02-0.15-0.05-0.2c-0.03-0.05-0.08-0.1-0.14-0.14c-0.04-0.03-0.09-0.05-0.16-0.06
			c-0.06-0.01-0.13-0.02-0.21-0.03v-0.22l1.17-0.08l0.05,0.05v2.28c0,0.24,0.06,0.42,0.17,0.54c0.11,0.12,0.25,0.18,0.41,0.18
			c0.13,0,0.25-0.02,0.35-0.06c0.11-0.04,0.19-0.08,0.26-0.13c0.07-0.05,0.12-0.09,0.17-0.15c0.05-0.05,0.09-0.1,0.11-0.15v-1.86
			c0-0.07-0.01-0.14-0.05-0.19c-0.03-0.06-0.08-0.11-0.14-0.15c-0.04-0.02-0.11-0.04-0.19-0.04c-0.09-0.01-0.18-0.01-0.29-0.02
			v-0.22l1.28-0.08l0.06,0.05v2.61c0,0.07,0.01,0.14,0.05,0.19c0.03,0.05,0.08,0.1,0.14,0.14c0.04,0.03,0.1,0.04,0.15,0.05
			c0.06,0.01,0.12,0.01,0.19,0.01V51.49z"/>
		<path fill="#E7E7E7" d="M90.16,51.63c-0.51,0-0.9-0.16-1.19-0.47c-0.29-0.31-0.43-0.74-0.43-1.27c0-0.23,0.04-0.45,0.11-0.65
			c0.08-0.2,0.19-0.38,0.34-0.54c0.14-0.16,0.32-0.29,0.53-0.38c0.21-0.1,0.44-0.15,0.69-0.15c0.34,0,0.62,0.08,0.84,0.23
			c0.21,0.15,0.33,0.36,0.33,0.63c0,0.11-0.03,0.21-0.09,0.3c-0.05,0.08-0.15,0.13-0.28,0.13c-0.14,0-0.25-0.03-0.33-0.1
			c-0.07-0.07-0.12-0.14-0.12-0.22c0-0.1,0.01-0.2,0.04-0.31c0.03-0.11,0.05-0.18,0.05-0.23c-0.04-0.07-0.11-0.11-0.19-0.14
			c-0.08-0.02-0.17-0.03-0.27-0.03c-0.11,0-0.23,0.02-0.32,0.07c-0.1,0.04-0.21,0.13-0.3,0.25c-0.09,0.11-0.16,0.26-0.21,0.45
			c-0.05,0.19-0.08,0.41-0.08,0.68c0,0.41,0.1,0.75,0.29,1.01c0.19,0.26,0.45,0.39,0.77,0.39c0.23,0,0.42-0.05,0.57-0.15
			c0.16-0.1,0.3-0.26,0.43-0.47l0.23,0.15c-0.16,0.26-0.36,0.47-0.61,0.62C90.7,51.56,90.44,51.63,90.16,51.63z"/>
		<path fill="#E7E7E7" d="M96.95,51.4c-0.16,0.06-0.31,0.11-0.44,0.15c-0.14,0.04-0.31,0.06-0.51,0.06c-0.29,0-0.5-0.07-0.62-0.21
			c-0.12-0.14-0.18-0.33-0.18-0.59V48.6h-0.64v-0.32h0.65v-1.02h0.65v1.02h1.01v0.32h-1v1.83c0,0.14,0.01,0.25,0.01,0.35
			c0.01,0.09,0.04,0.17,0.08,0.24c0.04,0.07,0.09,0.12,0.17,0.15c0.07,0.03,0.18,0.05,0.31,0.05c0.06,0,0.15-0.01,0.27-0.01
			c0.11-0.01,0.19-0.03,0.25-0.04V51.4z"/>
		<path fill="#E7E7E7" d="M103.64,49.87c0,0.23-0.04,0.46-0.12,0.68c-0.08,0.22-0.19,0.41-0.33,0.57c-0.17,0.18-0.36,0.31-0.57,0.4
			c-0.22,0.09-0.46,0.13-0.73,0.13c-0.22,0-0.43-0.04-0.64-0.12c-0.2-0.08-0.39-0.19-0.54-0.34c-0.16-0.15-0.27-0.33-0.37-0.55
			c-0.09-0.21-0.13-0.45-0.13-0.72c0-0.51,0.16-0.93,0.48-1.26c0.32-0.33,0.74-0.49,1.26-0.49c0.49,0,0.9,0.15,1.22,0.47
			C103.49,48.95,103.64,49.36,103.64,49.87z M102.91,49.88c0-0.17-0.03-0.34-0.06-0.53c-0.03-0.19-0.08-0.34-0.16-0.47
			c-0.08-0.14-0.17-0.25-0.3-0.33c-0.12-0.08-0.27-0.12-0.45-0.12c-0.19,0-0.34,0.04-0.47,0.13c-0.13,0.09-0.23,0.2-0.32,0.35
			c-0.07,0.13-0.12,0.29-0.15,0.46c-0.03,0.17-0.05,0.34-0.05,0.5c0,0.21,0.02,0.41,0.05,0.59c0.04,0.18,0.1,0.34,0.18,0.48
			c0.08,0.14,0.18,0.25,0.31,0.33c0.12,0.08,0.27,0.13,0.45,0.13c0.3,0,0.53-0.14,0.71-0.41C102.82,50.72,102.91,50.35,102.91,49.88
			z"/>
		<path fill="#E7E7E7" d="M109.76,48.69c0,0.11-0.03,0.21-0.09,0.3c-0.06,0.09-0.15,0.13-0.27,0.13c-0.13,0-0.24-0.04-0.31-0.1
			c-0.07-0.06-0.11-0.13-0.11-0.21c0-0.05,0.01-0.09,0.01-0.13c0.01-0.04,0.01-0.08,0.02-0.12c-0.11,0-0.24,0.04-0.39,0.12
			c-0.15,0.09-0.28,0.21-0.38,0.36v1.91c0,0.08,0.01,0.14,0.05,0.19c0.03,0.05,0.09,0.09,0.15,0.11c0.06,0.02,0.14,0.04,0.23,0.05
			c0.09,0.01,0.17,0.02,0.24,0.02v0.22h-1.85v-0.22c0.05,0,0.11-0.01,0.17-0.01c0.06-0.01,0.11-0.01,0.15-0.03
			c0.07-0.02,0.11-0.06,0.15-0.1c0.03-0.05,0.05-0.12,0.05-0.2v-2.02c0-0.07-0.02-0.14-0.05-0.2c-0.03-0.07-0.08-0.12-0.15-0.16
			c-0.05-0.03-0.1-0.05-0.16-0.06c-0.07-0.01-0.13-0.02-0.2-0.03V48.3l1.17-0.07l0.05,0.05v0.46h0.02c0.15-0.18,0.31-0.32,0.49-0.41
			c0.18-0.09,0.35-0.14,0.49-0.14c0.15,0,0.27,0.05,0.37,0.14C109.71,48.42,109.76,48.54,109.76,48.69z"/>
		<path fill="#E7E7E7" d="M116.1,50.77c-0.15,0.26-0.35,0.47-0.59,0.63c-0.25,0.16-0.53,0.23-0.85,0.23c-0.28,0-0.53-0.05-0.74-0.14
			c-0.21-0.09-0.39-0.22-0.53-0.38c-0.13-0.16-0.24-0.35-0.31-0.56c-0.07-0.21-0.1-0.44-0.1-0.67c0-0.21,0.03-0.42,0.1-0.63
			c0.08-0.21,0.18-0.39,0.32-0.55c0.14-0.16,0.31-0.29,0.51-0.38c0.2-0.1,0.42-0.15,0.67-0.15c0.26,0,0.47,0.04,0.65,0.11
			c0.19,0.07,0.34,0.18,0.45,0.31c0.11,0.12,0.19,0.27,0.24,0.44c0.06,0.17,0.09,0.35,0.09,0.55v0.22h-2.32
			c0,0.21,0.02,0.41,0.07,0.59c0.04,0.18,0.11,0.33,0.21,0.46c0.09,0.13,0.21,0.23,0.36,0.31c0.15,0.07,0.33,0.11,0.53,0.11
			c0.21,0,0.39-0.04,0.55-0.13c0.15-0.09,0.3-0.26,0.45-0.5L116.1,50.77z M115.32,49.52c0-0.12-0.01-0.26-0.04-0.4
			c-0.03-0.14-0.06-0.26-0.11-0.35c-0.06-0.1-0.13-0.19-0.23-0.25c-0.09-0.06-0.21-0.1-0.37-0.1c-0.25,0-0.45,0.1-0.62,0.29
			c-0.16,0.19-0.26,0.46-0.27,0.81H115.32z"/>
		<path fill="#E7E7E7" d="M121.75,49.94c0.1,0.08,0.17,0.17,0.22,0.27c0.06,0.11,0.08,0.23,0.08,0.38c0,0.3-0.12,0.55-0.36,0.75
			c-0.24,0.19-0.56,0.29-0.94,0.29c-0.21,0-0.39-0.03-0.57-0.1c-0.17-0.07-0.29-0.13-0.37-0.19l-0.07,0.21h-0.26l-0.04-1.14h0.25
			c0.02,0.08,0.06,0.19,0.12,0.3c0.06,0.12,0.14,0.22,0.23,0.31c0.1,0.1,0.21,0.18,0.33,0.25c0.13,0.07,0.28,0.1,0.44,0.1
			c0.23,0,0.4-0.05,0.53-0.15c0.13-0.1,0.18-0.24,0.18-0.42c0-0.09-0.02-0.17-0.06-0.24c-0.04-0.07-0.1-0.13-0.17-0.18
			c-0.08-0.05-0.17-0.1-0.29-0.14c-0.11-0.04-0.24-0.08-0.38-0.12c-0.11-0.03-0.24-0.07-0.38-0.13c-0.13-0.05-0.25-0.12-0.35-0.19
			c-0.1-0.08-0.19-0.17-0.25-0.29c-0.07-0.11-0.1-0.25-0.1-0.4c0-0.27,0.11-0.49,0.32-0.68c0.21-0.19,0.5-0.28,0.86-0.28
			c0.14,0,0.28,0.02,0.42,0.05c0.15,0.03,0.26,0.07,0.35,0.12l0.08-0.17h0.26l0.05,1.06h-0.24c-0.05-0.24-0.16-0.43-0.33-0.58
			c-0.17-0.15-0.37-0.22-0.6-0.22c-0.2,0-0.35,0.04-0.47,0.14c-0.11,0.09-0.16,0.2-0.16,0.33c0,0.1,0.01,0.18,0.05,0.25
			c0.04,0.07,0.1,0.12,0.17,0.17c0.07,0.05,0.16,0.09,0.27,0.13c0.1,0.04,0.23,0.08,0.4,0.13c0.16,0.05,0.3,0.1,0.45,0.17
			C121.54,49.8,121.66,49.86,121.75,49.94z"/>
	</g>
</g>
<g>
</g>
<g>
</g>
<g>
</g>
<g>
</g>
<g>
</g>
<g>
</g>
<g>
</g>
<g>
</g>
<g>
</g>
<g>
</g>
<g>
</g>
<g>
</g>
<g>
</g>
<g>
</g>
<g>
</g>
</svg>
