<?xml version="1.0" encoding="utf-8"?>
<!-- Generator: Adobe Illustrator 23.0.0, SVG Export Plug-In . SVG Version: 6.00 Build 0)  -->
<svg version="1.1" id="Capa_1" xmlns="http://www.w3.org/2000/svg" xmlns:xlink="http://www.w3.org/1999/xlink" x="0px" y="0px"
	 viewBox="0 0 240.65 52.78" style="enable-background:new 0 0 240.65 52.78;" xml:space="preserve">
<style type="text/css">
	.st0{fill:#8E8E8E;}
</style>
<g>
	<path class="st0" d="M235.66,5.2c-1.45-1.43-3.43-2.22-5.48-2.18c-4.45,0-7.69,3.21-7.69,7.6c0,4.4,3.22,7.61,7.69,7.61
		c2.06,0.04,4.04-0.75,5.48-2.18c1.45-1.44,2.25-3.39,2.21-5.43C237.91,8.6,237.11,6.64,235.66,5.2 M230.15,19.96
		c-4.7,0-9.45-3.21-9.45-9.34c0-6.13,4.76-9.34,9.45-9.34c4.69,0,9.45,3.21,9.45,9.34C239.6,16.75,234.85,19.96,230.15,19.96
		 M232.39,8.35c0,1.01-0.59,1.52-1.77,1.52h-2.39V6.83h2.39C231.8,6.83,232.39,7.34,232.39,8.35 M234.41,8.45
		c0-2.11-1.06-2.96-3.65-2.96h-3.46c-0.25-0.01-0.49,0.08-0.67,0.25c-0.18,0.17-0.27,0.42-0.25,0.67v8.26
		c-0.03,0.25,0.06,0.5,0.24,0.68c0.18,0.18,0.43,0.28,0.68,0.26c0.26,0.03,0.52-0.07,0.69-0.25c0.18-0.18,0.27-0.43,0.24-0.69v-3.44
		h1.16l2.6,3.65c0.43,0.62,0.76,0.74,1.17,0.74v0.01c0.41,0.04,0.79-0.24,0.87-0.65c0.01-0.32-0.09-0.64-0.29-0.9l-2.13-2.8
		l0.55-0.04C233.28,11.15,234.41,10.26,234.41,8.45"/>
	<path class="st0" d="M40.34,14.66L40.34,14.66L40.34,14.66L40.34,14.66 M30.88,35.67c0,5.58-4.9,6.47-9.27,6.47h-9.39V29.07h8.03
		C25.7,29.07,30.88,29.81,30.88,35.67L30.88,35.67z M29.18,16.15L29.18,16.15c-0.01,3.83-2.52,5.92-7.77,5.92h-9.19V10.22h8.85
		C25.22,10.22,29.17,11.5,29.18,16.15L29.18,16.15L29.18,16.15z M40.34,14.66C40.33,3.96,30.59,2.15,22.43,2.15H7.59
		c-3.95,0-6.54,1.54-6.54,6.46v35.54c0,4.92,2.56,6.47,6.54,6.47H24c9.67,0,18.04-4.17,18.04-14.34c0-6.66-3.4-10.3-8.57-11.67
		v-0.14C37.63,22.99,40.39,19.05,40.34,14.66"/>
	<path class="st0" d="M90.69,32.99c0,5.99-2.52,11.24-8.44,11.24c-5.92,0-8.44-5.26-8.44-11.24c0-6.39,2.66-11.16,8.44-11.16
		C88.03,21.84,90.69,26.62,90.69,32.99 M100.63,32.99c0-10.37-6.4-18.45-18.39-18.45c-11.99,0-18.39,8.08-18.39,18.45
		c0,9.83,4.84,18.51,18.39,18.51C95.79,51.51,100.63,42.82,100.63,32.99"/>
	<path class="st0" d="M171.23,25.79c0,9.29-3.47,17.1-13.62,17.1c-10.49,0-13.61-7.81-13.61-17.1c0-9.29,4.49-15.89,13.61-15.89
		C166.74,9.9,171.23,16.49,171.23,25.79 M182.4,25.79c0-14.2-8.72-24.78-24.79-24.78c-16.07,0-24.79,10.57-24.79,24.78
		c0,14.67,7.21,25.99,24.79,25.99C174.36,51.77,182.4,39.45,182.4,25.79"/>
	<path class="st0" d="M47.3,6.92h0.02c0-1.5,0.6-2.93,1.67-3.99c1.07-1.05,2.52-1.65,4.03-1.65c3.15,0.01,5.69,2.54,5.68,5.65
		c-0.01,3.11-2.56,5.63-5.71,5.62C49.85,12.55,47.3,10.03,47.3,6.92"/>
	<path class="st0" d="M48.04,45.96V21.34c0-2.63,1.09-4.91,4.97-4.91c3.88,0,4.97,2.29,4.97,4.91v24.63c0,2.63-1.09,4.91-4.97,4.91
		C49.12,50.88,48.04,48.59,48.04,45.96"/>
	<path class="st0" d="M111.49,27.38h11.23c3.07,0,5.52,1.21,5.52,4.65c0,3.43-2.44,4.65-5.52,4.65h-11.23
		c-3.06,0-5.51-1.22-5.51-4.65C105.98,28.6,108.42,27.38,111.49,27.38"/>
	<path class="st0" d="M187.92,6.92c0-1.5,0.6-2.93,1.67-3.99c1.07-1.05,2.52-1.65,4.03-1.65c3.15,0,5.7,2.53,5.7,5.64
		c0,3.11-2.55,5.64-5.7,5.64C190.47,12.56,187.92,10.03,187.92,6.92"/>
	<path class="st0" d="M188.62,45.96V21.34c0-2.63,1.09-4.91,4.97-4.91c3.88,0,4.97,2.29,4.97,4.91v24.63c0,2.63-1.09,4.91-4.97,4.91
		C189.71,50.88,188.62,48.59,188.62,45.96"/>
	<path class="st0" d="M215.42,45.96L215.42,45.96c0,3.23-1.98,4.92-4.97,4.92c-3,0-4.97-1.68-4.97-4.92V6.2
		c0-3.23,1.97-4.92,4.97-4.92c2.99,0,4.97,1.69,4.97,4.92V45.96z"/>
</g>
</svg>
