<?xml version="1.0" encoding="utf-8"?>
<!-- Generator: Adobe Illustrator 23.0.0, SVG Export Plug-In . SVG Version: 6.00 Build 0)  -->
<svg version="1.1" id="Capa_1" xmlns="http://www.w3.org/2000/svg" xmlns:xlink="http://www.w3.org/1999/xlink" x="0px" y="0px"
	 viewBox="0 0 251.85 92.15" enable-background="new 0 0 251.85 92.15" xml:space="preserve">
<g>
	<g>
		<g>
			<path fill="#414141" d="M92.79,79.34c-0.05,0.31-0.09,0.61-0.13,0.93l-0.06,0.47c-0.03,0.09-0.09,0.14-0.2,0.14l-0.35,0.1h-2.47
				c-0.3,0-0.6,0-0.9,0.01c-0.3,0.01-0.6,0.01-0.9,0.01c-0.54,0-1.08-0.01-1.62-0.02c-0.53-0.01-1.03-0.04-1.5-0.1
				c-0.13,0-0.19-0.06-0.19-0.17c0.01-0.11,0.07-0.16,0.21-0.16c0.25-0.01,0.44-0.07,0.59-0.16c0.15-0.09,0.26-0.22,0.34-0.37
				c0.08-0.16,0.13-0.33,0.16-0.54c0.03-0.2,0.04-0.41,0.04-0.63V68c0-0.17-0.02-0.31-0.06-0.41c-0.04-0.1-0.09-0.18-0.16-0.24
				c-0.07-0.06-0.15-0.1-0.23-0.13c-0.08-0.03-0.17-0.05-0.26-0.08c-0.14-0.03-0.28-0.06-0.41-0.12c-0.13-0.05-0.26-0.12-0.39-0.22
				c-0.1-0.05-0.14-0.12-0.1-0.19c0.04-0.08,0.11-0.12,0.21-0.12h7.48c0.08,0,0.19-0.05,0.35-0.14c0.09-0.03,0.17-0.02,0.24,0.01
				c0.07,0.03,0.1,0.08,0.09,0.15c-0.04,0.36-0.09,0.73-0.17,1.09c-0.07,0.36-0.15,0.71-0.22,1.05c-0.01,0.05-0.03,0.1-0.04,0.14
				c-0.01,0.04-0.03,0.09-0.04,0.16c-0.03,0.1-0.1,0.15-0.23,0.15s-0.2-0.05-0.21-0.15c-0.05-0.6-0.25-0.99-0.59-1.18
				c-0.34-0.19-0.78-0.28-1.31-0.28c-0.1,0-0.21,0-0.33,0c-0.12,0-0.23,0.01-0.35,0.02c-0.13,0.01-0.27,0.02-0.41,0.02
				c-0.13,0-0.27,0-0.41,0c-0.1,0-0.17,0.01-0.21,0.02c-0.03,0.01-0.1,0.01-0.2-0.02v5.2h2.86c0.06,0,0.16-0.02,0.29-0.07
				c0.13-0.05,0.26-0.1,0.39-0.16c0.14-0.06,0.27-0.12,0.38-0.17c0.11-0.04,0.2-0.07,0.26-0.09c0.08-0.01,0.15,0,0.21,0.04
				c0.06,0.04,0.09,0.09,0.08,0.16c-0.03,0.2-0.05,0.39-0.08,0.59c-0.03,0.2-0.05,0.4-0.08,0.59C92.09,74.1,92.04,74.6,92,75.1
				c0,0.08-0.05,0.13-0.14,0.16c-0.09,0.03-0.17,0.01-0.25-0.06c-0.08-0.08-0.14-0.17-0.18-0.27c-0.05-0.1-0.08-0.2-0.11-0.27
				c-0.04-0.12-0.08-0.23-0.11-0.35c-0.03-0.12-0.08-0.2-0.14-0.25c-0.08-0.08-0.24-0.14-0.49-0.18c-0.25-0.05-0.52-0.08-0.81-0.1
				c-0.29-0.02-0.58-0.03-0.87-0.03c-0.29,0-0.52,0-0.7,0h-0.33V79c0.23,0.4,0.58,0.69,1.04,0.87c0.46,0.17,0.9,0.26,1.33,0.26
				c0.56,0,1.04-0.15,1.45-0.45c0.41-0.3,0.68-0.74,0.83-1.32c0.01-0.05,0.04-0.08,0.1-0.1c0.05-0.01,0.1-0.02,0.16-0.01
				c0.05,0.01,0.1,0.03,0.15,0.06c0.05,0.03,0.06,0.07,0.05,0.13C92.89,78.73,92.83,79.03,92.79,79.34z"/>
			<path fill="#414141" d="M87.79,81.13c-0.55,0-1.09-0.01-1.62-0.02c-0.53-0.01-1.04-0.05-1.51-0.1h0c-0.09,0-0.18-0.03-0.23-0.09
				c-0.04-0.04-0.08-0.11-0.07-0.23c0.01-0.19,0.14-0.3,0.35-0.3c0.21-0.01,0.39-0.06,0.52-0.14c0.13-0.08,0.22-0.18,0.29-0.31
				c0.07-0.14,0.12-0.3,0.14-0.49c0.03-0.2,0.04-0.41,0.04-0.61V68c0-0.15-0.02-0.27-0.05-0.36c-0.03-0.08-0.07-0.14-0.12-0.18
				c-0.05-0.04-0.12-0.08-0.19-0.1l-0.04-0.01c-0.07-0.02-0.14-0.04-0.22-0.06c-0.14-0.03-0.29-0.07-0.42-0.12
				c-0.14-0.05-0.28-0.13-0.42-0.23c-0.07-0.04-0.14-0.1-0.16-0.17c-0.02-0.05-0.03-0.12,0.02-0.2c0.06-0.13,0.19-0.2,0.34-0.2h7.48
				c0.02,0,0.09-0.01,0.28-0.12c0.01-0.01,0.02-0.01,0.04-0.02c0.13-0.03,0.24-0.03,0.34,0.02c0.13,0.06,0.2,0.17,0.17,0.31
				c-0.04,0.36-0.09,0.73-0.17,1.09c-0.07,0.37-0.15,0.72-0.22,1.06c-0.02,0.06-0.03,0.11-0.04,0.15c-0.01,0.04-0.02,0.08-0.04,0.14
				c-0.04,0.17-0.18,0.27-0.37,0.27c-0.2,0-0.33-0.1-0.36-0.28c-0.05-0.55-0.22-0.91-0.52-1.07c-0.32-0.18-0.74-0.27-1.25-0.27
				h-0.33c-0.11,0-0.22,0.01-0.33,0.02c-0.14,0.01-0.28,0.02-0.42,0.02h-0.41c-0.12,0-0.15,0.01-0.15,0.01
				c-0.03,0.01-0.06,0.02-0.11,0.01v4.89h2.72c0.02,0,0.09-0.01,0.24-0.06c0.13-0.05,0.25-0.1,0.37-0.16
				c0.15-0.07,0.28-0.12,0.39-0.17c0.12-0.05,0.22-0.08,0.29-0.09c0.12-0.02,0.22,0,0.31,0.05c0.12,0.07,0.17,0.18,0.15,0.31
				l-0.15,1.18c-0.08,0.47-0.14,0.96-0.18,1.47c0,0.13-0.09,0.24-0.24,0.28c-0.13,0.04-0.27,0.01-0.38-0.09
				c-0.1-0.1-0.17-0.21-0.22-0.32c-0.05-0.11-0.08-0.2-0.11-0.29c-0.04-0.12-0.08-0.24-0.11-0.36c-0.02-0.09-0.06-0.15-0.1-0.18
				c-0.04-0.04-0.13-0.1-0.42-0.15c-0.24-0.04-0.51-0.08-0.79-0.1c-0.29-0.02-0.58-0.03-0.86-0.03h-0.89v5.07
				c0.22,0.36,0.53,0.61,0.95,0.77c1.02,0.39,1.97,0.33,2.65-0.17c0.38-0.28,0.64-0.69,0.77-1.24c0.02-0.1,0.1-0.18,0.2-0.2
				c0.07-0.02,0.14-0.02,0.21-0.01c0.07,0.01,0.14,0.04,0.21,0.08c0.09,0.07,0.13,0.17,0.1,0.28c-0.08,0.3-0.14,0.6-0.18,0.89
				c-0.04,0.3-0.09,0.61-0.13,0.92l-0.06,0.47c-0.05,0.17-0.16,0.25-0.32,0.26l-0.33,0.09c-0.01,0-0.03,0-0.04,0h-2.47
				c-0.3,0-0.59,0-0.89,0.01C88.39,81.12,88.09,81.13,87.79,81.13z M84.64,80.72c0.01,0,0.02,0,0.04,0c0.48,0.05,0.98,0.08,1.5,0.1
				c0.82,0.02,1.66,0.03,2.51,0.01c0.3-0.01,0.6-0.01,0.9-0.01h2.45l0.33-0.09c0.01,0,0.03,0,0.04,0c0.05,0,0.05-0.01,0.06-0.03
				l0.05-0.44c0.04-0.31,0.08-0.62,0.13-0.93c0.04-0.31,0.11-0.62,0.19-0.92c-0.02,0.01-0.05,0-0.07,0c-0.04-0.01-0.07,0-0.11,0
				c-0.14,0.61-0.44,1.08-0.87,1.4c-0.76,0.55-1.81,0.62-2.92,0.2c-0.49-0.19-0.87-0.5-1.12-0.93c-0.01-0.02-0.02-0.05-0.02-0.07
				v-5.26c0-0.08,0.06-0.14,0.14-0.14h1.03c0.29,0,0.58,0.01,0.88,0.03c0.3,0.02,0.57,0.05,0.82,0.1c0.28,0.05,0.46,0.12,0.56,0.22
				c0.08,0.06,0.14,0.17,0.18,0.32c0.03,0.11,0.07,0.23,0.11,0.34c0.02,0.07,0.06,0.16,0.1,0.26c0.04,0.09,0.09,0.16,0.15,0.23
				c0.04,0.03,0.08,0.03,0.11,0.02l0.04-0.02c0.04-0.53,0.1-1.03,0.18-1.51l0.16-1.18c-0.05-0.03-0.09-0.04-0.13-0.03
				c-0.03,0.01-0.11,0.03-0.23,0.08c-0.11,0.04-0.23,0.1-0.38,0.16c-0.13,0.06-0.26,0.12-0.4,0.17c-0.14,0.05-0.26,0.08-0.34,0.08
				h-2.86c-0.08,0-0.14-0.06-0.14-0.14v-5.2c0-0.04,0.02-0.09,0.05-0.11c0.04-0.03,0.08-0.04,0.12-0.03
				c0.1,0.02,0.12,0.02,0.13,0.02c0.02-0.01,0.08-0.03,0.24-0.03h0.41c0.14,0,0.27-0.01,0.4-0.02c0.12-0.01,0.24-0.02,0.36-0.02
				h0.33c0.55,0,1.02,0.1,1.38,0.3c0.39,0.21,0.61,0.65,0.67,1.29c0.01,0.02,0.03,0.02,0.07,0.02c0.08,0,0.09-0.02,0.09-0.04
				c0.01-0.07,0.03-0.12,0.04-0.17c0.01-0.04,0.02-0.08,0.04-0.13c0.08-0.33,0.15-0.68,0.22-1.04c0.07-0.35,0.12-0.71,0.16-1.08
				c-0.04-0.02-0.08-0.02-0.13-0.01c-0.17,0.1-0.3,0.14-0.41,0.14h-7.48c-0.05,0-0.07,0.01-0.08,0.03c0.01,0,0.01,0.01,0.03,0.01
				c0.14,0.1,0.26,0.16,0.38,0.21c0.12,0.05,0.24,0.08,0.38,0.11c0.09,0.02,0.16,0.05,0.23,0.07l0.04,0.01
				c0.1,0.03,0.2,0.08,0.28,0.15c0.09,0.08,0.16,0.18,0.21,0.31c0.05,0.12,0.07,0.27,0.07,0.46v10.84c0,0.22-0.01,0.44-0.04,0.65
				c-0.03,0.22-0.09,0.41-0.17,0.58c-0.09,0.18-0.22,0.32-0.39,0.43c-0.17,0.1-0.39,0.16-0.66,0.18c-0.05,0-0.07,0.01-0.07,0.01
				S84.64,80.71,84.64,80.72L84.64,80.72z"/>
		</g>
		<g>
			<path fill="#414141" d="M101.68,77.94c-0.01,0.03-0.01,0.07-0.01,0.11c-0.03,0.26-0.05,0.52-0.08,0.77
				c-0.03,0.25-0.1,0.5-0.23,0.73c0.04,0.01,0.06,0.02,0.08,0.01c0.01-0.01,0.04,0,0.08,0.01l-0.06,0.35
				c-0.3-0.03-0.6-0.04-0.91-0.05c-0.31-0.01-0.61-0.01-0.91-0.01c-0.31,0-0.62,0-0.94,0c-0.3,0-0.6,0.01-0.91,0.02
				c-0.26,0-0.53,0-0.8,0.01c-0.27,0.01-0.54,0.01-0.8,0.01c-0.67,0-1.33-0.02-1.97-0.06c-0.13-0.01-0.19-0.07-0.19-0.19
				c0.01-0.11,0.07-0.16,0.2-0.16c0.35-0.01,0.58-0.13,0.7-0.35c0.12-0.22,0.18-0.5,0.18-0.84v-7.9c0-0.3-0.07-0.48-0.21-0.55
				c-0.14-0.07-0.28-0.11-0.42-0.13c-0.12-0.01-0.24-0.04-0.38-0.07c-0.14-0.03-0.22-0.09-0.26-0.17c-0.04-0.06-0.04-0.12,0.01-0.17
				c0.05-0.05,0.11-0.08,0.21-0.08h1.09c0.2,0,0.39,0,0.58-0.01c0.19-0.01,0.38-0.01,0.57-0.01c0.29,0,0.58,0.01,0.87,0.02
				c0.29,0.01,0.57,0.06,0.85,0.14c0.1,0.03,0.15,0.09,0.14,0.19c-0.01,0.1-0.08,0.15-0.2,0.15h-0.23
				c-0.22-0.03-0.41,0.02-0.57,0.15c-0.16,0.12-0.24,0.3-0.24,0.53v7.26c0,0.26,0.06,0.49,0.17,0.68c0.11,0.19,0.25,0.36,0.43,0.49
				c0.17,0.13,0.38,0.23,0.6,0.29c0.23,0.06,0.46,0.1,0.69,0.1c0.48,0,0.94-0.12,1.39-0.37c0.45-0.25,0.79-0.6,1.04-1.05
				c0.07-0.08,0.16-0.11,0.27-0.09c0.12,0.02,0.18,0.07,0.18,0.17C101.69,77.88,101.69,77.9,101.68,77.94z"/>
			<path fill="#414141" d="M101.46,80.06h-0.01c-0.29-0.03-0.58-0.04-0.9-0.05C100.25,80,99.95,80,99.65,80h-0.94
				c-0.3,0-0.6,0.01-0.91,0.02c-0.26,0-0.53,0-0.8,0.01c-0.99,0.02-1.9,0.01-2.78-0.05c-0.25-0.02-0.33-0.19-0.32-0.34
				c0.01-0.19,0.14-0.3,0.35-0.3c0.29-0.01,0.48-0.1,0.57-0.27c0.11-0.2,0.16-0.46,0.16-0.77v-7.9c0-0.23-0.05-0.38-0.13-0.43
				c-0.12-0.06-0.24-0.1-0.37-0.11c-0.12-0.01-0.25-0.04-0.4-0.07c-0.18-0.04-0.3-0.12-0.36-0.24c-0.06-0.11-0.05-0.23,0.03-0.33
				c0.08-0.09,0.18-0.13,0.31-0.13h1.09c0.19,0,0.38,0,0.57-0.01c0.46-0.02,0.96-0.01,1.45,0.01c0.31,0.01,0.6,0.06,0.88,0.14
				c0.17,0.05,0.26,0.17,0.24,0.34c-0.03,0.17-0.15,0.27-0.34,0.27h-0.23c-0.2-0.02-0.35,0.02-0.49,0.12
				c-0.13,0.1-0.19,0.23-0.19,0.42v7.26c0,0.23,0.05,0.44,0.15,0.61c0.1,0.18,0.23,0.32,0.39,0.44c0.16,0.12,0.35,0.21,0.56,0.27
				c0.65,0.19,1.34,0.09,1.98-0.26c0.42-0.23,0.75-0.57,0.98-0.99c0.09-0.11,0.2-0.2,0.42-0.16c0.27,0.04,0.3,0.23,0.3,0.31
				c0,0.04,0,0.08-0.01,0.12c0,0.02-0.01,0.04-0.01,0.08l-0.08,0.78c-0.02,0.21-0.08,0.41-0.16,0.6c0.06,0.03,0.09,0.09,0.08,0.15
				l-0.06,0.35C101.59,80.01,101.53,80.06,101.46,80.06z M98.71,79.71h0.94c0.3,0,0.6,0,0.91,0.01c0.27,0.01,0.53,0.02,0.78,0.04
				l0.01-0.07c-0.02,0-0.03-0.01-0.04-0.01c-0.04-0.01-0.07-0.05-0.08-0.08c-0.01-0.04-0.01-0.08,0.01-0.12
				c0.12-0.21,0.19-0.44,0.22-0.67l0.08-0.77c0-0.04,0-0.08,0.01-0.12c0.01-0.02,0.01-0.04,0.01-0.06c0-0.01-0.01-0.02-0.06-0.02
				c-0.09-0.02-0.12,0.01-0.14,0.04c-0.24,0.45-0.61,0.83-1.08,1.08c-0.7,0.39-1.47,0.49-2.19,0.28c-0.24-0.07-0.46-0.17-0.65-0.32
				c-0.19-0.14-0.35-0.32-0.47-0.53c-0.12-0.22-0.18-0.47-0.18-0.75v-7.26c0-0.28,0.1-0.5,0.3-0.65c0.19-0.14,0.42-0.21,0.68-0.17
				h0.22c0.04,0,0.05-0.01,0.05-0.01l-0.03-0.04c-0.26-0.07-0.53-0.12-0.82-0.13c-0.48-0.02-0.97-0.03-1.43-0.01
				c-0.19,0.01-0.38,0.01-0.58,0.01h-1.09c-0.07,0-0.09,0.02-0.1,0.03c0.03,0.05,0.09,0.08,0.18,0.1c0.14,0.03,0.26,0.05,0.36,0.07
				c0.16,0.01,0.32,0.06,0.47,0.14c0.19,0.1,0.28,0.33,0.28,0.68v7.9c0,0.36-0.06,0.66-0.19,0.91c-0.14,0.27-0.42,0.41-0.82,0.43
				c-0.05,0-0.06,0.01-0.06,0.01s0,0.04,0,0.04c0,0,0.02,0.01,0.05,0.01c0.87,0.05,1.78,0.07,2.75,0.05
				c0.27-0.01,0.54-0.01,0.8-0.01C98.11,79.72,98.41,79.71,98.71,79.71z"/>
		</g>
		<g>
			<path fill="#414141" d="M116.57,71.68c-0.21,0.55-0.5,1.03-0.88,1.47c-0.38,0.43-0.83,0.78-1.34,1.05
				c-0.52,0.27-1.08,0.4-1.69,0.4c-0.4,0-0.78-0.05-1.13-0.16c-0.07-0.01-0.11-0.05-0.13-0.11c-0.02-0.06-0.02-0.12-0.01-0.19
				c0.01-0.07,0.04-0.13,0.08-0.18c0.04-0.04,0.09-0.07,0.16-0.07c0.06,0.01,0.13,0.02,0.19,0.02c0.06,0,0.13,0,0.2,0
				c0.96,0,1.71-0.27,2.25-0.8c0.54-0.53,0.81-1.27,0.81-2.22c0-0.43-0.07-0.86-0.2-1.29c-0.13-0.43-0.32-0.81-0.56-1.15
				c-0.25-0.34-0.55-0.61-0.91-0.83c-0.36-0.21-0.76-0.32-1.22-0.32c-0.22,0-0.43,0.03-0.64,0.08c-0.21,0.05-0.4,0.11-0.58,0.17
				v11.2c0,0.05,0.01,0.15,0.04,0.3c0.03,0.15,0.05,0.31,0.09,0.48c0.03,0.17,0.07,0.32,0.11,0.47c0.04,0.14,0.07,0.23,0.1,0.25
				c0.06,0.06,0.16,0.11,0.29,0.13c0.13,0.02,0.25,0.04,0.35,0.05c0.18,0.01,0.34,0.03,0.47,0.05c0.13,0.02,0.23,0.1,0.29,0.24
				c0.04,0.06,0.04,0.12-0.01,0.17c-0.04,0.05-0.11,0.07-0.2,0.07c-0.78,0-1.56,0.01-2.35,0.02c-0.79,0.01-1.57,0-2.37-0.04
				c-0.13-0.01-0.2-0.07-0.2-0.16c-0.01-0.1,0.05-0.16,0.18-0.19c0.27-0.05,0.49-0.11,0.64-0.18c0.16-0.06,0.27-0.15,0.35-0.27
				c0.08-0.12,0.12-0.27,0.14-0.47c0.01-0.19,0.02-0.45,0.02-0.78V68.04c0-0.2-0.02-0.35-0.07-0.47c-0.05-0.12-0.1-0.2-0.18-0.26
				c-0.07-0.06-0.15-0.1-0.24-0.12c-0.09-0.02-0.18-0.04-0.27-0.05c-0.16-0.03-0.31-0.05-0.46-0.09c-0.15-0.03-0.26-0.12-0.32-0.26
				c-0.04-0.07-0.04-0.12,0-0.18c0.04-0.05,0.11-0.08,0.22-0.08h0.41c0.22,0,0.43,0,0.62,0c0.21,0,0.42,0.01,0.64,0.02
				c0.21,0.01,0.41,0.01,0.6,0c0.19-0.01,0.39-0.02,0.58-0.02h1.58c0.6,0,1.19,0.03,1.77,0.1c0.58,0.06,1.1,0.21,1.56,0.45
				c0.45,0.23,0.82,0.58,1.11,1.04c0.29,0.46,0.43,1.09,0.43,1.88C116.88,70.57,116.77,71.13,116.57,71.68z"/>
			<path fill="#414141" d="M109.55,81.13c-0.6,0-1.2-0.02-1.79-0.05c-0.29-0.03-0.34-0.22-0.34-0.3c-0.01-0.08,0.01-0.28,0.3-0.33
				c0.27-0.05,0.47-0.11,0.62-0.17c0.13-0.05,0.22-0.13,0.29-0.22c0.06-0.09,0.1-0.23,0.11-0.4c0.01-0.2,0.02-0.46,0.02-0.77V68.04
				c0-0.18-0.02-0.32-0.06-0.42c-0.04-0.09-0.08-0.16-0.13-0.2c-0.06-0.05-0.12-0.07-0.18-0.09c-0.09-0.02-0.17-0.03-0.26-0.05
				c-0.16-0.03-0.32-0.06-0.47-0.09c-0.19-0.04-0.34-0.16-0.42-0.34c-0.08-0.14-0.03-0.26,0.01-0.32c0.07-0.09,0.18-0.14,0.33-0.14
				h1.03c0.21,0,0.43,0.01,0.65,0.02c0.2,0.01,0.4,0.01,0.59,0c0.2-0.01,0.4-0.02,0.59-0.02h1.58c0.6,0,1.2,0.03,1.79,0.1
				c0.6,0.07,1.14,0.22,1.61,0.46c0.47,0.24,0.87,0.61,1.17,1.09c0.3,0.48,0.45,1.14,0.45,1.95c0,0.58-0.11,1.17-0.32,1.73l0,0
				c-0.21,0.56-0.52,1.07-0.9,1.51c-0.39,0.45-0.85,0.81-1.39,1.08c-0.54,0.28-1.13,0.41-1.76,0.41c-0.41,0-0.81-0.05-1.17-0.16
				c-0.11-0.02-0.19-0.09-0.22-0.2c-0.03-0.08-0.03-0.17-0.01-0.26c0.02-0.09,0.05-0.17,0.11-0.24c0.07-0.08,0.16-0.12,0.27-0.12
				c0.08,0.01,0.14,0.02,0.19,0.02h0.2c0.92,0,1.64-0.26,2.15-0.76c0.51-0.5,0.77-1.21,0.77-2.12c0-0.41-0.06-0.83-0.19-1.24
				c-0.12-0.41-0.31-0.78-0.54-1.11c-0.23-0.32-0.53-0.59-0.86-0.79c-0.33-0.2-0.72-0.3-1.14-0.3c-0.21,0-0.41,0.03-0.61,0.07
				c-0.17,0.04-0.33,0.09-0.48,0.14v11.09c0,0.02,0,0.09,0.04,0.28c0.03,0.15,0.05,0.31,0.09,0.48c0.03,0.16,0.06,0.32,0.1,0.46
				c0.04,0.16,0.07,0.2,0.07,0.2c0.03,0.03,0.11,0.06,0.2,0.08c0.13,0.02,0.24,0.03,0.35,0.05c0.18,0.01,0.34,0.03,0.47,0.05
				c0.12,0.02,0.29,0.09,0.4,0.33c0.07,0.11,0.05,0.23-0.04,0.33c-0.07,0.07-0.17,0.11-0.31,0.11c-0.78,0-1.56,0.01-2.34,0.02
				C109.94,81.13,109.75,81.13,109.55,81.13z M107.57,66.68c-0.07,0-0.1,0.02-0.1,0.02c0.06,0.13,0.13,0.19,0.24,0.21
				c0.15,0.03,0.3,0.06,0.45,0.09c0.09,0.01,0.18,0.03,0.28,0.05c0.11,0.02,0.22,0.07,0.31,0.15c0.09,0.07,0.16,0.18,0.22,0.32
				c0.05,0.14,0.08,0.31,0.08,0.52V78.9c0,0.32-0.01,0.59-0.02,0.79c-0.01,0.22-0.07,0.4-0.16,0.54c-0.09,0.14-0.23,0.25-0.41,0.32
				c-0.16,0.07-0.38,0.13-0.67,0.18c-0.05,0.01-0.07,0.03-0.07,0.03c0.01,0.02,0.03,0.04,0.08,0.04c0.77,0.04,1.56,0.05,2.35,0.04
				c0.79-0.01,1.57-0.02,2.35-0.02c0.05,0,0.09-0.01,0.1-0.03c-0.08-0.13-0.15-0.16-0.2-0.17c-0.13-0.02-0.28-0.03-0.46-0.05
				c-0.11-0.01-0.23-0.03-0.36-0.05c-0.16-0.02-0.29-0.08-0.37-0.17c-0.04-0.04-0.08-0.11-0.14-0.32c-0.04-0.15-0.08-0.31-0.11-0.48
				c-0.03-0.17-0.06-0.33-0.09-0.48c-0.03-0.15-0.04-0.26-0.04-0.33v-11.2c0-0.06,0.04-0.12,0.1-0.13c0.18-0.06,0.38-0.12,0.6-0.18
				c0.22-0.06,0.45-0.08,0.68-0.08c0.48,0,0.91,0.12,1.29,0.34c0.37,0.22,0.69,0.51,0.95,0.86c0.26,0.35,0.45,0.75,0.59,1.19
				c0.13,0.44,0.2,0.89,0.2,1.33c0,0.98-0.29,1.76-0.85,2.32c-0.57,0.56-1.36,0.84-2.35,0.84h-0.2c-0.07,0-0.15-0.01-0.22-0.02
				c0,0-0.01,0.01-0.02,0.02c-0.02,0.03-0.04,0.06-0.04,0.11c-0.01,0.05-0.01,0.09,0,0.12c0.92,0.29,1.93,0.2,2.75-0.22
				c0.5-0.26,0.94-0.6,1.3-1.02c0.36-0.42,0.65-0.9,0.85-1.43c0.2-0.53,0.3-1.07,0.3-1.62c0-0.76-0.14-1.37-0.41-1.8
				c-0.27-0.44-0.63-0.77-1.05-0.99c-0.44-0.22-0.94-0.37-1.51-0.43c-0.58-0.06-1.17-0.1-1.76-0.1h-1.58
				c-0.19,0-0.38,0.01-0.57,0.02c-0.2,0.01-0.41,0.01-0.62,0c-0.22-0.01-0.43-0.02-0.63-0.02H107.57z M116.57,71.68L116.57,71.68
				L116.57,71.68z"/>
		</g>
		<g>
			<path fill="#414141" d="M129.09,69.85c-0.2,0.1-0.3,0.29-0.3,0.54v5.39c0,0.66-0.12,1.26-0.37,1.8c-0.25,0.54-0.58,1-1,1.38
				c-0.42,0.38-0.92,0.68-1.49,0.89c-0.57,0.21-1.17,0.31-1.81,0.31c-0.52,0-1.07-0.07-1.65-0.2c-0.58-0.14-1.11-0.34-1.6-0.62
				c-0.49-0.28-0.89-0.63-1.21-1.06c-0.32-0.43-0.48-0.93-0.48-1.52v0.02c0-0.12-0.01-0.23-0.03-0.33c-0.02-0.1-0.03-0.2-0.03-0.27
				v-5.76c0-0.32-0.08-0.52-0.24-0.58c-0.16-0.06-0.32-0.1-0.48-0.12c-0.15-0.03-0.29-0.05-0.4-0.06c-0.11-0.01-0.18-0.09-0.21-0.23
				c-0.03-0.13,0.05-0.2,0.23-0.2h0.6c1.06,0,2.13,0.04,3.21,0.12c0.12,0.01,0.18,0.07,0.18,0.17c0,0.09-0.06,0.14-0.18,0.16
				c-0.26,0.03-0.48,0.08-0.66,0.17c-0.18,0.08-0.27,0.27-0.27,0.55v3.06c0,0.52,0,1.04-0.01,1.55c-0.01,0.51-0.01,1.02-0.01,1.53
				c0,0.45,0.09,0.85,0.27,1.2c0.18,0.34,0.42,0.63,0.72,0.87c0.3,0.23,0.64,0.41,1.02,0.53c0.38,0.12,0.78,0.17,1.2,0.17
				c0.41,0,0.82-0.06,1.22-0.18c0.4-0.12,0.75-0.31,1.05-0.55c0.31-0.24,0.55-0.54,0.73-0.89c0.18-0.35,0.27-0.76,0.27-1.23
				c0-0.49,0-0.99,0-1.5c0-0.51-0.01-1.01-0.02-1.52c-0.01-0.49-0.02-0.99-0.02-1.5c0-0.51,0-1.01,0-1.52
				c0-0.16-0.02-0.28-0.07-0.37c-0.05-0.09-0.1-0.16-0.17-0.2c-0.06-0.05-0.14-0.07-0.22-0.09c-0.08-0.01-0.17-0.03-0.24-0.04
				c-0.14-0.01-0.28-0.03-0.4-0.05c-0.12-0.02-0.2-0.1-0.22-0.24c-0.03-0.13,0.05-0.2,0.23-0.2c0.58,0,1.16,0.01,1.73,0.02
				c0.57,0.01,1.14,0.04,1.71,0.08l0.02,0.33C129.51,69.68,129.3,69.74,129.09,69.85z"/>
			<path fill="#414141" d="M124.12,80.31c-0.53,0-1.1-0.07-1.68-0.21c-0.59-0.14-1.14-0.35-1.64-0.64c-0.5-0.29-0.92-0.66-1.25-1.1
				c-0.33-0.44-0.5-0.98-0.51-1.58c0,0,0,0,0,0c0-0.11-0.01-0.21-0.03-0.31c-0.02-0.11-0.03-0.21-0.03-0.3v-5.76
				c0-0.18-0.03-0.4-0.15-0.45c-0.15-0.06-0.3-0.1-0.44-0.11c-0.16-0.03-0.3-0.05-0.4-0.06c-0.1-0.01-0.28-0.07-0.33-0.35
				c-0.02-0.12,0.02-0.2,0.05-0.25c0.07-0.08,0.17-0.12,0.32-0.12h0.6c1.06,0,2.15,0.04,3.22,0.12c0.2,0.02,0.31,0.14,0.31,0.32
				c0,0.06-0.02,0.27-0.3,0.3c-0.24,0.03-0.45,0.08-0.62,0.15c-0.05,0.02-0.19,0.09-0.19,0.42v3.06c0,0.52,0,1.04-0.01,1.55
				c-0.01,0.51-0.01,1.02-0.01,1.53c0,0.43,0.09,0.81,0.26,1.13c0.17,0.32,0.4,0.6,0.68,0.82c0.28,0.22,0.61,0.39,0.98,0.5
				c0.73,0.22,1.57,0.23,2.33-0.01c0.38-0.12,0.72-0.29,1.01-0.52c0.29-0.23,0.52-0.51,0.69-0.84c0.17-0.33,0.26-0.72,0.26-1.16
				v-1.5c0-0.5-0.01-1.01-0.02-1.51c-0.01-0.49-0.02-1-0.02-1.5v-1.52c0-0.13-0.02-0.23-0.05-0.31c-0.04-0.07-0.08-0.12-0.12-0.15
				c-0.05-0.03-0.1-0.05-0.17-0.06l-0.24-0.04c-0.14-0.01-0.27-0.03-0.4-0.05c-0.19-0.03-0.31-0.16-0.34-0.36
				c-0.02-0.12,0.02-0.2,0.05-0.25c0.06-0.08,0.17-0.12,0.32-0.12c0.58,0,1.16,0.01,1.74,0.02c0.59,0.01,1.17,0.04,1.72,0.08
				c0.07,0,0.13,0.06,0.13,0.13l0.02,0.33c0,0.08-0.05,0.14-0.13,0.15c-0.2,0.02-0.4,0.08-0.58,0.18c-0.15,0.08-0.22,0.21-0.22,0.42
				v5.39c0,0.68-0.13,1.3-0.38,1.86c-0.26,0.56-0.6,1.04-1.04,1.43c-0.43,0.39-0.95,0.7-1.54,0.91
				C125.4,80.2,124.77,80.31,124.12,80.31z M119.34,76.76c0,0.55,0.15,1.03,0.45,1.43c0.3,0.41,0.7,0.76,1.16,1.02
				c0.47,0.27,0.99,0.47,1.56,0.61c1.24,0.3,2.37,0.26,3.37-0.1c0.55-0.2,1.04-0.49,1.44-0.86c0.4-0.37,0.73-0.82,0.97-1.34
				c0.24-0.52,0.36-1.1,0.36-1.74v-5.39c0-0.39,0.21-0.58,0.38-0.67c0.17-0.09,0.36-0.15,0.55-0.19l0-0.07
				c-0.51-0.03-1.04-0.06-1.58-0.07c-0.57-0.01-1.15-0.02-1.73-0.02c-0.08,0-0.1,0.02-0.1,0.02c0.03,0.11,0.07,0.13,0.12,0.14
				c0.12,0.02,0.25,0.04,0.39,0.05l0.25,0.04c0.11,0.02,0.21,0.05,0.29,0.11c0.08,0.06,0.15,0.14,0.21,0.25
				c0.06,0.12,0.08,0.26,0.08,0.44v1.52c0,0.5,0.01,1,0.02,1.49c0.01,0.51,0.02,1.02,0.02,1.52v1.5c0,0.49-0.1,0.92-0.29,1.29
				c-0.19,0.37-0.45,0.68-0.77,0.93c-0.31,0.25-0.68,0.44-1.1,0.57c-0.81,0.25-1.72,0.25-2.5,0.01c-0.4-0.12-0.76-0.31-1.07-0.55
				c-0.31-0.25-0.57-0.55-0.76-0.91c-0.19-0.36-0.29-0.79-0.29-1.27c0-0.51,0-1.02,0.01-1.53c0.01-0.51,0.01-1.03,0.01-1.55v-3.06
				c0-0.35,0.12-0.58,0.36-0.68c0.19-0.09,0.43-0.15,0.71-0.18c0.04,0,0.05-0.01,0.05-0.01c-0.01-0.02-0.02-0.03-0.05-0.03
				c-1.06-0.08-2.14-0.12-3.2-0.12h-0.6c-0.08,0-0.1,0.02-0.1,0.02c0.03,0.12,0.07,0.12,0.09,0.13c0.11,0.01,0.25,0.03,0.4,0.06
				c0.15,0.01,0.33,0.05,0.51,0.13c0.22,0.09,0.33,0.33,0.33,0.72v5.76c0,0.07,0.01,0.15,0.03,0.25
				C119.33,76.53,119.34,76.64,119.34,76.76C119.34,76.75,119.34,76.76,119.34,76.76z"/>
		</g>
		<g>
			<path fill="#414141" d="M137.79,79.76l-0.16,0.08c-0.08,0.03-0.23,0.04-0.45,0.04c-0.22,0-0.46,0-0.71-0.01
				c-0.25-0.01-0.49-0.01-0.72-0.02c-0.23-0.01-0.39-0.01-0.48-0.01c-0.21,0-0.42,0-0.62,0.01c-0.21,0.01-0.42,0.01-0.62,0.01
				c-0.47,0-0.94,0-1.4,0.01c-0.47,0.01-0.93,0-1.38-0.03c-0.12-0.01-0.17-0.07-0.16-0.19c0.01-0.11,0.07-0.16,0.18-0.16
				c0.36-0.01,0.6-0.13,0.72-0.34c0.12-0.21,0.17-0.5,0.17-0.85v-7.98c0-0.22-0.06-0.37-0.18-0.44c-0.12-0.07-0.26-0.12-0.4-0.15
				c-0.1-0.03-0.21-0.05-0.32-0.08c-0.11-0.03-0.22-0.07-0.32-0.14c-0.1-0.05-0.14-0.12-0.1-0.19c0.04-0.08,0.12-0.12,0.23-0.12
				c0.12,0,0.27,0,0.46,0.01c0.19,0.01,0.4,0.01,0.63,0.01c0.38,0.01,0.79,0.02,1.23,0.03c0.44,0.01,0.89,0.01,1.34,0.01
				c0.65,0,1.24-0.01,1.77-0.04c0.53-0.03,0.89-0.07,1.07-0.13c0.09-0.03,0.17-0.02,0.23,0.02c0.06,0.04,0.09,0.09,0.08,0.16
				c-0.03,0.25-0.06,0.47-0.12,0.68c-0.05,0.21-0.1,0.41-0.16,0.62c-0.03,0.09-0.05,0.18-0.06,0.25c-0.01,0.08-0.03,0.16-0.06,0.23
				c-0.03,0.09-0.1,0.14-0.23,0.14c-0.13,0-0.2-0.05-0.21-0.16c-0.01-0.22-0.06-0.4-0.16-0.53c-0.09-0.13-0.21-0.23-0.35-0.3
				c-0.14-0.07-0.31-0.12-0.49-0.15c-0.18-0.03-0.36-0.04-0.55-0.04c-0.1,0-0.2,0-0.3,0.01c-0.1,0.01-0.2,0.01-0.3,0.01
				c-0.09,0-0.19,0-0.29,0.01c-0.1,0.01-0.21,0.01-0.31,0.01h-0.35v3.72h2.34c0.06,0,0.15-0.02,0.25-0.07
				c0.1-0.04,0.21-0.09,0.33-0.13h-0.02c0.1-0.05,0.2-0.12,0.28-0.21c0.08-0.09,0.17-0.15,0.24-0.18c0.09-0.03,0.17-0.02,0.22,0.03
				c0.06,0.05,0.08,0.1,0.07,0.17c-0.03,0.17-0.05,0.37-0.07,0.6c-0.02,0.23-0.04,0.43-0.07,0.6c-0.03,0.16-0.05,0.31-0.08,0.47
				c-0.03,0.15-0.05,0.32-0.08,0.51c-0.01,0.06-0.06,0.11-0.14,0.14c-0.08,0.03-0.15,0.01-0.21-0.04c-0.16-0.09-0.23-0.15-0.22-0.19
				c0.01-0.03,0-0.08-0.01-0.15c-0.04-0.12-0.08-0.23-0.13-0.33c-0.05-0.1-0.09-0.17-0.13-0.19c-0.07-0.05-0.2-0.09-0.39-0.13
				c-0.2-0.03-0.41-0.06-0.65-0.07c-0.24-0.01-0.48-0.02-0.71-0.02c-0.23,0-0.43,0-0.58,0h-0.25v3.78c0.21,0.29,0.5,0.49,0.88,0.62
				c0.38,0.13,0.73,0.19,1.07,0.19c0.41,0,0.8-0.1,1.15-0.3c0.35-0.2,0.58-0.53,0.7-0.98c0.01-0.04,0.05-0.07,0.1-0.09
				c0.05-0.02,0.1-0.03,0.15-0.02c0.05,0.01,0.1,0.03,0.15,0.06c0.05,0.03,0.06,0.07,0.05,0.11L137.79,79.76z"/>
			<path fill="#414141" d="M137.19,80.02c-0.22,0-0.46,0-0.72-0.01l-0.72-0.02c-0.23-0.01-0.38-0.01-0.47-0.01
				c-0.21,0-0.41,0-0.62,0.01c-0.68,0.02-1.35,0.01-2.03,0.02c-0.48,0.01-0.94,0-1.39-0.03c-0.2-0.02-0.31-0.15-0.3-0.34
				c0.01-0.18,0.14-0.3,0.33-0.3c0.31-0.01,0.5-0.1,0.59-0.27c0.1-0.19,0.16-0.45,0.16-0.78v-7.98c0-0.16-0.04-0.27-0.11-0.31
				c-0.11-0.06-0.23-0.11-0.35-0.13l-0.33-0.08c-0.12-0.03-0.24-0.08-0.36-0.15c-0.08-0.04-0.14-0.1-0.17-0.18
				c-0.02-0.05-0.02-0.12,0.02-0.2c0.04-0.09,0.14-0.2,0.36-0.2c0.12,0,0.27,0,0.46,0.01c0.19,0.01,0.4,0.01,0.63,0.01
				c0.38,0.01,0.79,0.02,1.23,0.03c0.44,0.01,0.89,0.01,1.34,0.01c0.66,0,1.24-0.01,1.76-0.04c0.51-0.03,0.86-0.07,1.03-0.13
				c0.14-0.04,0.26-0.03,0.35,0.03c0.12,0.07,0.17,0.18,0.14,0.31c-0.02,0.23-0.06,0.47-0.12,0.69l-0.16,0.62
				c-0.02,0.09-0.04,0.17-0.05,0.24c-0.01,0.08-0.04,0.17-0.06,0.26c-0.02,0.08-0.1,0.23-0.37,0.23c-0.2,0-0.33-0.11-0.36-0.28
				c-0.01-0.2-0.05-0.35-0.13-0.46c-0.08-0.11-0.17-0.19-0.3-0.26c-0.13-0.06-0.28-0.11-0.44-0.13c-0.27-0.04-0.56-0.04-0.82-0.03
				c-0.18,0.01-0.37,0-0.59,0.02c-0.11,0.01-0.22,0.01-0.32,0.01h-0.21v3.43h2.19c0.03,0,0.08-0.01,0.19-0.06
				c0.09-0.04,0.19-0.08,0.29-0.11c0.01,0,0.01-0.01,0.02-0.01c0.09-0.04,0.17-0.1,0.24-0.18c0.1-0.11,0.2-0.18,0.3-0.22
				c0.18-0.05,0.29,0,0.36,0.05c0.1,0.08,0.14,0.19,0.12,0.31c-0.03,0.16-0.05,0.36-0.07,0.59c-0.02,0.24-0.04,0.44-0.07,0.61
				c-0.03,0.16-0.05,0.31-0.08,0.47c-0.03,0.16-0.05,0.32-0.08,0.5c-0.01,0.07-0.06,0.2-0.23,0.25c-0.12,0.04-0.25,0.02-0.35-0.06
				c-0.16-0.09-0.3-0.19-0.27-0.33l0,0c0,0,0-0.03-0.01-0.09c-0.03-0.09-0.07-0.2-0.12-0.3c-0.05-0.11-0.08-0.13-0.08-0.13
				c-0.03-0.02-0.1-0.06-0.33-0.1c-0.2-0.03-0.41-0.05-0.64-0.07c-0.24-0.01-0.47-0.02-0.7-0.02h-0.69v3.59
				c0.19,0.24,0.44,0.42,0.78,0.53c0.79,0.27,1.51,0.25,2.1-0.1c0.32-0.18,0.52-0.48,0.63-0.89c0.02-0.06,0.07-0.14,0.19-0.19
				c0.07-0.03,0.15-0.04,0.23-0.03c0.08,0.01,0.15,0.04,0.21,0.08c0.1,0.07,0.13,0.17,0.1,0.27l-0.41,1.78
				c-0.01,0.04-0.04,0.08-0.08,0.1l-0.16,0.08C137.59,80,137.43,80.02,137.19,80.02z M137.79,79.76L137.79,79.76L137.79,79.76z
				 M135.28,79.69c0.09,0,0.25,0,0.48,0.01l0.72,0.02c0.25,0.01,0.49,0.01,0.71,0.01c0.27,0,0.37-0.02,0.4-0.03l0.08-0.04l0.39-1.69
				c-0.02-0.01-0.04-0.02-0.07-0.03c-0.03,0-0.06,0-0.08,0.01c-0.14,0.48-0.4,0.84-0.78,1.06c-0.66,0.38-1.46,0.42-2.34,0.12
				c-0.4-0.14-0.72-0.37-0.95-0.67c-0.02-0.02-0.03-0.05-0.03-0.08V74.6c0-0.08,0.06-0.14,0.14-0.14h0.84
				c0.24,0,0.48,0.01,0.72,0.02c0.24,0.01,0.46,0.04,0.67,0.07c0.22,0.04,0.37,0.09,0.45,0.16c0.05,0.04,0.11,0.11,0.17,0.25
				c0.05,0.11,0.09,0.22,0.13,0.34c0.01,0.07,0.02,0.12,0.02,0.16c0.02,0.02,0.07,0.05,0.15,0.1c0.04,0.03,0.06,0.04,0.09,0.03
				c0.04-0.01,0.04-0.02,0.04-0.03c0.03-0.18,0.05-0.35,0.08-0.5c0.03-0.16,0.05-0.31,0.08-0.47c0.02-0.16,0.05-0.36,0.07-0.59
				c0.02-0.24,0.04-0.44,0.07-0.61c-0.02-0.04-0.05-0.05-0.11-0.03c-0.05,0.02-0.11,0.06-0.18,0.13c-0.08,0.09-0.17,0.16-0.26,0.21
				c-0.02,0.02-0.03,0.03-0.06,0.04c-0.11,0.04-0.22,0.08-0.32,0.12c-0.12,0.05-0.22,0.08-0.31,0.08h-2.34
				c-0.08,0-0.14-0.06-0.14-0.14v-3.72c0-0.08,0.06-0.14,0.14-0.14h0.35c0.1,0,0.2,0,0.3-0.01c0.22-0.02,0.41-0.01,0.59-0.02
				c0.28-0.02,0.59-0.01,0.88,0.03c0.19,0.03,0.37,0.08,0.53,0.16c0.16,0.08,0.3,0.2,0.4,0.35c0.11,0.15,0.17,0.35,0.18,0.6
				c0,0.01,0.02,0.02,0.07,0.02c0.09,0,0.09-0.02,0.09-0.03c0.03-0.08,0.04-0.15,0.06-0.22c0.01-0.08,0.03-0.17,0.06-0.27l0.16-0.62
				c0.05-0.2,0.09-0.43,0.11-0.66c-0.02-0.02-0.05-0.05-0.13-0.02c-0.19,0.07-0.56,0.12-1.11,0.14c-0.53,0.03-1.11,0.04-1.78,0.04
				c-0.46,0-0.9,0-1.35-0.01c-0.44-0.01-0.85-0.02-1.23-0.03c0,0-0.01,0-0.01,0c-0.23,0-0.44,0-0.62-0.01
				c-0.29-0.01-0.52-0.02-0.55,0.02c0.01,0,0.01,0.01,0.03,0.01c0.1,0.06,0.2,0.1,0.29,0.13l0.32,0.08c0.15,0.03,0.3,0.08,0.44,0.16
				c0.17,0.1,0.26,0.29,0.26,0.56v7.98c0,0.37-0.06,0.68-0.19,0.92c-0.14,0.26-0.43,0.4-0.84,0.42c-0.03,0-0.04,0-0.05,0.01
				c0,0,0,0.04,0,0.05c0,0,0.01,0.01,0.04,0.01c0.44,0.03,0.91,0.04,1.37,0.03c0.67-0.01,1.34,0,2.02-0.02
				C134.86,79.69,135.07,79.69,135.28,79.69z M138.06,77.93C138.06,77.94,138.06,77.94,138.06,77.93L138.06,77.93z M136.95,75.5
				c0,0,0,0.01,0,0.01C136.95,75.5,136.95,75.5,136.95,75.5z"/>
		</g>
		<g>
			<path fill="#414141" d="M147.28,77.91c-0.18,0.35-0.41,0.66-0.69,0.92c-0.29,0.26-0.61,0.48-0.97,0.65
				c-0.36,0.17-0.74,0.3-1.13,0.36h0.02c-0.07,0.03-0.14,0.04-0.23,0.04c-0.08,0-0.17,0-0.27,0h-0.04v0.02c-0.38,0-0.75,0-1.13,0
				c-0.36,0-0.73-0.01-1.11-0.02c-0.34-0.01-0.71-0.02-1.12-0.03c-0.41-0.01-0.79-0.01-1.14-0.01c-0.13,0-0.2-0.05-0.21-0.16
				c-0.01-0.1,0.04-0.17,0.16-0.19c0.19-0.05,0.36-0.1,0.49-0.15c0.13-0.05,0.23-0.11,0.29-0.2c0.06-0.08,0.11-0.2,0.14-0.34
				c0.03-0.14,0.04-0.33,0.04-0.56v-7.9c0-0.12-0.04-0.22-0.12-0.31c-0.08-0.09-0.17-0.17-0.27-0.24c-0.1-0.07-0.22-0.13-0.35-0.17
				c-0.13-0.04-0.24-0.06-0.33-0.08c-0.12-0.01-0.17-0.07-0.15-0.19c0.02-0.11,0.09-0.16,0.2-0.14c0.09,0.01,0.18,0.02,0.26,0.03
				c0.08,0.01,0.17,0.01,0.24,0.01c0.23,0,0.46-0.01,0.68-0.02c0.22-0.01,0.45-0.03,0.7-0.06c0.23-0.03,0.47-0.05,0.72-0.07
				c0.25-0.02,0.49-0.03,0.74-0.03c0.35,0,0.74,0.04,1.17,0.13c0.43,0.08,0.83,0.22,1.21,0.42c0.38,0.2,0.69,0.45,0.94,0.76
				c0.25,0.31,0.38,0.69,0.38,1.13c0,0.45-0.15,0.88-0.44,1.28c-0.29,0.4-0.61,0.75-0.94,1.05c0.34,0.1,0.66,0.24,0.96,0.41
				c0.31,0.17,0.58,0.38,0.81,0.62c0.23,0.25,0.42,0.53,0.56,0.84c0.14,0.31,0.2,0.66,0.2,1.05
				C147.54,77.17,147.46,77.56,147.28,77.91z M144.17,70.35c-0.34-0.35-0.76-0.53-1.29-0.53c-0.22,0-0.46,0.03-0.72,0.1v3.64
				l0.6,0.02c0.58,0.03,1.05-0.13,1.39-0.46c0.34-0.33,0.52-0.81,0.52-1.43C144.68,71.15,144.51,70.7,144.17,70.35z M145.56,75.86
				c-0.2-0.35-0.45-0.64-0.77-0.88c-0.32-0.23-0.68-0.4-1.07-0.51c-0.4-0.1-0.8-0.14-1.2-0.12l-0.35,0.02v3.8
				c0,0.17,0.05,0.32,0.17,0.45c0.11,0.13,0.25,0.24,0.41,0.32c0.16,0.08,0.33,0.15,0.51,0.19c0.17,0.05,0.33,0.07,0.46,0.07
				c0.3,0,0.58-0.05,0.84-0.16c0.26-0.1,0.49-0.25,0.68-0.44c0.2-0.19,0.35-0.41,0.46-0.67c0.11-0.26,0.16-0.55,0.16-0.86
				C145.85,76.62,145.75,76.21,145.56,75.86z"/>
			<path fill="#414141" d="M143.96,80.04h-1.13c-0.37,0-0.74-0.01-1.11-0.02c-0.34-0.01-0.71-0.02-1.12-0.03
				c-0.41-0.01-0.79-0.01-1.14-0.01c-0.2,0-0.33-0.11-0.36-0.28c-0.02-0.18,0.08-0.31,0.27-0.35c0.18-0.05,0.34-0.1,0.47-0.14
				c0.1-0.04,0.18-0.08,0.23-0.15c0.05-0.06,0.09-0.16,0.11-0.28c0.02-0.13,0.04-0.31,0.04-0.54v-7.9c0-0.08-0.03-0.15-0.08-0.22
				c-0.07-0.08-0.15-0.15-0.24-0.22c-0.09-0.06-0.19-0.11-0.31-0.15c-0.13-0.04-0.23-0.06-0.31-0.07c-0.1-0.01-0.17-0.05-0.22-0.11
				c-0.03-0.04-0.07-0.12-0.05-0.24c0.04-0.19,0.18-0.28,0.36-0.26c0.09,0.01,0.18,0.02,0.26,0.03c0.35,0.03,0.62,0.01,0.91-0.01
				c0.22-0.01,0.45-0.03,0.69-0.06c0.24-0.03,0.48-0.05,0.73-0.07c0.26-0.02,0.51-0.03,0.75-0.03c0.36,0,0.76,0.04,1.2,0.13
				c0.44,0.09,0.86,0.23,1.24,0.43c0.39,0.2,0.73,0.47,0.99,0.8c0.27,0.34,0.41,0.75,0.41,1.22c0,0.48-0.16,0.94-0.47,1.37
				c-0.24,0.34-0.5,0.64-0.78,0.91c0.26,0.09,0.51,0.21,0.76,0.34c0.32,0.18,0.6,0.39,0.84,0.65c0.25,0.26,0.44,0.55,0.58,0.88
				c0.14,0.33,0.22,0.7,0.22,1.11c0,0.44-0.09,0.84-0.28,1.21c-0.18,0.36-0.43,0.69-0.72,0.96c-0.29,0.27-0.63,0.49-1.01,0.67
				c-0.36,0.17-0.74,0.3-1.12,0.36h0c-0.08,0.03-0.18,0.05-0.29,0.05h-0.25C144,80.03,143.98,80.04,143.96,80.04z M139.31,69.35
				c-0.01,0-0.02,0-0.02,0l-0.01,0.05c0.12,0.01,0.23,0.03,0.38,0.07c0.14,0.04,0.28,0.11,0.39,0.19c0.11,0.08,0.22,0.17,0.3,0.27
				c0.1,0.12,0.15,0.25,0.15,0.41v7.9c0,0.24-0.01,0.44-0.04,0.59c-0.03,0.17-0.09,0.3-0.16,0.4c-0.08,0.11-0.2,0.19-0.36,0.24
				c-0.13,0.05-0.3,0.1-0.5,0.15c-0.04,0.01-0.05,0.02-0.05,0.02l0.01,0.04c0,0,0.01,0.01,0.07,0.01c0.35,0,0.73,0,1.14,0.01
				c0.41,0.01,0.78,0.02,1.12,0.03c0.37,0.01,0.74,0.02,1.1,0.02h1.06c0.02-0.01,0.04-0.02,0.06-0.02h0.31
				c0.05,0,0.1-0.01,0.13-0.02c0.02-0.01,0.03-0.02,0.05-0.02c0.37-0.06,0.74-0.18,1.09-0.35c0.35-0.17,0.67-0.38,0.94-0.63
				c0.27-0.25,0.49-0.54,0.66-0.87c0.16-0.33,0.25-0.69,0.25-1.08c0-0.37-0.06-0.7-0.19-0.99c-0.13-0.29-0.3-0.56-0.53-0.8
				c-0.22-0.23-0.48-0.43-0.77-0.59c-0.3-0.16-0.61-0.3-0.94-0.4c-0.05-0.02-0.09-0.06-0.1-0.11c-0.01-0.05,0.01-0.1,0.04-0.14
				c0.33-0.29,0.64-0.64,0.92-1.03c0.27-0.38,0.41-0.78,0.41-1.2c0-0.41-0.11-0.75-0.35-1.04c-0.24-0.29-0.54-0.54-0.9-0.72
				c-0.36-0.19-0.76-0.32-1.17-0.4c-0.42-0.08-0.8-0.12-1.14-0.12c-0.24,0-0.48,0.01-0.73,0.03c-0.25,0.02-0.48,0.04-0.72,0.07
				c-0.25,0.03-0.48,0.04-0.71,0.06c-0.3,0.02-0.6,0.04-0.95,0.01c-0.08-0.01-0.18-0.02-0.27-0.03
				C139.32,69.35,139.32,69.35,139.31,69.35z M143.71,79.36c-0.14,0-0.31-0.02-0.49-0.07c-0.18-0.05-0.37-0.12-0.54-0.21
				c-0.18-0.09-0.33-0.21-0.45-0.36c-0.13-0.16-0.2-0.34-0.2-0.54v-3.8c0-0.08,0.06-0.14,0.14-0.14l0.35-0.02
				c0.43-0.03,0.84,0.02,1.24,0.12c0.41,0.11,0.79,0.29,1.12,0.53c0.33,0.24,0.6,0.55,0.81,0.92c0,0,0,0,0,0
				c0.2,0.37,0.31,0.81,0.31,1.3c0,0.33-0.06,0.64-0.18,0.91c-0.12,0.28-0.28,0.52-0.49,0.72c-0.2,0.2-0.45,0.36-0.73,0.47
				C144.32,79.3,144.02,79.36,143.71,79.36z M142.31,74.52v3.66c0,0.13,0.04,0.25,0.13,0.36c0.1,0.11,0.22,0.21,0.37,0.29
				c0.15,0.08,0.31,0.14,0.48,0.18c0.16,0.04,0.3,0.06,0.42,0.06c0.28,0,0.54-0.05,0.78-0.15c0.24-0.1,0.46-0.23,0.64-0.41
				c0.18-0.18,0.32-0.38,0.43-0.63c0.1-0.24,0.15-0.51,0.15-0.8c0-0.44-0.09-0.83-0.27-1.16l0,0c-0.18-0.33-0.43-0.61-0.73-0.83
				c-0.3-0.22-0.65-0.39-1.02-0.48c-0.38-0.1-0.76-0.13-1.15-0.11L142.31,74.52z M142.9,73.73c-0.04,0-0.09,0-0.14,0l-0.6-0.02
				c-0.08,0-0.14-0.07-0.14-0.14v-3.64c0-0.07,0.05-0.12,0.11-0.14c0.92-0.23,1.63-0.07,2.14,0.47l0,0
				c0.36,0.38,0.55,0.86,0.55,1.44c0,0.66-0.19,1.18-0.56,1.54C143.92,73.56,143.46,73.73,142.9,73.73z M142.31,73.43l0.46,0.02
				c0.54,0.01,0.97-0.12,1.29-0.42c0.32-0.31,0.47-0.74,0.47-1.33c0-0.51-0.15-0.92-0.47-1.24l0,0c-0.42-0.44-0.98-0.59-1.76-0.41
				V73.43z"/>
		</g>
		<g>
			<path fill="#414141" d="M156.25,77.94c-0.01,0.03-0.01,0.07-0.01,0.11c-0.03,0.26-0.05,0.52-0.08,0.77
				c-0.03,0.25-0.1,0.5-0.23,0.73c0.04,0.01,0.06,0.02,0.08,0.01c0.01-0.01,0.04,0,0.08,0.01l-0.06,0.35
				c-0.3-0.03-0.6-0.04-0.91-0.05c-0.31-0.01-0.61-0.01-0.91-0.01c-0.31,0-0.62,0-0.94,0c-0.3,0-0.6,0.01-0.91,0.02
				c-0.26,0-0.53,0-0.8,0.01c-0.27,0.01-0.54,0.01-0.8,0.01c-0.67,0-1.33-0.02-1.97-0.06c-0.13-0.01-0.19-0.07-0.19-0.19
				c0.01-0.11,0.07-0.16,0.2-0.16c0.35-0.01,0.59-0.13,0.7-0.35c0.12-0.22,0.18-0.5,0.18-0.84v-7.9c0-0.3-0.07-0.48-0.21-0.55
				c-0.14-0.07-0.28-0.11-0.42-0.13c-0.12-0.01-0.24-0.04-0.38-0.07c-0.14-0.03-0.22-0.09-0.26-0.17c-0.04-0.06-0.04-0.12,0.01-0.17
				c0.05-0.05,0.11-0.08,0.21-0.08h1.09c0.2,0,0.39,0,0.58-0.01c0.19-0.01,0.38-0.01,0.57-0.01c0.29,0,0.58,0.01,0.87,0.02
				c0.29,0.01,0.58,0.06,0.85,0.14c0.1,0.03,0.15,0.09,0.14,0.19c-0.01,0.1-0.08,0.15-0.2,0.15h-0.23
				c-0.22-0.03-0.41,0.02-0.57,0.15c-0.16,0.12-0.24,0.3-0.24,0.53v7.26c0,0.26,0.06,0.49,0.17,0.68c0.11,0.19,0.25,0.36,0.43,0.49
				c0.17,0.13,0.38,0.23,0.6,0.29c0.23,0.06,0.46,0.1,0.69,0.1c0.48,0,0.94-0.12,1.39-0.37c0.45-0.25,0.79-0.6,1.04-1.05
				c0.07-0.08,0.16-0.11,0.27-0.09c0.12,0.02,0.18,0.07,0.18,0.17C156.26,77.88,156.26,77.9,156.25,77.94z"/>
			<path fill="#414141" d="M156.03,80.06h-0.01c-0.29-0.03-0.59-0.04-0.9-0.05c-0.31-0.01-0.61-0.01-0.9-0.01h-0.94
				c-0.3,0-0.6,0.01-0.91,0.02c-0.26,0-0.53,0-0.8,0.01c-0.98,0.02-1.9,0.01-2.78-0.05c-0.25-0.02-0.33-0.19-0.32-0.34
				c0.01-0.19,0.14-0.3,0.35-0.3c0.29-0.01,0.48-0.1,0.57-0.27c0.11-0.2,0.16-0.46,0.16-0.77v-7.9c0-0.23-0.05-0.38-0.13-0.43
				c-0.12-0.06-0.24-0.1-0.37-0.11c-0.12-0.01-0.25-0.04-0.4-0.07c-0.18-0.04-0.3-0.12-0.36-0.24c-0.06-0.11-0.05-0.23,0.03-0.33
				c0.08-0.09,0.18-0.13,0.31-0.13h1.09c0.19,0,0.38,0,0.57-0.01c0.46-0.02,0.96-0.01,1.45,0.01c0.31,0.01,0.6,0.06,0.88,0.14
				c0.17,0.05,0.26,0.17,0.24,0.34c-0.03,0.17-0.15,0.27-0.34,0.27h-0.23c-0.19-0.02-0.35,0.02-0.49,0.12
				c-0.13,0.1-0.19,0.23-0.19,0.42v7.26c0,0.23,0.05,0.44,0.15,0.61c0.1,0.18,0.23,0.32,0.39,0.44c0.16,0.12,0.35,0.21,0.56,0.27
				c0.65,0.19,1.34,0.09,1.98-0.26c0.42-0.23,0.75-0.57,0.98-0.99c0.08-0.11,0.21-0.2,0.42-0.16c0.27,0.04,0.3,0.23,0.3,0.31
				c0,0.04,0,0.08-0.01,0.12c0,0.02-0.01,0.04-0.01,0.08l-0.08,0.78c-0.02,0.21-0.08,0.41-0.16,0.6c0.06,0.03,0.09,0.09,0.08,0.15
				l-0.06,0.35C156.16,80.01,156.1,80.06,156.03,80.06z M153.28,79.71h0.94c0.3,0,0.6,0,0.91,0.01c0.27,0.01,0.53,0.02,0.78,0.04
				l0.01-0.07c-0.02,0-0.03-0.01-0.04-0.01c-0.04-0.01-0.07-0.05-0.08-0.08c-0.01-0.04-0.01-0.08,0.01-0.12
				c0.12-0.21,0.19-0.44,0.22-0.67l0.08-0.77c0-0.04,0-0.08,0.01-0.12c0.01-0.02,0.01-0.04,0.01-0.06c0-0.01-0.01-0.02-0.06-0.02
				c-0.09-0.02-0.12,0.01-0.14,0.04c-0.24,0.45-0.61,0.83-1.08,1.08c-0.7,0.39-1.47,0.49-2.19,0.28c-0.24-0.07-0.46-0.17-0.65-0.32
				c-0.19-0.14-0.35-0.32-0.47-0.53c-0.12-0.22-0.18-0.47-0.18-0.75v-7.26c0-0.28,0.1-0.5,0.3-0.65c0.19-0.14,0.41-0.21,0.68-0.17
				h0.22c0.04,0,0.05-0.01,0.05-0.01l-0.03-0.04c-0.26-0.07-0.53-0.12-0.82-0.13c-0.48-0.02-0.97-0.03-1.43-0.01
				c-0.19,0.01-0.38,0.01-0.58,0.01h-1.09c-0.07,0-0.09,0.02-0.1,0.03c0.03,0.05,0.09,0.08,0.18,0.1c0.14,0.03,0.26,0.05,0.36,0.07
				c0.16,0.01,0.32,0.06,0.47,0.14c0.19,0.1,0.28,0.33,0.28,0.68v7.9c0,0.36-0.06,0.66-0.19,0.91c-0.14,0.27-0.42,0.41-0.82,0.43
				c-0.05,0-0.06,0.01-0.06,0.01s0,0.04,0,0.04c0,0,0.02,0.01,0.05,0.01c0.87,0.05,1.78,0.07,2.75,0.05
				c0.27-0.01,0.54-0.01,0.8-0.01C152.68,79.72,152.99,79.71,153.28,79.71z"/>
		</g>
		<g>
			<path fill="#414141" d="M169.28,77.14c-0.38,0.66-0.88,1.21-1.5,1.65c-0.62,0.44-1.31,0.77-2.08,0.99
				c-0.77,0.22-1.55,0.33-2.33,0.33c-0.78,0-1.54-0.15-2.29-0.44c-0.75-0.29-1.41-0.69-1.98-1.2c-0.57-0.51-1.03-1.11-1.38-1.8
				c-0.35-0.69-0.53-1.44-0.53-2.25c0-0.88,0.19-1.67,0.58-2.36c0.38-0.69,0.88-1.27,1.5-1.74c0.62-0.47,1.32-0.83,2.1-1.08
				c0.79-0.25,1.59-0.37,2.4-0.37c0.81,0,1.57,0.16,2.31,0.49c0.73,0.32,1.38,0.76,1.94,1.3c0.56,0.55,1,1.18,1.33,1.91
				c0.33,0.73,0.5,1.49,0.5,2.3C169.85,75.73,169.66,76.48,169.28,77.14z M167.78,72.89c-0.23-0.62-0.55-1.16-0.95-1.63
				c-0.41-0.47-0.9-0.84-1.48-1.11c-0.58-0.27-1.22-0.41-1.92-0.41c-0.65,0-1.25,0.1-1.8,0.31c-0.55,0.21-1.03,0.5-1.42,0.89
				c-0.4,0.38-0.7,0.84-0.93,1.38c-0.22,0.54-0.33,1.15-0.33,1.82c0,0.69,0.12,1.34,0.35,1.97c0.23,0.62,0.56,1.17,0.98,1.65
				c0.42,0.47,0.93,0.85,1.51,1.13c0.58,0.28,1.23,0.42,1.95,0.42c0.66,0,1.26-0.11,1.8-0.32c0.54-0.21,1-0.52,1.38-0.92
				c0.38-0.4,0.68-0.87,0.89-1.42c0.21-0.55,0.31-1.16,0.31-1.82C168.12,74.16,168.01,73.51,167.78,72.89z"/>
			<path fill="#414141" d="M163.37,80.25c-0.79,0-1.58-0.15-2.34-0.45c-0.76-0.3-1.44-0.71-2.02-1.22
				c-0.58-0.52-1.06-1.14-1.41-1.84c-0.36-0.71-0.54-1.49-0.54-2.31c0-0.9,0.2-1.72,0.59-2.43c0.39-0.7,0.91-1.3,1.54-1.79
				c0.62-0.48,1.35-0.85,2.15-1.11c1.59-0.49,3.31-0.54,4.81,0.12c0.75,0.33,1.41,0.78,1.98,1.33c0.57,0.55,1.03,1.21,1.36,1.95
				c0.34,0.74,0.51,1.54,0.51,2.36c0,0.88-0.2,1.66-0.59,2.34c-0.39,0.67-0.91,1.24-1.54,1.69c-0.63,0.45-1.35,0.79-2.13,1.02
				C164.96,80.14,164.16,80.25,163.37,80.25z M163.78,69.02c-0.8,0-1.59,0.12-2.36,0.36c-0.77,0.24-1.46,0.6-2.06,1.06
				c-0.6,0.46-1.09,1.03-1.46,1.7c-0.37,0.66-0.56,1.43-0.56,2.29c0,0.78,0.17,1.51,0.51,2.18c0.34,0.67,0.79,1.27,1.35,1.76
				c0.56,0.49,1.21,0.89,1.93,1.17c1.46,0.57,3.02,0.53,4.52,0.1c0.75-0.21,1.44-0.54,2.04-0.97c0.6-0.43,1.09-0.96,1.46-1.6
				c0.37-0.63,0.56-1.37,0.56-2.19c0-0.78-0.16-1.53-0.48-2.24c-0.32-0.71-0.76-1.33-1.3-1.86c-0.54-0.53-1.18-0.96-1.89-1.28
				C165.32,69.18,164.56,69.02,163.78,69.02z M163.74,79.45c-0.73,0-1.41-0.14-2.01-0.43c-0.6-0.29-1.12-0.68-1.55-1.16
				c-0.43-0.49-0.77-1.05-1.01-1.69c-0.24-0.64-0.36-1.31-0.36-2.02c0-0.69,0.12-1.32,0.34-1.88c0.23-0.56,0.55-1.04,0.96-1.43
				c0.41-0.39,0.9-0.7,1.47-0.92c0.57-0.21,1.19-0.32,1.85-0.32c0.72,0,1.38,0.14,1.98,0.42c0.59,0.28,1.11,0.67,1.53,1.15
				c0.42,0.48,0.75,1.04,0.98,1.67l0,0c0.23,0.63,0.35,1.3,0.35,1.99c0,0.68-0.11,1.3-0.32,1.87c-0.21,0.57-0.52,1.06-0.92,1.47
				c-0.4,0.41-0.88,0.73-1.43,0.95C165.04,79.34,164.42,79.45,163.74,79.45z M163.43,69.89c-0.63,0-1.22,0.1-1.75,0.3
				c-0.53,0.2-0.99,0.49-1.37,0.85c-0.38,0.37-0.68,0.81-0.89,1.33c-0.21,0.52-0.32,1.11-0.32,1.77c0,0.67,0.12,1.31,0.34,1.91
				c0.23,0.6,0.55,1.14,0.95,1.6c0.41,0.46,0.9,0.83,1.46,1.1c0.56,0.27,1.2,0.4,1.89,0.4c0.64,0,1.23-0.11,1.75-0.31
				c0.52-0.21,0.97-0.5,1.33-0.88c0.37-0.38,0.66-0.84,0.85-1.37c0.2-0.53,0.3-1.13,0.3-1.77c0-0.65-0.11-1.29-0.33-1.89l0,0
				c-0.22-0.6-0.53-1.13-0.93-1.58c-0.39-0.45-0.87-0.81-1.43-1.07C164.73,70.03,164.1,69.89,163.43,69.89z"/>
		</g>
	</g>
	<g>
		<g>
			<path fill="#9D9D9D" d="M149.46,2.51c-3.05,0-5.39,3.73-7.07,7.3c0.23-0.2,0.48-0.38,0.75-0.55c4.78-3.02,31.62,10.99,13.65,4.49
				c-3.13-1.13-5.69-1.68-7.77-1.82c5.31,2.35,11.13,31.24,4.94,13.37c-3.76-10.88-8.61-12.01-11.85-11.2
				c0.76,0.33-2.25,5.81-2.25,5.81s-0.19-0.97-0.22-2.36c-0.59,1.15-1.19,2.22-1.58,2.84c-4.59,12.59-5.92,29.01-5.92,29.01
				s-3.74,2.21-4.08,2.04c-0.19-11.1,6.25-25.72,10.58-33.99c0.02-0.46,0.01-0.96-0.07-1.46l-0.08-0.43
				c-2.44-2.41-7.66-4.67-16.1,5.36c-12.31,14.61,3.93-10.94,9.58-10.72c1.97,0.08,3.55,1.01,4.78,2.21
				c-1.87-1.92-5.41-3.56-11.84-4.14c-19.03-1.7,11.21-3.06,14.27,1.7l0.2,0.33c1.82-8,11.94-8.14,11.94-7.91
				C151.32,2.44,150.78,2.51,149.46,2.51z"/>
		</g>
	</g>
	<g>
		<g>
			<path fill="#7F7F7F" d="M110.3,1.46c3.05,0,5.39,3.73,7.07,7.3c-0.23-0.2-0.48-0.38-0.75-0.55c-4.78-3.02-31.62,10.99-13.65,4.49
				c3.13-1.14,5.68-1.68,7.76-1.82c-5.31,2.35-11.13,31.24-4.94,13.37c3.78-10.88,8.61-12.02,11.86-11.2
				c-0.76,0.34-1.29,1.1-1.29,1.99c0,1.2,0.96,2.16,2.16,2.16c0.46,0,0.88-0.13,1.23-0.38c0.22,1.17,0.15,2.04,0.15,2.04
				s0.19-0.98,0.22-2.36c0.6,1.14,1.19,2.21,1.59,2.84c4.59,12.58,5.92,29,5.92,29s3.73,2.21,4.08,2.04
				c0.19-11.1-6.26-25.71-10.58-33.98c-0.02-0.47-0.01-0.97,0.07-1.47l0.08-0.43c2.44-2.4,7.65-4.66,16.09,5.36
				c12.31,14.61-3.93-10.94-9.58-10.72c-1.96,0.08-3.55,1.02-4.77,2.21c1.87-1.92,5.41-3.56,11.83-4.13
				c19.02-1.7-11.21-3.06-14.27,1.69l-0.2,0.33c-1.81-8-11.93-8.15-11.94-7.91C108.45,1.39,108.98,1.46,110.3,1.46z"/>
		</g>
	</g>
	<g>
		<path fill="#414141" d="M35.33,41.24c0-2.99-0.44-5.68-1.33-8.08c-0.86-2.4-2.07-4.43-3.66-6.09c-1.55-1.69-3.43-3.01-5.63-3.93
			c-2.17-0.92-4.56-1.38-7.17-1.38c-0.85,0-1.69,0.05-2.52,0.17c-0.79,0.11-1.57,0.32-2.37,0.61v29.29v1.16
			c0.04,0.48,0.08,0.96,0.15,1.44c0.07,0.45,0.15,0.87,0.25,1.27c0.13,0.41,0.28,0.69,0.44,0.83c0.76,0.59,1.68,1,2.77,1.22
			c1.12,0.19,2.12,0.28,3.01,0.28c2.37,0,4.55-0.35,6.52-1.05c1.98-0.7,3.65-1.74,5.04-3.1c1.42-1.4,2.52-3.16,3.31-5.26
			C34.93,46.49,35.33,44.05,35.33,41.24z M40.47,39.19c0,3.7-0.51,6.88-1.53,9.58c-0.99,2.7-2.41,4.93-4.26,6.7
			c-1.84,1.77-4.06,3.1-6.67,3.99c-2.57,0.85-5.43,1.27-8.59,1.27c-1.15,0-2.31-0.03-3.46-0.11c-1.16-0.07-2.3-0.17-3.41-0.27
			c-1.32-0.12-2.65-0.21-4-0.28c-1.32-0.11-2.64-0.13-3.95-0.05c-0.33,0-0.53-0.15-0.6-0.45c-0.04-0.29,0.11-0.48,0.44-0.55
			c0.66-0.15,1.19-0.35,1.58-0.61c0.39-0.26,0.69-0.58,0.88-0.95c0.23-0.4,0.38-0.89,0.45-1.44c0.06-0.59,0.1-1.29,0.1-2.11V23.3
			c0-0.55-0.08-0.99-0.24-1.33c-0.13-0.33-0.31-0.59-0.55-0.77c-0.23-0.19-0.48-0.32-0.74-0.39c-0.27-0.08-0.51-0.13-0.75-0.17
			c-0.39-0.07-0.74-0.15-1.04-0.22c-0.3-0.11-0.49-0.31-0.59-0.61c-0.1-0.18-0.1-0.35,0-0.5c0.13-0.15,0.3-0.22,0.49-0.22
			c0.59,0,1.19,0.02,1.78,0.05l1.73,0.11c0.73,0.07,1.42,0.13,2.08,0.17c0.7,0.03,1.4,0.05,2.13,0.05c0.89,0,1.76-0.02,2.62-0.05
			l2.67-0.23c0.86-0.07,1.75-0.11,2.67-0.11c0.92-0.04,1.8-0.05,2.62-0.05c1.16,0,2.37,0.2,3.66,0.6c1.32,0.41,2.62,0.98,3.91,1.72
			c1.31,0.7,2.58,1.55,3.8,2.55c1.22,0.96,2.29,2.03,3.21,3.21c0.95,1.18,1.75,2.44,2.37,3.76c0.62,1.33,0.99,2.68,1.09,4.04
			c0.07,0.7,0.1,1.44,0.1,2.22V39.19z M59.26,50.16c-0.16,0.61-0.3,1.24-0.4,1.87l-0.24,1.88l-0.12,0.96
			c-0.06,0.18-0.19,0.28-0.4,0.28l-0.72,0.2h-5.07c-0.61,0-1.22,0.02-1.83,0.04h-1.84c-1.11,0-2.22-0.01-3.31-0.04
			c-1.09-0.03-2.12-0.09-3.08-0.2c-0.26,0-0.4-0.1-0.4-0.32c0.04-0.24,0.17-0.36,0.44-0.36c0.51-0.03,0.9-0.14,1.2-0.32
			c0.32-0.19,0.56-0.44,0.72-0.76c0.16-0.32,0.27-0.68,0.32-1.08c0.05-0.43,0.08-0.86,0.08-1.32V28.76c0-0.35-0.04-0.62-0.12-0.84
			c-0.08-0.21-0.2-0.37-0.36-0.48c-0.13-0.14-0.29-0.23-0.47-0.28l-0.52-0.16c-0.3-0.05-0.57-0.13-0.84-0.23
			c-0.27-0.11-0.53-0.25-0.8-0.44c-0.21-0.11-0.28-0.23-0.2-0.4c0.08-0.16,0.22-0.24,0.44-0.24h15.33c0.16,0,0.39-0.09,0.71-0.28
			c0.19-0.05,0.35-0.04,0.48,0.04c0.16,0.06,0.23,0.15,0.2,0.28c-0.08,0.75-0.2,1.49-0.36,2.24c-0.13,0.75-0.28,1.46-0.44,2.15
			l-0.08,0.28l-0.08,0.32c-0.06,0.22-0.22,0.32-0.48,0.32c-0.27,0-0.41-0.1-0.44-0.32c-0.1-1.22-0.52-2.02-1.24-2.39
			c-0.69-0.4-1.58-0.6-2.67-0.6h-0.68c-0.24,0-0.48,0.01-0.72,0.04c-0.26,0.03-0.54,0.04-0.84,0.04H49.6
			c-0.21,0-0.36,0.01-0.44,0.04c-0.06,0.03-0.19,0.02-0.4-0.04v10.66h5.87c0.13,0,0.33-0.04,0.6-0.12c0.26-0.1,0.53-0.23,0.8-0.35
			c0.29-0.14,0.55-0.24,0.76-0.32c0.24-0.1,0.43-0.17,0.56-0.2c0.16-0.03,0.31,0,0.44,0.08c0.14,0.08,0.19,0.19,0.16,0.32
			l-0.16,1.24l-0.16,1.2c-0.16,0.98-0.28,1.99-0.36,3.03c0,0.16-0.09,0.26-0.28,0.32c-0.19,0.05-0.37,0.01-0.52-0.12
			c-0.16-0.16-0.3-0.35-0.41-0.56l-0.2-0.56l-0.24-0.72c-0.05-0.24-0.15-0.41-0.28-0.52c-0.16-0.15-0.49-0.28-1-0.36
			c-0.5-0.1-1.06-0.17-1.67-0.2c-0.59-0.05-1.17-0.08-1.76-0.08h-1.43H48.8v10.78c0.48,0.82,1.19,1.42,2.11,1.79
			c0.96,0.35,1.88,0.52,2.75,0.52c1.15,0,2.13-0.31,2.95-0.92c0.86-0.61,1.42-1.51,1.72-2.71c0.3-0.23,0.41-0.23,0.52-0.2
			c0.1,0,0.2,0.03,0.28,0.12L59.26,50.16z M86.5,49.48c0,0.79-0.12,1.66-0.36,2.59c-0.21,0.93-0.51,1.75-0.92,2.47
			c-0.08,0.13-0.2,0.2-0.36,0.2c-1.67,0.26-3.36,0.48-5.07,0.64c-1.68,0.18-3.38,0.28-5.11,0.28c-2.18,0-4.2-0.34-6.06-1.03
			c-1.84-0.72-3.42-1.72-4.76-2.99c-1.33-1.3-2.38-2.84-3.15-4.63c-0.74-1.8-1.12-3.8-1.12-5.98c0-2.34,0.44-4.59,1.31-6.75
			c0.91-2.18,2.19-4.11,3.84-5.79c0.61-0.64,1.38-1.17,2.31-1.6c0.93-0.42,1.92-0.77,2.95-1.04c1.04-0.27,2.08-0.46,3.11-0.56
			c1.07-0.1,2.02-0.16,2.87-0.16c0.99,0,1.96,0.07,2.92,0.2c0.95,0.11,1.9,0.22,2.83,0.36l2.08,0.32c0.69,0.08,1.37,0.14,2.04,0.2
			c0.26,0,0.4,0.12,0.4,0.36c-0.03,1.22-0.11,2.45-0.24,3.67c-0.14,1.2-0.3,2.39-0.51,3.59c-0.06,0.21-0.22,0.32-0.48,0.32
			c-0.24,0-0.39-0.11-0.44-0.32c-0.18-1.14-0.55-2.14-1.08-2.99c-0.53-0.88-1.18-1.61-1.96-2.19c-0.77-0.59-1.65-1.02-2.63-1.32
			c-0.99-0.29-2.04-0.44-3.16-0.44c-1.84,0-3.5,0.29-4.99,0.88c-1.46,0.59-2.73,1.41-3.79,2.48c-1.03,1.03-1.85,2.31-2.44,3.83
			c-0.55,1.49-0.84,3.16-0.84,4.99c0,1.92,0.33,3.77,1,5.55c0.69,1.79,1.65,3.37,2.87,4.75c1.23,1.39,2.66,2.49,4.31,3.32
			c1.68,0.82,3.51,1.24,5.51,1.24c1.14,0,2.11-0.12,2.91-0.36c0.83-0.24,1.55-0.6,2.16-1.08c0.61-0.51,1.14-1.13,1.6-1.87
			c0.47-0.75,0.96-1.61,1.44-2.6l0.87,0.08C86.45,48.54,86.5,49.01,86.5,49.48z M101.57,41.93l-3.27-9.62l-1.56,4.83
			c-0.48,1.52-1.02,3.11-1.6,4.78H101.57z M166.8,50.16c-0.16,0.61-0.29,1.24-0.4,1.87l-0.24,1.88l-0.13,0.96
			c-0.05,0.18-0.18,0.28-0.39,0.28l-0.72,0.2h-5.07c-0.61,0-1.22,0.02-1.84,0.04h-1.83c-1.12,0-2.23-0.01-3.32-0.04
			c-0.84-0.02-1.65-0.06-2.42-0.13c-1.42,0.13-2.79,0.15-4.15,0.18c-1.33,0.02-2.67,0-4.03-0.08c-0.16,0-0.3-0.04-0.4-0.12
			c-0.08-0.1-0.09-0.22-0.04-0.36c0.11-0.35,0.16-0.68,0.16-1c0.03-0.34,0.04-0.69,0.04-1.03c0-1.92-0.09-3.92-0.28-6.03
			c-0.19-2.13-0.4-4.16-0.64-6.07l-0.2-1.56l-0.16-1.31l-0.16-1.36l-0.16-1.56c-1.2,2.32-2.36,4.64-3.47,6.99l-3.36,7.07l-1.44,3.07
			l-1.48,3.08c-0.07,0.13-0.2,0.2-0.36,0.2c-0.16,0-0.3-0.05-0.44-0.16c-1.65-2.23-3.07-4.55-4.27-6.94
			c-1.17-2.4-2.31-4.83-3.43-7.31l-0.76-1.6c-0.19-0.48-0.38-0.93-0.56-1.36l-0.6-1.32c-0.21-0.45-0.48-0.97-0.79-1.55
			c-0.05,0.75-0.13,1.49-0.24,2.24c-0.08,0.74-0.17,1.47-0.28,2.2c-0.26,1.83-0.51,3.71-0.72,5.62c-0.22,1.89-0.32,3.75-0.32,5.59
			v1.15v1.04c0.02,0.24,0.07,0.43,0.12,0.56c0.08,0.14,0.19,0.24,0.32,0.32c0.14,0.08,0.33,0.17,0.6,0.28l0.64,0.28
			c0.27,0.1,0.58,0.24,0.92,0.4c0.21,0.08,0.29,0.21,0.24,0.4c-0.03,0.16-0.17,0.24-0.44,0.24c-1.36,0-2.73,0.01-4.11,0.04
			c-1.06,0.03-2.11,0.01-3.17-0.03c-0.45,0.01-0.91,0.01-1.36,0h-2.36c-0.58,0-1.28,0.01-2.11,0.04c-0.83,0.03-1.52,0.01-2.08-0.04
			c-0.21-0.02-0.36-0.09-0.44-0.2c-0.08-0.1-0.04-0.22,0.12-0.36l1.4-0.72c-0.64-1.68-1.29-3.35-1.95-5.03
			c-0.64-1.68-1.27-3.35-1.87-5.03h-7.86c-0.22,0.48-0.5,1.19-0.84,2.12c-0.32,0.9-0.64,1.84-0.96,2.83
			c-0.32,0.96-0.6,1.87-0.84,2.75c-0.21,0.85-0.31,1.45-0.31,1.8c0,0.45,0.2,0.76,0.6,0.92c0.43,0.14,0.84,0.23,1.23,0.28
			c0.26,0.05,0.39,0.18,0.37,0.4c0,0.18-0.14,0.28-0.4,0.28l-8.31-0.04c-0.25-0.34-0.22-0.46-0.12-0.56l0.48-0.08
			c0.35,0,0.68-0.09,1-0.28c0.34-0.21,0.66-0.47,0.95-0.76c0.32-0.32,0.59-0.65,0.8-1c0.24-0.37,0.42-0.71,0.56-1.04
			c0.69-1.75,1.34-3.55,1.95-5.39c0.64-1.86,1.28-3.68,1.92-5.43c0.93-2.58,1.87-5.15,2.84-7.71l2.91-7.7
			c0.06-0.11,0.15-0.2,0.28-0.28c0.14-0.08,0.25-0.06,0.36,0.08c0.45,0.51,0.86,1.23,1.23,2.19c0.38,0.95,0.71,1.85,1,2.67
			c0.1,0.16,0.17,0.32,0.2,0.48c0.05,0.16,0.11,0.3,0.16,0.4c0.32,0.85,0.67,1.72,1.04,2.6c0.4,0.88,0.77,1.78,1.12,2.71l1.48,3.99
			l1.64,4.19c0.55,1.41,1.11,2.8,1.68,4.15c0.58,1.33,1.16,2.6,1.71,3.79c0.37,0.77,0.89,1.31,1.56,1.63
			c0.43,0.2,0.88,0.35,1.33,0.44l0.56-0.12c0.24-0.08,0.44-0.29,0.6-0.64c0.08-0.19,0.19-0.69,0.32-1.52
			c0.16-0.85,0.32-1.91,0.47-3.19l0.52-4.27c0.18-1.6,0.36-3.22,0.52-4.87c0.19-1.65,0.36-3.27,0.52-4.87
			c0.18-1.63,0.34-3.11,0.48-4.47c0.13-1.21,0.23-2.24,0.31-3.11l0.24-1.96c0.03-0.16,0.13-0.27,0.28-0.31
			c0.16-0.06,0.32-0.01,0.48,0.12c0.26,0.24,0.61,0.72,1.04,1.44c0.42,0.69,0.9,1.53,1.44,2.51c0.53,0.99,1.1,2.09,1.71,3.31
			l1.88,3.8l1.92,3.91l1.79,3.7c0.67,1.39,1.19,2.49,1.56,3.32c0.37,0.8,0.7,1.46,0.99,1.99c0.69-1.41,1.36-2.8,2-4.15
			c0.64-1.36,1.27-2.74,1.92-4.15c0.53-1.2,1.08-2.38,1.63-3.55c0.56-1.17,1.11-2.37,1.68-3.6l0.8-1.75l1.64-3.39
			c0.56-1.14,1.2-2.27,1.92-3.35c0.13-0.13,0.29-0.19,0.47-0.16c0.22,0.03,0.33,0.13,0.36,0.31c0.21,1.76,0.41,3.53,0.6,5.31
			c0.21,1.76,0.41,3.51,0.6,5.27l0.08,1.19l0.16,1.6l0.2,2.55c0.08,0.91,0.18,1.84,0.28,2.8l0.32,2.79
			c0.11,0.91,0.23,1.76,0.36,2.56c0.14,0.77,0.27,1.45,0.4,2.04c0.16,0.58,0.32,1.01,0.48,1.28c0.32,0.53,0.66,0.88,1.04,1.04
			c0.4,0.13,0.81,0.24,1.23,0.32c0.24,0.06,0.5,0.12,0.76,0.2c0.67,0.01,1.05-0.09,1.34-0.28c0.31-0.19,0.56-0.44,0.71-0.76
			c0.16-0.32,0.27-0.68,0.32-1.08c0.05-0.43,0.08-0.86,0.08-1.32V28.76c0-0.35-0.04-0.62-0.12-0.84c-0.08-0.21-0.2-0.37-0.36-0.48
			c-0.13-0.14-0.29-0.23-0.48-0.28l-0.52-0.16c-0.29-0.05-0.57-0.13-0.84-0.23c-0.26-0.11-0.53-0.25-0.8-0.44
			c-0.22-0.11-0.28-0.23-0.2-0.4c0.07-0.16,0.22-0.24,0.44-0.24h15.32c0.16,0,0.4-0.09,0.72-0.28c0.18-0.05,0.35-0.04,0.49,0.04
			c0.16,0.06,0.22,0.15,0.19,0.28c-0.08,0.75-0.19,1.49-0.36,2.24c-0.14,0.75-0.28,1.46-0.44,2.15l-0.08,0.28l-0.08,0.32
			c-0.05,0.22-0.22,0.32-0.48,0.32c-0.27,0-0.41-0.1-0.44-0.32c-0.1-1.22-0.52-2.02-1.24-2.39c-0.69-0.4-1.59-0.6-2.68-0.6h-0.68
			c-0.23,0-0.48,0.01-0.71,0.04c-0.27,0.03-0.55,0.04-0.84,0.04h-0.84c-0.21,0-0.36,0.01-0.44,0.04c-0.06,0.03-0.19,0.02-0.4-0.04
			v10.66h5.87c0.13,0,0.33-0.04,0.6-0.12c0.26-0.1,0.53-0.23,0.8-0.35c0.29-0.14,0.55-0.24,0.76-0.32c0.24-0.1,0.42-0.17,0.56-0.2
			c0.16-0.03,0.3,0,0.44,0.08c0.14,0.08,0.18,0.19,0.16,0.32l-0.16,1.24l-0.16,1.2c-0.16,0.98-0.28,1.99-0.36,3.03
			c0,0.16-0.09,0.26-0.29,0.32c-0.18,0.05-0.35,0.01-0.51-0.12c-0.16-0.16-0.29-0.35-0.4-0.56l-0.2-0.56l-0.24-0.72
			c-0.04-0.24-0.14-0.41-0.27-0.52c-0.16-0.15-0.49-0.28-1-0.36c-0.51-0.1-1.06-0.17-1.68-0.2c-0.58-0.05-1.17-0.08-1.75-0.08h-1.44
			h-0.68v10.78c0.48,0.82,1.19,1.42,2.12,1.79c0.95,0.35,1.87,0.52,2.75,0.52c1.15,0,2.13-0.31,2.96-0.92
			c0.85-0.61,1.42-1.51,1.72-2.71c0.31-0.23,0.41-0.23,0.52-0.2c0.11,0,0.2,0.03,0.28,0.12L166.8,50.16z M196.49,55.27
			c-0.61,0.3-1.25,0.52-1.91,0.68c-0.67,0.16-1.35,0.24-2.04,0.24c-1.12,0-2.13-0.21-3.03-0.63c-0.88-0.4-1.71-0.93-2.48-1.6
			c-0.75-0.69-1.45-1.47-2.12-2.32c-0.63-0.85-1.26-1.71-1.88-2.59c-0.61-0.86-1.23-1.67-1.84-2.48c-0.59-0.82-1.2-1.52-1.84-2.08
			c-0.48-0.42-1.08-0.69-1.8-0.8c-0.69-0.11-1.31-0.16-1.88-0.16h-0.72c-0.24,0-0.46,0.01-0.68,0.04V51l0.04,0.68l0.2,1.04
			l0.24,0.95c0.08,0.3,0.16,0.47,0.24,0.52c0.13,0.05,0.3,0.09,0.52,0.12l0.56,0.08c0.29,0.02,0.58,0.06,0.87,0.12
			c0.32,0.05,0.6,0.19,0.84,0.4c0.16,0.14,0.2,0.27,0.12,0.4c-0.08,0.13-0.22,0.2-0.44,0.2h-4.87c-1.62,0-3.24-0.04-4.86-0.12
			c-0.27-0.02-0.42-0.14-0.45-0.32c0-0.21,0.14-0.35,0.4-0.4c0.59-0.1,1.04-0.22,1.35-0.36c0.32-0.13,0.55-0.32,0.68-0.56
			c0.16-0.24,0.25-0.56,0.28-0.96c0.03-0.42,0.03-0.96,0.03-1.6V29.09c0-0.45-0.05-0.82-0.16-1.08c-0.11-0.27-0.24-0.45-0.4-0.56
			c-0.16-0.14-0.33-0.22-0.52-0.24c-0.18-0.05-0.37-0.09-0.55-0.13c-0.38-0.02-0.69-0.08-0.97-0.16c-0.26-0.07-0.44-0.25-0.51-0.52
			c-0.08-0.13-0.08-0.24,0-0.31c0.08-0.11,0.22-0.16,0.4-0.16h0.71h2.64c0.45,0.03,0.88,0.04,1.28,0.04c0.4-0.03,0.8-0.04,1.24-0.04
			h0.68c0.23-0.03,0.48-0.04,0.72-0.04h2.11c1.12,0,2.21,0.08,3.27,0.24c1.09,0.14,2.09,0.42,2.99,0.87
			c0.93,0.42,1.73,1.05,2.4,1.88c0.67,0.79,1.16,1.86,1.48,3.19c0.05,0.14,0.08,0.31,0.08,0.52c0.03,0.21,0.04,0.41,0.04,0.6
			c0,0.83-0.13,1.65-0.4,2.47c-0.27,0.8-0.61,1.58-1.04,2.36c-0.42,0.77-0.92,1.51-1.48,2.2c-0.53,0.66-1.09,1.28-1.68,1.83
			c0.43,0.45,0.87,1,1.32,1.64l1.44,1.91l2.47,3.31c0.88,1.12,1.78,2.13,2.72,3.04c0.95,0.88,1.92,1.58,2.91,2.11
			c0.98,0.5,1.99,0.68,2.99,0.52L196.49,55.27z M182.63,35.23c0-0.93-0.13-1.87-0.4-2.8c-0.23-0.93-0.61-1.76-1.11-2.48
			c-0.51-0.74-1.14-1.34-1.91-1.79c-0.74-0.48-1.63-0.72-2.64-0.72c-0.77,0-1.51,0.12-2.23,0.36v13.13
			c1.06,0.16,2.17,0.24,3.31,0.24c0.45,0,0.97-0.03,1.56-0.08c0.58-0.05,1.06-0.22,1.44-0.52c0.37-0.29,0.68-0.64,0.91-1.03
			c0.27-0.43,0.48-0.88,0.64-1.36c0.16-0.48,0.26-0.97,0.32-1.48C182.59,36.2,182.63,35.71,182.63,35.23z M219.23,41.46
			c0,2.05-0.36,3.87-1.08,5.47c-0.72,1.59-1.71,2.98-2.96,4.15c-1.22,1.17-2.66,2.14-4.31,2.91c-1.65,0.77-3.41,1.37-5.27,1.8
			l-0.6,0.08c-0.22,0.02-0.45,0.04-0.72,0.04c-0.24,0.03-0.5,0.04-0.76,0.04h-0.6c-1.09,0-2.22-0.2-3.39-0.6
			c-1.17-0.4-2.31-0.93-3.4-1.6c-1.09-0.69-2.12-1.5-3.11-2.43c-0.96-0.93-1.8-1.93-2.52-3c-0.72-1.09-1.3-2.22-1.72-3.39
			c-0.43-1.17-0.64-2.34-0.64-3.52c0-2.34,0.25-4.41,0.76-6.23c0.51-1.81,1.32-3.38,2.44-4.71c1.11-1.33,2.55-2.43,4.31-3.31
			c1.76-0.9,3.88-1.63,6.39-2.15c0.37-0.08,0.76-0.13,1.15-0.16c0.42-0.06,0.83-0.08,1.2-0.08c2.5,0,4.69,0.51,6.55,1.52
			c1.86,1.01,3.4,2.31,4.63,3.91c1.22,1.6,2.13,3.4,2.71,5.39C218.92,37.56,219.23,39.52,219.23,41.46z M215.2,41.38
			c0-1.73-0.25-3.45-0.76-5.15c-0.5-1.73-1.26-3.27-2.28-4.63c-0.98-1.36-2.21-2.46-3.67-3.31c-1.44-0.86-3.1-1.28-4.99-1.28
			c-1.79,0-3.36,0.33-4.76,1c-1.35,0.64-2.52,1.53-3.47,2.67c-0.93,1.12-1.65,2.44-2.16,3.96c-0.48,1.48-0.71,3.08-0.71,4.79
			c0,1.73,0.25,3.46,0.76,5.18c0.53,1.74,1.3,3.29,2.31,4.67c1.01,1.39,2.25,2.52,3.71,3.4c1.49,0.85,3.18,1.28,5.07,1.28
			c1.79,0,3.35-0.33,4.71-1c1.36-0.69,2.49-1.61,3.4-2.76c0.94-1.14,1.64-2.47,2.12-3.99C214.96,44.67,215.2,43.06,215.2,41.38z
			 M248.37,27.01c-0.08,0.03-0.17,0.08-0.28,0.16c-0.67,0.3-1.09,0.44-1.52,0.6c-0.4,0.16-0.6,0.47-0.6,0.92
			c0,4.44,0.01,8.89,0.04,13.33c0.05,4.44-0.1,8.88-0.44,13.29c-0.03,0.16-0.13,0.27-0.32,0.32c-0.15,0.05-0.32,0.03-0.47-0.08
			c-1.7-1.44-3.39-2.97-5.07-4.59c-1.65-1.63-3.29-3.29-4.91-4.99c-1.6-1.73-3.18-3.46-4.75-5.19l-4.63-5.15
			c-0.45-0.53-0.84-0.97-1.16-1.32l-1.21-1.32c-0.08,0.77-0.12,1.5-0.12,2.19c0,1.33,0.03,2.65,0.08,3.95l0.16,3.91l0.16,4.03
			c0.05,1.31,0.08,2.62,0.08,3.95c0,0.64,0.05,1.15,0.16,1.52c0.11,0.37,0.24,0.67,0.4,0.89c0.19,0.21,0.4,0.37,0.64,0.47
			c0.24,0.08,0.48,0.15,0.71,0.2c0.27,0.05,0.54,0.13,0.8,0.24c0.29,0.07,0.58,0.21,0.88,0.4c0.19,0.11,0.24,0.24,0.16,0.4
			c-0.08,0.13-0.23,0.2-0.44,0.2l-5.07-0.12c-0.69-0.02-1.4,0.01-2.11,0.12c-0.72,0.08-1.4,0.05-2.03-0.08
			c-0.24-0.05-0.35-0.17-0.32-0.36c0.05-0.19,0.2-0.3,0.44-0.36l0.56-0.13c0.61-0.13,1.1-0.4,1.47-0.79c0.4-0.43,0.6-0.97,0.6-1.64
			V26.85c0-0.22,0.06-0.39,0.16-0.52c0.11-0.16,0.24-0.32,0.4-0.48c0.21-0.16,0.43-0.16,0.64,0c7.37,7.53,14.57,15.17,21.59,22.91
			v-0.6c0.03-0.21,0.04-0.43,0.04-0.64c0-2.93-0.05-5.84-0.16-8.74c-0.08-2.9-0.12-5.81-0.12-8.74c0-0.61-0.07-1.09-0.21-1.44
			c-0.13-0.35-0.3-0.6-0.51-0.76c-0.18-0.18-0.4-0.3-0.64-0.36l-0.72-0.16l-0.8-0.16c-0.21-0.05-0.39-0.16-0.52-0.32
			c-0.15-0.11-0.21-0.23-0.15-0.37c0.07-0.13,0.23-0.2,0.44-0.2h2.88h2.83c0.96-0.02,1.92-0.01,2.87,0.04L248.37,27.01z"/>
	</g>
	<g>
		<g>
			<path fill="#414141" d="M112.97,89.5c-0.05,0.27-0.22,1.04-0.29,1.28h-3.7v-0.23c0.68-0.05,0.75-0.11,0.75-0.79v-3.2
				c0-0.68-0.06-0.73-0.71-0.78v-0.23h2.17v0.23c-0.63,0.05-0.71,0.09-0.71,0.78v3.18c0,0.43,0.04,0.58,0.19,0.66
				c0.15,0.09,0.42,0.1,0.74,0.1c0.43,0,0.7-0.04,0.89-0.25c0.14-0.16,0.29-0.42,0.42-0.8L112.97,89.5z"/>
		</g>
		<g>
			<path fill="#414141" d="M113.3,90.78v-0.22c0.5-0.05,0.56-0.1,0.56-0.65v-1.65c0-0.51-0.03-0.54-0.49-0.61v-0.2
				c0.42-0.06,0.83-0.17,1.2-0.31v2.77c0,0.55,0.05,0.6,0.56,0.65v0.22H113.3z M113.73,86.05c0-0.26,0.2-0.45,0.44-0.45
				c0.23,0,0.43,0.19,0.43,0.45c0,0.23-0.19,0.44-0.44,0.44C113.93,86.48,113.73,86.28,113.73,86.05z"/>
		</g>
		<g>
			<path fill="#414141" d="M119.88,90.78v-0.22c0.45-0.05,0.53-0.09,0.53-0.65v-1.35c0-0.59-0.22-0.9-0.68-0.9
				c-0.27,0-0.56,0.14-0.85,0.39c0.02,0.1,0.02,0.19,0.02,0.34v1.58c0,0.5,0.07,0.55,0.5,0.6v0.22h-1.75v-0.22
				c0.48-0.05,0.54-0.09,0.54-0.6v-1.4c0-0.6-0.22-0.9-0.68-0.9c-0.3,0-0.6,0.2-0.83,0.4v1.91c0,0.51,0.06,0.56,0.44,0.6v0.22h-1.74
				v-0.22c0.52-0.05,0.59-0.09,0.59-0.62v-1.67c0-0.51-0.02-0.55-0.48-0.62v-0.19c0.35-0.06,0.79-0.17,1.18-0.33v0.65
				c0.17-0.12,0.34-0.26,0.57-0.4c0.22-0.14,0.41-0.22,0.67-0.22c0.4,0,0.73,0.25,0.9,0.66c0.23-0.18,0.46-0.32,0.65-0.45
				c0.18-0.11,0.39-0.21,0.61-0.21c0.65,0,1.04,0.45,1.04,1.24v1.56c0,0.53,0.05,0.56,0.51,0.61v0.22H119.88z"/>
		</g>
		<g>
			<path fill="#414141" d="M124.53,90.88c-0.14,0-0.31-0.07-0.4-0.16c-0.1-0.1-0.16-0.22-0.19-0.35c-0.32,0.22-0.71,0.51-0.94,0.51
				c-0.59,0-0.99-0.49-0.99-0.99c0-0.4,0.21-0.64,0.65-0.79c0.48-0.17,1.08-0.39,1.26-0.53V88.4c0-0.56-0.26-0.89-0.64-0.89
				c-0.14,0-0.27,0.06-0.35,0.15c-0.1,0.11-0.17,0.29-0.23,0.54c-0.04,0.14-0.13,0.2-0.26,0.2c-0.15,0-0.38-0.16-0.38-0.35
				c0-0.13,0.1-0.22,0.27-0.34c0.23-0.17,0.77-0.48,1.23-0.56c0.25,0,0.5,0.07,0.68,0.22c0.3,0.24,0.38,0.57,0.38,1.01v1.47
				c0,0.36,0.14,0.48,0.27,0.48c0.1,0,0.21-0.04,0.29-0.08l0.08,0.22L124.53,90.88z M123.92,88.85c-0.17,0.09-0.5,0.24-0.68,0.32
				c-0.3,0.14-0.47,0.29-0.47,0.59c0,0.42,0.32,0.61,0.56,0.61c0.19,0,0.44-0.12,0.59-0.26V88.85z"/>
		</g>
		<g>
			<path fill="#414141" d="M127.39,88.9c0-0.28,0.2-0.49,0.48-0.49c0.28,0,0.49,0.21,0.49,0.49c0,0.3-0.21,0.5-0.49,0.5
				C127.6,89.4,127.39,89.2,127.39,88.9z"/>
		</g>
		<g>
			<path fill="#414141" d="M132.86,85.54c0.58,0,1.04,0.1,1.36,0.33c0.33,0.24,0.53,0.62,0.53,1.14c0,1.06-0.78,1.56-1.58,1.66
				c-0.12,0.02-0.27,0.02-0.35,0.01l-0.59-0.15v1.24c0,0.68,0.06,0.73,0.78,0.77v0.23h-2.24v-0.23c0.64-0.05,0.71-0.11,0.71-0.78
				v-3.2c0-0.71-0.07-0.74-0.66-0.79v-0.23H132.86z M132.23,88.26c0.1,0.04,0.31,0.09,0.56,0.09c0.48,0,1.12-0.27,1.12-1.3
				c0-0.88-0.54-1.24-1.18-1.24c-0.21,0-0.36,0.04-0.42,0.1c-0.06,0.05-0.08,0.14-0.08,0.35V88.26z"/>
		</g>
		<g>
			<path fill="#414141" d="M137.91,90.08c-0.51,0.65-1.07,0.8-1.34,0.8c-1.01,0-1.59-0.81-1.59-1.72c0-0.56,0.21-1.06,0.54-1.42
				c0.34-0.37,0.77-0.59,1.19-0.59c0.69,0,1.23,0.6,1.23,1.24c0,0.16-0.03,0.23-0.19,0.27c-0.13,0.02-1.14,0.1-2.07,0.13
				c0.02,1.06,0.62,1.51,1.19,1.51c0.32,0,0.63-0.13,0.92-0.4L137.91,90.08z M135.72,88.45c0.43,0,0.85-0.01,1.29-0.02
				c0.14,0,0.18-0.04,0.18-0.16c0.01-0.42-0.25-0.81-0.67-0.81C136.18,87.45,135.83,87.8,135.72,88.45z"/>
		</g>
		<g>
			<path fill="#414141" d="M139.58,88.01c0.25-0.43,0.59-0.85,0.96-0.85c0.29,0,0.48,0.22,0.48,0.42c0,0.19-0.11,0.35-0.28,0.43
				c-0.1,0.04-0.17,0.03-0.22-0.02c-0.12-0.11-0.22-0.16-0.35-0.16c-0.19,0-0.44,0.21-0.6,0.64v1.48c0,0.52,0.04,0.57,0.66,0.62
				v0.22h-1.92v-0.22c0.49-0.05,0.55-0.1,0.55-0.62v-1.69c0-0.52-0.04-0.54-0.48-0.61v-0.19c0.41-0.06,0.78-0.16,1.19-0.32v0.87
				H139.58z"/>
		</g>
		<g>
			<path fill="#414141" d="M145.3,90.59c-0.39,0.06-0.81,0.17-1.23,0.29l-0.06-0.05v-0.56c-0.18,0.14-0.34,0.27-0.56,0.4
				c-0.23,0.14-0.42,0.21-0.64,0.21c-0.56,0-1.01-0.35-1.01-1.19V88.1c0-0.44-0.03-0.48-0.49-0.56v-0.2
				c0.4-0.02,0.81-0.07,1.22-0.14c-0.02,0.27-0.03,0.65-0.03,1.19v1.1c0,0.68,0.34,0.88,0.69,0.88c0.28,0,0.56-0.11,0.81-0.36v-1.9
				c0-0.45-0.04-0.48-0.6-0.56v-0.2c0.43-0.02,0.87-0.06,1.31-0.14v2.68c0,0.41,0.06,0.47,0.37,0.49l0.21,0.02V90.59z M142.92,86.7
				c0.15-0.33,0.46-1.14,0.52-1.28c0.07-0.04,0.59-0.11,0.69-0.08l0.03,0.08l-1.03,1.39L142.92,86.7z"/>
		</g>
	</g>
</g>
<g>
</g>
<g>
</g>
<g>
</g>
<g>
</g>
<g>
</g>
<g>
</g>
<g>
</g>
<g>
</g>
<g>
</g>
<g>
</g>
<g>
</g>
<g>
</g>
<g>
</g>
<g>
</g>
<g>
</g>
</svg>
