<?xml version="1.0" encoding="utf-8"?>
<!-- Generator: Adobe Illustrator 23.0.0, SVG Export Plug-In . SVG Version: 6.00 Build 0)  -->
<svg version="1.1" id="Capa_1" xmlns="http://www.w3.org/2000/svg" xmlns:xlink="http://www.w3.org/1999/xlink" x="0px" y="0px"
	 viewBox="0 0 158.78 76.66" enable-background="new 0 0 158.78 76.66" xml:space="preserve">
<g>
	<g>
		<path fill-rule="evenodd" clip-rule="evenodd" fill="#898989" d="M3.23,4.69h54.55c7.5,0,13.64,6.14,13.64,13.64v40.91
			c0,7.5-6.14,13.64-13.64,13.64H16.87c-7.5,0-13.64-6.14-13.64-13.64V31.96V4.69z"/>
		<path fill-rule="evenodd" clip-rule="evenodd" fill="#C1C1C1" d="M52.77,18.33c-5.22-5.55-12.62-9.02-20.84-9.02
			c-15.8,0-28.61,12.8-28.61,28.6c0,8.21,3.46,15.62,9.01,20.84c-4.82-5.12-7.77-12.01-7.76-19.6c0-15.8,12.82-28.6,28.61-28.6
			C40.76,10.56,47.65,13.51,52.77,18.33 M52.76,18.32c5.55,5.22,9.01,12.62,9.01,20.84c0,15.8-12.81,28.61-28.61,28.61
			c-8.21,0-15.62-3.47-20.84-9.01c5.12,4.82,12.01,7.77,19.59,7.77c15.8,0,28.61-12.81,28.61-28.61
			C60.53,30.33,57.58,23.44,52.76,18.32z"/>
		<path fill-rule="evenodd" clip-rule="evenodd" fill="#C1C1C1" d="M16.02,63.76c11.5-8.19,26.13-10.51,40.27-6.96l0.19-1.46
			l1.84,2.85l-2.85,0.25l0.61-0.95C42.92,54.65,29,56.67,16.02,63.76"/>
		<path fill-rule="evenodd" clip-rule="evenodd" fill="#C1C1C1" d="M49.4,12.27c-11.2,8.6-25.73,11.45-39.99,8.43l-0.14,1.46
			l-1.94-2.78l2.84-0.36L9.6,19.99C22.86,22.34,36.7,19.82,49.4,12.27"/>
		<path fill-rule="evenodd" clip-rule="evenodd" fill="#C1C1C1" d="M43.68,69.39c5.84-22.71,2.6-43.6-9.66-62.71l1.96-0.6
			l-4.36-1.19l0.35,4.26l1.07-1.47C44.53,24.3,47.17,45.34,43.68,69.39"/>
		<path fill-rule="evenodd" clip-rule="evenodd" fill="#C1C1C1" d="M21.93,7.96c-5.84,22.71-2.6,43.6,9.66,62.71l-1.96,0.6
			l4.36,1.19l-0.35-4.26l-1.07,1.47C21.08,53.06,18.44,32.02,21.93,7.96"/>
		<path fill-rule="evenodd" clip-rule="evenodd" fill="#FFFFFF" d="M30.92,34.92c-1.71,0-3.12-0.5-4.2-1.52
			c-1.09-1.02-1.64-2.26-1.64-3.74c0-1.52,0.55-2.77,1.64-3.73c1.08-0.96,2.49-1.44,4.2-1.44c1.73,0,3.14,0.48,4.22,1.44
			c1.08,0.96,1.62,2.21,1.62,3.73c0,1.53-0.54,2.8-1.62,3.79C34.06,34.43,32.65,34.92,30.92,34.92 M35.91,72.92H25.8V40.1h10.11
			V72.92z M71.75,72.92h-9.58v-4.72h-0.13c-2.2,3.66-5.45,5.5-9.77,5.5c-3.18,0-5.69-0.9-7.52-2.7c-1.83-1.81-2.73-4.21-2.73-7.22
			c0-6.36,3.77-10.03,11.31-11.02l8.9-1.18c0-3.59-1.95-5.38-5.84-5.38c-3.91,0-7.63,1.16-11.16,3.48v-7.61
			c1.41-0.72,3.34-1.37,5.79-1.93c2.45-0.56,4.68-0.83,6.68-0.83c9.36,0,14.05,4.67,14.05,14V72.92z M62.24,59.59v-2.22l-5.96,0.77
			c-3.29,0.44-4.93,1.93-4.93,4.47c0,1.15,0.4,2.1,1.2,2.84c0.8,0.73,1.88,1.1,3.25,1.1c1.9,0,3.46-0.66,4.65-1.98
			C61.64,63.26,62.24,61.6,62.24,59.59z"/>
	</g>
	<g>
		<rect x="87.03" y="5.97" fill-rule="evenodd" clip-rule="evenodd" fill="#5B5B5B" width="67.75" height="67.75"/>
		<g>
			<path fill-rule="evenodd" clip-rule="evenodd" fill="#FFFFFF" d="M97.13,48.73h1.47c1.17,0,2.13,0.15,3.05,0.94
				c0.89,0.77,1.3,1.81,1.3,2.98c0,1.14-0.42,2.15-1.27,2.91c-0.93,0.83-1.87,0.98-3.09,0.98h-1.45V48.73L97.13,48.73z M98.64,55.73
				L98.64,55.73c0.95,0,1.75-0.13,2.47-0.81c0.64-0.6,0.97-1.42,0.97-2.29c0-0.89-0.34-1.75-1.02-2.34
				c-0.71-0.63-1.5-0.76-2.42-0.76H98v6.2H98.64z"/>
			<polygon fill-rule="evenodd" clip-rule="evenodd" fill="#FFFFFF" points="104.16,48.73 108.22,48.73 108.22,49.53 105.03,49.53 
				105.03,51.86 108.12,51.86 108.12,52.67 105.03,52.67 105.03,55.73 108.22,55.73 108.22,56.54 104.16,56.54 			"/>
			<path fill-rule="evenodd" clip-rule="evenodd" fill="#FFFFFF" d="M113.24,50.25c-0.31-0.54-0.68-0.85-1.35-0.85
				c-0.69,0-1.3,0.5-1.3,1.21c0,0.68,0.7,0.99,1.22,1.22l0.52,0.23c1.01,0.45,1.88,0.95,1.88,2.2c0,1.37-1.1,2.42-2.46,2.42
				c-1.25,0-2.19-0.81-2.44-2.02l0.85-0.24c0.11,0.8,0.72,1.45,1.57,1.45c0.84,0,1.61-0.64,1.61-1.52c0-0.92-0.72-1.22-1.44-1.56
				l-0.48-0.21c-0.91-0.41-1.7-0.88-1.7-2c0-1.21,1.03-1.99,2.19-1.99c0.87,0,1.61,0.45,2.02,1.21L113.24,50.25z"/>
			<polygon fill-rule="evenodd" clip-rule="evenodd" fill="#FFFFFF" points="117.56,56.54 116.69,56.54 116.69,49.53 114.81,49.53 
				114.81,48.73 119.47,48.73 119.47,49.53 117.56,49.53 			"/>
			<rect x="120.38" y="48.73" fill-rule="evenodd" clip-rule="evenodd" fill="#FFFFFF" width="0.87" height="7.81"/>
			<polygon fill-rule="evenodd" clip-rule="evenodd" fill="#FFFFFF" points="122.89,48.39 128.99,54.78 128.99,48.73 129.86,48.73 
				129.86,56.89 123.76,50.52 123.76,56.54 122.89,56.54 			"/>
			<path fill-rule="evenodd" clip-rule="evenodd" fill="#FFFFFF" d="M139.24,52.64c0,2.25-1.85,4.03-4.07,4.03
				c-2.23,0-4.07-1.78-4.07-4.03c0-2.24,1.85-4.05,4.07-4.05C137.4,48.59,139.24,50.41,139.24,52.64L139.24,52.64z M131.96,52.63
				L131.96,52.63c0,1.76,1.43,3.23,3.2,3.23c1.77,0,3.2-1.47,3.2-3.23c0-1.77-1.41-3.23-3.2-3.23
				C133.37,49.4,131.96,50.86,131.96,52.63z"/>
			<path fill-rule="evenodd" clip-rule="evenodd" fill="#FFFFFF" d="M143.97,50.25c-0.31-0.54-0.68-0.85-1.35-0.85
				c-0.69,0-1.3,0.5-1.3,1.21c0,0.68,0.69,0.99,1.22,1.22l0.52,0.23c1.02,0.45,1.88,0.95,1.88,2.2c0,1.37-1.1,2.42-2.46,2.42
				c-1.26,0-2.19-0.81-2.44-2.02l0.85-0.24c0.11,0.8,0.72,1.45,1.57,1.45c0.84,0,1.61-0.64,1.61-1.52c0-0.92-0.72-1.22-1.44-1.56
				l-0.48-0.21c-0.91-0.41-1.7-0.88-1.7-2c0-1.21,1.03-1.99,2.19-1.99c0.87,0,1.61,0.45,2.02,1.21L143.97,50.25z"/>
		</g>
		<g>
			<path fill-rule="evenodd" clip-rule="evenodd" fill="#FFFFFF" d="M97.04,25.15h4.08c3.25,0,5.9,0.43,8.46,2.62
				c2.47,2.13,3.6,5.03,3.6,8.26c0,3.17-1.15,5.96-3.54,8.08c-2.59,2.31-5.18,2.74-8.57,2.74h-4.03V25.15L97.04,25.15z M101.21,44.6
				L101.21,44.6c2.65,0,4.86-0.37,6.85-2.25c1.78-1.67,2.71-3.94,2.71-6.36c0-2.47-0.95-4.86-2.82-6.5c-1.98-1.76-4.17-2.1-6.73-2.1
				h-1.76V44.6H101.21z"/>
		</g>
		<g>
			<g>
				<path fill-rule="evenodd" clip-rule="evenodd" d="M119.37,27.49h0.09c1.15-1.8,3-2.96,5.22-2.96c2.54,0,4.85,1.34,6,3.6
					c1.29-2.4,3.88-3.6,6.51-3.6c5.54,0,6.93,4.53,6.93,9.1v13.21h-3.69V34.23c0-2.82-0.19-6.28-3.97-6.28
					c-4.25,0-4.71,4.11-4.71,7.39v11.5h-3.69V34.51c0-2.68-0.32-6.56-3.88-6.56c-4.34,0-4.8,4.39-4.8,7.67v11.22h-3.7V25.13h3.7
					V27.49z"/>
			</g>
		</g>
		<g>
			<g>
				<path fill-rule="evenodd" clip-rule="evenodd" d="M98.2,62h0.02c0.28-0.43,0.72-0.71,1.26-0.71c0.61,0,1.17,0.33,1.45,0.87
					c0.31-0.58,0.93-0.87,1.57-0.87c1.34,0,1.67,1.09,1.67,2.2v3.18h-0.89v-3.04c0-0.68-0.05-1.52-0.96-1.52
					c-1.02,0-1.14,0.99-1.14,1.78v2.77h-0.89v-2.97c0-0.64-0.08-1.58-0.94-1.58c-1.05,0-1.16,1.06-1.16,1.85v2.71h-0.89v-5.23h0.89
					V62z"/>
				<path fill-rule="evenodd" clip-rule="evenodd" d="M106.69,64.35c0,0.88,0.1,1.64,1.18,1.64c1.08,0,1.18-0.76,1.18-1.64v-2.92
					h0.89v3.02c0,1.39-0.52,2.36-2.07,2.36c-1.55,0-2.07-0.97-2.07-2.36v-3.02h0.89V64.35z"/>
				<path fill-rule="evenodd" clip-rule="evenodd" d="M112.46,62.06h0.02c0.37-0.5,0.85-0.78,1.49-0.78c1.45,0,1.78,1.05,1.78,2.27
					v3.11h-0.89v-2.95c0-0.85-0.07-1.61-1.1-1.61c-1.23,0-1.31,1.14-1.31,2.07v2.48h-0.89v-5.23h0.89V62.06z"/>
				<path fill-rule="evenodd" clip-rule="evenodd" d="M121.34,65.94h-0.02c-0.44,0.57-1.09,0.87-1.81,0.87
					c-1.54,0-2.51-1.3-2.51-2.75c0-1.49,0.95-2.77,2.52-2.77c0.7,0,1.37,0.33,1.8,0.89h0.02v-4.7h0.89v9.19h-0.89V65.94
					L121.34,65.94z M117.92,63.99L117.92,63.99c0,1.03,0.6,2,1.72,2c1.15,0,1.75-0.93,1.75-1.98c0-1.05-0.66-1.9-1.76-1.9
					C118.59,62.11,117.92,63.01,117.92,63.99z"/>
				<path fill-rule="evenodd" clip-rule="evenodd" d="M125.13,59.46c0,0.36-0.29,0.64-0.63,0.64c-0.35,0-0.63-0.28-0.63-0.64
					c0-0.35,0.29-0.64,0.63-0.64C124.84,58.82,125.13,59.11,125.13,59.46L125.13,59.46z M124.94,66.66L124.94,66.66h-0.89v-5.23
					h0.89V66.66z"/>
				<path fill-rule="evenodd" clip-rule="evenodd" d="M131.58,66.66h-0.89v-0.72h-0.02c-0.46,0.58-1.07,0.87-1.81,0.87
					c-1.54,0-2.51-1.3-2.51-2.75c0-1.49,0.95-2.77,2.52-2.77c0.71,0,1.36,0.33,1.79,0.89h0.02v-0.74h0.89V66.66L131.58,66.66z
					 M127.26,63.99L127.26,63.99c0,1.03,0.6,2,1.72,2c1.15,0,1.75-0.93,1.75-1.98c0-1.05-0.66-1.9-1.76-1.9
					C127.93,62.11,127.26,63.01,127.26,63.99z"/>
				<rect x="133.2" y="57.47" fill-rule="evenodd" clip-rule="evenodd" width="0.89" height="9.19"/>
				<path fill-rule="evenodd" clip-rule="evenodd" d="M136.2,64.24c0.01,0.97,0.7,1.75,1.72,1.75c0.75,0,1.24-0.46,1.59-1.08
					l0.76,0.44c-0.5,0.94-1.35,1.47-2.42,1.47c-1.56,0-2.56-1.19-2.56-2.69c0-1.55,0.9-2.83,2.54-2.83c1.68,0,2.57,1.39,2.48,2.95
					H136.2L136.2,64.24z M139.37,63.48L139.37,63.48c-0.12-0.76-0.76-1.37-1.54-1.37c-0.77,0-1.48,0.61-1.59,1.37H139.37z"/>
				<path fill-rule="evenodd" clip-rule="evenodd" d="M143.65,62.64c-0.12-0.28-0.39-0.54-0.71-0.54c-0.31,0-0.65,0.25-0.65,0.58
					c0,0.48,0.6,0.66,1.21,0.91c0.61,0.26,1.22,0.62,1.22,1.5c0,0.99-0.8,1.71-1.77,1.71c-0.88,0-1.57-0.5-1.85-1.33l0.79-0.33
					c0.22,0.49,0.48,0.84,1.07,0.84c0.48,0,0.85-0.33,0.85-0.8c0-1.17-2.36-0.77-2.36-2.42c0-0.88,0.71-1.48,1.56-1.48
					c0.6,0,1.16,0.42,1.39,0.97L143.65,62.64z"/>
			</g>
		</g>
		<path fill-rule="evenodd" clip-rule="evenodd" d="M98.15,21.87c0,0,7.93-9.22,22.53-10.11c16.9-1.03,23.18,8.3,23.18,8.3
			S123.6,4.2,98.15,21.87z"/>
	</g>
</g>
<g>
</g>
<g>
</g>
<g>
</g>
<g>
</g>
<g>
</g>
<g>
</g>
<g>
</g>
<g>
</g>
<g>
</g>
<g>
</g>
<g>
</g>
<g>
</g>
<g>
</g>
<g>
</g>
<g>
</g>
</svg>
