<?xml version="1.0" encoding="utf-8"?>
<!-- Generator: Adobe Illustrator 23.0.0, SVG Export Plug-In . SVG Version: 6.00 Build 0)  -->
<svg version="1.1" id="Capa_1" xmlns="http://www.w3.org/2000/svg" xmlns:xlink="http://www.w3.org/1999/xlink" x="0px" y="0px"
	 viewBox="0 0 139.34 139.77" enable-background="new 0 0 139.34 139.77" xml:space="preserve">
<g>
	<g>
		<g>
			<g>
				<path fill="#FFFFFF" d="M128.27,18.49c-23.38-3.08-58.24-19.17-87.43-2.88c-4.6,2.13-8.99,4.9-13.04,8.36
					c-28.43,24.31-17.42,70.13-16.72,97.31c23.38,3.08,58.24,19.17,87.43,2.88c4.6-2.13,9-4.9,13.04-8.36
					C139.98,91.49,128.96,45.66,128.27,18.49z"/>
			</g>
			<g>
				<path fill="#FFFFFF" d="M68.77,138.97c-14.14,0-28-3.34-40.2-6.27c-6.73-1.62-13.08-3.15-18.5-3.86l-6.46-0.85l-0.16-6.51
					c-0.13-4.88-0.62-10.58-1.13-16.6c-2.34-27.18-5.54-64.41,20.52-86.7c4.39-3.76,9.28-6.91,14.54-9.37
					C61.84-4.7,88.97,1.83,110.77,7.08c6.73,1.62,13.08,3.15,18.5,3.86l6.45,0.85l0.16,6.51c0.13,4.88,0.62,10.57,1.13,16.59
					c2.34,27.19,5.54,64.42-20.52,86.7c-4.39,3.76-9.28,6.91-14.54,9.36C91.19,136.91,79.89,138.97,68.77,138.97z M18.4,114.77
					c4.38,0.85,8.97,1.96,13.74,3.11c20.29,4.88,43.31,10.42,62.65-0.37l0.52-0.27c4.09-1.89,7.88-4.32,11.28-7.23
					c20.1-17.19,17.4-48.59,15.24-73.81c-0.34-3.88-0.65-7.64-0.89-11.2c-4.38-0.85-8.97-1.96-13.74-3.11
					c-20.3-4.89-43.3-10.43-62.66,0.38l-0.51,0.26c-4.09,1.89-7.89,4.32-11.29,7.23c-20.1,17.2-17.4,48.59-15.24,73.81
					C17.84,107.46,18.16,111.21,18.4,114.77z"/>
			</g>
		</g>
		<g>
			<g>
				<linearGradient id="SVGID_1_" gradientUnits="userSpaceOnUse" x1="44.1538" y1="1.2078" x2="87.5303" y2="117.9557">
					<stop  offset="0" style="stop-color:#BCBCBC"/>
					<stop  offset="0.5092" style="stop-color:#9F9F9F"/>
					<stop  offset="1" style="stop-color:#555555"/>
				</linearGradient>
				<path fill="url(#SVGID_1_)" d="M127.57,19.1c-23.1-3.04-57.54-18.94-86.39-2.84c-4.55,2.1-8.89,4.84-12.89,8.26
					C0.2,48.55,11.08,93.82,11.77,120.67c23.1,3.04,57.54,18.94,86.39,2.84c4.55-2.1,8.89-4.84,12.89-8.26
					C139.14,91.23,128.26,45.95,127.57,19.1z"/>
			</g>
			<g>
				<g>
					
						<radialGradient id="SVGID_2_" cx="9632.7441" cy="-15101.6514" r="164.3627" gradientTransform="matrix(0.2145 0 0 0.2145 -2012.0688 3282.3896)" gradientUnits="userSpaceOnUse">
						<stop  offset="0" style="stop-color:#696969"/>
						<stop  offset="0.4559" style="stop-color:#5A5A5A"/>
						<stop  offset="1" style="stop-color:#434343"/>
					</radialGradient>
					<path fill="url(#SVGID_2_)" d="M71.31,46.56c-0.52-1.72-1.55-4.81-6.01-6.2c-2.7-0.84-4.78,0.04-6.43,0.43
						c-1.65,0.39-3.31,0.61-3.31,0.61s-17.07-3.28-17.3-3.31c-0.23-0.03-0.36-0.03-0.41,0.07c-0.05,0.11-0.08,0.28,0.27,0.37
						c0.34,0.09,15.55,4.18,16.75,4.85c2.53,1.93,3.15,6.82,3.45,7.57c1.18,5.38,4.02,8.77,4.13,9.18
						c0.11,0.41,24.12,4.39,19.25-0.1C75.6,54.72,71.83,48.29,71.31,46.56z"/>
					
						<linearGradient id="SVGID_3_" gradientUnits="userSpaceOnUse" x1="-89.0596" y1="251.0771" x2="-77.106" y2="256.6619" gradientTransform="matrix(0.9989 -0.0496 0.0495 0.9986 172.3488 -187.5902)">
						<stop  offset="0" style="stop-color:#696969"/>
						<stop  offset="0.0202" style="stop-color:#676767"/>
						<stop  offset="0.2328" style="stop-color:#4F4F4F"/>
						<stop  offset="0.458" style="stop-color:#3E3E3E"/>
						<stop  offset="0.7022" style="stop-color:#333333"/>
						<stop  offset="1" style="stop-color:#303030"/>
					</linearGradient>
					<path fill="url(#SVGID_3_)" d="M110.02,71.96c0.24,0.08,0.39-0.22,0.17-0.37c-0.83-0.52-2.95-1.74-6.13-2.81
						c-3.17-1.06-6.27-1.45-8.48-1.64c-0.28-0.02-0.75,0.42-0.82,0.69c-0.59,0.82-4.74,0.67,1.17,0.88
						C101.85,68.9,107.04,70.72,110.02,71.96z"/>
					
						<linearGradient id="SVGID_4_" gradientUnits="userSpaceOnUse" x1="384.5072" y1="-832.4194" x2="384.501" y2="-832.4127" gradientTransform="matrix(0.9914 -0.1308 0.1308 0.9914 -210.5482 930.5748)">
						<stop  offset="0" style="stop-color:#D8D8D8"/>
						<stop  offset="0.2638" style="stop-color:#CBCBCB"/>
						<stop  offset="0.65" style="stop-color:#8A8A8A"/>
						<stop  offset="1" style="stop-color:#636363"/>
					</linearGradient>
					<path fill="url(#SVGID_4_)" d="M61.78,55.04c-0.01-0.01-0.02-0.02-0.02-0.03h0L61.78,55.04z"/>
					
						<linearGradient id="SVGID_5_" gradientUnits="userSpaceOnUse" x1="1138.4988" y1="-1078.156" x2="1162.8345" y2="-1041.9814" gradientTransform="matrix(0.9863 0.1648 -0.1648 0.9863 -1235.0408 906.084)">
						<stop  offset="0" style="stop-color:#696969"/>
						<stop  offset="0.4559" style="stop-color:#5A5A5A"/>
						<stop  offset="1" style="stop-color:#434343"/>
					</linearGradient>
					<path fill="url(#SVGID_5_)" d="M58.44,51.04c0.2,0.79,0.43,1.58,0.72,2.35c1.9,5.22,5.58,9.93,10.85,13.21
						c8.78,5.47,20.92,5.37,29.37,0.85c-3.68-0.13-9.56-1.82-13.83-4.31c-4.27-2.48-6.18-4.07-8.36-6.71
						C72.01,57.94,65.37,56.46,58.44,51.04z"/>
					<g>
						<linearGradient id="SVGID_6_" gradientUnits="userSpaceOnUse" x1="106.5199" y1="43.3133" x2="80.4399" y2="58.4902">
							<stop  offset="0" style="stop-color:#D8D8D8"/>
							<stop  offset="0.2638" style="stop-color:#CBCBCB"/>
							<stop  offset="0.65" style="stop-color:#8A8A8A"/>
							<stop  offset="1" style="stop-color:#636363"/>
						</linearGradient>
						<path fill="url(#SVGID_6_)" d="M111.67,59.85c-0.08-0.12-0.22-0.09-0.27-0.05c-0.05,0.03-9.83,5.88-12.65,7.16
							c-5.51,2.58-12.11,3.38-18.08,2.54c-2.99-0.41-5.88-1.33-8.54-2.67c-1.32-0.67-2.6-1.48-3.79-2.36
							c-1.19-0.88-2.31-1.86-3.34-2.92c-2.62-2.7-4.62-5.96-5.86-9.5c-0.3-0.33-0.58-0.91-0.87-1.21c0.24,1.17,0.57,2.6,0.99,3.73
							c1.07,2.84,2.67,5.52,4.73,7.84c2.05,2.33,4.53,4.3,7.32,5.81c2.78,1.52,5.88,2.49,9.05,2.97c3.17,0.48,6.43,0.41,9.6-0.09
							c0.79-0.13,1.58-0.28,2.36-0.47c0.78-0.19,1.55-0.41,2.32-0.65c1.52-0.49,3.03-1.11,4.44-1.82c4.37-2.19,12.48-7.95,12.55-8
							C111.7,60.08,111.76,59.96,111.67,59.85z"/>
						
							<linearGradient id="SVGID_7_" gradientUnits="userSpaceOnUse" x1="384.5093" y1="-832.4197" x2="384.5019" y2="-832.4116" gradientTransform="matrix(0.9914 -0.1308 0.1308 0.9914 -210.5483 930.5743)">
							<stop  offset="0" style="stop-color:#D8D8D8"/>
							<stop  offset="0.2638" style="stop-color:#CBCBCB"/>
							<stop  offset="0.65" style="stop-color:#8A8A8A"/>
							<stop  offset="1" style="stop-color:#636363"/>
						</linearGradient>
						<path fill="url(#SVGID_7_)" d="M61.78,55.04l-0.02-0.02c0,0,0,0,0,0C61.77,55.02,61.77,55.03,61.78,55.04z"/>
						
							<linearGradient id="SVGID_8_" gradientUnits="userSpaceOnUse" x1="384.4964" y1="-832.4303" x2="384.4912" y2="-832.4247" gradientTransform="matrix(0.9914 -0.1308 0.1308 0.9914 -210.5483 930.5743)">
							<stop  offset="0" style="stop-color:#D8D8D8"/>
							<stop  offset="0.2638" style="stop-color:#CBCBCB"/>
							<stop  offset="0.65" style="stop-color:#8A8A8A"/>
							<stop  offset="1" style="stop-color:#636363"/>
						</linearGradient>
						<polygon fill="url(#SVGID_8_)" points="61.76,55.01 61.76,55.01 61.76,55.01 						"/>
						
							<linearGradient id="SVGID_9_" gradientUnits="userSpaceOnUse" x1="427.713" y1="-348.4783" x2="427.7124" y2="-348.4776" gradientTransform="matrix(0.9999 -0.0121 0.0121 0.9999 -361.6944 408.63)">
							<stop  offset="0" style="stop-color:#D8D8D8"/>
							<stop  offset="0.2638" style="stop-color:#CBCBCB"/>
							<stop  offset="0.65" style="stop-color:#8A8A8A"/>
							<stop  offset="1" style="stop-color:#636363"/>
						</linearGradient>
						<polygon fill="url(#SVGID_9_)" points="61.76,55.01 61.76,55.01 61.76,55.01 						"/>
					</g>
					
						<radialGradient id="SVGID_10_" cx="9818.8965" cy="-15132.0996" r="181.9119" gradientTransform="matrix(0.2145 0 0 0.2145 -2012.0688 3282.3896)" gradientUnits="userSpaceOnUse">
						<stop  offset="0" style="stop-color:#D8D8D8"/>
						<stop  offset="0.3331" style="stop-color:#CBCBCB"/>
						<stop  offset="0.6933" style="stop-color:#8A8A8A"/>
						<stop  offset="1" style="stop-color:#828282"/>
					</radialGradient>
					<path fill="url(#SVGID_10_)" d="M99,36.32c0.01-0.25-0.23-0.3-0.35-0.18c-0.12,0.12-10.82,11.94-19.75,15.64
						c-8.93,3.7-19.04-0.06-20.63-0.95c4.96,8.68,16.11,13.55,25.7,9.75C93.57,56.77,98.72,39.36,99,36.32z"/>
					<linearGradient id="SVGID_11_" gradientUnits="userSpaceOnUse" x1="100.3258" y1="38.0283" x2="69.7426" y2="56.6371">
						<stop  offset="0" style="stop-color:#D8D8D8"/>
						<stop  offset="0.2638" style="stop-color:#CBCBCB"/>
						<stop  offset="0.65" style="stop-color:#8A8A8A"/>
						<stop  offset="1" style="stop-color:#636363"/>
					</linearGradient>
					<path fill="url(#SVGID_11_)" d="M99,36.32c0.01-0.1-0.03-0.16-0.08-0.2c-0.04-0.03-6.87,15.83-17.51,20.29
						c-10.63,4.47-21.55-4.69-23.15-5.59c4.96,8.68,16.11,13.55,25.7,9.75C93.57,56.77,98.72,39.36,99,36.32z"/>
				</g>
				<path fill-rule="evenodd" clip-rule="evenodd" fill="#FFFFFF" d="M61.25,78.33c1.33-0.08,2.78,0.57,2.41,2.28
					c-0.4,1.85-4.13,1.9-4.49-0.08C58.92,79.13,59.83,78.42,61.25,78.33z"/>
				<g>
					<g>
						<path fill="#FFFFFF" d="M51.09,100.63c-0.14,0-0.25,0.03-0.34,0.08c-0.09,0.06-0.13,0.14-0.13,0.26c0,0.11,0.05,0.2,0.13,0.26
							c0.09,0.06,0.27,0.13,0.56,0.2c0.29,0.07,0.5,0.17,0.65,0.29c0.14,0.13,0.22,0.31,0.22,0.56c0,0.25-0.09,0.45-0.28,0.6
							c-0.19,0.15-0.43,0.23-0.73,0.23c-0.44,0-0.83-0.15-1.17-0.45l0.3-0.36c0.28,0.25,0.58,0.37,0.88,0.37
							c0.15,0,0.27-0.03,0.36-0.1c0.09-0.07,0.14-0.15,0.14-0.26c0-0.11-0.04-0.19-0.13-0.25c-0.08-0.06-0.23-0.11-0.44-0.16
							c-0.2-0.05-0.36-0.1-0.47-0.14c-0.11-0.04-0.2-0.1-0.28-0.16c-0.17-0.13-0.25-0.32-0.25-0.58c0-0.26,0.09-0.46,0.28-0.6
							c0.19-0.14,0.42-0.21,0.7-0.21c0.18,0,0.36,0.03,0.53,0.09c0.18,0.06,0.33,0.14,0.46,0.25l-0.25,0.36
							c-0.08-0.08-0.19-0.14-0.34-0.19C51.37,100.65,51.23,100.63,51.09,100.63z"/>
						<path fill="#FFFFFF" d="M53.34,103.07v-2.81h0.47v1.22h1.4v-1.22h0.48v2.81h-0.48v-1.15h-1.4v1.15H53.34z"/>
						<path fill="#FFFFFF" d="M59.38,102.68c-0.29,0.28-0.64,0.42-1.06,0.42c-0.42,0-0.77-0.14-1.05-0.42
							c-0.28-0.28-0.42-0.62-0.42-1.04c0-0.41,0.14-0.76,0.42-1.04c0.29-0.28,0.64-0.42,1.05-0.42c0.42,0,0.77,0.14,1.06,0.42
							c0.28,0.28,0.42,0.62,0.42,1.04C59.8,102.06,59.66,102.4,59.38,102.68z M59.03,100.92c-0.19-0.2-0.43-0.3-0.71-0.3
							c-0.28,0-0.52,0.1-0.71,0.3c-0.19,0.2-0.29,0.44-0.29,0.72c0,0.28,0.1,0.53,0.29,0.72c0.19,0.2,0.43,0.3,0.71,0.3
							c0.28,0,0.51-0.1,0.71-0.3c0.19-0.2,0.29-0.44,0.29-0.72C59.32,101.36,59.22,101.12,59.03,100.92z"/>
						<path fill="#FFFFFF" d="M62.86,100.5c0.2,0.17,0.29,0.42,0.29,0.75c0,0.34-0.1,0.59-0.3,0.75c-0.2,0.16-0.5,0.23-0.92,0.23
							h-0.5v0.83h-0.47v-2.81h0.96C62.36,100.26,62.67,100.34,62.86,100.5z M62.53,101.66c0.09-0.1,0.14-0.25,0.14-0.44
							c0-0.19-0.06-0.33-0.18-0.41c-0.12-0.08-0.31-0.12-0.57-0.12h-0.48v1.13h0.55C62.25,101.81,62.43,101.76,62.53,101.66z"/>
						<path fill="#FFFFFF" d="M66.18,100.5c0.2,0.17,0.29,0.42,0.29,0.75c0,0.34-0.1,0.59-0.3,0.75c-0.2,0.16-0.51,0.23-0.92,0.23
							h-0.5v0.83h-0.47v-2.81h0.97C65.67,100.26,65.98,100.34,66.18,100.5z M65.84,101.66c0.1-0.1,0.15-0.25,0.15-0.44
							c0-0.19-0.06-0.33-0.18-0.41c-0.12-0.08-0.31-0.12-0.57-0.12h-0.48v1.13h0.55C65.57,101.81,65.75,101.76,65.84,101.66z"/>
						<path fill="#FFFFFF" d="M67.6,100.26h0.47v2.81H67.6V100.26z"/>
						<path fill="#FFFFFF" d="M71.52,100.26H72v2.81h-0.51l-1.59-2.05v2.05h-0.47v-2.81h0.47l1.63,2.1V100.26z"/>
						<path fill="#FFFFFF" d="M75.28,101.7h0.48v0.96c-0.26,0.29-0.65,0.44-1.14,0.44c-0.42,0-0.76-0.14-1.04-0.41
							c-0.28-0.27-0.42-0.62-0.42-1.04c0-0.42,0.14-0.77,0.43-1.05c0.29-0.28,0.63-0.42,1.04-0.42c0.41,0,0.74,0.12,1.01,0.36
							l-0.25,0.36c-0.11-0.09-0.22-0.16-0.33-0.2c-0.11-0.03-0.24-0.05-0.39-0.05c-0.28,0-0.52,0.1-0.72,0.28
							c-0.19,0.18-0.29,0.43-0.29,0.73c0,0.3,0.09,0.54,0.28,0.72c0.19,0.18,0.42,0.27,0.68,0.27c0.27,0,0.49-0.06,0.67-0.17V101.7z
							"/>
						<path fill="#FFFFFF" d="M80.51,100.5c0.19,0.17,0.29,0.42,0.29,0.75c0,0.34-0.1,0.59-0.3,0.75c-0.2,0.16-0.5,0.23-0.92,0.23
							h-0.5v0.83h-0.47v-2.81h0.97C80,100.26,80.31,100.34,80.51,100.5z M80.17,101.66c0.1-0.1,0.14-0.25,0.14-0.44
							c0-0.19-0.06-0.33-0.18-0.41c-0.12-0.08-0.31-0.12-0.57-0.12h-0.48v1.13h0.55C79.9,101.81,80.08,101.76,80.17,101.66z"/>
						<path fill="#FFFFFF" d="M81.93,103.07v-2.81h0.47v2.36h1.28v0.45H81.93z"/>
						<path fill="#FFFFFF" d="M85.16,102.43l-0.28,0.64h-0.51l1.24-2.81h0.5l1.24,2.81h-0.51l-0.28-0.64H85.16z M86.38,101.99
							l-0.51-1.16l-0.51,1.16H86.38z"/>
						<path fill="#FFFFFF" d="M89.75,100.69h-1.59v-0.43h2.25v0.37l-1.63,1.99v0.01h1.66v0.44h-2.32v-0.37l1.64-2V100.69z"/>
						<path fill="#FFFFFF" d="M91.99,102.43l-0.28,0.64h-0.5l1.24-2.81h0.51l1.24,2.81h-0.51l-0.28-0.64H91.99z M93.2,101.99
							l-0.51-1.16l-0.51,1.16H93.2z"/>
					</g>
					<path fill-rule="evenodd" clip-rule="evenodd" fill="#FFFFFF" d="M36.07,94.8c2.22-0.08,4.45,2.25,6.62,2.28
						c1.57,0,2.09-0.49,2.22-0.86c0,0.8-1.01,3.49-3.92,3.49c-0.93,0-1.85-0.35-2.54-1.16c-0.97-1.14-1.42-3.1-2.65-3.6
						c-0.46-0.19-1-0.08-1.63-0.14c-4.52-0.37-7.05-4.02-6.73-8.7c0.27-4.08,3.13-7.06,7.75-7.08c1.9-0.01,3.71,0.54,4.97,1.56
						c2.96,2.43,3.37,8.79,0.68,11.9C39.78,93.7,38.15,94.5,36.07,94.8z M31.58,87.04c0.03,2.88,0.43,6.65,2.72,7.48
						c3.59,1.3,4.22-3.74,4.29-7.35c0.07-3.69-0.53-8.44-3.88-7.96C32,79.61,31.54,83.48,31.58,87.04z"/>
					<path fill-rule="evenodd" clip-rule="evenodd" fill="#FFFFFF" d="M71.78,94.59c-1.72,0-3.49,0-5.21,0
						c0.12-0.12,0.26-0.3,0.38-0.55c0.58-1.23,0.52-5.11,0.41-7.41c-0.08-1.56-0.31-3.08-1.84-3.06c1.19-0.66,4.04-1.56,4.96-0.14
						c0.27,0.42,0.42,1.32,0.48,2.11C71.14,88.46,70.55,93.09,71.78,94.59z"/>
					<path fill-rule="evenodd" clip-rule="evenodd" fill="#FFFFFF" d="M51.77,83.1c1.56,0,3.13,0,4.69,0
						c-0.17,1.39-0.27,3.35-0.27,5.44c0,2.24-0.41,5.27,1.63,5.38c-0.97,0.58-3.26,1.44-4.35,0.54c-1.41-1.16-0.79-4.16-0.79-7.81
						C52.68,83.55,51.77,83.1,51.77,83.1z"/>
					<path fill-rule="evenodd" clip-rule="evenodd" fill="#FFFFFF" d="M58.91,83.1c1.78,0,3.68,0,4.69,0c0,1.7-0.43,5.51-0.02,10.12
						c0.11,0.97,0.63,1.38,0.63,1.38s-3.44,0-5.17,0c0.21-0.28,0.32-0.45,0.41-0.68c0.54-1.38,0.45-5.04,0.34-7.62
						C59.74,85.05,59.58,83.52,58.91,83.1z"/>
					<path fill-rule="evenodd" clip-rule="evenodd" fill="#FFFFFF" d="M88.06,84.01c0.04-0.43,0.04-0.79,0.04-1.08
						c0-1.44-0.22-2.95-0.74-3.6c1.59-0.36,3.4-0.68,4.83-0.88c-0.42,3.47-0.72,9.45-0.41,13.36c0.09,1.09,0.42,2.07,1.57,2.11
						c-1.42,0.86-4.06,1.5-4.83,0c-0.65-1.26-0.51-3.73-0.41-5.71c0.1-2.05,0.35-4.97-1.57-4.97c-1.15,0-1.74,2.39-1.83,3.95
						c-0.15,2.36,0.23,4.7,1.03,5.78c0.51,0.7,1.49,1.19,2.17,0.14c-0.67,2.56-4.76,1.84-5.99,0.27c-1.12-1.43-1.3-3.61-1.16-5.51
						c0.21-2.69,1.78-4.83,3.94-5.1c0.24-0.03,0.49-0.04,0.75-0.04C86.33,82.74,87.55,82.91,88.06,84.01z"/>
					<path fill-rule="evenodd" clip-rule="evenodd" fill="#FFFFFF" d="M104.02,92.76c-0.35,0.97-1.88,2.08-4.33,2.08
						c-2.21,0-3.64-1.02-4.45-2.01c-2.23-2.75-1.41-7.95,1.84-9.52c1.89-0.91,7.05-1.21,7.05,2.46c0.01,3-3.35,3.64-5.69,2.57
						c-0.23-0.09,0.32,0.06,0.61,0.07c0.69,0.03,1.3-0.12,1.63-0.75c0.75-1.42,0.12-4.73-1.09-4.76c-1.74-0.05-1.9,4.44-1.77,6.46
						c0.14,2.12,1.17,4.52,3.38,4.55C102.78,93.91,103.68,93.15,104.02,92.76z"/>
					<g>
						<path fill-rule="evenodd" clip-rule="evenodd" fill="#FFFFFF" d="M55.95,65.75c-0.45,1.5-0.47,3.66-0.47,5.83
							c0,2.38-0.23,5.31,0.63,6.56c-1.32,0-2.64,0-3.96,0c-0.05-0.06,0.24-0.37,0.31-0.57c0.42-1.23,0.26-3.18,0.26-5.21
							c0-2.42,0.14-4.73-0.52-5.94C53.49,66.12,55.64,65.74,55.95,65.75z"/>
					</g>
					<path fill-rule="evenodd" clip-rule="evenodd" fill="#FFFFFF" d="M70.95,85.78c-0.07,0.64-0.8,1.3-0.05-0.52
						c0.75-1.82,2.97-2.53,4.14-2.52c0.97,0.01,1.89,0.34,2.45,1.11c0.43,0.57,0.68,1.45,0.75,2.31c0.18,2.32-0.65,5.7,0.48,7.21
						c0.23,0.31,0.49,0.52,1.09,0.54c-1.39,0.75-4.05,1.58-5.03,0.13c-0.86-1.26-0.52-4.35-0.41-6.46c0.08-1.71-0.04-3.78-1.36-3.78
						C71.69,83.8,71.02,85.14,70.95,85.78z"/>
					<path fill-rule="evenodd" clip-rule="evenodd" fill="#FFFFFF" d="M52.8,91.66c-0.02,0.18-0.29-0.27-0.24,0.36
						c0.05,0.63-0.85,1.75-1.77,1.75c-1.34,0-1.55-1.15-1.61-2.03c-0.19-2.6,0.11-6.45,0.06-8.64c-1.47,0-2.95,0-4.42,0
						c0.77,1.05,0.78,3.28,0.78,6.26c0,2.98,0.32,5.47,2.9,5.47c1.51,0,3.81-0.77,4.35-2.63C53.39,90.33,52.87,91.02,52.8,91.66z"/>
					<path fill-rule="evenodd" clip-rule="evenodd" fill="#FFFFFF" d="M51.29,76.78c-0.27,0.75-1.44,1.59-3.32,1.59
						c-1.7,0-2.79-0.78-3.41-1.54c-1.71-2.11-1.08-6.1,1.41-7.31c1.45-0.7,5.42-0.93,5.42,1.89c0.01,2.3-2.57,2.79-4.37,1.97
						c-0.17-0.07,0.25,0.04,0.47,0.06c0.53,0.02,1-0.1,1.25-0.58c0.58-1.09,0.09-3.63-0.83-3.66c-1.34-0.04-1.46,3.41-1.36,4.96
						c0.11,1.63,0.9,3.47,2.6,3.5C50.33,77.67,51.02,77.08,51.29,76.78z"/>
				</g>
			</g>
		</g>
	</g>
</g>
<g>
</g>
<g>
</g>
<g>
</g>
<g>
</g>
<g>
</g>
<g>
</g>
<g>
</g>
<g>
</g>
<g>
</g>
<g>
</g>
<g>
</g>
<g>
</g>
<g>
</g>
<g>
</g>
<g>
</g>
</svg>
