<?xml version="1.0" encoding="utf-8"?>
<!-- Generator: Adobe Illustrator 23.0.0, SVG Export Plug-In . SVG Version: 6.00 Build 0)  -->
<svg version="1.1" id="Capa_1" xmlns="http://www.w3.org/2000/svg" xmlns:xlink="http://www.w3.org/1999/xlink" x="0px" y="0px"
	 viewBox="0 0 191.91 79.91" enable-background="new 0 0 191.91 79.91" xml:space="preserve">
<g>
	
		<rect x="0.35" y="0.85" transform="matrix(1 -8.921321e-03 8.921321e-03 1 -0.3526 0.8576)" fill="#515151" width="191.22" height="78.21"/>
	<g>
		<path fill="#FFFFFF" d="M167.96,34.92l0.27,0c0.31,0,0.57-0.12,0.57-0.4c0-0.2-0.15-0.41-0.57-0.4c-0.12,0-0.21,0.01-0.27,0.02
			L167.96,34.92z M167.97,36.21l-0.37,0l-0.02-2.32c0.2-0.03,0.38-0.06,0.66-0.06c0.36,0,0.59,0.07,0.73,0.17
			c0.14,0.1,0.22,0.26,0.22,0.48c0,0.3-0.2,0.49-0.45,0.57l0,0.02c0.2,0.03,0.35,0.22,0.4,0.56c0.06,0.36,0.11,0.5,0.16,0.57
			l-0.39,0c-0.06-0.07-0.11-0.28-0.16-0.59c-0.06-0.3-0.21-0.4-0.51-0.4l-0.26,0L167.97,36.21z M168.33,33.24
			c-0.92,0.01-1.67,0.8-1.66,1.77c0.01,0.99,0.77,1.76,1.7,1.75c0.93,0,1.67-0.79,1.66-1.77C170.03,34.01,169.28,33.23,168.33,33.24
			L168.33,33.24z M168.34,32.92c1.15-0.01,2.07,0.9,2.08,2.06c0.01,1.17-0.89,2.1-2.05,2.11c-1.15,0.01-2.09-0.9-2.1-2.07
			C166.26,33.86,167.18,32.93,168.34,32.92L168.34,32.92z"/>
		<polygon fill="#FFFFFF" points="24.78,52.92 29.25,32.46 47.65,32.3 46.83,36.43 36.71,36.52 35.98,39.97 44.81,39.89 
			43.94,43.97 35.1,44.05 34.16,48.51 44.57,48.41 43.69,52.76 		"/>
		<path fill="#FFFFFF" d="M54.92,39.69c-1.27,3.61-1.7,6.92-1.7,6.92c-0.42,2.43,1.35,3.29,3.05,3.27c1.39-0.01,3.34-0.84,3.94-2.52
			c1.24-3.5,1.7-6.99,1.7-6.99c0.59-3.86-3.05-3.27-3.05-3.27C55.94,36.93,54.92,39.69,54.92,39.69 M47.01,40.75
			c1.82-7.23,6.85-7.22,12.82-7.15c4.09,0.05,10.44,0.03,9.36,6.39c0,0-0.24,1.81-0.63,3.76l-6.44,0.06L75.2,59.04l-8.59,0.08
			l-5.67-6.6c0,0-2.13,0.77-5.53,0.67c-3.39-0.1-9.68,0.09-9.48-5.77C46.04,44.5,47.01,40.75,47.01,40.75"/>
		<path fill="#FFFFFF" d="M72.53,34.36l7.51-0.07c0,0-2.31,10.48-2.8,13.06c0,0,0.09,2.15,2.39,2.13c0,0,3.01,0.43,3.59-2.01
			l2.88-13.24l7.62-0.07c0,0-2.77,13.09-3.26,14.72c-0.49,1.62-2.98,3.82-8.7,4.19c-0.98,0.06-2.7,0.02-4.65-0.21l-6.92-7.96
			C70.18,44.9,71.94,36.51,72.53,34.36"/>
		<polygon fill="#FFFFFF" points="96.55,34.15 104.22,34.08 100.24,52.22 92.75,52.28 		"/>
		<polygon fill="#FFFFFF" points="110.82,52.12 103.26,52.19 107.07,34.05 123.58,33.91 122.74,37.46 114.05,37.53 113.25,40.87 
			120.66,40.81 119.91,44.29 112.57,44.36 		"/>
		<path fill="#FFFFFF" d="M126.4,44.09l4.81-0.04l-0.64-5.97L126.4,44.09z M121.19,52.03l-5.31,0.05l12.75-18.21l9.17-0.08
			l1.96,14.67l6.11-5.66l-6.12-9.03l9.72-0.09l2.97,4.58l4.69-4.65l7.45-0.07l-9.59,8.49l6.4,9.64l-9.37,0.08l-3.21-5.38l-5.2,5.45
			l-11.33,0.1l-0.39-3.95l-8.01,0.07L121.19,52.03z"/>
	</g>
</g>
<g>
</g>
<g>
</g>
<g>
</g>
<g>
</g>
<g>
</g>
<g>
</g>
<g>
</g>
<g>
</g>
<g>
</g>
<g>
</g>
<g>
</g>
<g>
</g>
<g>
</g>
<g>
</g>
<g>
</g>
</svg>
