<?xml version="1.0" encoding="utf-8"?>
<!-- Generator: Adobe Illustrator 23.0.0, SVG Export Plug-In . SVG Version: 6.00 Build 0)  -->
<svg version="1.1" id="Capa_1" xmlns="http://www.w3.org/2000/svg" xmlns:xlink="http://www.w3.org/1999/xlink" x="0px" y="0px"
	 viewBox="0 0 159.05 123.6" enable-background="new 0 0 159.05 123.6" xml:space="preserve">
<g>
	<g>
		<path fill="#6E6E6E" d="M12.04,87.2c0,0.06-0.04,0.15-0.13,0.25c-0.73,0.87-1.7,1.3-2.91,1.3c-1.24,0-2.24-0.42-3.01-1.27
			c-0.75-0.82-1.12-1.85-1.12-3.09c0-1.21,0.37-2.23,1.1-3.07C6.74,80.44,7.72,80,8.9,80c1.28,0,2.29,0.39,3.02,1.18
			c0.08,0.09,0.12,0.16,0.12,0.23c0,0.08-0.14,0.35-0.41,0.84c-0.28,0.48-0.45,0.76-0.52,0.81c-0.03,0.03-0.07,0.05-0.12,0.05
			c-0.02,0-0.12-0.08-0.3-0.24c-0.21-0.19-0.42-0.34-0.63-0.45c-0.31-0.16-0.64-0.24-0.98-0.24c-0.58,0-1.05,0.22-1.4,0.65
			c-0.32,0.4-0.48,0.9-0.48,1.5c0,0.6,0.16,1.11,0.48,1.52c0.35,0.44,0.82,0.67,1.4,0.67c0.35,0,0.67-0.08,0.98-0.23
			c0.2-0.1,0.41-0.24,0.62-0.42c0.17-0.15,0.27-0.23,0.29-0.23c0.04,0,0.08,0.02,0.12,0.07c0.06,0.07,0.24,0.32,0.52,0.74
			C11.9,86.91,12.04,87.16,12.04,87.2z"/>
		<path fill="#6E6E6E" d="M18.78,86.69c0,0.17-0.03,0.48-0.1,0.94c-0.07,0.5-0.13,0.79-0.19,0.89c-0.05,0.08-0.11,0.11-0.2,0.11
			c-0.04,0-0.1-0.01-0.18-0.02c-0.29-0.04-1.13-0.06-2.53-0.06c-0.31,0-0.76,0-1.36-0.01c-0.6,0-1.06-0.01-1.36-0.01
			c-0.13,0-0.2-0.06-0.2-0.17c0-0.44,0.02-1.11,0.07-2c0.05-0.89,0.07-1.56,0.07-2c0-0.45-0.02-1.29-0.07-2.53
			c-0.01-0.32-0.03-0.79-0.07-1.42l-0.01-0.08c-0.01-0.09,0.04-0.14,0.15-0.14c0.29,0,0.73,0.01,1.32,0.02
			c0.59,0.02,1.03,0.02,1.32,0.02c0.29,0,0.73-0.01,1.31-0.02c0.58-0.02,1.02-0.02,1.31-0.02c0.21,0,0.33,0.08,0.36,0.23
			c0.02,0.09,0.05,0.37,0.09,0.83c0.04,0.46,0.06,0.74,0.06,0.84c0,0.08-0.04,0.13-0.12,0.13c-0.02,0-0.07,0-0.12-0.01
			c-1.06-0.09-2-0.13-2.84-0.13c-0.21,0-0.34,0.05-0.39,0.15c-0.02,0.05-0.03,0.2-0.03,0.46c0,0.27,0.04,0.45,0.12,0.54
			c0.07,0.08,0.2,0.11,0.39,0.11c0.04,0,0.12,0,0.23-0.01c0.12-0.01,0.21-0.01,0.29-0.01c0.5,0,1.01-0.01,1.52-0.04
			c0.04,0,0.15-0.01,0.33-0.03c0.13-0.02,0.24-0.02,0.32-0.02c0.1,0,0.14,0.05,0.14,0.14c0-0.08-0.04,0.22-0.11,0.91
			c-0.03,0.32-0.05,0.63-0.05,0.95c0,0.08-0.06,0.12-0.17,0.12l-0.54-0.06c-0.23-0.02-0.74-0.04-1.55-0.04h-0.63
			c-0.16,0-0.26,0.04-0.29,0.12c0,0.02-0.01,0.14-0.01,0.37c0,0.3,0.02,0.5,0.06,0.58c0.07,0.15,0.32,0.24,0.76,0.27
			c-0.01,0,0.28,0,0.87,0c0.21,0,0.52-0.02,0.94-0.06c0.41-0.04,0.72-0.06,0.93-0.06C18.73,86.48,18.78,86.55,18.78,86.69z"/>
		<path fill="#6E6E6E" d="M27.53,80.38c0,0.45-0.02,1.13-0.06,2.04c-0.04,0.91-0.06,1.59-0.06,2.04v3.92c0,0.11-0.06,0.16-0.17,0.16
			c-0.1,0-0.24,0-0.43,0.01c-0.19,0.01-0.34,0.01-0.43,0.01c-0.1,0-0.26-0.01-0.46-0.02c-0.21-0.02-0.36-0.02-0.46-0.02
			c-0.07,0-0.16-0.07-0.26-0.2c-0.29-0.38-0.93-1.24-1.93-2.56c-0.27-0.37-0.69-0.91-1.25-1.63c-0.02-0.02-0.05-0.05-0.09-0.07
			c-0.03,0.03-0.05,0.07-0.05,0.13c0,0.46,0.01,1.15,0.04,2.07c0.03,0.92,0.04,1.61,0.04,2.07c0,0.14-0.05,0.21-0.16,0.21h-2.06
			c-0.11,0-0.17-0.06-0.17-0.18c0-0.43,0.02-1.07,0.06-1.94c0.04-0.86,0.06-1.51,0.06-1.95c0-0.46-0.02-1.14-0.06-2.05
			c-0.04-0.91-0.06-1.59-0.06-2.04c0-0.09,0.08-0.13,0.23-0.13c0.23,0,0.51-0.02,0.85-0.05c0.08-0.01,0.24-0.03,0.47-0.08
			c0.2-0.04,0.35-0.05,0.47-0.05c0.05,0,0.12,0.07,0.22,0.2l2.22,3.04c0.2,0.27,0.5,0.67,0.9,1.2c0.1,0.12,0.18,0.18,0.26,0.18
			c0.05,0,0.08-0.15,0.08-0.46c0-0.42-0.02-1.04-0.07-1.88c-0.05-0.84-0.07-1.47-0.07-1.89c0-0.15,0.04-0.22,0.13-0.22
			c0.24,0,0.6-0.01,1.08-0.03c0.48-0.02,0.84-0.03,1.08-0.03C27.49,80.2,27.53,80.26,27.53,80.38z"/>
		<path fill="#6E6E6E" d="M34.43,82.02c0,0.08-0.04,0.12-0.13,0.12c-0.15,0-0.75-0.03-1.79-0.09c-0.02,1-0.04,1.7-0.04,2.1
			c0,0.47,0.02,1.17,0.06,2.11c0.04,0.94,0.06,1.64,0.06,2.11c0,0.08-0.02,0.12-0.05,0.14c-0.01,0.01-0.07,0.02-0.17,0.03
			c-0.24,0.03-0.59,0.05-1.05,0.05c-0.51,0-0.87-0.02-1.08-0.05c-0.11-0.02-0.17-0.08-0.17-0.18c0-0.47,0.02-1.17,0.06-2.11
			c0.04-0.94,0.06-1.64,0.06-2.11c0-0.31-0.02-1-0.05-2.07c-0.79,0.08-1.43,0.12-1.9,0.12c-0.06,0-0.1-0.02-0.1-0.06
			c0-0.05,0.03-0.2,0.08-0.46c0.06-0.28,0.1-0.45,0.11-0.51c0.01-0.19,0.03-0.37,0.04-0.56c0.03-0.3,0.08-0.45,0.14-0.45
			c0.01,0,0.04,0,0.08,0.01c0.64,0.08,1.59,0.12,2.85,0.12c0.36,0,1.02-0.04,1.98-0.11c0.52-0.04,0.78-0.06,0.78-0.06
			c0.08,0,0.12,0,0.14,0.01c0.01,0.01,0.02,0.05,0.02,0.12c0,0.11,0,0.26-0.01,0.45c-0.01,0.21-0.01,0.36-0.01,0.45
			c0,0.1,0.01,0.25,0.04,0.44C34.42,81.78,34.43,81.92,34.43,82.02z"/>
		<path fill="#6E6E6E" d="M42.16,88.48c0,0.03-0.04,0.05-0.12,0.06c-0.15,0.02-0.53,0.04-1.14,0.04c-0.52,0-0.87-0.01-1.06-0.04
			c-0.09-0.01-0.14-0.02-0.15-0.03c-0.02-0.01-0.05-0.05-0.08-0.12c-0.06-0.15-0.15-0.38-0.26-0.69c-0.15-0.4-0.4-0.98-0.73-1.75
			c-0.07-0.15-0.24-0.24-0.49-0.26c0.12,0.01-0.09,0.01-0.61,0.01c-0.06,0-0.09,0.1-0.09,0.3c0,0.27,0.02,0.67,0.07,1.21
			c0.05,0.54,0.07,0.94,0.07,1.21c0,0.07-0.02,0.11-0.05,0.12c-0.06,0-0.11,0.01-0.17,0.01c-0.23,0.02-0.6,0.02-1.09,0.02
			c-0.57,0-0.91-0.01-1.02-0.04c-0.12-0.02-0.17-0.09-0.17-0.18c0-0.44,0.02-1.09,0.06-1.98c0.04-0.88,0.06-1.54,0.06-1.98
			c0-1.68-0.04-2.99-0.11-3.93l-0.01-0.08c0-0.07,0.06-0.11,0.19-0.14c0.13-0.02,0.73-0.05,1.82-0.07c0.73-0.02,1.32-0.02,1.75-0.02
			c0.9,0,1.64,0.2,2.21,0.61c0.65,0.46,0.97,1.12,0.97,1.99c0,0.58-0.08,1.04-0.25,1.39c-0.17,0.35-0.47,0.68-0.92,1.01
			c-0.09,0.06-0.14,0.12-0.14,0.18c0,0,0.24,0.49,0.73,1.49C41.92,87.83,42.16,88.38,42.16,88.48z M39.66,83.15
			c0-0.48-0.16-0.82-0.48-1.01c-0.25-0.14-0.63-0.21-1.15-0.21c-0.38,0-0.58,0.06-0.6,0.17c-0.02,0.13-0.04,0.52-0.04,1.17
			c0,0.09,0,0.23,0.01,0.4c0,0.18,0.01,0.31,0.01,0.4c0,0.02,0.06,0.04,0.19,0.06c0.24,0.04,0.5,0.05,0.76,0.05
			C39.22,84.18,39.66,83.84,39.66,83.15z"/>
		<path fill="#6E6E6E" d="M51.09,84.38c0,1.24-0.39,2.27-1.18,3.11c-0.81,0.85-1.82,1.27-3.06,1.27c-1.23,0-2.24-0.43-3.05-1.28
			c-0.79-0.84-1.19-1.87-1.19-3.1c0-1.23,0.4-2.27,1.19-3.11c0.81-0.86,1.83-1.29,3.05-1.29c1.22,0,2.23,0.43,3.05,1.29
			C50.69,82.12,51.09,83.15,51.09,84.38z M48.84,84.37c0-0.59-0.18-1.1-0.54-1.52c-0.38-0.44-0.86-0.65-1.45-0.65
			c-0.56,0-1.03,0.23-1.42,0.68c-0.38,0.44-0.57,0.94-0.57,1.51c0,0.61,0.18,1.11,0.53,1.52c0.37,0.42,0.86,0.64,1.46,0.64
			c0.56,0,1.04-0.22,1.43-0.67C48.65,85.43,48.84,84.93,48.84,84.37z"/>
		<path fill="#6E6E6E" d="M62.79,84.33c0,1.17-0.37,2.18-1.12,3.03c-0.66,0.77-1.59,1.17-2.79,1.21c-0.23,0.01-0.86,0.01-1.9,0.01
			c-0.19,0-0.49-0.01-0.88-0.02c-0.39-0.01-0.68-0.02-0.88-0.02c-0.12,0-0.17-0.05-0.17-0.14c0-0.44,0.02-1.09,0.05-1.97
			c0.03-0.87,0.05-1.53,0.05-1.97c0-0.46-0.02-1.14-0.05-2.05c-0.03-0.91-0.05-1.59-0.05-2.04c0-0.08,0.06-0.13,0.17-0.15
			c0.28-0.03,0.74-0.05,1.39-0.05c1.22,0,2.01,0.02,2.37,0.05c0.94,0.1,1.68,0.33,2.21,0.71c0.5,0.36,0.89,0.86,1.18,1.5
			C62.65,83.06,62.79,83.68,62.79,84.33z M60.51,84.33c0-0.67-0.2-1.22-0.6-1.64c-0.4-0.44-0.94-0.66-1.61-0.66
			c-0.61,0-0.92,0.08-0.92,0.24c0,0.23,0,0.59-0.01,1.06c-0.01,0.47-0.01,0.82-0.01,1.06c0,0.23,0,0.58,0.01,1.04
			c0.01,0.46,0.01,0.81,0.01,1.04c0,0.17,0.32,0.26,0.95,0.26c0.69,0,1.23-0.23,1.62-0.68C60.33,85.6,60.51,85.03,60.51,84.33z"/>
		<path fill="#6E6E6E" d="M69.8,86.69c0,0.17-0.03,0.48-0.1,0.94c-0.07,0.5-0.13,0.79-0.19,0.89c-0.05,0.08-0.11,0.11-0.2,0.11
			c-0.04,0-0.1-0.01-0.18-0.02c-0.29-0.04-1.13-0.06-2.53-0.06c-0.31,0-0.76,0-1.36-0.01c-0.6,0-1.06-0.01-1.36-0.01
			c-0.13,0-0.2-0.06-0.2-0.17c0-0.44,0.02-1.11,0.07-2c0.05-0.89,0.07-1.56,0.07-2c0-0.45-0.02-1.29-0.07-2.53
			c-0.01-0.32-0.03-0.79-0.07-1.42l-0.01-0.08c-0.01-0.09,0.04-0.14,0.15-0.14c0.29,0,0.73,0.01,1.32,0.02
			c0.59,0.02,1.03,0.02,1.32,0.02c0.29,0,0.73-0.01,1.31-0.02c0.58-0.02,1.02-0.02,1.31-0.02c0.21,0,0.33,0.08,0.36,0.23
			c0.02,0.09,0.05,0.37,0.09,0.83c0.04,0.46,0.06,0.74,0.06,0.84c0,0.08-0.04,0.13-0.12,0.13c-0.02,0-0.07,0-0.12-0.01
			c-1.06-0.09-2-0.13-2.84-0.13c-0.21,0-0.34,0.05-0.39,0.15c-0.02,0.05-0.03,0.2-0.03,0.46c0,0.27,0.04,0.45,0.12,0.54
			c0.07,0.08,0.2,0.11,0.39,0.11c0.04,0,0.12,0,0.23-0.01c0.11-0.01,0.21-0.01,0.29-0.01c0.5,0,1.01-0.01,1.52-0.04
			c0.04,0,0.15-0.01,0.33-0.03c0.13-0.02,0.24-0.02,0.32-0.02c0.1,0,0.14,0.05,0.14,0.14c0-0.08-0.04,0.22-0.11,0.91
			c-0.03,0.32-0.05,0.63-0.05,0.95c0,0.08-0.06,0.12-0.17,0.12l-0.54-0.06c-0.23-0.02-0.74-0.04-1.55-0.04h-0.63
			c-0.16,0-0.26,0.04-0.29,0.12c0,0.02-0.01,0.14-0.01,0.37c0,0.3,0.02,0.5,0.06,0.58c0.07,0.15,0.32,0.24,0.76,0.27
			c-0.01,0,0.28,0,0.87,0c0.21,0,0.52-0.02,0.94-0.06c0.41-0.04,0.72-0.06,0.93-0.06C69.76,86.48,69.8,86.55,69.8,86.69z"/>
		<path fill="#6E6E6E" d="M79.73,86.69c0,0.17-0.03,0.48-0.1,0.94c-0.07,0.5-0.13,0.79-0.19,0.89c-0.05,0.08-0.11,0.11-0.2,0.11
			c-0.04,0-0.1-0.01-0.18-0.02c-0.29-0.04-1.13-0.06-2.53-0.06c-0.31,0-0.76,0-1.36-0.01c-0.6,0-1.06-0.01-1.36-0.01
			c-0.13,0-0.2-0.06-0.2-0.17c0-0.44,0.02-1.11,0.07-2c0.05-0.89,0.07-1.56,0.07-2c0-0.45-0.02-1.29-0.07-2.53
			c-0.01-0.32-0.03-0.79-0.07-1.42l-0.01-0.08c-0.01-0.09,0.04-0.14,0.15-0.14c0.29,0,0.73,0.01,1.32,0.02
			c0.59,0.02,1.03,0.02,1.32,0.02c0.29,0,0.73-0.01,1.31-0.02c0.58-0.02,1.02-0.02,1.31-0.02c0.21,0,0.33,0.08,0.36,0.23
			c0.02,0.09,0.05,0.37,0.09,0.83c0.04,0.46,0.06,0.74,0.06,0.84c0,0.08-0.04,0.13-0.12,0.13c-0.02,0-0.07,0-0.12-0.01
			c-1.06-0.09-2-0.13-2.84-0.13c-0.21,0-0.34,0.05-0.39,0.15c-0.02,0.05-0.03,0.2-0.03,0.46c0,0.27,0.04,0.45,0.12,0.54
			c0.07,0.08,0.2,0.11,0.39,0.11c0.04,0,0.12,0,0.23-0.01c0.11-0.01,0.21-0.01,0.29-0.01c0.5,0,1.01-0.01,1.52-0.04
			c0.04,0,0.15-0.01,0.33-0.03c0.13-0.02,0.24-0.02,0.32-0.02c0.1,0,0.14,0.05,0.14,0.14c0-0.08-0.04,0.22-0.11,0.91
			c-0.03,0.32-0.05,0.63-0.05,0.95c0,0.08-0.06,0.12-0.17,0.12l-0.54-0.06c-0.23-0.02-0.74-0.04-1.55-0.04h-0.63
			c-0.16,0-0.26,0.04-0.29,0.12c0,0.02-0.01,0.14-0.01,0.37c0,0.3,0.02,0.5,0.06,0.58c0.07,0.15,0.32,0.24,0.76,0.27
			c-0.01,0,0.28,0,0.87,0c0.21,0,0.52-0.02,0.94-0.06c0.41-0.04,0.72-0.06,0.93-0.06C79.69,86.48,79.73,86.55,79.73,86.69z"/>
		<path fill="#6E6E6E" d="M87.09,87.75c0,0.39-0.02,0.62-0.05,0.69c-0.04,0.09-0.18,0.13-0.4,0.13c-0.04,0-0.12,0-0.24,0
			c-0.12,0-0.22-0.01-0.3-0.01c-0.08,0-0.2,0-0.36-0.01c-0.16-0.01-0.28-0.01-0.36-0.01c-0.06,0-0.35-0.38-0.86-1.14
			c-0.51-0.76-0.77-1.14-0.79-1.15c-0.08,0.07-0.37,0.47-0.86,1.2c-0.47,0.7-0.74,1.06-0.82,1.09c-0.06,0.02-0.2,0.02-0.45,0.02
			c-0.81,0-1.22-0.04-1.22-0.12s0-0.2-0.01-0.36c-0.01-0.15-0.01-0.27-0.01-0.35c0-0.49,0.03-0.78,0.09-0.87c0,0,0.33-0.44,0.98-1.3
			c0.53-0.7,0.79-1.1,0.79-1.2c0-0.1-0.26-0.49-0.79-1.18c-0.33-0.42-0.66-0.85-0.99-1.28c-0.04-0.05-0.06-0.14-0.07-0.26
			c0-0.08,0-0.2,0-0.34c0.01-0.17,0.02-0.27,0.02-0.29c0-0.08-0.01-0.2-0.02-0.37c-0.01-0.17-0.02-0.29-0.02-0.37
			c0-0.08,0.07-0.11,0.21-0.11c0.09,0,0.23,0.01,0.4,0.02c0.18,0.01,0.31,0.02,0.4,0.02c0.08,0,0.2,0,0.35-0.01
			c0.15-0.01,0.27-0.01,0.35-0.01c0.06,0,0.35,0.39,0.87,1.16c0.51,0.77,0.78,1.16,0.81,1.16c0.08-0.05,0.37-0.45,0.87-1.21
			c0.48-0.73,0.76-1.1,0.83-1.1h1.42c0.14,0,0.21,0.03,0.21,0.1v1.45c0,0.1-0.31,0.55-0.92,1.35c-0.61,0.8-0.92,1.22-0.92,1.27
			c0,0.07,0.27,0.46,0.81,1.17c0.63,0.84,0.97,1.28,0.99,1.31C87.06,86.94,87.09,87.24,87.09,87.75z"/>
		<path fill="#6E6E6E" d="M95.16,83.38c0,0.96-0.25,1.74-0.76,2.33c-0.54,0.63-1.28,0.95-2.23,0.95c-0.16,0-0.4-0.01-0.72-0.03
			c-0.32-0.02-0.56-0.03-0.72-0.03c-0.17,0-0.26,0.07-0.26,0.22c0,0.18,0.02,0.45,0.05,0.82c0.04,0.36,0.05,0.63,0.05,0.81
			c0,0.09-0.04,0.14-0.13,0.14c-0.24,0-0.6-0.01-1.09-0.02c-0.48-0.01-0.85-0.02-1.09-0.02c-0.12,0-0.17-0.06-0.17-0.17
			c0-0.44,0.01-1.1,0.02-1.98c0.01-0.88,0.02-1.54,0.02-1.98c0-1.25-0.05-2.55-0.16-3.93l-0.01-0.08c-0.01-0.08,0.05-0.12,0.18-0.14
			c0.31-0.04,0.99-0.06,2.05-0.06c0.62,0,1.22,0.01,1.79,0.02c0.94,0.03,1.7,0.32,2.27,0.89C94.86,81.69,95.16,82.44,95.16,83.38z
			 M92.78,83.48c0-0.92-0.45-1.39-1.35-1.39c-0.63,0-0.97,0.04-1,0.11c-0.03,0.05-0.04,0.51-0.04,1.37c0,0.12,0,0.3,0.01,0.54
			c0.01,0.24,0.01,0.42,0.01,0.54c0,0.08,0.36,0.12,1.07,0.12C92.35,84.78,92.78,84.34,92.78,83.48z"/>
		<path fill="#6E6E6E" d="M104.24,84.38c0,1.24-0.39,2.27-1.18,3.11c-0.81,0.85-1.82,1.27-3.06,1.27c-1.23,0-2.24-0.43-3.05-1.28
			c-0.79-0.84-1.19-1.87-1.19-3.1c0-1.23,0.4-2.27,1.19-3.11c0.81-0.86,1.83-1.29,3.05-1.29c1.22,0,2.23,0.43,3.05,1.29
			C103.84,82.12,104.24,83.15,104.24,84.38z M101.98,84.37c0-0.59-0.18-1.1-0.54-1.52c-0.38-0.44-0.86-0.65-1.45-0.65
			c-0.56,0-1.03,0.23-1.42,0.68c-0.38,0.44-0.57,0.94-0.57,1.51c0,0.61,0.18,1.11,0.53,1.52c0.37,0.42,0.86,0.64,1.46,0.64
			c0.56,0,1.04-0.22,1.43-0.67C101.79,85.43,101.98,84.93,101.98,84.37z"/>
		<path fill="#6E6E6E" d="M109.18,85.81c0,0.81-0.34,1.5-1.02,2.07c-0.59,0.51-1.32,0.83-2.17,0.97c-0.03,0-0.06,0.01-0.08,0.01
			c-0.09,0-0.29-0.28-0.61-0.84c-0.31-0.56-0.47-0.9-0.47-1.02c0-0.04,0.03-0.07,0.09-0.08c0.58-0.13,0.96-0.24,1.14-0.33
			c0.41-0.21,0.62-0.51,0.62-0.92c0-0.26-0.13-0.55-0.4-0.86c-0.47-0.54-0.72-0.84-0.76-0.9c-0.27-0.41-0.41-0.87-0.41-1.37
			c0-0.73,0.34-1.33,1.01-1.81c0.55-0.4,1.22-0.65,2.02-0.77c0.04,0,0.08-0.01,0.1-0.01c0.06,0,0.11,0.05,0.14,0.14
			c0.1,0.29,0.34,0.81,0.72,1.57c0.01,0.02,0.02,0.04,0.02,0.06c0,0.07-0.04,0.1-0.11,0.1c-0.03,0-0.09-0.01-0.16-0.02
			c-0.08-0.01-0.13-0.02-0.17-0.02c-0.29,0-0.54,0.07-0.75,0.2c-0.26,0.15-0.39,0.36-0.39,0.63c0,0.24,0.14,0.54,0.43,0.89
			c0.5,0.63,0.77,0.97,0.79,1C109.04,84.94,109.18,85.38,109.18,85.81z"/>
		<path fill="#6E6E6E" d="M112.58,84.15c0,0.47,0.01,1.17,0.04,2.11c0.02,0.94,0.04,1.64,0.04,2.11c0,0.08-0.02,0.13-0.05,0.15
			c-0.01,0-0.06,0.01-0.15,0.02c-0.26,0.03-0.6,0.05-1.04,0.05c-0.58,0-0.95-0.02-1.11-0.05c-0.12-0.02-0.17-0.09-0.17-0.18
			c0,0.06,0.02-0.29,0.05-1.05c0.07-1.61,0.11-2.66,0.11-3.16c0-0.42-0.01-1.06-0.04-1.91c-0.03-0.85-0.04-1.49-0.04-1.91
			c0-0.09,0.05-0.13,0.14-0.13c0.12,0,0.31,0.01,0.56,0.02c0.25,0.01,0.43,0.02,0.56,0.02c0.12,0,0.3-0.01,0.54-0.02
			c0.24-0.01,0.42-0.02,0.54-0.02c0.11,0,0.17,0.04,0.17,0.13c0,0.42-0.02,1.06-0.07,1.91C112.6,83.09,112.58,83.72,112.58,84.15z"
			/>
		<path fill="#6E6E6E" d="M120.74,87.2c0,0.06-0.04,0.15-0.12,0.25c-0.73,0.87-1.7,1.3-2.91,1.3c-1.24,0-2.24-0.42-3.01-1.27
			c-0.75-0.82-1.12-1.85-1.12-3.09c0-1.21,0.37-2.23,1.1-3.07c0.77-0.88,1.74-1.32,2.92-1.32c1.28,0,2.29,0.39,3.02,1.18
			c0.08,0.09,0.12,0.16,0.12,0.23c0,0.08-0.14,0.35-0.41,0.84c-0.28,0.48-0.45,0.76-0.52,0.81c-0.03,0.03-0.07,0.05-0.12,0.05
			c-0.02,0-0.12-0.08-0.3-0.24c-0.21-0.19-0.42-0.34-0.63-0.45c-0.31-0.16-0.64-0.24-0.98-0.24c-0.58,0-1.05,0.22-1.4,0.65
			c-0.32,0.4-0.48,0.9-0.48,1.5c0,0.6,0.16,1.11,0.48,1.52c0.35,0.44,0.81,0.67,1.4,0.67c0.35,0,0.67-0.08,0.98-0.23
			c0.2-0.1,0.41-0.24,0.62-0.42c0.17-0.15,0.27-0.23,0.29-0.23c0.04,0,0.08,0.02,0.12,0.07c0.06,0.07,0.24,0.32,0.52,0.74
			C120.6,86.91,120.74,87.16,120.74,87.2z"/>
		<path fill="#6E6E6E" d="M123.8,84.15c0,0.47,0.01,1.17,0.04,2.11c0.02,0.94,0.04,1.64,0.04,2.11c0,0.08-0.02,0.13-0.05,0.15
			c-0.01,0-0.06,0.01-0.15,0.02c-0.26,0.03-0.6,0.05-1.04,0.05c-0.58,0-0.95-0.02-1.11-0.05c-0.12-0.02-0.17-0.09-0.17-0.18
			c0,0.06,0.02-0.29,0.05-1.05c0.07-1.61,0.11-2.66,0.11-3.16c0-0.42-0.01-1.06-0.04-1.91c-0.03-0.85-0.04-1.49-0.04-1.91
			c0-0.09,0.05-0.13,0.14-0.13c0.12,0,0.31,0.01,0.56,0.02c0.25,0.01,0.43,0.02,0.56,0.02c0.12,0,0.3-0.01,0.54-0.02
			c0.24-0.01,0.42-0.02,0.54-0.02c0.11,0,0.17,0.04,0.17,0.13c0,0.42-0.02,1.06-0.07,1.91C123.82,83.09,123.8,83.72,123.8,84.15z"/>
		<path fill="#6E6E6E" d="M133.28,84.38c0,1.24-0.39,2.27-1.18,3.11c-0.81,0.85-1.82,1.27-3.06,1.27c-1.23,0-2.24-0.43-3.05-1.28
			c-0.79-0.84-1.19-1.87-1.19-3.1c0-1.23,0.4-2.27,1.19-3.11c0.81-0.86,1.83-1.29,3.05-1.29c1.22,0,2.23,0.43,3.05,1.29
			C132.88,82.12,133.28,83.15,133.28,84.38z M131.02,84.37c0-0.59-0.18-1.1-0.54-1.52c-0.38-0.44-0.86-0.65-1.45-0.65
			c-0.56,0-1.03,0.23-1.42,0.68c-0.38,0.44-0.57,0.94-0.57,1.51c0,0.61,0.18,1.11,0.53,1.52c0.37,0.42,0.86,0.64,1.46,0.64
			c0.56,0,1.04-0.22,1.43-0.67C130.84,85.43,131.02,84.93,131.02,84.37z"/>
		<path fill="#6E6E6E" d="M142.12,80.38c0,0.45-0.02,1.13-0.06,2.04c-0.04,0.91-0.06,1.59-0.06,2.04v3.92
			c0,0.11-0.06,0.16-0.17,0.16c-0.1,0-0.24,0-0.43,0.01c-0.19,0.01-0.34,0.01-0.43,0.01c-0.1,0-0.26-0.01-0.46-0.02
			c-0.21-0.02-0.36-0.02-0.46-0.02c-0.07,0-0.16-0.07-0.26-0.2c-0.29-0.38-0.93-1.24-1.93-2.56c-0.27-0.37-0.69-0.91-1.25-1.63
			c-0.02-0.02-0.05-0.05-0.09-0.07c-0.03,0.03-0.05,0.07-0.05,0.13c0,0.46,0.01,1.15,0.04,2.07c0.03,0.92,0.04,1.61,0.04,2.07
			c0,0.14-0.05,0.21-0.16,0.21h-2.06c-0.12,0-0.17-0.06-0.17-0.18c0-0.43,0.02-1.07,0.06-1.94c0.04-0.86,0.06-1.51,0.06-1.95
			c0-0.46-0.02-1.14-0.06-2.05c-0.04-0.91-0.06-1.59-0.06-2.04c0-0.09,0.08-0.13,0.23-0.13c0.23,0,0.51-0.02,0.85-0.05
			c0.08-0.01,0.24-0.03,0.47-0.08c0.2-0.04,0.36-0.05,0.47-0.05c0.05,0,0.12,0.07,0.22,0.2l2.22,3.04c0.2,0.27,0.5,0.67,0.9,1.2
			c0.1,0.12,0.18,0.18,0.26,0.18c0.05,0,0.08-0.15,0.08-0.46c0-0.42-0.02-1.04-0.07-1.88c-0.05-0.84-0.07-1.47-0.07-1.89
			c0-0.15,0.04-0.22,0.12-0.22c0.24,0,0.6-0.01,1.08-0.03c0.48-0.02,0.84-0.03,1.08-0.03C142.09,80.2,142.12,80.26,142.12,80.38z"/>
		<path fill="#6E6E6E" d="M149.32,86.69c0,0.17-0.03,0.48-0.1,0.94c-0.07,0.5-0.13,0.79-0.19,0.89c-0.05,0.08-0.11,0.11-0.2,0.11
			c-0.04,0-0.1-0.01-0.18-0.02c-0.29-0.04-1.13-0.06-2.53-0.06c-0.31,0-0.76,0-1.36-0.01c-0.6,0-1.05-0.01-1.36-0.01
			c-0.13,0-0.2-0.06-0.2-0.17c0-0.44,0.02-1.11,0.07-2c0.05-0.89,0.07-1.56,0.07-2c0-0.45-0.02-1.29-0.07-2.53
			c-0.01-0.32-0.03-0.79-0.07-1.42l-0.01-0.08c-0.01-0.09,0.04-0.14,0.15-0.14c0.29,0,0.73,0.01,1.32,0.02
			c0.59,0.02,1.03,0.02,1.32,0.02c0.29,0,0.73-0.01,1.31-0.02c0.58-0.02,1.02-0.02,1.31-0.02c0.21,0,0.33,0.08,0.36,0.23
			c0.02,0.09,0.05,0.37,0.09,0.83c0.04,0.46,0.06,0.74,0.06,0.84c0,0.08-0.04,0.13-0.12,0.13c-0.02,0-0.07,0-0.12-0.01
			c-1.06-0.09-2-0.13-2.84-0.13c-0.21,0-0.34,0.05-0.39,0.15c-0.02,0.05-0.03,0.2-0.03,0.46c0,0.27,0.04,0.45,0.12,0.54
			c0.07,0.08,0.2,0.11,0.39,0.11c0.04,0,0.12,0,0.23-0.01c0.11-0.01,0.21-0.01,0.29-0.01c0.5,0,1.01-0.01,1.52-0.04
			c0.04,0,0.15-0.01,0.33-0.03c0.13-0.02,0.24-0.02,0.32-0.02c0.1,0,0.14,0.05,0.14,0.14c0-0.08-0.04,0.22-0.11,0.91
			c-0.03,0.32-0.05,0.63-0.05,0.95c0,0.08-0.06,0.12-0.17,0.12l-0.54-0.06c-0.23-0.02-0.74-0.04-1.55-0.04h-0.63
			c-0.16,0-0.26,0.04-0.29,0.12c0,0.02-0.01,0.14-0.01,0.37c0,0.3,0.02,0.5,0.06,0.58c0.07,0.15,0.32,0.24,0.76,0.27
			c-0.01,0,0.28,0,0.87,0c0.21,0,0.52-0.02,0.94-0.06c0.41-0.04,0.72-0.06,0.93-0.06C149.28,86.48,149.32,86.55,149.32,86.69z"/>
		<path fill="#6E6E6E" d="M154.17,85.81c0,0.81-0.34,1.5-1.02,2.07c-0.59,0.51-1.32,0.83-2.17,0.97c-0.03,0-0.06,0.01-0.08,0.01
			c-0.09,0-0.29-0.28-0.61-0.84c-0.31-0.56-0.47-0.9-0.47-1.02c0-0.04,0.03-0.07,0.09-0.08c0.58-0.13,0.96-0.24,1.14-0.33
			c0.41-0.21,0.62-0.51,0.62-0.92c0-0.26-0.13-0.55-0.4-0.86c-0.47-0.54-0.72-0.84-0.76-0.9c-0.27-0.41-0.41-0.87-0.41-1.37
			c0-0.73,0.34-1.33,1.01-1.81c0.55-0.4,1.22-0.65,2.02-0.77c0.04,0,0.08-0.01,0.1-0.01c0.06,0,0.11,0.05,0.14,0.14
			c0.1,0.29,0.34,0.81,0.72,1.57c0.01,0.02,0.02,0.04,0.02,0.06c0,0.07-0.04,0.1-0.11,0.1c-0.03,0-0.09-0.01-0.16-0.02
			c-0.08-0.01-0.13-0.02-0.17-0.02c-0.29,0-0.54,0.07-0.75,0.2c-0.26,0.15-0.39,0.36-0.39,0.63c0,0.24,0.14,0.54,0.43,0.89
			c0.5,0.63,0.77,0.97,0.79,1C154.03,84.94,154.17,85.38,154.17,85.81z"/>
	</g>
	<g>
		<rect x="4.54" y="71.93" fill="#3C3C3C" width="37.49" height="2.21"/>
		<rect x="42.03" y="71.93" fill="#6E6E6E" width="37.49" height="2.21"/>
		<rect x="79.52" y="71.93" fill="#7B7B7B" width="37.49" height="2.21"/>
		<rect x="117.02" y="71.93" fill="#BBBBBB" width="37.49" height="2.21"/>
	</g>
	<path fill-rule="evenodd" clip-rule="evenodd" fill="#3C3C3C" d="M115.93,45.39c0-1.33,1.5-2.12,2.84-2.16
		c1.6-0.05,2.48,1.07,3.82,1.07c0.34,0,0.63-0.07,0.88-0.22c0.25-0.15,0.42-0.34,0.49-0.58l1.17,0.02c0,1.34-1.5,2.12-2.84,2.16
		c-1.6,0.05-2.48-1.07-3.82-1.07c-0.34,0-0.63,0.07-0.88,0.22c-0.25,0.15-0.42,0.34-0.49,0.59L115.93,45.39L115.93,45.39z"/>
	<g>
		<g>
			<path fill-rule="evenodd" clip-rule="evenodd" fill="#3C3C3C" d="M140.52,4.4c-4.24,0-6.15,0-6.95,0c0,0-0.11,0-0.49,0
				c-0.79,0-2.72,0-7,0l-9.17,36.27h11.4l1.3-6.27h7.43l1.3,6.27h11.4L140.52,4.4z M133.33,24.91c-1.84,0-3.33-1.46-3.33-3.26
				c0-1.8,1.49-3.27,3.33-3.27c1.84,0,3.33,1.46,3.33,3.27C136.66,23.45,135.17,24.91,133.33,24.91z"/>
		</g>
		<rect x="100.63" y="4.4" fill-rule="evenodd" clip-rule="evenodd" fill="#3C3C3C" width="13.89" height="36.27"/>
		<polygon fill-rule="evenodd" clip-rule="evenodd" fill="#3C3C3C" points="9.3,40.67 23.19,40.67 23.19,27.97 33.18,27.97 
			33.18,19.11 23.19,19.11 23.19,14.91 34.05,14.91 34.05,4.4 9.3,4.4 		"/>
		<polygon fill-rule="evenodd" clip-rule="evenodd" fill="#3C3C3C" points="50.27,26.78 60.26,26.78 60.26,17.92 50.27,17.92 
			50.27,14.91 61.13,14.91 61.13,4.4 36.38,4.4 36.38,40.67 61.67,40.67 61.67,30.15 50.27,30.15 		"/>
		<g>
			<path fill-rule="evenodd" clip-rule="evenodd" fill="#3C3C3C" d="M94.99,22.14c0.9-1.71,1.36-3.43,1.36-5.16
				c0-2.24-0.44-4.16-1.33-5.75C94.13,9.65,93,8.34,91.62,7.32c-1.37-1.02-2.87-1.76-4.5-2.23c-1.63-0.47-3.17-0.7-4.61-0.7H64.33
				v36.27h13.3V29.11h0.81l5.81,11.55h13.89l-7.11-14.15C92.76,25.31,94.08,23.85,94.99,22.14z M79.17,20.11
				c-1.84,0-3.33-1.46-3.33-3.27c0-1.8,1.49-3.27,3.33-3.27c1.84,0,3.33,1.46,3.33,3.27C82.5,18.65,81.01,20.11,79.17,20.11z"/>
		</g>
	</g>
	<g>
		<polygon fill-rule="evenodd" clip-rule="evenodd" fill="#3C3C3C" points="122.61,54.25 119.03,46.63 110.95,46.63 110.95,66.39 
			118.64,66.39 118.64,58.65 122.28,66.39 130.3,66.39 130.3,46.63 122.61,46.63 		"/>
		<g>
			<path fill-rule="evenodd" clip-rule="evenodd" fill="#3C3C3C" d="M35,46.63l-5.08,19.76h6.31l0.72-3.41h4.11l0.72,3.41h6.31
				l-5.11-19.76H35z M39.01,58.5c-1.28,0-2.32-1.02-2.32-2.29c0-1.27,1.04-2.29,2.32-2.29c1.28,0,2.32,1.02,2.32,2.29
				C41.33,57.47,40.29,58.5,39.01,58.5z"/>
		</g>
		<g>
			<path fill-rule="evenodd" clip-rule="evenodd" fill="#3C3C3C" d="M90.98,49.41c-0.98-0.87-2.15-1.56-3.5-2.05
				c-1.35-0.49-2.82-0.73-4.4-0.73h-8.47v19.76h8.47c1.58,0,3.05-0.24,4.4-0.73c1.35-0.49,2.52-1.17,3.5-2.05
				c0.98-0.87,1.75-1.92,2.31-3.13c0.56-1.21,0.84-2.54,0.84-3.97c0-1.43-0.28-2.75-0.84-3.97C92.73,51.33,91.96,50.28,90.98,49.41z
				 M83.52,58.5c-1.28,0-2.32-1.02-2.32-2.29c0-1.27,1.04-2.29,2.32-2.29c1.28,0,2.32,1.02,2.32,2.29
				C85.85,57.47,84.81,58.5,83.52,58.5z"/>
		</g>
		<rect x="65.42" y="46.63" fill-rule="evenodd" clip-rule="evenodd" fill="#3C3C3C" width="7.69" height="19.76"/>
		<polygon fill-rule="evenodd" clip-rule="evenodd" fill="#3C3C3C" points="55.03,56.87 52.27,46.63 45.96,46.63 51.64,66.39 
			58.45,66.39 64.13,46.63 57.82,46.63 		"/>
		<polygon fill-rule="evenodd" clip-rule="evenodd" fill="#3C3C3C" points="20.91,54.25 17.34,46.63 9.26,46.63 9.26,66.39 
			16.95,66.39 16.95,58.65 20.58,66.39 28.6,66.39 28.6,46.63 20.91,46.63 		"/>
		<g>
			<path fill-rule="evenodd" clip-rule="evenodd" fill="#3C3C3C" d="M144.68,46.63h-7.99l-5.08,19.76h6.31l0.72-3.41h4.11l0.72,3.41
				h6.31L144.68,46.63z M140.7,58.5c-1.28,0-2.32-1.02-2.32-2.29c0-1.27,1.04-2.29,2.32-2.29c1.28,0,2.32,1.02,2.32,2.29
				C143.03,57.47,141.99,58.5,140.7,58.5z"/>
		</g>
		<polygon fill-rule="evenodd" clip-rule="evenodd" fill="#3C3C3C" points="103.18,58.82 108.7,58.82 108.7,54 103.18,54 
			103.18,52.36 109.18,52.36 109.18,46.63 95.49,46.63 95.49,66.39 109.48,66.39 109.48,60.66 103.18,60.66 		"/>
	</g>
	<g>
		<path fill="#6E6E6E" d="M9.22,110.3c0.4,0.27,0.76,0.49,1.07,0.66c0.31,0.17,0.59,0.31,0.85,0.42c0.25,0.11,0.49,0.19,0.71,0.24
			c0.23,0.04,0.48,0.07,0.75,0.07c0.55,0,1.04-0.14,1.47-0.42c0.42-0.28,0.64-0.68,0.64-1.2V94.95h9.62v16.13
			c0,1.36-0.31,2.54-0.94,3.56c-0.63,1.02-1.45,1.86-2.48,2.54c-1.03,0.68-2.19,1.18-3.5,1.51c-1.3,0.33-2.62,0.49-3.95,0.49
			c-0.38,0-0.78-0.04-1.2-0.14c-0.43-0.09-0.84-0.21-1.24-0.36c-0.4-0.15-0.76-0.3-1.07-0.46c-0.31-0.16-0.56-0.31-0.73-0.44V110.3
			L9.22,110.3z"/>
		<path fill="#6E6E6E" d="M25.98,106.81c0-1.72,0.34-3.33,1.03-4.85c0.69-1.51,1.65-2.83,2.88-3.95c1.23-1.12,2.69-2.01,4.38-2.66
			c1.69-0.65,3.53-0.98,5.51-0.98c1.98,0,3.82,0.33,5.51,0.98c1.69,0.65,3.15,1.54,4.38,2.66c1.23,1.12,2.19,2.43,2.89,3.95
			c0.7,1.51,1.05,3.13,1.05,4.85c0,1.72-0.35,3.33-1.05,4.85c-0.7,1.51-1.67,2.83-2.89,3.95c-1.23,1.12-2.69,2-4.38,2.64
			c-1.69,0.64-3.53,0.97-5.51,0.97c-1.98,0-3.82-0.32-5.51-0.97c-1.69-0.64-3.15-1.53-4.38-2.64c-1.23-1.12-2.19-2.43-2.88-3.95
			C26.33,110.14,25.98,108.52,25.98,106.81L25.98,106.81z"/>
		<path fill="#6E6E6E" d="M74.67,117.62c-0.95,0.52-1.98,0.92-3.08,1.19c-1.1,0.27-2.26,0.41-3.46,0.41c-1.88,0-3.61-0.32-5.19-0.97
			c-1.58-0.64-2.95-1.53-4.12-2.64c-1.17-1.12-2.07-2.43-2.73-3.95c-0.65-1.51-0.98-3.13-0.98-4.85c0-1.72,0.33-3.33,0.98-4.85
			c0.65-1.51,1.56-2.83,2.73-3.95c1.16-1.12,2.54-2.01,4.12-2.66c1.58-0.66,3.31-0.98,5.19-0.98c1.2,0,2.36,0.14,3.46,0.42
			c1.1,0.28,2.13,0.68,3.08,1.2v8.68c-0.28-0.25-0.57-0.5-0.88-0.76c-0.31-0.26-0.66-0.5-1.05-0.71c-0.39-0.21-0.84-0.39-1.35-0.52
			c-0.51-0.14-1.11-0.2-1.79-0.2c-0.8,0-1.5,0.11-2.09,0.34c-0.59,0.23-1.08,0.54-1.47,0.93c-0.39,0.4-0.68,0.85-0.86,1.37
			c-0.19,0.52-0.28,1.08-0.28,1.69c0,0.59,0.09,1.14,0.28,1.66c0.19,0.52,0.47,0.97,0.86,1.36c0.39,0.38,0.88,0.69,1.47,0.91
			c0.59,0.23,1.29,0.34,2.09,0.34c1.28,0,2.36-0.28,3.23-0.83c0.88-0.55,1.49-1.25,1.84-2.08V117.62L74.67,117.62z"/>
		<polygon fill="#6E6E6E" points="90.69,94.95 100.88,94.95 94.34,105.75 102.01,118.67 91.82,118.67 86.14,108.36 86.14,118.67 
			76.52,118.67 76.52,94.95 86.14,94.95 86.14,103.18 90.69,94.95 		"/>
		<polygon fill="#6E6E6E" points="103.77,94.95 120.92,94.95 120.92,101.82 113.4,101.82 113.4,103.79 120.32,103.79 120.32,109.58 
			113.4,109.58 113.4,111.79 121.3,111.79 121.3,118.67 103.77,118.67 103.77,94.95 		"/>
		<polygon fill="#6E6E6E" points="122.84,94.91 132.46,94.91 136.33,101.89 140.21,94.91 149.83,94.91 141.15,108.97 141.15,118.67 
			131.52,118.67 131.52,108.97 		"/>
		<g>
			<path fill-rule="evenodd" clip-rule="evenodd" fill="#FFFFFF" d="M31.96,113.82h4.94l1.41-14.03h-3.78
				c-0.67,1.14-1.77,1.69-3.2,1.87l-0.32,3.2h1.86L31.96,113.82L31.96,113.82z"/>
			<g>
				<path fill="#FFFFFF" d="M49.24,109.77c0,0.55-0.07,1.04-0.22,1.47c-0.15,0.43-0.35,0.82-0.61,1.15
					c-0.26,0.33-0.57,0.62-0.92,0.86c-0.35,0.24-0.74,0.43-1.16,0.58c-0.42,0.15-0.87,0.26-1.33,0.33
					c-0.47,0.07-0.94,0.11-1.42,0.11c-0.68,0-1.36-0.09-2.02-0.27c-0.67-0.18-1.26-0.46-1.79-0.84c-0.53-0.37-0.96-0.84-1.29-1.4
					c-0.33-0.56-0.49-1.22-0.49-1.99c0-0.31,0.04-0.62,0.11-0.94c0.07-0.31,0.18-0.61,0.32-0.9s0.32-0.54,0.54-0.77
					c0.22-0.23,0.47-0.42,0.75-0.58c-0.45-0.4-0.78-0.86-1-1.37c-0.22-0.52-0.33-1.07-0.33-1.67c0-0.7,0.15-1.31,0.46-1.83
					c0.31-0.52,0.71-0.96,1.21-1.32c0.5-0.35,1.06-0.62,1.68-0.8c0.62-0.18,1.24-0.27,1.86-0.27c0.41,0,0.83,0.04,1.24,0.12
					c0.42,0.08,0.82,0.2,1.2,0.35c0.38,0.16,0.74,0.35,1.08,0.59c0.33,0.24,0.62,0.51,0.87,0.83c0.25,0.31,0.44,0.67,0.58,1.05
					c0.14,0.39,0.21,0.81,0.21,1.27c0,0.59-0.11,1.15-0.33,1.67c-0.22,0.52-0.56,0.97-1,1.37c0.65,0.34,1.11,0.77,1.4,1.31
					C49.09,108.43,49.24,109.06,49.24,109.77z M45.25,104.53c0-0.22-0.05-0.42-0.15-0.6c-0.1-0.18-0.23-0.33-0.39-0.46
					c-0.16-0.13-0.34-0.23-0.54-0.29c-0.2-0.07-0.4-0.1-0.6-0.1c-0.21,0-0.42,0.03-0.62,0.1c-0.2,0.07-0.39,0.17-0.55,0.29
					c-0.16,0.13-0.29,0.28-0.39,0.46c-0.1,0.18-0.15,0.38-0.15,0.6c0,0.22,0.05,0.42,0.15,0.6c0.1,0.18,0.23,0.33,0.39,0.45
					c0.16,0.12,0.34,0.22,0.55,0.28c0.2,0.07,0.41,0.1,0.62,0.1c0.2,0,0.4-0.03,0.6-0.1c0.2-0.07,0.38-0.16,0.54-0.28
					c0.16-0.12,0.29-0.27,0.39-0.45C45.2,104.95,45.25,104.75,45.25,104.53z M45.23,109.29c0-0.22-0.05-0.42-0.15-0.6
					c-0.1-0.18-0.22-0.33-0.38-0.45c-0.16-0.12-0.33-0.22-0.53-0.28c-0.2-0.07-0.4-0.1-0.6-0.1c-0.2,0-0.4,0.03-0.6,0.1
					c-0.2,0.07-0.38,0.16-0.54,0.28c-0.16,0.12-0.29,0.27-0.39,0.45c-0.1,0.18-0.15,0.38-0.15,0.6c0,0.22,0.05,0.41,0.15,0.59
					c0.1,0.18,0.23,0.32,0.39,0.45c0.16,0.12,0.34,0.22,0.54,0.28c0.2,0.07,0.4,0.1,0.6,0.1c0.2,0,0.4-0.03,0.6-0.1
					c0.2-0.07,0.38-0.16,0.53-0.28c0.16-0.12,0.28-0.27,0.38-0.45C45.18,109.7,45.23,109.5,45.23,109.29z"/>
			</g>
		</g>
	</g>
</g>
<g>
</g>
<g>
</g>
<g>
</g>
<g>
</g>
<g>
</g>
<g>
</g>
<g>
</g>
<g>
</g>
<g>
</g>
<g>
</g>
<g>
</g>
<g>
</g>
<g>
</g>
<g>
</g>
<g>
</g>
</svg>
