<?xml version="1.0" encoding="utf-8"?>
<!-- Generator: Adobe Illustrator 23.0.0, SVG Export Plug-In . SVG Version: 6.00 Build 0)  -->
<svg version="1.1" id="Capa_1" xmlns="http://www.w3.org/2000/svg" xmlns:xlink="http://www.w3.org/1999/xlink" x="0px" y="0px"
	 viewBox="0 0 159.05 113.6" enable-background="new 0 0 159.05 113.6" xml:space="preserve">
<g>
	<polygon fill="#7E7E7E" points="91.17,58.93 91.17,40.55 85.03,58.93 75.83,58.93 69.7,40.55 69.7,58.93 60.5,58.93 60.5,34.43 
		75.83,34.43 80.43,48.21 85.03,34.43 100.38,34.43 100.38,58.93 	"/>
	<polygon fill="#7E7E7E" points="20.61,58.93 11.4,49.74 11.4,58.93 2.2,58.93 2.2,34.43 11.4,34.43 11.4,43.62 20.61,34.43 
		29.81,34.43 19.07,45.15 32.89,58.93 	"/>
	<polygon fill="#7E7E7E" points="32.89,58.93 32.89,34.43 42.09,34.43 42.09,52.81 57.43,52.81 57.43,58.93 	"/>
	<polygon fill="#7E7E7E" points="49.75,10.69 49.75,7.62 46.69,7.62 46.69,4.56 49.75,4.56 49.75,1.5 52.82,1.5 52.82,4.56 
		55.9,4.56 55.9,7.62 52.82,7.62 52.82,10.69 	"/>
	<path fill="#7E7E7E" d="M32.89,20.65c2.96,0,5.37-2.4,5.37-5.36c0-2.96-2.41-5.35-5.37-5.35c-2.97,0-5.37,2.4-5.37,5.35
		C27.51,18.24,29.92,20.65,32.89,20.65"/>
	<path fill="#7E7E7E" d="M45.16,20.65c2.96,0,5.36-2.4,5.36-5.36c0-2.96-2.4-5.35-5.36-5.35c-2.96,0-5.37,2.4-5.37,5.35
		C39.79,18.24,42.19,20.65,45.16,20.65"/>
	<path fill="#7E7E7E" d="M57.43,20.65c2.97,0,5.37-2.4,5.37-5.36c0-2.96-2.41-5.35-5.37-5.35c-2.97,0-5.37,2.4-5.37,5.35
		C52.06,18.24,54.46,20.65,57.43,20.65"/>
	<path fill="#7E7E7E" d="M69.7,20.65c2.96,0,5.37-2.4,5.37-5.36c0-2.96-2.41-5.35-5.37-5.35c-2.96,0-5.36,2.4-5.36,5.35
		C64.34,18.24,66.74,20.65,69.7,20.65"/>
	<rect x="32.89" y="22.17" fill="#7E7E7E" width="36.81" height="6.13"/>
	<path fill="#383838" d="M137.09,72.69c-5.24,0.25-10.12-1.52-13.88-4.63l-0.02,0.02c3.89,3.78,9.26,6,15.1,5.72
		c11.16-0.54,19.78-10.04,19.24-21.21c-0.27-5.65-2.83-10.65-6.74-14.13l-0.02,0.02c3.24,3.4,5.32,7.93,5.56,12.99
		C156.87,62.65,148.25,72.14,137.09,72.69"/>
	<path fill="#383838" d="M114.43,60.72c-0.66,0.34-0.81,0.88-0.5,1.73c0.29,0.76,0.76,1.1,1.27,0.91c0.41-0.15,0.49-0.5,0.33-1.42
		l-0.06-0.36c-0.14-0.9-0.17-1.28-0.05-1.67c0.11-0.44,0.37-0.71,0.75-0.86c0.93-0.34,1.77,0.24,2.27,1.53
		c0.52,1.4,0.2,2.45-0.9,2.88l-0.26-0.69c0.76-0.31,0.97-1.01,0.59-2.03c-0.31-0.83-0.82-1.21-1.39-0.99
		c-0.44,0.16-0.56,0.57-0.42,1.51l0.05,0.4l0.05,0.34c0.1,0.7,0.11,0.95,0.04,1.24c-0.1,0.37-0.34,0.64-0.71,0.78
		c-0.87,0.33-1.69-0.2-2.13-1.37c-0.48-1.27-0.18-2.2,0.79-2.61L114.43,60.72z"/>
	<polygon fill="#383838" points="114.01,53.4 117.13,50.88 117.13,51.83 114.48,53.93 115.3,54.88 117.13,54.89 117.13,55.64 
		111.92,55.64 111.91,54.89 113.96,54.89 114.24,54.89 114.51,54.89 114.34,54.7 114.17,54.52 111.91,51.97 111.91,50.98 	"/>
	<path fill="#383838" d="M116.49,45.37l2,0.75l-0.26,0.7l-2-0.75l-3.63,1.01l0.32-0.86l2.25-0.57l0.29-0.07
		c0.11-0.03,0.18-0.05,0.38-0.08c-0.17-0.22-0.21-0.26-0.39-0.53l-1.35-1.9l0.3-0.81L116.49,45.37z"/>
	<polygon fill="#383838" points="120.22,35.85 119.09,37.18 122.32,39.95 121.51,40.9 118.28,38.13 117.14,39.45 116.42,38.82 
		119.49,35.23 	"/>
	<polygon fill="#383838" points="127.37,31.06 124.71,32.54 125.24,33.52 127.7,32.16 128.13,32.93 125.68,34.3 126.31,35.42 
		129.02,33.91 129.49,34.75 125.68,36.87 123.14,32.3 126.91,30.21 	"/>
	<path fill="#383838" d="M134.51,30.55c-0.29-0.49-0.38-0.7-0.54-1.08c-0.05,0.37-0.11,0.64-0.25,1.18l-0.23,0.99l1.52-0.21
		L134.51,30.55z M137.43,33.3l-1.36,0.07l-0.65-1.14l-2.12,0.29l-0.32,1.28l-1.3,0.31l1.49-5.68l1.29-0.17L137.43,33.3z"/>
	<path fill="#383838" d="M145.77,35.15l-1.09-0.44l0.45-1.55c0.04-0.18,0.12-0.42,0.22-0.74c0.09-0.33,0.18-0.58,0.24-0.77
		c0.07-0.21,0.14-0.42,0.21-0.65l0.13-0.37c-0.31,0.52-0.44,0.7-0.73,1.13c-0.13,0.19-0.24,0.34-0.34,0.47l-1.52,2.04l-0.95-0.27
		l-0.24-2.5c-0.02-0.13-0.03-0.31-0.03-0.56c-0.02-0.33-0.02-0.58-0.03-0.75c0-0.14,0-0.35,0.01-0.63l-0.15,0.63
		c-0.17,0.68-0.25,0.98-0.47,1.8l-0.46,1.67l-1.15-0.21l1.41-5.08l1.75,0.37l0.2,2.43c0.05,0.57,0.05,1.04,0.01,1.71
		c0.21-0.38,0.28-0.51,0.52-0.85c0.16-0.23,0.29-0.43,0.41-0.61l1.42-1.94l1.65,0.6L145.77,35.15z"/>
	<path fill="#383838" d="M145.29,51.99c1.53-0.98,2.8-1.5,3.57-1.45c0.46,0.02,1.01,0.17,0.99,0.74c-0.01,0.59-0.58,1.06-1.68,1.43
		c-0.96,0.32-2.43,0.37-4.03,0.16C144.6,52.49,144.98,52.2,145.29,51.99 M124.08,53.39c-0.93-0.08-1.38-0.47-1.36-1.19
		c0-0.09,0.11-2.37,5.34-2.52c0.6-0.02,1.26-0.03,2.28,0.11c-0.04,0-0.6,0.5-0.6,0.5l-0.33,0.29
		C128.12,51.7,125.97,53.57,124.08,53.39 M135.59,44.99c-0.64,0.54-1.93,1.72-3.16,2.86l-1.4,1.29c-1.12-0.23-2.23-0.35-3.36-0.37
		c-2.54-0.06-4.89,0.6-5.97,1.66c-0.41,0.41-0.62,0.85-0.62,1.32c0,1.23,1.4,1.88,1.82,2.05c2.24,0.88,4.13,0.69,6.16-0.67
		c1.12-0.75,2.46-1.95,3.52-2.92c0.8,0.2,1.7,0.46,2.68,0.77l0.89,0.28c-1.19,1.13-2.42,2.32-3.55,3.28l-0.09,0.08
		c-1.57,1.33-2.72,2.3-4.34,2.62c-1.14,0.23-1.95-0.03-2.21-0.19c-0.03,0-0.06,0.04-0.06,0.04c0.92,0.79,1.79,1.25,3.33,1.15
		c1.45-0.09,3.16-0.98,4.9-2.55l2.37-2.23l1.66-1.58c0,0.01,3.26,1.04,3.26,1.04c0.02,0.01,0.06,0.02,0.06,0.02
		c-0.04,0-2.08,1.93-2.08,1.93l-1.78,1.7c-1.82,1.7-2.82,2.57-3.88,3.3c-1.74,1.18-3.24,1.79-4.54,1.85
		c-0.67,0.03-1.65-0.04-2.44-0.53c-0.04-0.01-0.09,0.03-0.09,0.03c0.86,0.77,1.93,1.7,3.79,1.69c2.1-0.02,3.99-0.99,6.96-3.6
		c1.35-1.19,2.69-2.52,3.87-3.7l2.2-2.15c1.42,0.34,2.68,0.5,4.09,0.5c2.04,0.01,3.81-0.94,3.85-2.06c0.04-0.82-0.63-1.28-1.04-1.55
		c-0.33-0.23-1.23-0.76-2.49-0.78c-1.53-0.03-3.15,0.61-4.8,1.91l-1.09,0.93c0.01-0.01-0.4-0.11-0.4-0.11l-2.99-0.91
		c0.9-0.81,1.68-1.5,2.37-2.09c1.67-1.43,3.5-1.99,4.57-2.04c0.77-0.03,2.13,0.06,2.67,0.47c0.02-0.01,0.06-0.06,0.06-0.06
		c-1.46-1.3-2.73-1.5-3.78-1.52c-1.04-0.02-2.71,0.27-4.79,1.81c-0.85,0.62-1.96,1.68-3.11,2.8c0-0.01-1.51-0.5-1.51-0.5l-0.37-0.12
		l-1.59-0.52c0.04,0,0.94-0.84,0.94-0.84c1.1-1.03,2.13-2.01,2.94-2.66c2.92-2.36,4.75-2.64,6.01-2.62
		c1.39,0.03,2.48,0.33,3.24,0.92c0.03,0,0.07-0.06,0.07-0.06c-1.59-1.5-2.74-1.98-4.75-2.05C139.81,42.3,137.68,43.24,135.59,44.99"
		/>
	<path fill="#383838" d="M147.95,31.2c0.17-0.45,0.66-0.67,1.11-0.5c0.45,0.17,0.67,0.66,0.51,1.1c-0.17,0.45-0.66,0.67-1.11,0.5
		C148.01,32.13,147.78,31.64,147.95,31.2 M149.41,31.82c0.18-0.36,0.02-0.8-0.34-0.97c-0.35-0.17-0.8-0.04-0.97,0.33
		c-0.18,0.36-0.02,0.8,0.33,0.97C148.79,32.32,149.24,32.18,149.41,31.82 M148.92,32.09l-0.14-0.07l-0.07-0.51l-0.14-0.07l-0.2,0.39
		l-0.11-0.06l0.42-0.84l0.37,0.18c0.15,0.08,0.28,0.19,0.19,0.37c-0.08,0.16-0.23,0.17-0.38,0.1L148.92,32.09z M148.77,31.39
		c0.11,0.05,0.29,0.16,0.35,0.03c0.04-0.09-0.06-0.16-0.15-0.2l-0.22-0.11l-0.11,0.21L148.77,31.39z"/>
	<path fill="#7E7E7E" d="M7.88,73.53c0,0.04-0.03,0.07-0.08,0.07h-1.6c-0.06,0-0.08-0.03-0.13-0.09l-1.25-1.97
		c-0.03-0.04-0.04-0.09-0.1-0.09l-0.84,0.01c-0.04,0-0.07,0.02-0.07,0.07l0.01,1.96c0,0.07-0.04,0.09-0.09,0.09h-1.4
		c-0.05,0-0.08-0.04-0.08-0.11v-6.2c0-0.07,0.04-0.1,0.08-0.1h2.74c1.57,0,2.54,0.6,2.54,2.01c0,1.06-0.5,1.71-1.27,2
		c0.41,0.62,1.54,2.29,1.54,2.29C7.88,73.5,7.88,73.52,7.88,73.53 M4.79,68.03H3.89c-0.04,0-0.07,0.03-0.07,0.06v2.46
		c0,0.05,0.02,0.07,0.08,0.07h0.8c0.81,0,1.3-0.42,1.3-1.37C5.99,68.47,5.61,68.03,4.79,68.03"/>
	<path fill="#7E7E7E" d="M11.16,73.69c-1.76,0-2.8-0.92-2.8-2.74c0-1.98,1.1-2.83,2.8-2.83c1.69,0,2.79,0.83,2.79,2.83
		C13.95,72.76,12.92,73.69,11.16,73.69 M11.16,68.97c-0.9,0-1.22,0.53-1.22,1.97c0,1.37,0.35,1.88,1.22,1.88
		c0.89,0,1.21-0.53,1.21-1.88C12.37,69.49,12.05,68.97,11.16,68.97"/>
	<path fill="#7E7E7E" d="M19,72.41c-0.27,0.93-0.78,2.18-1.54,2.92c-0.05,0.04-0.1,0.06-0.17,0.06h-1.31
		c-0.04,0-0.08-0.03-0.08-0.06c0-0.01,0.01-0.03,0.02-0.05c0.37-0.37,1.03-1.13,1.12-1.6v-0.01c0-0.06-0.05-0.08-0.09-0.08H16.1
		c-0.05,0-0.08-0.03-0.11-0.07l-1.71-5.23c0-0.01-0.01-0.02-0.01-0.02c0-0.04,0.05-0.06,0.1-0.06h1.42c0.07,0,0.1,0.01,0.11,0.07
		l1.32,4.37c0.02,0.06,0.07,0.08,0.1,0.08h0.03c0.05,0,0.08-0.03,0.1-0.08l1.15-4.37c0.01-0.04,0.05-0.07,0.09-0.07h1.37
		c0.05,0,0.08,0.03,0.08,0.06v0.02L19,72.41z"/>
	<path fill="#7E7E7E" d="M25.57,73.37c0,0.06-0.02,0.11-0.11,0.13c-0.72,0.08-1.6,0.21-2.42,0.21c-1.49,0-2.56-0.41-2.56-1.85
		c0-1.41,1.04-1.75,2.24-1.75c0.37,0,0.98,0.06,1.28,0.1c0-0.85-0.33-1.19-1.42-1.19c-0.36,0-0.85,0.04-1.25,0.07H21.3
		c-0.07,0-0.08-0.03-0.1-0.08l-0.09-0.68V68.3c0-0.04,0.03-0.05,0.07-0.08c0.49-0.05,1.31-0.11,1.92-0.11c1.5,0,2.46,0.54,2.46,2.05
		V73.37z M24.02,71.05c0-0.05-0.02-0.07-0.1-0.07H23.2c-0.75,0-1.14,0.18-1.14,0.83c0,0.7,0.41,0.91,1.14,0.91h0.71
		c0.08,0,0.1-0.03,0.1-0.1V71.05z"/>
	<path fill="#7E7E7E" d="M28.35,73.59h-1.39c-0.07,0-0.09-0.03-0.09-0.1v-7.05c0-0.05,0.02-0.08,0.09-0.1l1.38-0.09
		c0.07,0,0.1,0.03,0.1,0.09v7.15C28.44,73.56,28.42,73.59,28.35,73.59"/>
	<path fill="#7E7E7E" d="M35.45,73.59h-2.38c-0.17,0-0.23-0.07-0.23-0.22v-6.01c0-0.12,0.07-0.19,0.22-0.19h2.34
		c1.86,0,3.3,0.4,3.3,2.97C38.7,72.88,37.23,73.59,35.45,73.59 M35.39,68.03H34.6c-0.15,0-0.2,0.04-0.2,0.19v4.35
		c0,0.1,0.05,0.15,0.15,0.15h0.75c1.29,0,1.7-0.88,1.7-2.42C37.01,68.52,36.54,68.03,35.39,68.03"/>
	<path fill="#7E7E7E" d="M44.79,73.43c-0.69,0.1-1.67,0.24-2.44,0.24c-1.71,0-2.63-0.55-2.63-2.23V68.3c0-0.06,0.03-0.09,0.1-0.09
		h1.38c0.07,0,0.1,0.04,0.1,0.08v3.23c0,0.9,0.37,1.2,1.24,1.2c0.25,0,0.48-0.02,0.71-0.06c0.06-0.01,0.08-0.05,0.08-0.1v-4.28
		c0-0.06,0.03-0.08,0.1-0.08h1.37c0.06,0,0.1,0.03,0.1,0.09v5C44.89,73.38,44.86,73.41,44.79,73.43"/>
	<path fill="#7E7E7E" d="M49.16,73.51c-0.02,0.06-0.06,0.07-0.11,0.09c-0.46,0.04-0.73,0.06-1.09,0.06c-0.95,0-1.43-0.41-1.43-1.42
		v-3.09c0-0.07-0.02-0.1-0.09-0.1h-0.56c-0.06,0-0.09-0.04-0.09-0.1v-0.66c0-0.06,0.03-0.08,0.1-0.08h0.56
		c0.07,0,0.09-0.04,0.09-0.1l0.01-1.24c0-0.06,0.03-0.09,0.09-0.1l1.38-0.08c0.06,0,0.08,0.02,0.08,0.09v1.34
		c0,0.06,0.03,0.1,0.1,0.1h0.74c0.08,0,0.1,0.03,0.1,0.09v0.65c0,0.06-0.03,0.09-0.09,0.09H48.2c-0.07,0-0.1,0.04-0.1,0.11v2.93
		c0,0.51,0.23,0.65,0.75,0.65h0.32c0.05,0,0.08,0.04,0.08,0.08v0.01L49.16,73.51z"/>
	<path fill="#7E7E7E" d="M54.25,73.6c-0.46,0.03-0.96,0.1-1.49,0.1c-1.91,0-3.02-0.76-3.02-2.86c0-2.11,1.2-2.73,2.96-2.73
		c0.5,0,0.99,0.06,1.4,0.1c0.07,0.01,0.1,0.03,0.1,0.1l-0.09,0.64c-0.02,0.07-0.04,0.09-0.11,0.09l-0.93-0.01
		c-1.18,0-1.72,0.42-1.72,1.77c0,1.28,0.42,1.91,1.61,1.91h1.3c0.09,0,0.1,0.02,0.1,0.08v0.69C54.36,73.56,54.34,73.58,54.25,73.6"
		/>
	<path fill="#7E7E7E" d="M60.54,73.5c0,0.07-0.02,0.09-0.08,0.09h-1.39c-0.07,0-0.09-0.03-0.09-0.09v-3.22
		c0-0.94-0.36-1.24-1.29-1.24h-0.79c-0.06,0-0.08,0.04-0.08,0.11v4.36c0,0.07-0.03,0.09-0.1,0.09h-1.39c-0.07,0-0.08-0.03-0.08-0.09
		v-7.05c0-0.07,0.03-0.08,0.08-0.09l1.38-0.09c0.07,0,0.11,0.02,0.11,0.09v1.79c0,0.05,0.02,0.08,0.08,0.08h0.03
		c0,0,0.79-0.09,1.18-0.09c1.63,0,2.44,0.68,2.44,2.26V73.5z"/>
	<path fill="#7E7E7E" d="M70.56,73.48c0.01,0.02,0.01,0.04,0.01,0.05c0,0.05-0.03,0.07-0.07,0.07h-1.37c-0.07,0-0.12-0.04-0.13-0.11
		l-0.45-2.01c-0.02-0.05-0.05-0.07-0.09-0.07h-2.13c-0.07,0-0.08,0.01-0.1,0.07l-0.44,2.01c-0.01,0.09-0.05,0.11-0.12,0.11h-1.3
		c-0.06,0-0.1-0.03-0.1-0.08c0-0.01,0.01-0.02,0.01-0.03l1.47-6.21c0.01-0.05,0.06-0.09,0.11-0.09h3.13c0.06,0,0.1,0.04,0.13,0.09
		l1.46,6.2H70.56z M67.8,68.09c0-0.05-0.05-0.07-0.1-0.07h-0.62c-0.06,0-0.1,0.02-0.1,0.07l-0.54,2.4v0.02
		c0,0.04,0.02,0.05,0.06,0.05h1.78c0.04,0,0.07-0.01,0.07-0.04c0-0.01-0.01-0.02-0.01-0.03L67.8,68.09z"/>
	<path fill="#7E7E7E" d="M73,67.23c0,0.07-0.02,0.09-0.1,0.09h-1.39c-0.07,0-0.09-0.03-0.09-0.09v-0.78c0-0.07,0.02-0.09,0.09-0.09
		h1.38c0.08,0,0.11,0.03,0.11,0.09V67.23z M72.9,73.59h-1.39c-0.06,0-0.09-0.03-0.09-0.1V68.3c0-0.07,0.02-0.09,0.09-0.09h1.38
		c0.08,0,0.11,0.03,0.11,0.08v5.2C73,73.56,72.98,73.59,72.9,73.59"/>
	<path fill="#7E7E7E" d="M77.11,69.04c-0.41,0.01-0.71,0.04-1.13,0.07c-0.06,0-0.09,0.04-0.09,0.08v4.3c0,0.08-0.03,0.11-0.09,0.11
		h-1.38c-0.06,0-0.09-0.03-0.09-0.09v-5c0-0.07,0.03-0.1,0.09-0.12c0.64-0.09,1.96-0.19,2.71-0.22c0.06,0,0.09,0.04,0.09,0.09v0.7
		C77.21,69,77.17,69.04,77.11,69.04"/>
	<path fill="#7E7E7E" d="M79.57,73.59h-1.39c-0.07,0-0.09-0.03-0.09-0.1v-7.05c0-0.05,0.02-0.08,0.09-0.1l1.38-0.09
		c0.07,0,0.1,0.03,0.1,0.09v7.15C79.66,73.56,79.64,73.59,79.57,73.59"/>
	<path fill="#7E7E7E" d="M82.58,67.23c0,0.07-0.02,0.09-0.09,0.09H81.1c-0.07,0-0.09-0.03-0.09-0.09v-0.78
		c0-0.07,0.02-0.09,0.09-0.09h1.38c0.07,0,0.1,0.03,0.1,0.09V67.23z M82.48,73.59H81.1c-0.06,0-0.09-0.03-0.09-0.1V68.3
		c0-0.07,0.02-0.09,0.09-0.09h1.38c0.07,0,0.1,0.03,0.1,0.08v5.2C82.58,73.56,82.56,73.59,82.48,73.59"/>
	<path fill="#7E7E7E" d="M89.11,73.59h-1.38c-0.07,0-0.1-0.03-0.1-0.1v-3.23c0-0.87-0.33-1.21-1.2-1.21h-0.87
		c-0.06,0-0.09,0.02-0.09,0.09v4.35c0,0.07-0.02,0.1-0.09,0.1H84c-0.07,0-0.09-0.03-0.09-0.1V68.5c0-0.08,0.03-0.12,0.08-0.12
		c0.79-0.11,1.83-0.25,2.69-0.25c1.77,0,2.51,0.72,2.51,2.3v3.06C89.19,73.56,89.17,73.59,89.11,73.59"/>
	<path fill="#7E7E7E" d="M95.39,71.36h-3.46c-0.06,0-0.09,0.01-0.09,0.08c0,1,0.55,1.31,1.65,1.31c0.35,0,0.76-0.04,1.23-0.09h0.03
		c0.03,0,0.06,0.01,0.06,0.08v0.02l-0.09,0.73c-0.02,0.08-0.05,0.08-0.1,0.09c-0.47,0.08-1.23,0.12-1.58,0.12
		c-1.68,0-2.89-0.61-2.89-2.8c0-1.89,1.03-2.79,2.69-2.79c2.06,0,2.63,1.09,2.63,3.14C95.48,71.33,95.45,71.36,95.39,71.36
		 M92.84,69.01c-0.86,0-1.04,0.64-1.04,1.41c0,0.08,0.02,0.1,0.09,0.1h1.88c0.07,0,0.1-0.01,0.1-0.09
		C93.87,69.64,93.72,69.01,92.84,69.01"/>
	<path fill="#7E7E7E" d="M97.88,73.71c-0.58,0-1.17-0.07-1.58-0.13c-0.08-0.02-0.11-0.05-0.11-0.1v-0.69c0-0.06,0.03-0.08,0.12-0.08
		c0.24,0.02,0.86,0.06,1.35,0.06c0.74,0,1.2-0.14,1.2-0.64c0-1.12-2.65-0.81-2.65-2.52c0-1.11,1.1-1.54,2.37-1.54
		c0.56,0,1.16,0.08,1.61,0.18c0.06,0.01,0.11,0.04,0.11,0.09l-0.11,0.63c-0.01,0.05-0.03,0.08-0.07,0.08h-0.02
		c-0.32-0.02-0.88-0.06-1.21-0.06c-0.66,0-1.1,0.08-1.1,0.57c0,0.99,2.64,0.64,2.64,2.4C100.44,73.04,99.59,73.71,97.88,73.71"/>
	<path fill="#7E7E7E" d="M3.18,110.55c-0.05,0.07-0.1,0.1-0.19,0.1H1.96c-0.07,0-0.1-0.03-0.1-0.08c0-0.03,0-0.06,0.01-0.08
		c0.36-0.53,1.59-2.27,1.59-3.31v-6.06c0-0.1-0.04-0.14-0.14-0.14H1.64c-0.11,0-0.14-0.04-0.14-0.15v-0.8c0-0.1,0.03-0.14,0.12-0.14
		h3.16c0.1,0,0.14,0.03,0.14,0.14v6.71C4.93,108.2,3.82,109.72,3.18,110.55"/>
	<path fill="#7E7E7E" d="M10.44,109.44c-2.04,0-3.97-1.3-3.97-4.02c0-2.83,1.72-4.13,3.98-4.13c2.28,0,4,1.27,4,4.13
		C14.45,108.11,12.59,109.44,10.44,109.44 M10.44,102.39c-1.38,0-2.5,0.75-2.5,3.04c0,2,1.03,2.84,2.53,2.84
		c1.5,0,2.54-0.87,2.54-2.84C13.01,103.13,11.85,102.39,10.44,102.39"/>
	<path fill="#7E7E7E" d="M22.58,109.06c-0.85,0.14-2.04,0.33-3,0.33c-2.36,0-3.61-0.79-3.61-3.16v-4.7c0-0.08,0.04-0.14,0.14-0.14
		h1.18c0.1,0,0.15,0.04,0.15,0.13v4.78c0,1.36,0.65,1.9,2.07,1.9c0.53,0,1.14-0.04,1.61-0.08c0.08-0.01,0.14-0.04,0.14-0.14v-6.46
		c0-0.1,0.03-0.13,0.14-0.13h1.18c0.1,0,0.15,0.04,0.15,0.13v7.36C22.73,108.97,22.69,109.04,22.58,109.06"/>
	<path fill="#7E7E7E" d="M28.27,102.49c-0.61,0-1.07,0.04-1.66,0.09c-0.11,0.01-0.15,0.05-0.15,0.14v6.46c0,0.1-0.03,0.14-0.12,0.14
		h-1.21c-0.07,0-0.12-0.04-0.12-0.14v-7.34c0-0.1,0.04-0.15,0.14-0.18c0.94-0.12,2.03-0.28,3.15-0.32c0.08,0,0.12,0.05,0.12,0.14
		v0.91C28.41,102.45,28.37,102.49,28.27,102.49"/>
	<path fill="#7E7E7E" d="M36.74,109.31h-1.21c-0.1,0-0.12-0.03-0.12-0.14v-4.72c0-1.52-0.76-1.95-2.26-1.95
		c-0.47,0-1.16,0.06-1.61,0.1c-0.11,0-0.12,0.03-0.12,0.14v6.44c0,0.11-0.04,0.14-0.14,0.14h-1.21c-0.1,0-0.14-0.03-0.14-0.14v-7.34
		c0-0.11,0.03-0.14,0.15-0.17c1.11-0.17,2.36-0.32,3.12-0.32c2.28,0,3.66,0.66,3.66,3.01v4.82
		C36.86,109.26,36.83,109.31,36.74,109.31"/>
	<path fill="#7E7E7E" d="M45.95,105.97h-5.8c-0.08,0-0.12,0.01-0.12,0.14c0.06,1.75,1.24,2.13,2.94,2.13c0.64,0,1.35-0.06,2.1-0.11
		c0.06,0,0.13,0.01,0.13,0.1v0.03l-0.13,0.85c-0.03,0.1-0.07,0.1-0.17,0.13c-0.68,0.1-1.51,0.18-2.4,0.18
		c-2.37,0-3.97-0.98-3.97-4.07c0-2.98,1.72-3.99,3.8-3.99c2.54,0,3.75,1.41,3.75,4.49C46.08,105.92,46.04,105.97,45.95,105.97
		 M42.25,102.45c-1.36,0-2.23,0.75-2.23,2.29c0,0.11,0.03,0.14,0.13,0.14h4.3c0.1,0,0.15-0.01,0.15-0.12
		C44.55,103.19,43.64,102.45,42.25,102.45"/>
	<path fill="#7E7E7E" d="M52.73,107.57c-0.4,1.37-1.15,3.19-2.28,4.3c-0.04,0.06-0.11,0.1-0.19,0.1h-1.3c-0.06,0-0.11-0.04-0.11-0.1
		c0-0.01,0.01-0.04,0.03-0.07c0.4-0.37,1.53-1.62,1.65-2.35v-0.01c0-0.08-0.06-0.12-0.11-0.12h-0.76c-0.08,0-0.12-0.04-0.15-0.11
		l-2.54-7.69c0-0.01-0.01-0.03-0.01-0.03c0-0.06,0.07-0.08,0.14-0.08h1.29c0.08,0,0.13,0.01,0.15,0.1l2.08,6.55
		c0.03,0.1,0.1,0.11,0.15,0.11h0.29c0.06,0,0.1-0.01,0.12-0.1l1.83-6.57c0.02-0.05,0.07-0.1,0.14-0.1h1.23c0.06,0,0.1,0.04,0.1,0.1
		v0.01L52.73,107.57z"/>
	<path fill="#7E7E7E" d="M58.1,109.4c-0.67,0-1.44-0.07-2.26-0.21c-0.11-0.03-0.14-0.06-0.14-0.15v-0.84c0-0.07,0.04-0.11,0.11-0.11
		h0.04c0.37,0.01,1.26,0.08,2,0.08c0.99,0,2.17-0.04,2.17-1.12c0-1.87-4.4-1.03-4.4-3.7c0-1.63,1.72-2.02,3.22-2.02
		c0.67,0,1.5,0.11,2.12,0.21c0.1,0.03,0.15,0.08,0.15,0.15l-0.14,0.8c0,0.06-0.04,0.1-0.12,0.1h-0.03
		c-0.44-0.04-1.15-0.13-1.98-0.13c-0.82,0-1.75,0.04-1.75,0.9c0,1.48,4.39,0.82,4.39,3.56C61.47,108.68,60.12,109.4,58.1,109.4"/>
	<path fill="#7E7E7E" d="M71.16,109.44c-2.04,0-3.97-1.3-3.97-4.02c0-2.83,1.72-4.13,3.98-4.13c2.28,0,4,1.27,4,4.13
		C75.17,108.11,73.31,109.44,71.16,109.44 M71.16,102.39c-1.38,0-2.5,0.75-2.5,3.04c0,2,1.03,2.84,2.53,2.84
		c1.5,0,2.54-0.87,2.54-2.84C73.72,103.13,72.57,102.39,71.16,102.39"/>
	<path fill="#7E7E7E" d="M78.64,101.24c0,0.11,0.01,0.15,0.11,0.15h1.37c0.1,0,0.14,0.06,0.14,0.14l0.01,0.65
		c0,0.11-0.04,0.14-0.15,0.14h-1.39c-0.1,0-0.12,0.06-0.12,0.17v6.66c0,0.11-0.04,0.15-0.15,0.15h-1.18c-0.1,0-0.14-0.03-0.14-0.14
		v-6.69c0-0.1-0.04-0.15-0.14-0.15h-0.89c-0.1,0-0.14-0.04-0.14-0.15v-0.64c0-0.1,0.03-0.14,0.12-0.14h0.93
		c0.08,0,0.14-0.04,0.15-0.15c0.24-1.05,1.15-2.02,1.63-2.48c0.08-0.06,0.11-0.1,0.22-0.1h1.11c0.11,0,0.18,0.04,0.18,0.1
		c0,0.01-0.01,0.04-0.03,0.06C79.72,99.38,78.82,100.38,78.64,101.24"/>
	<path fill="#7E7E7E" d="M87.74,109.31h-1.18c-0.11,0-0.15-0.04-0.15-0.14v-9.14c0-0.08,0.04-0.14,0.14-0.14h1.19
		c0.1,0,0.14,0.06,0.14,0.14v9.14C87.88,109.26,87.85,109.31,87.74,109.31"/>
	<path fill="#7E7E7E" d="M97.03,109.31h-1.21c-0.1,0-0.12-0.03-0.12-0.14v-4.72c0-1.52-0.76-1.95-2.26-1.95
		c-0.47,0-1.16,0.06-1.61,0.1c-0.11,0-0.13,0.03-0.13,0.14v6.44c0,0.11-0.04,0.14-0.14,0.14h-1.21c-0.1,0-0.14-0.03-0.14-0.14v-7.34
		c0-0.11,0.03-0.14,0.15-0.17c1.11-0.17,2.36-0.32,3.12-0.32c2.28,0,3.66,0.66,3.66,3.01v4.82
		C97.15,109.26,97.12,109.31,97.03,109.31"/>
	<path fill="#7E7E7E" d="M101.37,109.4c-0.67,0-1.44-0.07-2.26-0.21c-0.11-0.03-0.14-0.06-0.14-0.15v-0.84
		c0-0.07,0.04-0.11,0.11-0.11h0.04c0.38,0.01,1.26,0.08,2,0.08c0.99,0,2.17-0.04,2.17-1.12c0-1.87-4.4-1.03-4.4-3.7
		c0-1.63,1.72-2.02,3.22-2.02c0.66,0,1.5,0.11,2.12,0.21c0.1,0.03,0.15,0.08,0.15,0.15l-0.14,0.8c0,0.06-0.04,0.1-0.12,0.1h-0.03
		c-0.44-0.04-1.15-0.13-1.98-0.13c-0.82,0-1.75,0.04-1.75,0.9c0,1.48,4.38,0.82,4.38,3.56C104.74,108.68,103.4,109.4,101.37,109.4"
		/>
	<path fill="#7E7E7E" d="M109.43,109.39c-0.51,0-0.94-0.07-1.36-0.12c-0.1,0-0.14,0.04-0.14,0.14v2.41c0,0.08-0.04,0.14-0.12,0.15
		l-1.19,0.14c-0.11,0-0.14-0.06-0.14-0.15v-10.13c0-0.1,0.03-0.15,0.12-0.18c0.81-0.12,2.1-0.3,2.87-0.3c2.64,0,4.09,1.05,4.09,3.87
		C113.57,108.1,111.7,109.39,109.43,109.39 M109.61,102.46c-0.53,0-1.21,0.06-1.54,0.11c-0.08,0.03-0.14,0.07-0.14,0.16v5.22
		c0,0.08,0.03,0.14,0.14,0.15c0.35,0.03,0.88,0.08,1.35,0.08c1.53,0,2.64-0.87,2.64-2.88C112.06,103.38,111.17,102.46,109.61,102.46
		"/>
	<path fill="#7E7E7E" d="M116.69,99.95c0,0.1-0.03,0.14-0.12,0.14h-1.21c-0.07,0-0.12-0.04-0.12-0.15V98.8
		c0-0.1,0.04-0.14,0.12-0.14h1.21c0.1,0,0.12,0.04,0.12,0.14V99.95z M116.57,109.31h-1.21c-0.08,0-0.12-0.04-0.12-0.14v-7.63
		c0-0.08,0.04-0.14,0.14-0.14h1.18c0.11,0,0.14,0.04,0.14,0.13v7.65C116.69,109.26,116.67,109.31,116.57,109.31"/>
	<path fill="#7E7E7E" d="M122.24,102.49c-0.61,0-1.07,0.04-1.67,0.09c-0.11,0.01-0.15,0.05-0.15,0.14v6.46
		c0,0.1-0.03,0.14-0.12,0.14h-1.21c-0.07,0-0.13-0.04-0.13-0.14v-7.34c0-0.1,0.04-0.15,0.14-0.18c0.94-0.12,2.03-0.28,3.15-0.32
		c0.08,0,0.12,0.05,0.12,0.14v0.91C122.38,102.45,122.34,102.49,122.24,102.49"/>
	<path fill="#7E7E7E" d="M130.21,108.97c0,0.11-0.03,0.17-0.17,0.19c-1.05,0.11-2.59,0.28-3.36,0.28c-1.56,0-3.39-0.5-3.39-2.84
		c0-2.24,2.15-2.42,3.3-2.42c0.57,0,1.71,0.11,2.12,0.17c0-1.6-0.93-1.87-2.32-1.87c-0.74,0-1.42,0.06-1.93,0.1h-0.04
		c-0.08,0-0.13-0.04-0.14-0.11l-0.14-0.85v-0.01c0-0.07,0.06-0.11,0.14-0.11c0.71-0.1,1.71-0.16,2.33-0.16
		c2.15,0,3.58,0.66,3.58,2.81V108.97z M128.75,105.45c0-0.08-0.03-0.14-0.15-0.14h-1.87c-0.96,0-1.93,0.13-1.93,1.29
		c0,1.37,1,1.55,1.86,1.55h1.94c0.13,0,0.15-0.03,0.15-0.14V105.45z"/>
	<path fill="#7E7E7E" d="M136.26,109.12c-0.03,0.08-0.07,0.11-0.17,0.13c-0.6,0.07-0.94,0.12-1.43,0.12c-1.32,0-1.9-0.58-1.9-1.98
		v-4.92c0-0.1-0.04-0.14-0.14-0.14h-0.94c-0.1,0-0.14-0.06-0.14-0.15v-0.67c0-0.08,0.04-0.13,0.14-0.13h0.96
		c0.08,0,0.13-0.04,0.13-0.14v-1.81c0-0.1,0.03-0.14,0.14-0.17l1.18-0.12c0.1,0,0.15,0.04,0.15,0.14v1.97c0,0.1,0.03,0.14,0.14,0.14
		h1.5c0.11,0,0.14,0.04,0.14,0.14v0.67c0,0.08-0.03,0.12-0.14,0.12h-1.5c-0.1,0-0.14,0.06-0.14,0.15v4.54c0,0.8,0.12,1.14,1.17,1.14
		h0.85c0.13,0,0.14,0.06,0.14,0.14L136.26,109.12z"/>
	<path fill="#7E7E7E" d="M139.25,99.95c0,0.1-0.03,0.14-0.12,0.14h-1.21c-0.07,0-0.13-0.04-0.13-0.15V98.8
		c0-0.1,0.04-0.14,0.13-0.14h1.21c0.1,0,0.12,0.04,0.12,0.14V99.95z M139.12,109.31h-1.21c-0.08,0-0.13-0.04-0.13-0.14v-7.63
		c0-0.08,0.04-0.14,0.14-0.14h1.18c0.11,0,0.14,0.04,0.14,0.13v7.65C139.25,109.26,139.22,109.31,139.12,109.31"/>
	<path fill="#7E7E7E" d="M144.81,109.44c-2.04,0-3.97-1.3-3.97-4.02c0-2.83,1.72-4.13,3.98-4.13c2.28,0,4,1.27,4,4.13
		C148.82,108.11,146.96,109.44,144.81,109.44 M144.81,102.39c-1.38,0-2.5,0.75-2.5,3.04c0,2,1.03,2.84,2.53,2.84
		c1.5,0,2.54-0.87,2.54-2.84C147.38,103.13,146.23,102.39,144.81,102.39"/>
	<path fill="#7E7E7E" d="M157.32,109.31h-1.21c-0.1,0-0.12-0.03-0.12-0.14v-4.72c0-1.52-0.76-1.95-2.26-1.95
		c-0.47,0-1.17,0.06-1.61,0.1c-0.11,0-0.12,0.03-0.12,0.14v6.44c0,0.11-0.04,0.14-0.14,0.14h-1.21c-0.1,0-0.14-0.03-0.14-0.14v-7.34
		c0-0.11,0.03-0.14,0.15-0.17c1.11-0.17,2.36-0.32,3.12-0.32c2.28,0,3.66,0.66,3.66,3.01v4.82
		C157.44,109.26,157.41,109.31,157.32,109.31"/>
	<rect x="2.2" y="87.14" fill="#7E7E7E" width="155.32" height="0.75"/>
</g>
<g>
</g>
<g>
</g>
<g>
</g>
<g>
</g>
<g>
</g>
<g>
</g>
<g>
</g>
<g>
</g>
<g>
</g>
<g>
</g>
<g>
</g>
<g>
</g>
<g>
</g>
<g>
</g>
<g>
</g>
</svg>
