<?xml version="1.0" encoding="utf-8"?>
<!-- Generator: Adobe Illustrator 23.0.0, SVG Export Plug-In . SVG Version: 6.00 Build 0)  -->
<svg version="1.1" id="Capa_1" xmlns="http://www.w3.org/2000/svg" xmlns:xlink="http://www.w3.org/1999/xlink" x="0px" y="0px"
	 viewBox="0 0 196.79 71.16" enable-background="new 0 0 196.79 71.16" xml:space="preserve">
<g>
	<g>
		<path fill="#333333" d="M14.79,26.01c7.1,0.45,18.62-3.08,23.5-8.12c4.47-4.62,5.53-7.4,5.58-9.65c0.07-2.99-1.97-4.08-2.6-4.37
			c-3.26-1.48-10.4-1.21-15.8,9.43c-2.11,4.11-3.73,9.02-4.25,10.86c-2.23,0.44-3.89,0.55-5.79-0.43c-1.03-0.53-1.75-0.52-2.22,0.21
			C12.75,24.65,12.98,25.85,14.79,26.01z M31.23,10.39c3.77-5.75,8.12-6.79,8.94-4.93c0.81,1.86-0.59,6.34-3.99,10.24
			c-3.4,3.89-9.74,7.26-11.09,7.64C25.13,23.21,27.46,16.14,31.23,10.39z M53.8,62.41c-0.73-0.66-1.65-0.4-3.09,1.07
			c-3.45,3.25-11.15,2.86-15.14,1.15c-10.13-4.35-12.62-9.65-23.06-14.67c6.1-7.04,9.69-16.63,11.81-23.96
			c-0.95,0.36-2.6,0.77-3.9,0.94c-0.39,2.56-5.07,15.02-10.49,21.47c-2.58-1.93-4.2-1.24-4.75-0.36c-0.78,1.25-0.09,3.73,5.4,4.22
			c5.77,2.71,9.86,6.72,15.56,10.44c12.24,7.99,21.44,5.14,26.33,2.49C54.26,64.22,54.34,62.9,53.8,62.41z M142.81,46.21
			c-0.85,2.08-3,2.75-3.74,2.67c-0.97-0.1-1.7-0.87-1.35-2.31c0.23-0.94,0.45-1.74,0.69-2.48c1.51-4.08,3.19-8.68,3.62-10.29
			c0.83-3.11-0.62-5.25-2.53-5.63c-1.52-0.29-3.75,0.32-5.28,1.34c-1.54,1.02-3.69,3.22-4.41,4.56c1.24-4.81-1.45-6.74-4.86-5.68
			c-1.95,0.6-3.58,2.02-4.89,3.49c-0.73,0.82-1.46,1.79-1.87,2.43c0.13-0.48,0.56-2.4,0.64-3.51c0.09-1.16-0.56-2.34-1.5-2.61
			c-0.89-0.25-1.99-0.14-3.03,0.5v-0.01c-0.04,0.03-0.09,0.06-0.13,0.09c-0.01,0.01-0.02,0.01-0.03,0.02
			c-0.01,0.01-0.02,0.02-0.04,0.03c-1.37,0.92-2.17,2.15-2.88,3.23c-0.17,0.25-0.26,0.38-0.07,0.5c0.26,0.15,0.59-0.04,0.75-0.17
			c0.27-0.21,0.99-1.33,2.12-1.93c1.09-0.58,2.06-0.58,0.54,3.62c-1.63,4.51-6.43,17.12-6.43,17.12h3.87c0,0,2.44-6.71,4.54-12
			c2.1-5.29,5.57-7.85,7.63-8.6c2.82-0.94,2.58,2.58,1.3,5.97c-1.22,3.27-5.57,14.65-5.57,14.65h3.9l4.56-12.02
			c2.1-5.29,5.62-7.85,7.69-8.6c1.91-0.64,3.19,1,1.19,6.22c-0.39,1.11-0.94,2.53-2.23,5.93c-1.29,3.4-1.49,4.75-1.54,5.83
			c-0.09,1.7,0.85,2.68,2.56,2.88c2.67,0.31,6.48-2.16,7.18-4.47c0.1-0.34,0.14-0.49-0.04-0.86
			C143.06,45.95,142.96,45.85,142.81,46.21z M37.23,28.69c-2.68,1.09-6.27,3.41-9.71,10.35c-1.09,2.25-1.88,5.02-1.44,7.57
			c0.63,3.63,3.77,5.54,7.23,4.29c1.21-0.44,3.23-1.59,4.22-2.41c1.49-1.23,2.17-1.93,3.31-3.49c-0.08,0.27-0.58,2.52-0.63,3.6
			c-0.09,1.7,0.85,2.68,2.55,2.88c2.67,0.31,6.5-2.35,7.19-4.65c0.1-0.34,0.15-0.49-0.04-0.87c-0.08-0.17-0.18-0.26-0.34,0.1
			c-0.85,2.07-3.01,2.93-3.76,2.85c-0.97-0.1-1.7-0.87-1.35-2.31c0.62-2.55,1.13-4.03,1.88-6.03c1.06-2.81,4.46-11.82,4.46-11.82
			l-3.86,0c0,0-0.95,2.49-1.07,2.84c-0.09-0.6-0.26-1.25-0.66-1.8c-0.58-0.78-1.39-1.28-2.78-1.6
			C41.04,27.88,38.72,28.08,37.23,28.69z M44.63,32.07c0.32,1.29-0.04,2.88-0.04,2.88s-2,5.31-2.33,6.17
			c-1.15,2.27-3.36,4.67-4.82,5.7c-1.46,1.03-3.01,1.64-4.05,1.72c-1.86,0.15-2.87-1.06-3.23-2.78c-0.36-1.72-0.23-3.22,1.28-6.46
			c1.51-3.25,4.12-6.38,6.04-7.92c1.68-1.41,3.29-1.79,4.4-1.69C43.19,29.81,44.3,30.77,44.63,32.07z M190.14,28.57
			c-1.11-0.57-2.83-0.97-4.95,0.24c-1.76,0.97-4.07,3.22-5.39,5.26c0.4-1.1,0.53-2.82-0.02-4.32c-0.55-1.5-2.68-2.2-4.39-1.26
			c-1.71,0.94-2.6,2.35-3.41,3.55c-0.17,0.25-0.2,0.38,0,0.49c0.19,0.11,0.54-0.1,0.69-0.24c0.46-0.41,1.17-1.29,2.11-1.86
			c1.19-0.72,2.16-0.16,2.05,1.22c-0.08,1.01-0.3,2.03-0.65,2.98c-1.58,4.39-6.18,16.55-6.18,16.55h3.86c0,0,4.67-12.45,5.36-13.61
			c4.28-7.75,7.62-8.46,9.07-8.4c1.45,0.06,1.13,1.4,0.68,2.06c-0.54,0.86-1.39,1.97-0.78,2.45c0.62,0.49,2.63,0.66,3.42-1.26
			C192.41,30.5,191.25,29.14,190.14,28.57z M165.13,40.57c1.07-2.81,4.47-11.82,4.47-11.82l-3.86,0c0,0-0.95,2.49-1.07,2.84
			c-0.09-0.6-0.26-1.25-0.66-1.8c-0.58-0.78-1.39-1.28-2.78-1.6c-1.39-0.31-3.71-0.11-5.2,0.49c-2.68,1.09-6.27,3.41-9.71,10.35
			c-1.09,2.25-1.88,5.02-1.44,7.57c0.63,3.63,3.77,5.54,7.23,4.29c1.22-0.44,3.23-1.59,4.22-2.41c1.49-1.23,2.17-1.93,3.31-3.49
			c-0.08,0.27-0.58,2.52-0.63,3.6c-0.09,1.7,0.85,2.68,2.55,2.88c2.67,0.31,6.49-2.35,7.19-4.65c0.1-0.34,0.14-0.49-0.04-0.87
			c-0.08-0.17-0.19-0.26-0.34,0.1c-0.85,2.07-3.01,2.93-3.76,2.85c-0.97-0.1-1.7-0.87-1.35-2.31
			C163.86,44.05,164.37,42.57,165.13,40.57z M161.05,41.11c-1.15,2.27-3.36,4.67-4.82,5.7c-1.46,1.03-3.01,1.64-4.05,1.72
			c-1.86,0.15-2.88-1.06-3.23-2.78c-0.36-1.72-0.23-3.22,1.27-6.46c1.51-3.25,4.13-6.38,6.04-7.92c1.68-1.41,3.29-1.79,4.4-1.69
			c1.31,0.12,2.43,1.09,2.75,2.38c0.32,1.29-0.03,2.88-0.03,2.88S161.38,40.25,161.05,41.11z M103.72,28.2
			c-4.85-0.97-11.13,2.89-13.95,9.24c-2.82,6.35-1.12,12.77,3.73,13.74c4.85,0.98,10.93-2.01,14.15-9.22
			C110.46,35.62,108.56,29.17,103.72,28.2z M103.8,41.17c-2.13,5.49-6.36,9.1-9.04,8.48c-2.68-0.62-3.46-5.56-1.33-11.05
			c2.13-5.49,6.36-9.43,9.04-8.81C105.14,30.4,105.92,35.68,103.8,41.17z M72.9,32.42c0.79-1.92-0.37-3.28-1.48-3.85
			c-1.11-0.57-2.83-0.97-4.95,0.24c-1.76,0.97-4.07,3.22-5.39,5.26c0.4-1.1,0.53-2.82-0.03-4.32c-0.55-1.5-2.68-2.2-4.39-1.26
			c-1.71,0.94-2.6,2.35-3.41,3.55c-0.17,0.25-0.19,0.38,0,0.49c0.19,0.11,0.54-0.1,0.69-0.24c0.46-0.41,1.18-1.29,2.11-1.86
			c1.19-0.72,2.16-0.16,2.05,1.22c-0.08,1.01-0.3,2.03-0.65,2.98c-1.58,4.39-6.18,16.55-6.18,16.55h3.86c0,0,4.67-12.45,5.35-13.61
			c4.28-7.75,7.62-8.46,9.07-8.4c1.45,0.06,1.13,1.4,0.68,2.06c-0.54,0.86-1.39,1.97-0.78,2.45C70.09,34.17,72.11,34.35,72.9,32.42z
			 M85.63,34.18c0.62,0.49,2.64,0.66,3.42-1.26c0.79-1.92-0.12-3.44-1.89-4.25c-1.81-0.93-4.01-0.59-6.01,0.09
			c-5.76,1.94-10.93,8.56-10.96,15.43c-0.03,5.35,4.6,8.41,9.88,6.75c4.83-1.51,6.23-6.32,6.07-6.53c-0.08-0.11-0.26-0.2-0.49-0.08
			c-0.15,0.07-0.5,1.33-2.39,3.14c-2.1,2.01-4.76,2.06-6.61,1.07c-2.89-1.53-4.89-9.26,3.33-17.15c1.46-1.4,3.54-2.29,5.12-2.05
			c2.02,0.31,1.79,1.63,1.33,2.38C85.88,32.59,85.01,33.69,85.63,34.18z"/>
	</g>
</g>
<g>
</g>
<g>
</g>
<g>
</g>
<g>
</g>
<g>
</g>
<g>
</g>
<g>
</g>
<g>
</g>
<g>
</g>
<g>
</g>
<g>
</g>
<g>
</g>
<g>
</g>
<g>
</g>
<g>
</g>
</svg>
