<?xml version="1.0" encoding="utf-8"?>
<!-- Generator: Adobe Illustrator 23.0.0, SVG Export Plug-In . SVG Version: 6.00 Build 0)  -->
<svg version="1.1" id="Capa_1" xmlns="http://www.w3.org/2000/svg" xmlns:xlink="http://www.w3.org/1999/xlink" x="0px" y="0px"
	 viewBox="0 0 139.25 125.85" enable-background="new 0 0 139.25 125.85" xml:space="preserve">
<g>
	<g>
		<g>
			<rect fill="#797979" width="139.25" height="125.85"/>
		</g>
	</g>
	<g>
		<g>
			<g>
				<g>
					<g>
						<path fill="#FFFFFF" d="M48.35,54.89H31.27c-2.65,0-4.82-0.74-6.51-2.21c-1.68-1.47-2.53-3.59-2.53-6.37V28.61h3.44V46.9
							c0,1.2,0.57,2.39,1.72,3.56c0.73,0.72,2,1.08,3.85,1.08h17.11V54.89z"/>
						<path fill="#FFFFFF" d="M89.45,54.89h-3.43V39.85c0-2.17-0.8-4.04-2.38-5.6c-1.59-1.57-3.45-2.35-5.56-2.35
							c-2.15,0-4.03,0.78-5.61,2.35c-1.59,1.57-2.39,3.43-2.39,5.6v15.04h-3.43V40.2c0-3.34,1.08-6.12,3.25-8.33
							c2.17-2.21,4.9-3.32,8.18-3.32c3.25,0,5.96,1.11,8.13,3.32c2.16,2.21,3.24,5,3.24,8.33V54.89z"/>
						<path fill="#FFFFFF" d="M117.47,41.97v0.18v12.74h-3.43v-4.02c-2.79,3.19-6.21,4.73-10.26,4.61
							c-3.54-0.12-6.55-1.49-9.04-4.11C92.24,48.74,91,45.63,91,42.02c0-3.76,1.34-7,4.02-9.69c2.68-2.7,5.89-3.97,9.62-3.82
							c3.61,0.12,6.68,1.5,9.22,4.13C116.39,35.27,117.6,38.38,117.47,41.97z M114.04,41.72c-0.06-2.72-1.03-5.04-2.91-6.97
							c-1.87-1.93-4.11-2.9-6.74-2.9c-2.75,0-5.09,0.97-7.02,2.9c-1.93,1.93-2.92,4.27-2.94,7.02c-0.07,2.72,0.84,5.09,2.69,7.13
							c1.86,2.04,4.1,3.11,6.73,3.24c2.84,0.12,5.26-0.87,7.26-2.96C113.13,47.07,114.1,44.59,114.04,41.72z"/>
					</g>
				</g>
				<path fill="#C0C0C0" d="M50.01,45.47c-9.46,0-17.13-8.9-17.13-19.89c0-1.4,0.13-2.77,0.37-4.09c-1.01,2.52-1.57,5.32-1.57,8.28
					c0,10.99,7.67,19.89,17.13,19.89c8.26,0,15.15-6.78,16.77-15.79C62.87,40.71,56.92,45.47,50.01,45.47z"/>
			</g>
			<g>
				<path fill="#FFFFFF" d="M38.71,65.98c0,1.36-0.5,2.53-1.48,3.51c-0.97,0.98-2.14,1.46-3.5,1.46h-3.38V61h2.89
					c1.58,0,2.89,0.48,3.92,1.43C38.19,63.37,38.71,64.56,38.71,65.98z M37.7,65.84c-0.03-1.11-0.47-2.03-1.31-2.79
					c-0.84-0.75-1.84-1.12-2.99-1.12h-2.08v8.09h2.37c1.13,0,2.09-0.41,2.88-1.24C37.35,67.95,37.73,66.97,37.7,65.84z"/>
				<path fill="#FFFFFF" d="M45.04,70.95h-2.86c-0.75,0-1.37-0.21-1.85-0.63c-0.49-0.42-0.73-1.03-0.73-1.81v-5.07
					c0-0.78,0.24-1.39,0.73-1.81c0.48-0.42,1.1-0.64,1.85-0.64h2.86v0.93h-2.87c-0.52,0-0.88,0.1-1.09,0.31
					c-0.33,0.35-0.5,0.69-0.5,1.04v2.15h3.34v0.96h-3.34v2.29c0,0.35,0.16,0.69,0.5,1.04c0.21,0.2,0.57,0.31,1.09,0.31h2.87V70.95z"
					/>
			</g>
			<g>
				<path fill="#FFFFFF" d="M75.56,80.03h-2.73V67.9c0-1.53-0.44-2.83-1.31-3.92c-0.88-1.08-2.04-1.63-3.47-1.63
					c-1.46,0-2.71,0.47-3.77,1.42c-1.05,0.95-1.57,2.13-1.57,3.54v12.72h-2.78V67.31c0-1.41-0.52-2.59-1.57-3.54
					c-1.05-0.95-2.31-1.42-3.77-1.42c-1.43,0-2.57,0.54-3.43,1.61c-0.85,1.07-1.28,2.38-1.28,3.93v12.13h-2.73V68.21
					c0-2.48,0.7-4.46,2.12-5.97c1.31-1.41,3.05-2.21,5.2-2.39c2.86-0.23,5.15,0.99,6.85,3.68c1.72-2.68,4.01-3.91,6.87-3.68
					c2.15,0.18,3.89,0.98,5.23,2.39c1.43,1.5,2.14,3.49,2.14,5.97V80.03z"/>
				<path fill="#FFFFFF" d="M81.04,57.92h-2.63v-4.61h2.63V57.92z M81.04,80.03h-2.63V60.27h2.63V80.03z"/>
				<path fill="#FFFFFF" d="M104.37,71.05H86.63c0.21,1.99,1.05,3.63,2.53,4.92c1.48,1.29,3.22,1.93,5.23,1.9
					c3.12-0.04,5.35-1.49,6.7-4.33h2.81c-0.74,2.13-1.99,3.81-3.75,5.06c-1.75,1.25-3.71,1.88-5.86,1.91
					c-2.71,0.04-5.1-0.94-7.17-2.96c-2.08-2.03-3.15-4.43-3.19-7.23c-0.07-2.96,0.98-5.51,3.14-7.64c2.16-2.14,4.71-3.13,7.64-2.97
					c2.63,0.16,4.92,1.25,6.86,3.26c1.87,1.99,2.81,4.21,2.81,6.65V71.05z M101.78,68.63c-0.38-1.85-1.24-3.35-2.6-4.49
					c-1.36-1.14-2.99-1.73-4.89-1.75c-1.9-0.02-3.55,0.54-4.97,1.7c-1.42,1.16-2.32,2.67-2.68,4.54H101.78z"/>
				<path fill="#FFFFFF" d="M109.36,80.03h-2.63V56.16h2.63V80.03z"/>
			</g>
		</g>
		<g>
			<g>
				<path fill="#FFFFFF" d="M21.11,95.4h-0.86v-1.09l0.86-0.1l0.21-1.8h1.46v1.8h1.61v1.19h-1.61v3.1c0,0.6,0.26,0.92,0.94,0.92
					c0.15,0,0.35-0.01,0.59-0.06l0.14,1.29c-0.36,0.08-0.96,0.12-1.31,0.12c-1.46,0-2.03-0.6-2.03-1.96V95.4z"/>
				<path fill="#FFFFFF" d="M29.72,94.21h1.67v6.42h-1.67V99.8h-0.03c-0.55,0.59-1.26,0.96-2.09,0.96c-1.28,0-1.93-0.83-1.93-2.14
					v-4.41h1.67v4.02c0,0.73,0.35,1.16,1.03,1.16c0.54,0,1.03-0.3,1.35-0.5V94.21z"/>
				<path fill="#FFFFFF" d="M36.03,100.32c-0.35-0.21-0.51-0.54-0.5-0.89c0-0.48,0.32-1,0.98-1.35v-0.03
					c-0.64-0.32-1.04-0.99-1.04-1.8c0-1.48,1.07-2.18,2.71-2.18c0.33,0,0.67,0.05,0.92,0.13h2.38v1h-1.03
					c0.24,0.26,0.37,0.63,0.37,1.05c0,1.49-1.12,2.16-2.65,2.16c-0.4,0-0.71-0.09-0.82-0.13c-0.08,0.09-0.13,0.19-0.18,0.28
					c-0.12,0.29-0.1,0.63,0.32,0.66l2.18,0.15c1.31,0.09,1.97,0.59,1.97,1.61c0,1.63-1.23,2.34-3.85,2.34
					c-1.9,0-2.76-0.53-2.76-1.67c0-0.55,0.3-0.96,1-1.31V100.32z M38.06,102.24c0.92,0,1.81-0.28,1.81-0.94
					c0-0.3-0.22-0.55-0.78-0.59l-2.25-0.13c-0.24,0.23-0.44,0.4-0.44,0.8C36.4,102.04,37.17,102.24,38.06,102.24z M39.29,96.26
					c0-0.72-0.45-1.09-1.12-1.09c-0.72,0-1.14,0.37-1.14,1.09c0,0.72,0.45,1.07,1.14,1.07C38.84,97.33,39.29,96.98,39.29,96.26z"/>
				<path fill="#FFFFFF" d="M46.75,94.21h1.67v6.42h-1.67V99.8h-0.03c-0.55,0.59-1.26,0.96-2.09,0.96c-1.29,0-1.93-0.83-1.93-2.14
					v-4.41h1.67v4.02c0,0.73,0.35,1.16,1.03,1.16c0.54,0,1.03-0.3,1.35-0.5V94.21z"/>
				<path fill="#FFFFFF" d="M51.44,94.21v6.42h-1.67v-6.42H51.44z M51.09,93.44h-0.9l0.71-1.54h1.37L51.09,93.44z"/>
				<path fill="#FFFFFF" d="M53.25,95.71l-0.24-1.34c0.91-0.18,1.88-0.29,2.65-0.29c1.63,0,2.53,0.42,2.53,2.16v4.39h-1.67v-0.64
					c-0.01,0-0.01,0-0.03,0c-0.55,0.57-1.09,0.77-1.9,0.77c-1.29,0-1.99-0.86-1.99-1.98c0-1.57,1.44-2,2.7-2h1.22v-0.45
					c0-0.66-0.41-0.86-1.25-0.86C54.76,95.47,54.18,95.52,53.25,95.71z M56.52,97.78H55.4c-0.76,0-1.13,0.27-1.13,0.86
					c0,0.56,0.45,0.83,1,0.83c0.53,0,1.01-0.22,1.25-0.4V97.78z"/>
				<path fill="#FFFFFF" d="M63.78,100.63h-1.67v-6.42h1.67v1.03h0.03c0.41-0.58,1.2-1.16,2.22-1.16v1.58
					c-0.86,0-1.73,0.23-2.25,0.49V100.63z"/>
				<path fill="#FFFFFF" d="M66.46,97.42c0-2.02,0.86-3.34,3.12-3.34c2.26,0,3.11,1.32,3.11,3.34c0,2.03-0.85,3.34-3.11,3.34
					C67.32,100.76,66.46,99.45,66.46,97.42z M68.23,97.42c0,1.2,0.3,1.97,1.35,1.97s1.35-0.77,1.35-1.97c0-1.18-0.29-1.95-1.35-1.95
					S68.23,96.24,68.23,97.42z"/>
				<path fill="#FFFFFF" d="M75.58,100.63h-1.67v-6.42h1.67v0.83h0.03c0.51-0.57,1.17-0.96,2-0.96c0.87,0,1.45,0.38,1.72,1.07
					c0.66-0.73,1.4-1.07,2.22-1.07c1.28,0,1.93,0.83,1.93,2.16v4.39h-1.67v-4.01c0-0.75-0.33-1.16-1.03-1.16
					c-0.49,0-0.94,0.28-1.26,0.5c0,0.22,0.01,0.46,0.01,0.73v3.93h-1.67v-4.08c-0.03-0.68-0.36-1.08-1.03-1.08
					c-0.5,0-0.94,0.28-1.26,0.49V100.63z"/>
				<path fill="#FFFFFF" d="M85.3,95.71l-0.24-1.34c0.91-0.18,1.88-0.29,2.65-0.29c1.63,0,2.53,0.42,2.53,2.16v4.39h-1.67v-0.64
					c-0.01,0-0.01,0-0.03,0c-0.55,0.57-1.09,0.77-1.9,0.77c-1.28,0-1.99-0.86-1.99-1.98c0-1.57,1.44-2,2.7-2h1.22v-0.45
					c0-0.66-0.41-0.86-1.25-0.86C86.8,95.47,86.22,95.52,85.3,95.71z M88.56,97.78h-1.12c-0.76,0-1.13,0.27-1.13,0.86
					c0,0.56,0.45,0.83,1,0.83c0.53,0,1.02-0.22,1.25-0.4V97.78z M88,93.44h-0.9l0.71-1.54h1.38L88,93.44z"/>
				<path fill="#FFFFFF" d="M93.26,100.63h-1.67v-6.42h1.67v0.83h0.03c0.55-0.59,1.26-0.96,2.09-0.96c1.29,0,1.93,0.83,1.93,2.16
					v4.39h-1.67v-4.01c0-0.75-0.28-1.16-1.03-1.16c-0.53,0-1.03,0.28-1.35,0.49V100.63z"/>
				<path fill="#FFFFFF" d="M99.17,95.4h-0.86v-1.09l0.86-0.1l0.21-1.8h1.46v1.8h1.61v1.19h-1.61v3.1c0,0.6,0.26,0.92,0.94,0.92
					c0.15,0,0.35-0.01,0.59-0.06l0.14,1.29c-0.36,0.08-0.96,0.12-1.31,0.12c-1.46,0-2.03-0.6-2.03-1.96V95.4z"/>
				<path fill="#FFFFFF" d="M105.4,91.89v1.77h-1.67v-1.77H105.4z M105.4,94.21v6.42h-1.67v-6.42H105.4z"/>
				<path fill="#FFFFFF" d="M109.94,94.08c0.82,0,1.48,0.12,2.25,0.31l-0.29,1.34c-1.07-0.26-1.48-0.26-1.95-0.26
					c-1,0-1.54,0.67-1.54,1.95s0.54,1.97,1.54,1.97c0.48,0,0.89,0,1.95-0.26l0.29,1.32c-0.77,0.19-1.43,0.31-2.25,0.31
					c-2.49,0-3.31-1.31-3.31-3.34C106.62,95.4,107.45,94.08,109.94,94.08z"/>
				<path fill="#FFFFFF" d="M113.45,95.71l-0.24-1.34c0.91-0.18,1.88-0.29,2.65-0.29c1.63,0,2.53,0.42,2.53,2.16v4.39h-1.67v-0.64
					c-0.01,0-0.01,0-0.03,0c-0.55,0.57-1.09,0.77-1.9,0.77c-1.28,0-1.99-0.86-1.99-1.98c0-1.57,1.44-2,2.7-2h1.22v-0.45
					c0-0.66-0.41-0.86-1.25-0.86C114.95,95.47,114.37,95.52,113.45,95.71z M116.71,97.78h-1.12c-0.76,0-1.13,0.27-1.13,0.86
					c0,0.56,0.45,0.83,1,0.83c0.53,0,1.02-0.22,1.25-0.4V97.78z"/>
			</g>
		</g>
	</g>
</g>
<g>
</g>
<g>
</g>
<g>
</g>
<g>
</g>
<g>
</g>
<g>
</g>
<g>
</g>
<g>
</g>
<g>
</g>
<g>
</g>
<g>
</g>
<g>
</g>
<g>
</g>
<g>
</g>
<g>
</g>
</svg>
