<?xml version="1.0" encoding="utf-8"?>
<!-- Generator: Adobe Illustrator 23.0.0, SVG Export Plug-In . SVG Version: 6.00 Build 0)  -->
<svg version="1.1" id="Capa_1" xmlns="http://www.w3.org/2000/svg" xmlns:xlink="http://www.w3.org/1999/xlink" x="0px" y="0px"
	 viewBox="0 0 256.79 71.16" enable-background="new 0 0 256.79 71.16" xml:space="preserve">
<g>
	<g>
		<path fill="#4D4C41" d="M42.13,59.91c1.11,0,2.09,0.14,3.37,0.52l-0.43,1.58c-1.47-0.34-2.06-0.41-2.79-0.41
			c-1.73,0-2.32,1.2-2.32,3.05c0,1.99,0.59,3.2,2.32,3.2c0.73,0,1.32-0.07,2.79-0.41l0.43,1.58c-1.28,0.37-2.25,0.51-3.37,0.51
			c-3.28,0-4.16-2.2-4.16-4.88C37.97,62.01,38.85,59.91,42.13,59.91z"/>
		<path fill="#4D4C41" d="M47.01,64.65c0-2.64,0.88-4.74,4.16-4.74c3.28,0,4.15,2.1,4.15,4.74c0,2.67-0.87,4.88-4.15,4.88
			C47.89,69.52,47.01,67.31,47.01,64.65z M49,64.65c0,1.85,0.33,3.3,2.17,3.3c1.84,0,2.16-1.44,2.16-3.3c0-1.85-0.32-3.16-2.16-3.16
			C49.33,61.49,49,62.79,49,64.65z"/>
		<path fill="#4D4C41" d="M62.38,66.24h0.03l2.2-6.2h2.5v9.34h-1.88v-5.94H65.2l-2.23,5.94H61.6l-2.17-5.94H59.4v5.94h-1.84v-9.34
			h2.51L62.38,66.24z"/>
		<path fill="#4D4C41" d="M69.35,64.65c0-2.64,0.88-4.74,4.16-4.74c3.28,0,4.15,2.1,4.15,4.74c0,2.67-0.87,4.88-4.15,4.88
			C70.23,69.52,69.35,67.31,69.35,64.65z M71.34,64.65c0,1.85,0.33,3.3,2.17,3.3c1.84,0,2.16-1.44,2.16-3.3
			c0-1.85-0.32-3.16-2.16-3.16C71.67,61.49,71.34,62.79,71.34,64.65z"/>
		<path fill="#4D4C41" d="M87.66,59.91c3.28,0,4.15,2.1,4.15,4.74c0,2.47-0.98,4.04-2.9,4.2c0.1,0.25,0.82,0.34,1.32,0.36
			c0.43,0,0.91-0.01,1.35-0.07v1.69c-0.52,0.07-1.02,0.08-1.48,0.04c-1.28-0.08-2.31-0.54-2.82-1.35c-2.9-0.17-3.78-2.32-3.78-4.88
			C83.5,62.01,84.38,59.91,87.66,59.91z M85.49,64.65c0,1.85,0.33,3.3,2.17,3.3c1.84,0,2.16-1.44,2.16-3.3
			c0-1.85-0.32-3.16-2.16-3.16C85.82,61.49,85.49,62.79,85.49,64.65z"/>
		<path fill="#4D4C41" d="M99.51,66.09v-6.04h1.88v6.04c0,2.45-1.46,3.43-3.67,3.43c-2.21,0-3.68-0.99-3.68-3.43v-6.04h1.9v6.04
			c0,1,0.3,1.85,1.8,1.85C99.19,67.94,99.51,67.09,99.51,66.09z"/>
		<path fill="#4D4C41" d="M103.94,69.39v-9.34h1.9v9.34H103.94z"/>
		<path fill="#4D4C41" d="M114.68,61.73h-4.42v1.99h3.81v1.68h-3.81v2.31h4.49v1.68h-6.39v-9.34h6.32V61.73z"/>
		<path fill="#4D4C41" d="M122.36,69.39l-1.96-3.32h-1.35v3.32h-1.9v-9.34h3.98c1.96,0,3.09,1.18,3.09,3.01
			c0,1.26-0.59,2.32-1.85,2.69l2.18,3.64H122.36z M119.05,64.37h1.85c0.78,0,1.39-0.34,1.39-1.32c0-0.95-0.56-1.32-1.36-1.32h-1.88
			V64.37z"/>
		<path fill="#4D4C41" d="M133.02,61.73h-4.42v1.99h3.81v1.68h-3.81v2.31h4.49v1.68h-6.39v-9.34h6.32V61.73z"/>
		<path fill="#4D4C41" d="M135.36,69.01l0.33-1.58c1.46,0.34,2.49,0.41,3.21,0.41c0.96,0,1.54-0.44,1.54-1.06
			c0-0.87-1.07-1.04-2.16-1.35c-1.62-0.45-2.79-1.35-2.79-2.93c0-1.88,1.55-2.61,3.41-2.61c1.06,0,2.02,0.14,3.3,0.52l-0.43,1.58
			c-1.47-0.34-2.16-0.41-2.87-0.41c-0.96,0-1.42,0.41-1.42,0.98c0,0.77,1,1.02,2.13,1.29c1.62,0.37,2.82,1.14,2.82,2.78
			c0,1.99-1.54,2.89-3.53,2.89C137.83,69.52,136.63,69.39,135.36,69.01z"/>
		<path fill="#4D4C41" d="M152.23,67.09l2.09-7.05h1.99l-2.98,9.41h-2.31L148,60.04h2.1l2.12,7.05H152.23z"/>
		<path fill="#4D4C41" d="M158.24,69.39v-9.34h1.9v9.34H158.24z"/>
		<path fill="#4D4C41" d="M166.3,67.09l2.09-7.05h1.99l-2.98,9.41h-2.31l-3.02-9.41h2.1l2.12,7.05H166.3z"/>
		<path fill="#4D4C41" d="M172.31,69.39v-9.34h1.9v9.34H172.31z"/>
		<path fill="#4D4C41" d="M181.94,69.39l-1.96-3.32h-1.35v3.32h-1.9v-9.34h3.98c1.96,0,3.09,1.18,3.09,3.01
			c0,1.26-0.59,2.32-1.85,2.69l2.18,3.64H181.94z M178.63,64.37h1.85c0.78,0,1.39-0.34,1.39-1.32c0-0.95-0.56-1.32-1.36-1.32h-1.88
			V64.37z"/>
	</g>
	<g>
		<g>
			
				<linearGradient id="SVGID_1_" gradientUnits="userSpaceOnUse" x1="687.3664" y1="-1699.2517" x2="687.3664" y2="-1715.4644" gradientTransform="matrix(0.7071 -0.7071 0.6994 0.6994 948.6763 1690.9133)">
				<stop  offset="0" style="stop-color:#545347"/>
				<stop  offset="0.1081" style="stop-color:#585645"/>
				<stop  offset="0.2093" style="stop-color:#635E41"/>
				<stop  offset="0.3078" style="stop-color:#766B39"/>
				<stop  offset="0.4047" style="stop-color:#917E2E"/>
				<stop  offset="0.5004" style="stop-color:#B39720"/>
				<stop  offset="0.5939" style="stop-color:#DCB50E"/>
				<stop  offset="0.6608" style="stop-color:#FFCD00"/>
			</linearGradient>
			<polygon fill="url(#SVGID_1_)" points="254.69,19.87 242.41,7.59 237.32,3.14 232.65,7.8 249.7,24.85 			"/>
			
				<rect x="219.12" y="10.22" transform="matrix(0.7071 -0.7071 0.7071 0.7071 58.0379 167.5933)" fill="#4D4C41" width="24.39" height="7.05"/>
			<path fill="#4D4C41" d="M26.71,31.46c-0.13-3.72-1.8-6.16-5.77-6.16c-2.95,0-5.39,1.79-7.12,3.08v23.8H6.76V25.94H1.68V20.1
				h12.13v4.36h0.13c2.12-2.37,4.88-4.43,8.47-4.81c1.03-0.13,1.99-0.13,3.02-0.06c3.72,0.32,6.22,2.25,7.38,5.32
				c3.21-3.46,7-5.45,11.29-5.45c6.42,0,9.62,4.04,9.62,10.65v22.07h-7.06V31.71c0-3.92-1.73-6.42-5.77-6.42
				c-2.89,0-5.45,1.86-7.25,3.21c0.06,0.9,0.13,1.86,0.13,2.88v20.79h-7.06V31.46z"/>
			<path fill="#4D4C41" d="M90.47,20.1h12.13v5.13h0.13c2.31-2.89,6.41-5.77,11.55-5.77v6.67c-4.56,0-9.11,1.6-11.68,3.08v22.97
				h-7.06V25.94h-5.08V20.1z"/>
			<path fill="#4D4C41" d="M137.28,29.7v-3.89c-2.25-0.51-3.92-0.51-5.2-0.51c-5.83,0-8.66,4.11-8.66,10.84
				c0,6.74,2.82,10.84,8.66,10.84c2.31,0,4.56,0,9.82-1.28l1.22,5.65c-3.85,0.96-6.99,1.47-11.04,1.47
				c-12.06,0-16.1-6.67-16.1-16.68c0-10.01,4.04-16.68,16.1-16.68c4.04,0,7.18,0.51,11.04,1.48v8.77H137.28z"/>
			<path fill="#4D4C41" d="M205.5,31.71c0-3.92-1.54-6.42-5.77-6.42c-3.14,0-6.09,1.86-7.82,3.08v23.8h-7.06V25.94h-5.07V20.1h12.13
				v4.36h0.13c2.89-3.02,6.61-5,10.9-5c6.42,0,9.62,4.04,9.62,10.65v22.07h-7.06V31.71z"/>
			<g>
				<path fill="#4D4C41" d="M62.07,26.52l-1.03-5.65c4.43-0.9,8.82-1.41,12.54-1.41c7.95,0,12.25,2.18,12.25,10.65v22.07h-7.06
					v-3.21c-0.06,0-0.06,0-0.13,0c-2.89,2.76-5.71,3.85-9.82,3.85c-6.42,0-10.07-4.11-10.07-9.69c0-7.51,6.54-9.88,13.47-9.88h6.54
					v-2.7c0-3.79-2.05-5.26-6.8-5.26C69.48,25.3,66.75,25.55,62.07,26.52z M78.78,37.49h-6.16c-4.88,0-6.8,1.8-6.8,5.07
					c0,3.08,2.38,4.81,5.84,4.81c3.15,0,5.84-1.35,7.12-2.37V37.49z"/>
			</g>
			<g>
				<path fill="#4D4C41" d="M151.22,26.52l-1.02-5.65c4.42-0.9,8.82-1.41,12.54-1.41c7.96,0,12.26,2.18,12.26,10.65v22.07h-7.06
					v-3.21c-0.07,0-0.07,0-0.13,0c-2.89,2.76-5.71,3.85-9.82,3.85c-6.42,0-10.07-4.11-10.07-9.69c0-7.51,6.54-9.88,13.47-9.88h6.54
					v-2.7c0-3.79-2.05-5.26-6.8-5.26C158.63,25.3,155.91,25.55,151.22,26.52z M167.93,37.49h-6.16c-4.88,0-6.8,1.8-6.8,5.07
					c0,3.08,2.37,4.81,5.84,4.81c3.15,0,5.84-1.35,7.12-2.37V37.49z"/>
			</g>
		</g>
	</g>
</g>
<g>
</g>
<g>
</g>
<g>
</g>
<g>
</g>
<g>
</g>
<g>
</g>
<g>
</g>
<g>
</g>
<g>
</g>
<g>
</g>
<g>
</g>
<g>
</g>
<g>
</g>
<g>
</g>
<g>
</g>
</svg>
