<?xml version="1.0" encoding="utf-8"?>
<!-- Generator: Adobe Illustrator 23.0.0, SVG Export Plug-In . SVG Version: 6.00 Build 0)  -->
<svg version="1.1" id="Capa_1" xmlns="http://www.w3.org/2000/svg" xmlns:xlink="http://www.w3.org/1999/xlink" x="0px" y="0px"
	 viewBox="0 0 255.05 81.6" enable-background="new 0 0 255.05 81.6" xml:space="preserve">
<g>
	<g>
		<g>
			<path fill="#6C6C6C" d="M249.21,29.23c0,2.2-1.76,3.95-4.02,3.95c-2.25,0-4.04-1.75-4.04-3.95s1.79-3.92,4.07-3.92
				C247.45,25.3,249.21,27.03,249.21,29.23 M242.15,29.23c0,1.75,1.31,3.13,3.06,3.13c1.7,0.02,2.99-1.39,2.99-3.11
				c0-1.74-1.29-3.16-3.04-3.16C243.46,26.09,242.15,27.5,242.15,29.23 M244.57,31.25h-0.91v-3.92c0.36-0.05,0.87-0.12,1.51-0.12
				c0.74,0,1.08,0.12,1.35,0.32c0.24,0.16,0.4,0.44,0.4,0.83c0,0.48-0.36,0.8-0.81,0.94v0.05c0.38,0.12,0.58,0.43,0.69,0.95
				c0.12,0.6,0.22,0.82,0.29,0.96h-0.95c-0.12-0.14-0.19-0.47-0.31-0.96c-0.08-0.4-0.31-0.59-0.82-0.59h-0.43V31.25z M244.59,29.06
				h0.43c0.51,0,0.91-0.17,0.91-0.58c0-0.36-0.26-0.6-0.83-0.6c-0.24,0-0.41,0.02-0.51,0.05V29.06z"/>
			<g>
				<g>
					<path fill="#6C6C6C" d="M135.82,46.28h-3.08l5.54-31.37h3.08L135.82,46.28z"/>
					<path fill="#6C6C6C" d="M155.98,46.77c-1.72,0-2.99-1.23-2.99-2.9v-0.48c-2.9,2.33-4.97,3.26-7.17,3.26
						c-2.55,0-4.27-1.72-4.27-4.22c0-4.22,4.27-7.22,13.02-9.06c0.31-1.76,0.44-2.68,0.44-3.3c0-1.45-0.62-2.07-2.11-2.07
						c-0.88,0-1.76,0.22-2.86,0.66c-1.41,0.57-2.24,1.06-4.27,2.38l-1.36-2.07c2.77-2.24,6.51-3.78,8.98-3.78
						c2.95,0,4.75,1.58,4.75,4.22c0,0.79-0.13,1.67-0.31,2.68l-0.31,1.94l-1.23,6.91c-0.13,0.66-0.18,1.01-0.22,1.1
						c-0.04,0.4-0.09,0.84-0.09,1.06c0,0.84,0.26,1.1,1.01,1.1c0.35,0,0.62-0.04,1.36-0.26l0.04,2.29
						C157.43,46.59,156.77,46.77,155.98,46.77z M144.71,42.23c0,0.97,0.62,1.58,1.67,1.58c1.85,0,4.49-1.45,7-3.78l0.7-4.05
						C147.79,37.61,144.71,39.68,144.71,42.23z"/>
					<path fill="#6C6C6C" d="M176,28.15c-1.76-0.4-2.86-0.53-4.05-0.53c-3.08,0-5.37,1.41-5.37,3.3c0,0.92,0.57,1.36,2.86,2.6
						l1.32,0.7c3.39,1.8,4.66,3.17,4.66,5.46c0,4.18-4.22,7.13-10.25,7.13c-2.16,0-3.17-0.18-5.19-0.88l0.88-2.24
						c0.53,0.13,0.97,0.22,1.23,0.31c0.84,0.13,1.98,0.26,2.9,0.26c4.14,0,7.08-1.76,7.08-4.22c0-0.62-0.26-1.19-0.79-1.67
						c-0.57-0.53-1.06-0.79-2.95-1.8c-2.33-1.23-2.95-1.63-3.78-2.33c-0.84-0.7-1.32-1.8-1.32-2.95c0-3.56,3.61-6.16,8.62-6.16
						c0.62,0,1.36,0.04,2.07,0.13c1.1,0.13,1.67,0.22,3.08,0.57L176,28.15z"/>
					<path fill="#6C6C6C" d="M198.39,31.72l-2.55,14.56h-2.99l2.33-13.24c0.35-1.98,0.35-2.16,0.35-2.86c0-1.36-0.92-2.16-2.64-2.16
						c-2.42,0-4.97,1.32-8.49,4.4l-2.42,13.86h-3.04l5.54-31.37h2.99l-2.42,13.82c1.58-1.19,2.24-1.58,3.39-2.16
						c1.8-0.88,3.56-1.36,5.15-1.36c2.9,0,5.02,2.02,5.02,4.8C198.61,30.49,198.53,31.06,198.39,31.72z"/>
					<path fill="#6C6C6C" d="M220.17,35.77h-14.12c-0.31,1.36-0.4,1.94-0.4,3.04c0,3.48,1.5,5.15,4.49,5.15
						c1.36,0,3.04-0.4,4.44-1.1c1.14-0.53,1.58-0.79,3.34-1.85l1.19,2.07c-0.84,0.7-1.19,0.92-2.46,1.63
						c-2.73,1.5-4.75,2.11-6.95,2.11c-4.71,0-7.39-2.99-7.39-8.23c0-7.26,5.32-13.42,11.62-13.42c4.22,0,6.64,2.6,6.64,7.04
						C220.57,33.35,220.48,34.01,220.17,35.77z M213.62,27.76c-2.9,0-5.68,2.29-6.95,5.72l10.69-0.22c0.13-0.75,0.13-1.01,0.13-1.54
						C217.49,29.21,216.04,27.76,213.62,27.76z"/>
					<path fill="#6C6C6C" d="M237.73,28.15c-1.76-0.4-2.86-0.53-4.05-0.53c-3.08,0-5.37,1.41-5.37,3.3c0,0.92,0.57,1.36,2.86,2.6
						l1.32,0.7c3.39,1.8,4.66,3.17,4.66,5.46c0,4.18-4.22,7.13-10.25,7.13c-2.16,0-3.17-0.18-5.19-0.88l0.88-2.24
						c0.53,0.13,0.97,0.22,1.23,0.31c0.84,0.13,1.98,0.26,2.9,0.26c4.14,0,7.08-1.76,7.08-4.22c0-0.62-0.26-1.19-0.79-1.67
						c-0.57-0.53-1.06-0.79-2.95-1.8c-2.33-1.23-2.95-1.63-3.78-2.33c-0.84-0.7-1.32-1.8-1.32-2.95c0-3.56,3.61-6.16,8.62-6.16
						c0.62,0,1.36,0.04,2.07,0.13c1.1,0.13,1.67,0.22,3.08,0.57L237.73,28.15z"/>
				</g>
			</g>
		</g>
	</g>
	<g>
		<path fill="#585858" d="M118.61,46.53c19.16,20.22,47.16,32.77,82.68,24.84c6.5-1.46,4.5,0.8-3.59,2.6
			c-32.54,7.26-69.07-5.81-88.81-28.15c-8.44-9.56-12.13-19.13-13.27-24.25c-0.68-3.03-0.49-3.69-0.14-4.18
			c0.75-1.01,2.2-2.38,4.25-2.64c1.23-0.16,2.02-0.15,2.64,1.83C104.59,23.61,109.98,37.41,118.61,46.53z"/>
		<path fill-rule="evenodd" clip-rule="evenodd" fill="#585858" d="M30.07,15.92c-1.29,6.83-2.93,11.89-2.93,18.23l0.01,0.2
			c-0.16,4.23,1.81,7.32,3.91,7.32c2.1,0,2.42-1.79,2.46-4.72c0.08-5.3,0.76-6.36,2.05-13.19L30.07,15.92z"/>
		<path fill-rule="evenodd" clip-rule="evenodd" fill="#585858" d="M28.47,23.59l0.35-1.57c0.47-2.52-0.49-3.68-0.97-3.83
			c-0.9-0.28-2.04,0.19-3.88,2.72c-4.6,6.34-9.76,19.8-13.04,20.65l-3.25-7.39c7.48-3.71,8.27-8.34,14.08-14.75
			c3.16-3.48,6.54-4.81,10-4.81c3.46,0,5.56,2.7,4.46,6.53c0,0-1.36,6.26-1.62,7.29L28.47,23.59z"/>
		<path fill-rule="evenodd" clip-rule="evenodd" fill="#585858" d="M10.37,41.69c-2.46,0-4.53-3.3-4.53-6.83
			c0-5.21,4.06-19.58,4.53-23.8c0.4-3.55-0.12-5.44,1.08-5.44c1.26,0,5.91,0.52,5.91,6.02c0,4.25-4.34,18.01-4.34,23.22
			C13.02,37.96,13.12,41.69,10.37,41.69z"/>
		<path fill-rule="evenodd" clip-rule="evenodd" fill="#585858" d="M57,50.71c-17.48,0-9.03-20.72-7.81-26.81l0.35-1.62
			c0.47-2.61-0.49-3.81-0.97-3.96c-0.9-0.28-2.04,0.19-3.87,2.82c-4.59,6.56-9.76,20.49-12.89,20.55l-2.54-7.64
			c7.32-3.03,7.41-7.83,13.23-14.45c3.16-3.6,6.54-4.97,10-4.97s5.55,2.79,4.46,6.75c0,0-1.36,6.48-1.62,7.55
			c-0.69,2.89-1.85,7.48-1.85,11.07c0,2.27,0.16,3.24,0.73,5.19c0.42,1.44,1.09,2.65,2.22,3.44c1.17,0.82,3.66-0.15,6.17-2.02
			c3.29-2.46,1.52,4.12-5.03,4.12H57z"/>
		<g>
			<g>
				<path fill-rule="evenodd" clip-rule="evenodd" fill="#585858" d="M81.04,21.06c-6.69-4.83-17.69,11.97-11.82,17.27
					c5.19,4.68,12.64-12.53,12.64-12.53l3.02,1.22C81.55,35,77.88,41.74,70.84,41.65c-5.47-0.07-9.89-7.99-7.6-16.28
					c2.17-7.85,7.18-10.17,9.36-10.67c3.09-0.71,7.21,2.63,8.7,4.77C82.09,20.59,81.47,21.37,81.04,21.06z"/>
			</g>
		</g>
		<path fill-rule="evenodd" clip-rule="evenodd" fill="#585858" d="M81.81,28.73c-1.8,8.18-3.25,17.49,8.99,17.49h0.58
			c6.55,0,8.32-6.59,5.03-4.12c-2.51,1.87-5,2.84-6.17,2.02c-1.13-0.79-1.99-2-2.4-3.44c-0.56-1.94-0.73-2.92-0.73-5.19
			c0-2.36,0.86-5.13,0.31-7.61"/>
		<path fill="#585858" d="M91.08,44.42c10.08,0,16.18-29.73,33.88-29.73c6.53,0,6.69,3.7,6.53,4.01c-0.15,0.31-0.63-0.63-3.38-0.63
			c-15.27,0-26.91,27.85-34.46,27.85"/>
		<path fill-rule="evenodd" clip-rule="evenodd" fill="#585858" d="M87.57,29.36c0-5.55-3.55-6.08-4.8-6.08
			c-1.21,0-0.33,1.87-2.12,5.58"/>
	</g>
</g>
<g>
</g>
<g>
</g>
<g>
</g>
<g>
</g>
<g>
</g>
<g>
</g>
<g>
</g>
<g>
</g>
<g>
</g>
<g>
</g>
<g>
</g>
<g>
</g>
<g>
</g>
<g>
</g>
<g>
</g>
</svg>
