<?xml version="1.0" encoding="utf-8"?>
<!-- Generator: Adobe Illustrator 23.0.0, SVG Export Plug-In . SVG Version: 6.00 Build 0)  -->
<svg version="1.1" id="Capa_1" xmlns="http://www.w3.org/2000/svg" xmlns:xlink="http://www.w3.org/1999/xlink" x="0px" y="0px"
	 viewBox="0 0 121.58 121.58" enable-background="new 0 0 121.58 121.58" xml:space="preserve">
<g>
	<g>
		<rect fill="#777777" width="121.58" height="121.58"/>
	</g>
	<g>
		<polyline fill="none" stroke="#FFFFFF" stroke-width="5.2344" stroke-miterlimit="10" points="75.33,83.74 75.33,23.26 
			56.53,23.26 56.53,58.45 		"/>
		<polyline fill="none" stroke="#FFFFFF" stroke-width="5.2344" stroke-miterlimit="10" points="46.25,83.74 46.25,23.26 
			27.46,23.26 27.46,58.45 		"/>
		<polyline fill="none" stroke="#FFFFFF" stroke-width="5.2344" stroke-miterlimit="10" points="75.33,23.26 94.12,23.26 
			94.12,83.74 		"/>
	</g>
	<g>
		<path fill="#FFFFFF" d="M34.13,103.9v1.69h-6.28V93.14h6.1v1.69h-4.31v3.61h3.97v1.66h-3.97v3.81H34.13z"/>
		<path fill="#FFFFFF" d="M35.89,102.18h1.83c0.02,1.28,0.71,1.9,1.81,1.9c1.19,0,1.78-0.71,1.78-1.71c0-2.47-5.21-2.62-5.21-6.32
			c0-1.8,1.32-3.15,3.42-3.15c2.13,0,3.42,1.37,3.47,3.49h-1.83c-0.04-1.19-0.66-1.76-1.62-1.76c-1.01,0-1.6,0.57-1.6,1.46
			c0,2.44,5.23,2.44,5.23,6.3c0,1.85-1.3,3.43-3.63,3.43C37.33,105.82,35.91,104.45,35.89,102.18z"/>
		<path fill="#FFFFFF" d="M52.53,97.16c0,2.62-1.39,4.06-3.83,4.06h-1.5v4.38h-1.8V93.14h3.29C51.14,93.14,52.53,94.61,52.53,97.16z
			 M50.7,97.16c0-1.53-0.66-2.31-2.01-2.31h-1.48v4.66h1.48C50.04,99.51,50.7,98.76,50.7,97.16z"/>
		<path fill="#FFFFFF" d="M58.81,103.08h-3.29l-0.57,2.51h-1.89l3.13-12.45h1.94l3.13,12.45H59.4L58.81,103.08z M58.44,101.41
			l-0.78-3.34c-0.18-0.82-0.37-2.01-0.46-2.67h-0.05c-0.09,0.66-0.27,1.85-0.46,2.67l-0.77,3.34H58.44z"/>
		<path fill="#FFFFFF" d="M62.67,101.93V96.8c0-2.53,1.41-3.9,3.59-3.9c2.26,0,3.59,1.35,3.7,3.83h-1.78
			c-0.11-1.46-0.75-2.12-1.94-2.12c-1.05,0-1.74,0.69-1.74,2.19v5.12c0,1.48,0.69,2.17,1.78,2.17c1.21,0,1.85-0.68,1.97-2.1h1.78
			c-0.12,2.46-1.46,3.81-3.75,3.81C64.1,105.81,62.67,104.44,62.67,101.93z"/>
		<path fill="#FFFFFF" d="M72.41,93.14h1.8v12.45h-1.8V93.14z"/>
		<path fill="#FFFFFF" d="M76.95,101.64v-4.55c0-2.6,1.42-4.18,3.81-4.18s3.81,1.58,3.81,4.18v4.55c0,2.6-1.42,4.18-3.81,4.18
			S76.95,104.24,76.95,101.64z M82.71,101.64v-4.55c0-1.57-0.68-2.42-1.96-2.42c-1.3,0-1.96,0.85-1.96,2.42v4.55
			c0,1.57,0.66,2.42,1.96,2.42C82.03,104.06,82.71,103.21,82.71,101.64z"/>
		<path fill="#FFFFFF" d="M86.54,102.18h1.83c0.02,1.28,0.71,1.9,1.82,1.9c1.19,0,1.78-0.71,1.78-1.71c0-2.47-5.21-2.62-5.21-6.32
			c0-1.8,1.32-3.15,3.42-3.15c2.13,0,3.42,1.37,3.47,3.49h-1.83c-0.04-1.19-0.66-1.76-1.62-1.76c-1.01,0-1.6,0.57-1.6,1.46
			c0,2.44,5.23,2.44,5.23,6.3c0,1.85-1.3,3.43-3.63,3.43C87.98,105.82,86.56,104.45,86.54,102.18z"/>
	</g>
</g>
<g>
</g>
<g>
</g>
<g>
</g>
<g>
</g>
<g>
</g>
<g>
</g>
<g>
</g>
<g>
</g>
<g>
</g>
<g>
</g>
<g>
</g>
<g>
</g>
<g>
</g>
<g>
</g>
<g>
</g>
</svg>
