<?xml version="1.0" encoding="utf-8"?>
<!-- Generator: Adobe Illustrator 23.0.0, SVG Export Plug-In . SVG Version: 6.00 Build 0)  -->
<svg version="1.1" id="Capa_1" xmlns="http://www.w3.org/2000/svg" xmlns:xlink="http://www.w3.org/1999/xlink" x="0px" y="0px"
	 viewBox="0 0 163.05 75.6" enable-background="new 0 0 163.05 75.6" xml:space="preserve">
<g>
	<rect x="109.57" y="4.13" fill-rule="evenodd" clip-rule="evenodd" fill="#353535" width="19.96" height="19.36"/>
	<rect x="135.42" y="4.09" fill-rule="evenodd" clip-rule="evenodd" fill="#939393" width="19.96" height="19.36"/>
	<rect x="109.67" y="29.43" fill-rule="evenodd" clip-rule="evenodd" fill="#C7C7C7" width="19.97" height="19.36"/>
	<rect x="135.29" y="29.29" fill-rule="evenodd" clip-rule="evenodd" fill="#515151" width="19.97" height="19.37"/>
	<path fill="#1D1D1D" d="M17.31,71.32H7.67V56.06h2.02v13.45h7.62V71.32z M27.2,71.32h-6.02v-1.56h1.99V57.62h-1.99v-1.56h6.02v1.56
		h-2v12.14h2V71.32z M46.71,71.32h-2.03V58.17l-4.24,8.94h-1.21l-4.21-8.94v13.14h-1.89V56.06h2.77l4.06,8.5l3.93-8.5h2.82V71.32z
		 M65.31,71.32h-2.16l-1.49-4.25h-6.6l-1.5,4.25H51.5l5.55-15.25h2.7L65.31,71.32z M61.02,65.32l-2.66-7.47l-2.68,7.47H61.02z
		 M89.14,71.32h-2.03v-7.46H79.5v7.46h-2.02V56.06h2.02v5.99h7.61v-5.99h2.03V71.32z M107.09,57.82c0.62,0.69,1.1,1.51,1.43,2.51
		c0.33,0.99,0.49,2.11,0.49,3.36c0,1.27-0.16,2.38-0.5,3.38c-0.33,1-0.81,1.82-1.41,2.49c-0.63,0.69-1.38,1.21-2.23,1.56
		c-0.86,0.35-1.83,0.52-2.93,0.52c-1.08,0-2.05-0.18-2.93-0.54c-0.87-0.35-1.63-0.87-2.24-1.54c-0.62-0.67-1.08-1.52-1.42-2.49
		c-0.33-0.98-0.49-2.11-0.49-3.38c0-1.24,0.17-2.35,0.49-3.33c0.32-1,0.81-1.83,1.43-2.54c0.61-0.67,1.35-1.18,2.24-1.55
		c0.9-0.35,1.87-0.52,2.92-0.52c1.08,0,2.07,0.17,2.94,0.54C105.74,56.64,106.47,57.16,107.09,57.82 M106.9,63.69
		c0-1.97-0.44-3.5-1.33-4.57c-0.89-1.07-2.09-1.62-3.64-1.62c-1.54,0-2.77,0.55-3.64,1.62c-0.89,1.07-1.32,2.6-1.32,4.57
		c0,2,0.44,3.55,1.35,4.6c0.89,1.07,2.1,1.59,3.61,1.59c1.52,0,2.73-0.52,3.62-1.59C106.45,67.24,106.9,65.69,106.9,63.69
		 M125.07,57.87h-5.45v13.45h-2.02V57.87h-5.45v-1.8h12.92V57.87z M139.65,71.32H129.6V56.06h10.05v1.8h-8.01v4.19h8.01v1.8h-8.01
		v5.66h8.01V71.32z M154.99,71.32h-9.64V56.06h2.03v13.45h7.61V71.32z"/>
	<path fill="#1D1D1D" d="M8.45,49.08V3.97h6.38l24.67,35.43V3.97h5.96v45.12h-6.37L14.41,13.63v35.46H8.45z M55.7,49.08V3.97h9.37
		l11.11,31.94c1.03,2.98,1.78,5.2,2.24,6.68c0.53-1.63,1.37-4.05,2.51-7.23L92.16,3.97h8.37v45.12h-6V11.32L80.88,49.08h-5.61
		L61.7,10.67v38.41H55.7z"/>
</g>
<g>
</g>
<g>
</g>
<g>
</g>
<g>
</g>
<g>
</g>
<g>
</g>
<g>
</g>
<g>
</g>
<g>
</g>
<g>
</g>
<g>
</g>
<g>
</g>
<g>
</g>
<g>
</g>
<g>
</g>
</svg>
