<?xml version="1.0" encoding="utf-8"?>
<!-- Generator: Adobe Illustrator 23.0.0, SVG Export Plug-In . SVG Version: 6.00 Build 0)  -->
<svg version="1.1" id="Capa_1" xmlns="http://www.w3.org/2000/svg" xmlns:xlink="http://www.w3.org/1999/xlink" x="0px" y="0px"
	 viewBox="0 0 126.49 103.26" enable-background="new 0 0 126.49 103.26" xml:space="preserve">
<g id="XMLID_2_">
	<path id="XMLID_107_" fill="#3B3B3B" d="M110.99,53.78V23.37c0-3.06-0.71-5.54-2.14-7.45c-1.43-1.9-3.33-2.86-5.71-2.86
		c-2.45,0-4.47,1.02-6.07,3.06c-1.6,2.04-2.4,4.59-2.4,7.65v30H81.4v-30.2c0-2.04-0.14-3.71-0.41-5c-0.27-1.29-0.73-2.31-1.38-3.06
		c-0.65-0.75-1.48-1.28-2.5-1.58c-1.02-0.31-2.24-0.46-3.67-0.46c-5.37,0-8.06,3.27-8.06,9.8v30.51H52.12V3.58h12.45v7.32
		c1.7-3.36,3.74-5.66,6.12-6.9c2.38-1.24,5.24-1.85,8.57-1.85c1.7,0,3.21,0.14,4.54,0.41c1.33,0.27,2.52,0.74,3.57,1.39
		c1.05,0.65,2.06,1.49,3.01,2.52c0.95,1.03,1.9,2.26,2.86,3.7c1.36-2.81,3.16-4.86,5.41-6.12c2.24-1.27,4.96-1.91,8.16-1.91
		c2.52,0,4.83,0.43,6.94,1.28c2.11,0.85,3.91,2.04,5.41,3.58c1.5,1.53,2.67,3.32,3.52,5.37c0.85,2.04,1.28,4.22,1.28,6.54v34.86
		H110.99z"/>
	<path id="XMLID_53_" fill="#575757" d="M33.76,53.78V23.37c0-3.88-0.65-6.5-1.94-7.86c-1.29-1.36-3.5-2.04-6.63-2.04
		c-6.87,0-10.31,3.84-10.31,11.53v28.77H1.62V3.58h12.65v7.32c1.56-2.88,3.63-5.06,6.2-6.54c2.58-1.48,5.9-2.21,9.97-2.21
		c2.37,0,4.58,0.36,6.61,1.07s3.78,1.79,5.24,3.22c1.46,1.43,2.61,3.19,3.46,5.26c0.85,2.08,1.27,4.48,1.27,7.21v34.86H33.76z"/>
	<g id="XMLID_44_">
		<polygon id="XMLID_52_" fill="#595959" points="14.65,78.2 6.21,58.52 1.55,58.52 13.82,87.12 15.44,87.12 27.89,58.52 
			23.23,58.52 		"/>
		<rect id="XMLID_51_" x="30.05" y="58.52" fill="#595959" width="4.28" height="28.6"/>
		<path id="XMLID_48_" fill="#595959" d="M50.36,58.52l-13.51,28.6h4.75l4.21-8.89h10.65l4.25,8.89h4.65l-13.34-28.6H50.36z
			 M54.55,74.05h-6.75l3.38-7.15L54.55,74.05z"/>
		<path id="XMLID_47_" fill="#595959" d="M77.88,77.46c0,2.64-0.18,3.76-0.34,4.24c-0.2,0.62-0.54,1.1-1.04,1.47
			c-0.89,0.65-1.97,0.72-3.13,0.21c-0.88-0.38-2.01-1.06-3.38-2.02l-0.66-0.46l-2.27,3.41l0.55,0.45c1.34,1.11,2.6,1.91,3.73,2.36
			c1.15,0.46,2.33,0.69,3.51,0.69c1.59,0,2.98-0.37,4.12-1.11c1.15-0.74,1.99-1.75,2.48-3c0.48-1.2,0.71-3.21,0.71-6.14V58.52h-4.28
			V77.46z"/>
		<polygon id="XMLID_46_" fill="#595959" points="88.68,87.12 105.64,87.12 105.64,82.9 92.96,82.9 92.96,73.86 105.64,73.86 
			105.64,69.64 92.96,69.64 92.96,62.74 105.74,62.74 105.74,58.52 88.68,58.52 		"/>
		<path id="XMLID_45_" fill="#595959" d="M123.51,75.25c-0.93-1.44-2.57-3.02-5.01-4.82c-2.41-1.78-3.18-2.42-3.4-2.62
			c-0.58-0.58-0.97-1.1-1.18-1.56c-0.2-0.45-0.3-0.91-0.3-1.39c0-0.75,0.26-1.36,0.79-1.87c0.54-0.52,1.24-0.77,2.13-0.77
			c0.71,0,1.34,0.17,1.94,0.53c0.63,0.37,1.42,1.2,2.38,2.46l0.48,0.63l3.45-2.62l-0.46-0.62c-1.32-1.8-2.55-3.01-3.76-3.7
			c-1.22-0.7-2.56-1.05-3.96-1.05c-1.33,0-2.58,0.31-3.71,0.93c-1.15,0.63-2.05,1.49-2.68,2.58c-0.63,1.09-0.95,2.3-0.95,3.61
			c0,1.65,0.54,3.2,1.58,4.6c0.6,0.83,2.03,2.09,4.37,3.86c2.16,1.63,3.66,3.03,4.46,4.16c0.52,0.74,0.77,1.46,0.77,2.21
			c0,0.66-0.17,1.27-0.52,1.86c-0.34,0.59-0.84,1.05-1.51,1.4c-0.69,0.36-1.4,0.54-2.18,0.54c-1.8,0-3.45-1.36-4.91-4.05l-0.39-0.72
			l-3.65,2.19l0.36,0.66c1.18,2.16,2.51,3.74,3.95,4.68c1.46,0.96,3.1,1.44,4.9,1.44c2.33,0,4.35-0.8,5.98-2.39
			c1.64-1.59,2.47-3.5,2.47-5.67C124.94,78.23,124.46,76.72,123.51,75.25z"/>
	</g>
	<g id="XMLID_20_">
		<path id="XMLID_42_" fill="#828282" d="M2.87,95.68v5.33H1.62v-7.36h1.74l1.43,4.41v-4.41h1.24v7.36H4.6L2.87,95.68z"/>
		<path id="XMLID_40_" fill="#828282" d="M10.93,93.65v5.68c0,0.53,0.28,0.72,0.72,0.72c0.44,0,0.72-0.19,0.72-0.72v-5.68h1.31v5.61
			c0,1.18-0.71,1.85-2.07,1.85c-1.36,0-2.07-0.67-2.07-1.85v-5.61H10.93z"/>
		<path id="XMLID_38_" fill="#828282" d="M18.61,96.75h1.91v1.05h-1.91v2.16h2.4v1.05h-3.79v-7.36h3.79v1.05h-2.4V96.75z"/>
		<path id="XMLID_36_" fill="#828282" d="M26.55,99.66l1.06-6.01h1.27l-1.36,7.36h-2.07l-1.36-7.36h1.4L26.55,99.66z"/>
		<path id="XMLID_33_" fill="#828282" d="M31.23,95.42c0-1.18,0.74-1.85,2.11-1.85c1.36,0,2.11,0.67,2.11,1.85v3.83
			c0,1.18-0.75,1.85-2.11,1.85c-1.36,0-2.11-0.67-2.11-1.85V95.42z M32.62,99.32c0,0.53,0.28,0.73,0.72,0.73
			c0.44,0,0.72-0.2,0.72-0.73v-3.98c0-0.53-0.28-0.73-0.72-0.73c-0.44,0-0.72,0.2-0.72,0.73V99.32z"/>
		<path id="XMLID_31_" fill="#828282" d="M46.42,98.88l0.95-5.23h1.93v7.36h-1.31v-5.28l-0.96,5.28h-1.31l-1.04-5.21v5.21h-1.21
			v-7.36h1.93L46.42,98.88z"/>
		<path id="XMLID_29_" fill="#828282" d="M54.22,93.65v5.68c0,0.53,0.28,0.72,0.72,0.72c0.44,0,0.72-0.19,0.72-0.72v-5.68h1.31v5.61
			c0,1.18-0.71,1.85-2.07,1.85c-1.36,0-2.07-0.67-2.07-1.85v-5.61H54.22z"/>
		<path id="XMLID_27_" fill="#828282" d="M60.99,95.68v5.33h-1.25v-7.36h1.74l1.43,4.41v-4.41h1.24v7.36h-1.43L60.99,95.68z"/>
		<path id="XMLID_24_" fill="#828282" d="M67.73,93.65h2.2c1.39,0,2.07,0.64,2.07,1.82v3.72c0,1.18-0.68,1.82-2.07,1.82h-2.2V93.65z
			 M69.11,94.7v5.26h0.78c0.44,0,0.71-0.19,0.71-0.72v-3.83c0-0.53-0.26-0.72-0.71-0.72H69.11z"/>
		<path id="XMLID_21_" fill="#828282" d="M75.35,95.42c0-1.18,0.74-1.85,2.11-1.85c1.36,0,2.11,0.67,2.11,1.85v3.83
			c0,1.18-0.75,1.85-2.11,1.85c-1.36,0-2.11-0.67-2.11-1.85V95.42z M76.74,99.32c0,0.53,0.28,0.73,0.72,0.73
			c0.44,0,0.72-0.2,0.72-0.73v-3.98c0-0.53-0.28-0.73-0.72-0.73c-0.44,0-0.72,0.2-0.72,0.73V99.32z"/>
	</g>
	<g id="XMLID_3_">
		<path id="XMLID_18_" fill="#595959" d="M89.69,99.66l1.06-6.01h1.28l-1.36,7.36h-2.07l-1.36-7.36h1.4L89.69,99.66z"/>
		<path id="XMLID_16_" fill="#595959" d="M95.26,93.65h1.39v7.36h-1.39V93.65z"/>
		<path id="XMLID_11_" fill="#595959" d="M104.74,101.01h-1.4l-0.24-1.34h-1.7l-0.24,1.34h-1.28l1.41-7.36h2.03L104.74,101.01z
			 M101.57,98.68h1.34l-0.67-3.72L101.57,98.68z"/>
		<path id="XMLID_9_" fill="#595959" d="M107.59,99.96c0.15,0.01,0.33,0.01,0.48,0.01c0.44,0,0.8-0.14,0.8-0.7v-5.62h1.39v5.53
			c0,1.47-0.95,1.85-1.99,1.85c-0.25,0-0.44,0-0.67-0.02V99.96z"/>
		<path id="XMLID_7_" fill="#595959" d="M115.18,96.75h1.91v1.05h-1.91v2.16h2.4v1.05h-3.79v-7.36h3.79v1.05h-2.4V96.75z"/>
		<path id="XMLID_4_" fill="#595959" d="M122.38,93.57c1.35,0,2.05,0.67,2.05,1.85v0.23h-1.31v-0.31c0-0.53-0.25-0.73-0.69-0.73
			c-0.44,0-0.69,0.2-0.69,0.73c0,1.51,2.71,1.8,2.71,3.9c0,1.18-0.71,1.85-2.07,1.85c-1.36,0-2.07-0.67-2.07-1.85v-0.45h1.31v0.53
			c0,0.53,0.28,0.72,0.72,0.72c0.44,0,0.72-0.19,0.72-0.72c0-1.51-2.71-1.8-2.71-3.9C120.34,94.24,121.03,93.57,122.38,93.57z"/>
	</g>
</g>
<g>
</g>
<g>
</g>
<g>
</g>
<g>
</g>
<g>
</g>
<g>
</g>
<g>
</g>
<g>
</g>
<g>
</g>
<g>
</g>
<g>
</g>
<g>
</g>
<g>
</g>
<g>
</g>
<g>
</g>
</svg>
