<?xml version="1.0" encoding="utf-8"?>
<!-- Generator: Adobe Illustrator 23.0.0, SVG Export Plug-In . SVG Version: 6.00 Build 0)  -->
<svg version="1.1" id="Capa_1" xmlns="http://www.w3.org/2000/svg" xmlns:xlink="http://www.w3.org/1999/xlink" x="0px" y="0px"
	 viewBox="0 0 193.92 129.01" enable-background="new 0 0 193.92 129.01" xml:space="preserve">
<g>
	<g>
		<path fill="#FFFFFF" d="M118.25,30.65c0,15.74-12.76,28.5-28.5,28.5c-15.75,0-28.51-12.76-28.51-28.5
			C61.24,14.91,74,2.14,89.75,2.14C105.49,2.14,118.25,14.91,118.25,30.65L118.25,30.65z"/>
		<path fill="#949494" d="M115.79,33.59c-0.43-0.03-0.85-0.05-1.27-0.05c-10.56,0-19.16,8.6-19.16,19.18c0,1.18,0.12,2.33,0.32,3.45
			C106.36,53.69,114.53,44.7,115.79,33.59L115.79,33.59z"/>
		<path fill="#3B3B3B" d="M65.22,30.74c2.12,0,4.18,0.3,6.12,0.86c0.68-9.56,8.68-17.14,18.41-17.14c9.75,0,17.76,7.61,18.41,17.21
			c2.03-0.61,4.16-0.93,6.36-0.93c0.49,0,0.97,0.01,1.44,0.04c0-0.04,0-0.1,0-0.16c0-14.47-11.72-26.2-26.2-26.2
			c-14.48,0-26.21,11.73-26.21,26.2c0,0.06,0,0.11,0,0.17C64.11,30.75,64.66,30.74,65.22,30.74L65.22,30.74z"/>
		<path fill="#7F7F7F" d="M92.54,52.71c0-8.88,5.27-16.53,12.85-20c-0.12-8.53-7.09-15.44-15.65-15.44
			c-8.53,0-15.47,6.85-15.64,15.33c7.7,3.42,13.1,11.14,13.1,20.1c0,1.34-0.13,2.67-0.37,3.96c0.96,0.1,1.92,0.16,2.91,0.16
			c1.07,0,2.11-0.07,3.15-0.19C92.66,55.36,92.54,54.05,92.54,52.71L92.54,52.71z"/>
		<path fill="#949494" d="M65.22,33.54c-0.51,0-1,0.04-1.5,0.07c1.26,11.18,9.56,20.21,20.35,22.6c0.2-1.13,0.32-2.3,0.32-3.49
			C84.38,42.14,75.79,33.54,65.22,33.54L65.22,33.54z"/>
	</g>
	<path fill="#151515" d="M181.32,85.98c0-2.59,2.1-4.69,4.7-4.69c2.58,0,4.68,2.1,4.68,4.69c0,2.59-2.1,4.68-4.68,4.68
		C183.42,90.66,181.32,88.56,181.32,85.98L181.32,85.98z M189.55,85.98c0-2.19-1.58-3.79-3.54-3.79c-1.97,0-3.55,1.59-3.55,3.79
		c0,2.19,1.58,3.78,3.55,3.78C187.97,89.76,189.55,88.17,189.55,85.98L189.55,85.98z M184.21,83.29h1.97c1.27,0,1.96,0.45,1.96,1.57
		c0,0.9-0.51,1.35-1.39,1.43l1.43,2.33h-1.01l-1.38-2.29h-0.6v2.29h-0.98V83.29L184.21,83.29z M185.19,85.57h0.88
		c0.57,0,1.08-0.07,1.08-0.8c0-0.62-0.57-0.71-1.08-0.71h-0.88V85.57L185.19,85.57z"/>
	<g>
		<path fill="#151515" d="M3.22,85.14h4.54v19.06h8.77v3.56H3.22V85.14z"/>
		<path fill="#151515" d="M18.54,91.94c1.69-0.78,3.96-1.26,5.8-1.26c5.09,0,7.19,2.1,7.19,7.04v2.14c0,1.69,0.03,2.95,0.06,4.18
			c0.04,1.27,0.1,2.43,0.21,3.72h-3.83c-0.16-0.88-0.16-1.97-0.19-2.5h-0.06c-1.01,1.85-3.18,2.89-5.15,2.89
			c-2.95,0-5.83-1.79-5.83-4.95c0-2.5,1.21-3.96,2.85-4.77c1.65-0.81,3.79-0.97,5.61-0.97h2.4c0-2.69-1.19-3.59-3.76-3.59
			c-1.85,0-3.7,0.7-5.16,1.8L18.54,91.94z M23.63,104.98c1.32,0,2.36-0.59,3.04-1.5c0.72-0.94,0.92-2.14,0.92-3.43h-1.88
			c-1.95,0-4.83,0.32-4.83,2.88C20.88,104.36,22.07,104.98,23.63,104.98z"/>
		<path fill="#151515" d="M34.52,91.07h4.05v2.33h0.06c1.36-2.04,3.34-2.72,4.97-2.72c2.33,0,3.98,0.88,4.92,2.95
			c1.01-2.02,3.18-2.95,5.22-2.95c4.11,0,5.28,2.81,5.28,6.54v10.53h-4.34v-9.94c0-1.56,0-3.76-2.49-3.76
			c-2.88,0-3.24,3.43-3.24,5.61v8.1H44.6v-9.94c0-1.56,0-3.76-2.5-3.76c-2.87,0-3.24,3.43-3.24,5.61v8.1h-4.34V91.07z"/>
		<path fill="#151515" d="M62.17,83.45h4.34v9.75h0.07c1.2-1.59,2.72-2.52,4.99-2.52c5.12,0,7,4.08,7,8.69c0,4.57-1.88,8.78-7,8.78
			c-1.85,0-3.85-0.65-5.13-2.43h-0.06v2.04h-4.21V83.45z M70.36,104.78c2.86,0,3.67-3.11,3.67-5.41c0-2.25-0.78-5.32-3.6-5.32
			c-2.79,0-3.88,2.98-3.88,5.32C66.54,101.73,67.47,104.78,70.36,104.78z"/>
		<path fill="#151515" d="M80.83,91.07h3.85v3.78h0.08c0.19-1.55,1.98-4.17,4.56-4.17c0.43,0,0.88,0,1.34,0.13v4.37
			c-0.39-0.21-1.18-0.36-1.95-0.36c-3.53,0-3.53,4.41-3.53,6.82v6.12h-4.35V91.07z"/>
		<path fill="#151515" d="M92.86,91.94c1.68-0.78,3.96-1.26,5.79-1.26c5.1,0,7.21,2.1,7.21,7.04v2.14c0,1.69,0.03,2.95,0.07,4.18
			c0.03,1.27,0.09,2.43,0.2,3.72h-3.83c-0.15-0.88-0.15-1.97-0.19-2.5h-0.06c-1.01,1.85-3.19,2.89-5.15,2.89
			c-2.95,0-5.84-1.79-5.84-4.95c0-2.5,1.19-3.96,2.85-4.77c1.66-0.81,3.79-0.97,5.61-0.97h2.4c0-2.69-1.21-3.59-3.76-3.59
			c-1.85,0-3.69,0.7-5.15,1.8L92.86,91.94z M97.94,104.98c1.34,0,2.37-0.59,3.05-1.5c0.72-0.94,0.92-2.14,0.92-3.43h-1.88
			c-1.94,0-4.82,0.32-4.82,2.88C95.19,104.36,96.4,104.98,97.94,104.98z"/>
		<path fill="#151515" d="M108.84,91.07h4.05v2.33h0.06c1.37-2.04,3.34-2.72,4.96-2.72c2.34,0,3.99,0.88,4.94,2.95
			c1.01-2.02,3.17-2.95,5.22-2.95c4.11,0,5.28,2.81,5.28,6.54v10.53h-4.34v-9.94c0-1.56,0-3.76-2.5-3.76
			c-2.87,0-3.24,3.43-3.24,5.61v8.1h-4.34v-9.94c0-1.56,0-3.76-2.49-3.76c-2.89,0-3.25,3.43-3.25,5.61v8.1h-4.33V91.07z"/>
		<path fill="#151515" d="M137.22,91.94c1.69-0.78,3.96-1.26,5.8-1.26c5.09,0,7.2,2.1,7.2,7.04v2.14c0,1.69,0.03,2.95,0.06,4.18
			c0.03,1.27,0.09,2.43,0.2,3.72h-3.83c-0.16-0.88-0.16-1.97-0.19-2.5h-0.07c-1,1.85-3.17,2.89-5.15,2.89
			c-2.94,0-5.83-1.79-5.83-4.95c0-2.5,1.2-3.96,2.85-4.77c1.66-0.81,3.79-0.97,5.6-0.97h2.41c0-2.69-1.2-3.59-3.76-3.59
			c-1.85,0-3.69,0.7-5.15,1.8L137.22,91.94z M142.32,104.98c1.32,0,2.36-0.59,3.03-1.5c0.71-0.94,0.91-2.14,0.91-3.43h-1.89
			c-1.95,0-4.82,0.32-4.82,2.88C139.56,104.36,140.75,104.98,142.32,104.98z"/>
		<path fill="#151515" d="M153.27,91.07h4.12v2.26h0.06c1.36-1.91,3.21-2.65,5.48-2.65c3.95,0,5.66,2.79,5.66,6.54v10.53h-4.34
			v-8.91c0-2.04-0.02-4.8-2.81-4.8c-3.15,0-3.82,3.41-3.82,5.55v8.16h-4.35V91.07z"/>
		<path fill="#151515" d="M171.94,83.88h4.34v4.14h-4.34V83.88z M171.94,91.07h4.34v16.69h-4.34V91.07z"/>
	</g>
	<g>
		<path fill="#151515" d="M48.74,57.63h5.36c4.09,0,6.75,2.06,6.75,6.18c0,4.07-3.06,6.19-6.97,6.19h-3v9.42h-2.14V57.63z
			 M50.88,68.12h1.5c3.25,0,6.3-0.38,6.3-4.32c0-2.74-1.56-4.31-4.3-4.31h-3.5V68.12z"/>
		<path fill="#151515" d="M72.09,76.86h-0.07c-0.88,1.9-3.09,2.93-5.06,2.93c-4.52,0-5.24-3.05-5.24-4.49c0-5.34,5.68-5.58,9.8-5.58
			h0.37V68.9c0-2.71-0.96-4.09-3.62-4.09c-1.65,0-3.21,0.38-4.68,1.31v-1.91c1.22-0.58,3.27-1.09,4.68-1.09
			c3.94,0,5.59,1.78,5.59,5.93v7.02c0,1.29,0,2.25,0.15,3.34h-1.92V76.86z M71.89,71.39h-0.56c-3.4,0-7.46,0.35-7.46,3.85
			c0,2.09,1.49,2.87,3.31,2.87c4.61,0,4.71-4.02,4.71-5.74V71.39z"/>
		<path fill="#151515" d="M77.35,67.06c0-1.74,0-2.4-0.13-3.55h1.97v3.05h0.06c0.72-1.77,2.06-3.42,4.09-3.42
			c0.46,0,1.03,0.1,1.37,0.18v2.06c-0.42-0.12-0.94-0.18-1.43-0.18c-3.13,0-3.96,3.5-3.96,6.37v7.86h-1.97V67.06z"/>
		<path fill="#151515" d="M99.17,85.97H97.2V76.7h-0.06c-0.97,2.06-2.47,3.09-4.97,3.09c-4.36,0-6.55-3.62-6.55-8.33
			c0-4.84,1.87-8.33,6.55-8.33c3.36,0,4.59,2.41,4.97,2.96h0.06V63.5h1.97V85.97z M92.49,78.11c3.49,0,4.71-3.75,4.71-6.65
			c0-2.9-1.22-6.65-4.71-6.65c-3.75,0-4.72,3.56-4.72,6.65C87.77,74.55,88.75,78.11,92.49,78.11z"/>
		<path fill="#151515" d="M115.15,75.67c0,1.22,0,2.47,0.13,3.74h-1.9v-2.83h-0.06c-0.66,1.43-1.84,3.21-5.16,3.21
			c-3.93,0-5.43-2.62-5.43-6.11V63.5h1.97v9.67c0,3,1.06,4.93,3.78,4.93c3.58,0,4.71-3.16,4.71-5.8v-8.8h1.96V75.67z"/>
		<path fill="#151515" d="M129.57,78.92c-1.38,0.57-3.15,0.88-4.63,0.88c-5.27,0-7.24-3.55-7.24-8.33c0-4.87,2.69-8.33,6.71-8.33
			c4.5,0,6.33,3.63,6.33,7.89v0.99h-10.89c0,3.38,1.81,6.09,5.24,6.09c1.44,0,3.53-0.6,4.46-1.18V78.92z M128.61,70.34
			c0-2.78-1.12-5.53-4.06-5.53c-2.91,0-4.68,2.91-4.68,5.53H128.61z"/>
	</g>
	<g>
		<path fill="#151515" d="M28.54,126.46c-0.42,0.22-1.42,0.4-2.43,0.4c-3.41,0-5.17-2.5-5.17-5.78c0-3.28,1.75-5.77,5.1-5.77
			c1.14,0,2.07,0.31,2.5,0.46l-0.11,1.85c-0.42-0.2-1.08-0.61-2.13-0.61c-1.71,0-3.17,1.15-3.17,4.07c0,2.92,1.46,4.08,3.17,4.08
			c1,0,1.66-0.24,2.13-0.58L28.54,126.46z"/>
		<path fill="#151515" d="M30.34,115.47h5.91v1.64H32.4v2.99h3.64v1.64H32.4v3.32h4.01v1.64h-6.07V115.47z"/>
		<path fill="#151515" d="M38.37,115.47h2.45l3.73,8.82h0.03v-8.82h1.87v11.24h-2.46l-3.72-8.76h-0.03v8.76h-1.86V115.47z"/>
		<path fill="#151515" d="M50.48,117.12h-2.51v-1.64h7.06v1.64h-2.49v9.59h-2.06V117.12z"/>
		<path fill="#151515" d="M56.46,115.47h3.51c1.99,0,3.35,0.9,3.35,2.96c0,1.47-0.92,2.44-2.18,2.64v0.05
			c0.42,0.06,0.89,0.26,1.25,1.3l1.46,4.28h-2.19l-1.11-3.65c-0.27-0.89-0.81-1.18-1.56-1.18h-0.47v4.83h-2.06V115.47z
			 M59.36,120.37c1.1,0,1.84-0.56,1.84-1.71c0-1.29-0.68-1.61-1.84-1.61h-0.83v3.31H59.36z"/>
		<path fill="#151515" d="M69.54,115.31c2.33,0,4.47,1.74,4.47,5.77c0,4.04-2.14,5.78-4.47,5.78c-2.33,0-4.48-1.74-4.48-5.78
			C65.06,117.05,67.2,115.31,69.54,115.31z M69.54,125.29c1.3,0,2.35-1.11,2.35-4.2c0-3.09-1.05-4.2-2.35-4.2
			c-1.31,0-2.35,1.11-2.35,4.2C67.18,124.18,68.23,125.29,69.54,125.29z"/>
		<path fill="#151515" d="M87.27,126.46c-0.41,0.22-1.42,0.4-2.43,0.4c-3.41,0-5.16-2.5-5.16-5.78c0-3.28,1.75-5.77,5.1-5.77
			c1.14,0,2.08,0.31,2.49,0.46l-0.11,1.85c-0.42-0.2-1.08-0.61-2.13-0.61c-1.71,0-3.17,1.15-3.17,4.07c0,2.92,1.46,4.08,3.17,4.08
			c1,0,1.66-0.24,2.13-0.58L87.27,126.46z"/>
		<path fill="#151515" d="M93.1,115.31c2.33,0,4.48,1.74,4.48,5.77c0,4.04-2.15,5.78-4.48,5.78c-2.33,0-4.47-1.74-4.47-5.78
			C88.63,117.05,90.77,115.31,93.1,115.31z M93.1,125.29c1.3,0,2.35-1.11,2.35-4.2c0-3.09-1.05-4.2-2.35-4.2
			c-1.31,0-2.35,1.11-2.35,4.2C90.75,124.18,91.8,125.29,93.1,125.29z"/>
		<path fill="#151515" d="M108.39,117.34h-0.03l-2.82,9.37h-1.46l-2.69-9.37h-0.03v9.37h-1.87v-11.24h3.08l2.32,8.38h0.03l2.37-8.38
			h2.98v11.24h-1.87V117.34z"/>
		<path fill="#151515" d="M112.63,115.47h5.9v1.64h-3.84v2.99h3.64v1.64h-3.64v3.32h4.01v1.64h-6.07V115.47z"/>
		<path fill="#151515" d="M120.58,115.47h3.51c2,0,3.35,0.9,3.35,2.96c0,1.47-0.92,2.44-2.17,2.64v0.05
			c0.41,0.06,0.88,0.26,1.24,1.3l1.46,4.28h-2.19l-1.11-3.65c-0.27-0.89-0.8-1.18-1.56-1.18h-0.47v4.83h-2.06V115.47z
			 M123.48,120.37c1.1,0,1.83-0.56,1.83-1.71c0-1.29-0.67-1.61-1.83-1.61h-0.84v3.31H123.48z"/>
		<path fill="#151515" d="M136.77,126.46c-0.42,0.22-1.42,0.4-2.43,0.4c-3.41,0-5.16-2.5-5.16-5.78c0-3.28,1.75-5.77,5.1-5.77
			c1.14,0,2.08,0.31,2.5,0.46l-0.12,1.85c-0.42-0.2-1.08-0.61-2.12-0.61c-1.71,0-3.17,1.15-3.17,4.07c0,2.92,1.47,4.08,3.17,4.08
			c1,0,1.66-0.24,2.12-0.58L136.77,126.46z"/>
		<path fill="#151515" d="M138.59,115.47h2.06v11.24h-2.06V115.47z"/>
		<path fill="#151515" d="M148.68,124h-3.86l-0.8,2.71h-2.06l3.77-11.24h2.25l3.63,11.24h-2.13L148.68,124z M148.25,122.43
			l-1.42-5.25h-0.04l-1.54,5.25H148.25z"/>
		<path fill="#151515" d="M152.79,115.47h2.06v9.59h3.7v1.64h-5.76V115.47z"/>
	</g>
</g>
<g>
</g>
<g>
</g>
<g>
</g>
<g>
</g>
<g>
</g>
<g>
</g>
<g>
</g>
<g>
</g>
<g>
</g>
<g>
</g>
<g>
</g>
<g>
</g>
<g>
</g>
<g>
</g>
<g>
</g>
</svg>
