<?xml version="1.0" encoding="utf-8"?>
<!-- Generator: Adobe Illustrator 23.0.0, SVG Export Plug-In . SVG Version: 6.00 Build 0)  -->
<svg version="1.1" id="Capa_1" xmlns="http://www.w3.org/2000/svg" xmlns:xlink="http://www.w3.org/1999/xlink" x="0px" y="0px"
	 viewBox="0 0 193.1 139.76" enable-background="new 0 0 193.1 139.76" xml:space="preserve">
<g>
	<ellipse opacity="0.2" fill-rule="evenodd" clip-rule="evenodd" fill="#9F9F9F" cx="39.24" cy="50.11" rx="35.98" ry="50.11"/>
	<path fill-rule="evenodd" clip-rule="evenodd" fill="#9F9F9F" d="M3.35,44.63c6.8,1.57,13.82,2.51,20.78,1.87
		c7.28-0.67,14.28-3.06,21.19-5.42c7.56-2.58,25.77-13.9,17.47-24.7c-1.36-1.76,0.47-4.3,1.39-3.26c0.92,1.04,2.01,2.28,1.92,0.97
		c0-0.03-0.78-5.85,0.89-2.76c0.88,1.63,1.31,2.99,1.69,2.92c0.38-0.07,0.7-0.54,0.81-1c0.26-1.08,0.15-5.81,2.44-2.68
		c0.59,0.81,2.32,6.03,2.53,4.99c0.17-0.82,0.48-1.63,0.48-1.63s0.32-1.22,1.44-0.23c1.51,1.01,2.05,3.55,2.61,3.18
		c0.62-0.4,0.76-1.74,1.86-0.55c1.65,2.44,1.31,4.07,1.54,4.56c0.26,0.56,0.78,2.1,2.49,2.3c0.76,0,2.45,0.01,3.33,0.22
		c1.16,0.28,3.28,1.4,3.68,1.88c0.4,0.47,0.24,0.96-0.76,0.96c-1,0-2.26,0.58-3.17,1.11c-0.82,0.48-2.3,1.28-4.03,3.08
		c-0.21,1.68,2.52,2.65,3.56,3.91c1.04,1.26,2.43,3.18,2.6,4.88c0.2,0.35,0.32,0.7,0.33,1.01c0.03,1.72-0.75,3.03-2.14,3.97
		c-1.01,0.68-3.71,0.67-5.3-0.68c9.55,35.4-17.07,73.71-53.22,64.26c0,0-41.49-1.69-26.51-62.95"/>
	<path fill-rule="evenodd" clip-rule="evenodd" fill="#FFFFFF" d="M95.15,87.44c-1.97-0.28-3.2,1.93-5.78-0.5
		c-1.24-1.06-1.94-2.26-2.97-3.42c-2.25-2.52-5.17-5.72-8.73-8.31c-16.45-11.97-25.41-4.79-35.7-10.05
		c-2.4-1.49-1.08-2.69-3.68-5.34c-1.36-1.39-2.05-1.96-2.33-1.91c-0.92,0.17,2.52,6.05-1.21,2.36c-2.38-2.35-2.22-2.07-5.47-3.23
		c-0.02,0.12,1.46,6.35,1.57,7.67c0.22,2.68,3.58,4.12-3.62,6.96c-4.9,1.94-3.7,1.94-9.03,0.03c-0.48-0.17-2.78,5.5-1.45,6.23
		c0.42,0.23,0.92-0.27,2.88,3.03c5.29,8.89,9.34,8.97,10.22,9.23c1.17,0.35-3.93,18.32,5.74,26.65"/>
	<g>
		<path d="M47.44,133.17c-0.29-0.24-0.66-0.4-1.04-0.4c-0.29,0-0.67,0.17-0.67,0.5c0,0.35,0.42,0.49,0.7,0.58l0.4,0.12
			c0.84,0.25,1.49,0.67,1.49,1.65c0,0.6-0.14,1.22-0.62,1.62c-0.47,0.4-1.1,0.57-1.71,0.57c-0.76,0-1.5-0.26-2.12-0.69l0.67-1.26
			c0.39,0.34,0.86,0.62,1.39,0.62c0.37,0,0.76-0.18,0.76-0.61c0-0.44-0.62-0.59-0.95-0.69c-0.98-0.28-1.63-0.54-1.63-1.7
			c0-1.22,0.87-2.02,2.08-2.02c0.61,0,1.35,0.19,1.89,0.5L47.44,133.17z"/>
		<path d="M53.67,135.6c0,1.39-1.15,2.18-2.47,2.18c-1.31,0-2.47-0.78-2.47-2.18s1.15-2.19,2.47-2.19S53.67,134.2,53.67,135.6z
			 M50.26,135.6c0,0.52,0.34,0.92,0.94,0.92s0.94-0.4,0.94-0.92c0-0.5-0.34-0.93-0.94-0.93S50.26,135.1,50.26,135.6z"/>
		<path d="M55.78,137.65h-1.46v-6.64h1.46V137.65z"/>
		<path d="M58.17,133.55v2.19c0,0.52,0.13,0.89,0.73,0.89s0.73-0.37,0.73-0.89v-2.19h1.46v2.47c0,1.35-0.95,1.77-2.18,1.77
			s-2.18-0.42-2.18-1.77v-2.47H58.17z"/>
		<path d="M64.97,134.88c-0.22-0.16-0.47-0.29-0.75-0.29c-0.56,0-1,0.43-1,1c0,0.59,0.42,1.01,1.02,1.01c0.26,0,0.54-0.1,0.73-0.28
			v1.23c-0.32,0.16-0.67,0.23-1.02,0.23c-1.22,0-2.23-0.9-2.23-2.14c0-1.32,1.01-2.23,2.29-2.23c0.34,0,0.67,0.08,0.96,0.24V134.88z
			"/>
		<path d="M67.42,131.97c0,0.45-0.37,0.82-0.82,0.82s-0.82-0.37-0.82-0.82s0.37-0.82,0.82-0.82S67.42,131.52,67.42,131.97z
			 M67.34,137.65h-1.46v-4.1h1.46V137.65z"/>
		<path d="M72.93,135.6c0,1.39-1.15,2.18-2.47,2.18c-1.31,0-2.47-0.78-2.47-2.18s1.15-2.19,2.47-2.19S72.93,134.2,72.93,135.6z
			 M69.53,135.6c0,0.52,0.34,0.92,0.94,0.92s0.94-0.4,0.94-0.92c0-0.5-0.34-0.93-0.94-0.93S69.53,135.1,69.53,135.6z"/>
		<path d="M75.05,134.07h0.02c0.34-0.5,0.74-0.66,1.31-0.66c1.1,0,1.54,0.7,1.54,1.7v2.53h-1.46v-2c0-0.39,0.06-1.08-0.66-1.08
			c-0.59,0-0.76,0.44-0.76,0.95v2.13h-1.46v-4.1h1.46V134.07z"/>
		<path d="M83.09,135.84h-3.06c0,0.59,0.31,0.91,0.91,0.91c0.31,0,0.54-0.1,0.7-0.38h1.4c-0.23,0.97-1.15,1.41-2.09,1.41
			c-1.36,0-2.38-0.77-2.38-2.18c0-1.37,0.94-2.19,2.27-2.19c1.42,0,2.25,0.88,2.25,2.28V135.84z M81.74,135
			c-0.07-0.39-0.43-0.65-0.82-0.65c-0.42,0-0.78,0.22-0.86,0.65H81.74z"/>
		<path d="M86.47,134.6c-0.22-0.12-0.54-0.2-0.78-0.2c-0.17,0-0.46,0.07-0.46,0.28c0,0.28,0.46,0.32,0.66,0.36
			c0.68,0.14,1.19,0.46,1.19,1.22c0,1.08-0.98,1.53-1.93,1.53c-0.58,0-1.16-0.17-1.66-0.47l0.53-1.02c0.3,0.21,0.79,0.42,1.15,0.42
			c0.18,0,0.46-0.09,0.46-0.31c0-0.32-0.46-0.34-0.91-0.46c-0.46-0.12-0.91-0.34-0.91-1.08c0-1.01,0.91-1.46,1.81-1.46
			c0.46,0,0.93,0.07,1.35,0.26L86.47,134.6z"/>
		<path d="M92.02,134.01h0.02c0.26-0.41,0.76-0.6,1.24-0.6c1.22,0,2.07,1.02,2.07,2.2c0,1.18-0.84,2.17-2.05,2.17
			c-0.47,0-0.96-0.17-1.27-0.53v2.44h-1.46v-6.15h1.46V134.01z M91.97,135.6c0,0.52,0.34,0.92,0.94,0.92s0.94-0.4,0.94-0.92
			c0-0.5-0.34-0.93-0.94-0.93S91.97,135.1,91.97,135.6z"/>
		<path d="M100.55,137.65H99.1v-0.46h-0.02c-0.26,0.41-0.76,0.59-1.24,0.59c-1.22,0-2.07-1.02-2.07-2.19c0-1.18,0.84-2.18,2.05-2.18
			c0.47,0,0.97,0.18,1.27,0.54v-0.4h1.46V137.65z M97.27,135.6c0,0.52,0.34,0.92,0.94,0.92s0.94-0.4,0.94-0.92
			c0-0.5-0.34-0.93-0.94-0.93S97.27,135.1,97.27,135.6z"/>
		<path d="M102.98,134.22h0.02c0.28-0.5,0.76-0.73,1.33-0.73h0.28v1.4c-0.2-0.11-0.39-0.14-0.62-0.14c-0.81,0-1.01,0.54-1.01,1.24
			v1.66h-1.46v-4.1h1.46V134.22z"/>
		<path d="M109.63,137.65h-1.46v-0.46h-0.02c-0.26,0.41-0.76,0.59-1.24,0.59c-1.22,0-2.07-1.02-2.07-2.19
			c0-1.18,0.84-2.18,2.05-2.18c0.47,0,0.97,0.18,1.27,0.54v-0.4h1.46V137.65z M106.35,135.6c0,0.52,0.34,0.92,0.94,0.92
			s0.94-0.4,0.94-0.92c0-0.5-0.34-0.93-0.94-0.93S106.35,135.1,106.35,135.6z"/>
		<path d="M117.56,135.84h-3.06c0,0.59,0.31,0.91,0.91,0.91c0.31,0,0.54-0.1,0.7-0.38h1.4c-0.23,0.97-1.15,1.41-2.09,1.41
			c-1.36,0-2.38-0.77-2.38-2.18c0-1.37,0.94-2.19,2.27-2.19c1.42,0,2.25,0.88,2.25,2.28V135.84z M116.21,135
			c-0.07-0.39-0.43-0.65-0.82-0.65c-0.42,0-0.78,0.22-0.86,0.65H116.21z"/>
		<path d="M119.68,137.65h-1.46v-6.64h1.46V137.65z"/>
		<path d="M124.84,134.06h0.02c0.34-0.46,0.77-0.65,1.29-0.65c0.59,0,1.1,0.24,1.4,0.78c0.28-0.51,0.83-0.78,1.39-0.78
			c1.04,0,1.4,0.68,1.4,1.62v2.61h-1.46v-1.96c0-0.42,0.02-1.12-0.6-1.12c-0.67,0-0.7,0.63-0.7,1.12v1.96h-1.46v-1.96
			c0-0.46,0-1.15-0.65-1.15s-0.65,0.7-0.65,1.15v1.96h-1.46v-4.1h1.46V134.06z"/>
		<path d="M132.73,133.55v2.19c0,0.52,0.13,0.89,0.73,0.89s0.73-0.37,0.73-0.89v-2.19h1.46v2.47c0,1.35-0.95,1.77-2.18,1.77
			s-2.18-0.42-2.18-1.77v-2.47H132.73z"/>
		<path d="M138.03,134.07h0.02c0.34-0.5,0.74-0.66,1.31-0.66c1.1,0,1.54,0.7,1.54,1.7v2.53h-1.46v-2c0-0.39,0.06-1.08-0.66-1.08
			c-0.59,0-0.76,0.44-0.76,0.95v2.13h-1.46v-4.1h1.46V134.07z"/>
		<path d="M144.95,137.19h-0.02c-0.26,0.41-0.76,0.59-1.24,0.59c-1.22,0-2.07-1.02-2.07-2.19c0-1.18,0.84-2.18,2.06-2.18
			c0.47,0,0.97,0.18,1.27,0.54v-2.93h1.46v6.64h-1.46V137.19z M143.13,135.6c0,0.52,0.34,0.92,0.94,0.92c0.59,0,0.93-0.4,0.93-0.92
			c0-0.5-0.34-0.93-0.93-0.93C143.47,134.67,143.13,135.1,143.13,135.6z"/>
		<path d="M151.96,135.6c0,1.39-1.15,2.18-2.47,2.18c-1.31,0-2.47-0.78-2.47-2.18s1.15-2.19,2.47-2.19S151.96,134.2,151.96,135.6z
			 M148.55,135.6c0,0.52,0.34,0.92,0.94,0.92s0.94-0.4,0.94-0.92c0-0.5-0.34-0.93-0.94-0.93S148.55,135.1,148.55,135.6z"/>
		<path d="M156.77,134.01h0.02c0.26-0.41,0.76-0.6,1.24-0.6c1.22,0,2.07,1.02,2.07,2.2c0,1.18-0.84,2.17-2.05,2.17
			c-0.47,0-0.96-0.17-1.27-0.53v2.44h-1.46v-6.15h1.46V134.01z M156.72,135.6c0,0.52,0.34,0.92,0.94,0.92s0.94-0.4,0.94-0.92
			c0-0.5-0.34-0.93-0.94-0.93S156.72,135.1,156.72,135.6z"/>
		<path d="M165.03,135.84h-3.06c0,0.59,0.31,0.91,0.91,0.91c0.31,0,0.54-0.1,0.7-0.38h1.4c-0.23,0.97-1.15,1.41-2.09,1.41
			c-1.36,0-2.38-0.77-2.38-2.18c0-1.37,0.94-2.19,2.27-2.19c1.42,0,2.25,0.88,2.25,2.28V135.84z M163.68,135
			c-0.07-0.39-0.43-0.65-0.82-0.65c-0.42,0-0.78,0.22-0.86,0.65H163.68z"/>
		<path d="M168.66,134.88c-0.22-0.16-0.47-0.29-0.75-0.29c-0.56,0-1,0.43-1,1c0,0.59,0.42,1.01,1.02,1.01c0.26,0,0.54-0.1,0.73-0.28
			v1.23c-0.32,0.16-0.67,0.23-1.02,0.23c-1.22,0-2.23-0.9-2.23-2.14c0-1.32,1.01-2.23,2.29-2.23c0.34,0,0.67,0.08,0.96,0.24V134.88z
			"/>
		<path d="M170.99,133.55v2.19c0,0.52,0.13,0.89,0.73,0.89s0.73-0.37,0.73-0.89v-2.19h1.46v2.47c0,1.35-0.95,1.77-2.18,1.77
			s-2.18-0.42-2.18-1.77v-2.47H170.99z"/>
		<path d="M179.32,137.65h-1.46v-0.46h-0.02c-0.26,0.41-0.76,0.59-1.24,0.59c-1.21,0-2.07-1.02-2.07-2.19
			c0-1.18,0.84-2.18,2.05-2.18c0.47,0,0.97,0.18,1.27,0.54v-0.4h1.46V137.65z M176.04,135.6c0,0.52,0.34,0.92,0.94,0.92
			s0.94-0.4,0.94-0.92c0-0.5-0.34-0.93-0.94-0.93S176.04,135.1,176.04,135.6z"/>
		<path d="M181.75,134.22h0.02c0.28-0.5,0.76-0.73,1.33-0.73h0.28v1.4c-0.2-0.11-0.39-0.14-0.62-0.14c-0.81,0-1.01,0.54-1.01,1.24
			v1.66h-1.46v-4.1h1.46V134.22z"/>
		<path d="M185.46,131.97c0,0.45-0.37,0.82-0.82,0.82c-0.45,0-0.82-0.37-0.82-0.82s0.37-0.82,0.82-0.82
			C185.09,131.16,185.46,131.52,185.46,131.97z M185.37,137.65h-1.46v-4.1h1.46V137.65z"/>
		<path d="M190.97,135.6c0,1.39-1.15,2.18-2.47,2.18c-1.31,0-2.47-0.78-2.47-2.18s1.15-2.19,2.47-2.19S190.97,134.2,190.97,135.6z
			 M187.56,135.6c0,0.52,0.34,0.92,0.94,0.92s0.94-0.4,0.94-0.92c0-0.5-0.34-0.93-0.94-0.93S187.56,135.1,187.56,135.6z"/>
	</g>
	<g>
		<g>
			<g>
				<g>
					<path d="M126.77,84.01v34.97c0,5.45-2.33,8.17-6.98,8.17h-4.87c-4.61,0-6.92-2.74-6.92-8.23V84.01h5.77v35.09
						c0,1.88,0.84,2.82,2.53,2.82h2.34c1.56,0,2.35-0.94,2.35-2.82V84.01H126.77z"/>
				</g>
			</g>
		</g>
	</g>
	<g>
		<g>
			<g>
				<g>
					<g>
						<path d="M64.58,126.98V83.84H78.9v5.23h-8.54v13.1h7.58v5.23h-7.58v14.36h8.54v5.23H64.58z"/>
					</g>
				</g>
			</g>
		</g>
	</g>
	<g>
		<g>
			<g>
				<g>
					<g>
						<path d="M41.81,83.82h10.53c4.65,0,6.98,2.46,6.98,7.39V104c0,3.33-1.07,5.52-3.21,6.58c-1,0.5-2.24,0.75-3.71,0.75h-4.81
							v15.62h-5.77V83.82z M47.58,106.11h3.67c1.52,0,2.29-0.84,2.29-2.52V91.57c0-1.68-0.86-2.52-2.59-2.52h-3.37V106.11z"/>
					</g>
				</g>
			</g>
		</g>
	</g>
	<g>
		<g>
			<g>
				<g>
					<g>
						<path d="M102.89,127.03l-3.74-16.66c1.8-1.15,2.72-3.23,2.72-6.29v-12.8c0-4.93-2.33-7.39-6.98-7.39H84.36v43.14h5.77v-15.62
							h3.88l3.4,15.62H102.89z M90.13,89.12h3.37c1.72,0,2.59,0.84,2.59,2.52v12.02c0,1.68-0.76,2.52-2.29,2.52h-3.67V89.12z"/>
					</g>
				</g>
			</g>
		</g>
	</g>
	<g>
		<g>
			<g>
				<path d="M193.1,117.27v2.65c0,4.69-2.21,7.03-6.63,7.03h-3.58c-4.42,0-8-1.46-9.79-7.03l3.15-27.3c0-4.69,2.21-7.03,6.63-7.03
					l0.91-1.65c4.42,0,9.3,4,9.3,8.68v4.67h-5.54v-4.26c0-1.61-0.83-2.42-2.48-2.42h-1.1c-1.46,0-2.19,0.81-2.19,2.42v26.5
					c0,1.61,0.73,2.42,2.19,2.42h1.39c1.46,0,2.19-0.81,2.19-2.42l2.27-3.92L193.1,117.27z"/>
			</g>
		</g>
	</g>
	<path d="M187.58,121.98l4.74,1.94c-1,2.01-2.95,3.02-5.85,3.02h-3.58c-4.42,0-8-1.46-9.79-7.03L187.58,121.98z"/>
	<polygon points="193.1,97.28 189.84,95.61 184.3,95.61 187.56,97.28 	"/>
	<path fill="#243061" d="M182.43,87.95h-1.1c-1.46,0-2.19,0.81-2.19,2.42l-4.44-1.6c0,0-0.1-3.83,3.83-3.83
		C182.47,84.93,182.43,87.95,182.43,87.95z"/>
	<g>
		<g>
			<g>
				<path fill="#9F9F9F" d="M189.84,115.6v2.65c0,4.69-2.21,7.03-6.63,7.03h-3.57c-4.42,0-6.63-2.34-6.63-7.03v-27.3
					c0-4.69,2.21-7.03,6.63-7.03h3.57c4.42,0,6.63,2.34,6.63,7.03v4.67h-5.54v-4.26c0-1.61-0.83-2.42-2.48-2.42h-1.1
					c-1.46,0-2.19,0.81-2.19,2.42v26.5c0,1.61,0.73,2.42,2.19,2.42h1.39c1.46,0,2.19-0.81,2.19-2.42v-2.24H189.84z"/>
			</g>
		</g>
	</g>
	<g>
		<g>
			<g>
				<g>
					<g>
						<path d="M157.19,127.11V85.75l10.47-1.67l3.26,1.67v5.01h-8.19v12.56l4-1.67l3.26,1.67v5.01h-7.27v13.77l4.93-1.67l3.26,1.67
							v5.01H157.19z"/>
					</g>
				</g>
			</g>
			<g>
				<g>
					<g>
						<path fill="#9F9F9F" d="M153.93,125.44V84.08h13.73v5.01h-8.19v12.56h7.27v5.01h-7.27v13.77h8.19v5.01H153.93z"/>
					</g>
				</g>
			</g>
			<polygon points="170.92,127.11 167.66,125.44 153.93,125.44 157.19,127.11 			"/>
			<polygon points="170,108.33 166.74,106.66 159.47,106.66 162.73,108.33 			"/>
			<polygon points="170.92,90.76 167.66,89.09 159.47,89.09 162.73,90.76 			"/>
		</g>
	</g>
	<g>
		<g>
			<g>
				<g>
					<path d="M135.01,85.55l8.56-1.53c4.46,0,8.22,3.89,8.22,8.62v12.27c0,3.19-1.02,5.29-3.07,6.31c-0.96,0.48-2.15,0.72-3.56,0.72
						h-4.61v14.98h-5.54V85.55z M140.55,106.93h3.52c1.46,0,2.19-0.81,2.19-2.42V92.99c0-1.61-0.83-2.42-2.48-2.42h-3.23V106.93z"/>
				</g>
			</g>
		</g>
		<polygon points="140.55,126.92 137.28,125.24 131.75,125.24 135.01,126.92 		"/>
		<polygon points="146.08,90.57 142.82,88.9 137.28,88.9 140.55,90.57 		"/>
		<path d="M137.28,110.27l9.71-7.55l4.79,2.2c0,3.19-1.02,5.29-3.07,6.31c-0.96,0.48-2.15,0.72-3.56,0.72h-4.61L137.28,110.27z"/>
		<g>
			<g>
				<g>
					<path fill="#9F9F9F" d="M131.75,83.88h10.09c4.46,0,6.69,2.36,6.69,7.09v12.27c0,3.19-1.02,5.3-3.07,6.31
						c-0.96,0.48-2.15,0.72-3.56,0.72h-4.61v14.98h-5.54V83.88z M137.28,105.26h3.52c1.46,0,2.19-0.81,2.19-2.42V91.32
						c0-1.61-0.83-2.42-2.48-2.42h-3.23V105.26z"/>
				</g>
			</g>
		</g>
	</g>
</g>
<g>
</g>
<g>
</g>
<g>
</g>
<g>
</g>
<g>
</g>
<g>
</g>
<g>
</g>
<g>
</g>
<g>
</g>
<g>
</g>
<g>
</g>
<g>
</g>
<g>
</g>
<g>
</g>
<g>
</g>
</svg>
