<?xml version="1.0" encoding="utf-8"?>
<!-- Generator: Adobe Illustrator 23.0.0, SVG Export Plug-In . SVG Version: 6.00 Build 0)  -->
<svg version="1.1" id="Capa_1" xmlns="http://www.w3.org/2000/svg" xmlns:xlink="http://www.w3.org/1999/xlink" x="0px" y="0px"
	 viewBox="0 0 207.05 81.6" enable-background="new 0 0 207.05 81.6" xml:space="preserve">
<g>
	<path fill="#202020" d="M124.55,26.9c-1.83-3.93-3.12-0.61-3.12-0.61c-1.23,3.41-8.93,12.08-10.46,13.61
		c-6.43,5.58-4.2,2.1-4.72-0.4c0,0,0.27-4.54,1.55-5.56c0,0,0.68,0.3,1.2-2.45c0,0,1.55-3.58-2.59-4.25c0,0-2.83-1.94-4.12,3.54
		c0,0-2.42,10.35,0.88,15.08c0,0,1.71,3.11,10.39-5.36l-0.02-0.02c3.03-2.98,7.62-8.37,7.62-8.37c4.86,8.91-2.55,11.3-2.55,11.3
		c-2.77,1.81,0.05,2.23,0.05,2.23c11.4,0.24,12.31-6.65,12.31-6.65C131.26,34.04,124.55,26.9,124.55,26.9"/>
	<path fill="#202020" d="M81.67,44.08c0,0-0.85-0.57-0.8-3.12c0,0,0.24-4.44,3.25-8c0,0,0.84-1.07,1.53-1.2
		c0.23-0.04,0.6,0.29,0.77,1.65c0.04,0.33-0.92,0.4-0.57,1.46c0,0,1.61,4.07,4.99,2.23c-0.14,0.83-0.29,1.67-0.45,2.52
		C88.63,42.07,84.92,46.3,81.67,44.08 M96.05,5.99c0,0-3.7-4.67-3.08,0.71c0,0,0.5,11.24-1.35,25.22c-0.21-0.55-0.5-1.1-0.89-1.65
		c0,0-3.23-4.31-6.85-3.11c0,0-4.62,1.45-7.29,8.43c0,0-1.89,4.82-1.35,8.45c0,0-0.18,9.53,11.43,2.8c0,0,1.23-0.75,2.67-2.21
		c-0.28,1.19-0.73,1.97-0.78,3.2c0,0-0.41,2.52,0.74,3.15c0.44,0.25,0.91-0.09,1.93-2.54c0,0,8.25-21.17,8.69-29.9
		C99.92,18.53,102.82,14.19,96.05,5.99"/>
	<path fill="#202020" d="M114.61,16.33c0.18-1.7-0.86-3.21-2.33-3.36c-1.42-0.15-2.72,1.02-2.96,2.64c-0.15,0.7-0.15,1.25-0.19,2
		c-0.04,0.67-0.89,3.05-0.14,3.24c0.74,0.2,3.05-1.24,4.16-2.08C113.92,18.29,114.49,17.4,114.61,16.33"/>
	<path fill="#202020" d="M161.93,25.57c0,0-7.91,11.76-7.88,15.67c0,0-0.33,3.62,3.78,3.47c0,0,4.14-0.24,7.11-2.69
		c0,0,1.91-1.9,3.02-2.12c0,0,2.69,0.28,1.83-3.31c0,0-0.89-4.05-1.91-5.59c0,0-0.91-1.8-2.04-1.11c0,0-1.06,0.49-0.71,2.4
		c0,0-0.1,0.07,0.45,1.63c0,0,1.28,3.92,0.53,4.03c0,0-0.36,0.05-0.77,0.44c-0.24,0.23-0.72,0.75-1.23,1.11c0,0-3.61,2.43-2.81-1
		c0,0,0.49-2.06,1-3.34c0,0,2.02-5.65,4.24-8.67c0,0,2.17-2.6-0.48-2.39c-0.16,0.01-0.56,0.14-0.75,0.03
		C165.3,24.12,163.91,22.94,161.93,25.57"/>
	<path fill="#202020" d="M145.4,30.72L145.4,30.72c-1.4-0.88-2.98-4.14-1.75-5.69c0.54-0.67,1.64-1.27,1.48-2.23
		c-0.36-2.12-4.04,0.01-4.73,2.52c-1.37,3.81-5.5,6.25-5.5,6.25c-0.67,0.6-0.83,2.15-0.83,2.15c-0.13,2.81,1.67,0.83,1.67,0.83
		c2.58-1.99,4.41-3.41,4.41-3.41c4.86,8.91-2.56,11.3-2.56,11.3c-0.98,0.38-1.21,0.83-1.22,1.39c0.02,0.77,1.27,0.83,1.27,0.83
		c11.4,0.24,12.31-6.65,12.31-6.65C150.47,34.98,147.29,32.05,145.4,30.72"/>
	<path fill="#202020" d="M59.7,46.99c-0.35,0.56-0.68,1.19-1.59,1.78c0,0-4.65,2.85-4.48-1.17c0,0,0.16-2.23,0.92-4.3
		c0,0,2.14-5.44,5.46-8.61c0.3-0.31,0.57-0.34,0.74-0.11c0.46,0.63,0.54,1.35,0.89,1.95c0.09,0.16,0.2,0.32,0.31,0.47
		c-0.4,2.04-1.41,5.91-1.59,8.83C60.22,46.23,59.94,46.61,59.7,46.99 M71.95,44.47c0,0-0.02-0.13-0.14-0.24
		C71.5,44.02,70,44.7,68.5,45.6c-0.24,0.14-0.46,0.27-0.66,0.38c-0.55,0.34-1.08,0.68-1.29,0.87c0,0-0.96,0.77-0.86-0.96
		c0.01-0.02,0.01-0.04,0.01-0.07l0,0c0.02-0.38,0.09-0.87,0.11-1.39c0,0,1.32-5.26,1.89-6.74c0,0,0.31-1.39,0.8-2.97
		c0,0,2.25-2.34-1.88-3.09c0,0-1.97-4.85-4.1,2.79v0c-0.15-0.79-0.87-1.99-1.98-2.47c-0.22-0.13-0.54-0.22-0.97-0.26
		c-0.16-0.02-0.28,0.03-0.64-0.02c0,0-1.98-0.68-4.09,1.97c-2.26,2.48-8.83,10.36-7.33,16.96c0,0,0.81,3.42,3.85,3.4
		c0,0,4.02,0.05,7.05-2.83c0,0,0.91-0.81,1.88-2c0.04,0.41,0.1,0.85,0.22,1.29c0.02,0.09,0.04,0.17,0.06,0.25
		c0,0,0.11,0.77,0.74,1.34c0.46,0.43,1.2,0.75,2.39,0.59c0.12-0.02,0.24-0.05,0.37-0.09c0,0,4.25-1.03,4.14-2.84
		c-0.05-0.89,0.27-1.07,0.27-1.07s0.27-0.15,0.18-0.46C68.67,48.17,72.06,45.91,71.95,44.47"/>
	<path fill="#202020" d="M27.29,24.93c-0.31-0.57-1-0.25-2.64,2.41c0,0-14.06,23.76-16.9,35.02c0,0-3.12,7.78,1.06,10.58
		c0,0,0.93,1.47,2.07,1.74c0.32,1.69,0.92,3.24,2.08,2.71c0.4-0.19,0.46-1.57,0.42-2.91l0.02,0c-0.03-1.12,0.08-2.1,0.22-2.88
		c0.09-0.32,0.18-0.65,0.27-1.03c0,0,0.06-0.25,0.18-0.7c0.05-0.15,0.08-0.22,0.08-0.22l-0.03,0.01
		c1.29-5.08,7.73-29.97,12.88-40.51C26.99,29.15,28.18,26.56,27.29,24.93"/>
	<path fill="#202020" d="M197.6,42.01c-1.91-1.17-7.15-11.73-7.15-11.73c-1.22-1.83-3.3,0.39-3.3,0.39
		c-1.41,1.09-3.36,4.49-4.37,6.53c-1.34,2.29-0.99-0.7-0.99-0.7c0.07-0.81,0.31-2.1,1.22-2.7c0,0,0.7,0.58,1.48-2.1
		c0,0,1.48-3.53-2.18-4.48c0,0-2.64-2.2-4.43,3.14c0,0-2.48,7.73-1.49,12.55c0,0,0.46,5.65,5.24,1.22c0.48-0.44,0.98-1.13,1.52-1.89
		c0.97-1.52,1.25-2.07,1.93-3.65c1.17-2.74,3.23-5.22,3.6-5.63c-0.27,3.21,3.44,11.69,3.44,11.69c1.29,4.33,3.39,4.17,3.39,4.17
		C206.31,49.19,197.6,42.01,197.6,42.01"/>
	<g>
		<path fill="#ACACAC" d="M32.87,67.44c0.32-0.39,0.63-1,2.27-1.4c0,0,55.94-19,130.35-15.2c0,0,4.22-0.15,3.08,1.69
			c-0.67,1.08-1.93,1.15-4.31,1.28c0,0-0.81,0.12-3.98,0.09c0,0,7.61,2.95-22.43,2.34c0,0,2.65,2.7-8.39,1.93
			c0,0-30.8-1.4-93.07,9.88C36.39,68.06,31.5,69.11,32.87,67.44"/>
		<path fill="#ACACAC" d="M173.63,51.29c2.28,0.14,4.83,0.18,8.38,0.51c1.84,0.18,4.68,0.18,5.08,1.37c0.37,1.1-1.02,2.22-3.49,2.7
			c-1.26,0.24-2.05,0.45-3.18,0.41c-1.34-0.05-4.21,0.06-4.29-1.49c-0.06-0.97-1.93-0.96-3.18-1.01c-2.51-0.1-2.25-0.81-1.7-1.66
			C171.57,51.61,172.26,51.27,173.63,51.29"/>
	</g>
	<path fill="#202020" d="M199.51,31.67c0.33,0,0.63,0.02,0.63,0.37c0,0.38-0.51,0.31-0.9,0.31h-0.42v-0.69H199.51z M199.79,32.76
		c0.37-0.02,0.74-0.22,0.74-0.76c0-0.59-0.45-0.74-0.96-0.74h-1.17v2.78h0.41v-1.28h0.51l0.71,1.28h0.46L199.79,32.76z
		 M199.37,35.11c1.38,0,2.48-1.1,2.48-2.47c0-1.38-1.1-2.47-2.48-2.47c-1.38,0-2.48,1.09-2.48,2.47
		C196.89,34.01,197.99,35.11,199.37,35.11 M199.37,30.56c1.14,0,2.08,0.9,2.08,2.07c0,1.16-0.94,2.06-2.08,2.06s-2.08-0.9-2.08-2.06
		C197.29,31.46,198.23,30.56,199.37,30.56"/>
	<path fill="#202020" d="M48.66,64.76c0,0-12.11-18.2-13.34-22.07c0,0-0.54-1.47-1.28-2.31c0.78,0,1.65-0.03,2.65-0.09
		c0,0,6.42-0.12,9.14-5.08c0.74-1.36,2.18-6.03-3.36-11.9c0,0-7-8.32-22.9-9.37c0,0-4.29-2.03-12.48,4.75c0,0-3.08,2.45-1.35,3.03
		c0.79,0.26,1.34,0.26,2.06,0.05c0,0,13.29-4.5,29.79,4.99c0,0,6.51,4.12,2.46,8.22c0,0-1.61,1.78-5.71,2.43c0,0-0.98,0.18-2.9,0.38
		c0,0-0.96,0.08-2.27,0.14c0,0-1.66-0.01-1.84,0.48c-0.08,0.3,0.21,0.42,1.11,0.85c0.01,0-0.01,0,0,0
		c-1.72,0.19-2.37,0.44-2.78,0.89c0,0-0.33,0.4-0.16,0.84c1.15,3.05,6.4,15.6,18.28,25.45c0,0,6.83,5.33,8.34,4.01
		C52.59,70.07,50.88,67.87,48.66,64.76"/>
</g>
<g>
</g>
<g>
</g>
<g>
</g>
<g>
</g>
<g>
</g>
<g>
</g>
<g>
</g>
<g>
</g>
<g>
</g>
<g>
</g>
<g>
</g>
<g>
</g>
<g>
</g>
<g>
</g>
<g>
</g>
</svg>
