<?xml version="1.0" encoding="utf-8"?>
<!-- Generator: Adobe Illustrator 23.0.0, SVG Export Plug-In . SVG Version: 6.00 Build 0)  -->
<svg version="1.1" id="Capa_1" xmlns="http://www.w3.org/2000/svg" xmlns:xlink="http://www.w3.org/1999/xlink" x="0px" y="0px"
	 viewBox="0 0 216.79 63.16" enable-background="new 0 0 216.79 63.16" xml:space="preserve">
<g>
	<g>
		<path fill-rule="evenodd" clip-rule="evenodd" fill="#111820" d="M46.04,4.97c3.93,9.28-13.14,19.9-19.89,23.56
			c-3.34,1.81-7.64,4.25-9.57,6.05c0,0-6.17,4.98-7.38,11.23c0,0-1.63,7.43,4.63,7.52c0,0-5.18,2.78-7.92-3.98
			c-2.59-6.4,0.17-13.49,4.52-18.56c2.74-3.19,6.1-5.46,9.82-7.44c0,0,2.68-1.25,5.35-2.39C32.59,18,44.76,13.22,46.04,4.97"/>
		<path fill-rule="evenodd" clip-rule="evenodd" fill="#111820" d="M24.22,35.52c0,0,0.89,0.47,1.79,0.85
			c1.66,0.7,2.32,0.56,3.85-0.2c0.54-0.27,0.99-0.61,1.54-0.85c0.92-0.4,2.05-0.57,1.91,0.92c0,0,0.73-0.51,0.23-1.22
			c-0.23-0.32-0.36-0.43-0.71-0.59c-0.34-0.15-0.86-0.33-1.39-0.27c-0.31,0.03-0.73,0.22-1.03,0.33c-1.86,0.74-2.06,1.25-4.09,0.51
			c-0.45-0.16-1.18-0.42-1.88-0.6c0,0-2.04-0.58-2.68,0.36c0,0-0.45,0.57,0.02,1.25l0.1,0.12C21.66,34.34,22.85,34.86,24.22,35.52"
			/>
		<path fill-rule="evenodd" clip-rule="evenodd" fill="#111820" d="M19.1,44.67c4.15,1.87,3.74,2.57,9.16,2.54
			c1.63-0.01,2.9,0.01,4.42-0.56c1.22-0.46,2.41-1.63,3.45-2.45c0,0-0.8,0.25-1.84,0.07c-0.78-0.13-1.84-0.8-2.47-0.77
			c0,0-0.25,0-0.57,0.14c-0.16,0.07-0.33,0.17-0.51,0.31c-0.15,0.14-0.31,0.25-0.48,0.36c-0.63,0.38-1.37,0.53-2.13,0.52
			c-0.94-0.01-1.54-0.36-2.36-0.73c-0.28-0.13-0.57-0.27-0.77-0.38c0,0-0.43-0.17-1.03-0.13c-0.7,0.04-1.11,0.35-1.73,0.59
			C21.25,44.55,20.07,44.8,19.1,44.67 M15.75,42.79c0,0,0.14,1.24,2.22,1.71c0,0,1.22,1,1.83,1.72c2.18,2.4,3.41,2.83,6.62,3.16
			c0,0,3.43,0.2,4.81-0.29c0,0,2.2-0.3,3.96-2.54c0,0,1.01-1.43,1.54-2.32l0.15-0.17c0,0,1.65-0.33,1.78-1.44
			c0,0-0.18,0.45-1.26,0.65c0,0-2.13,0-2.58-0.37c0,0-1.97-1.35-2.8-1.38c0,0-1.07-0.2-1.71,0.13c0,0-1.16,0.62-1.48,0.68
			c0,0-0.6,0.19-1.18-0.05c0,0-1.31-0.68-1.99-0.87c0,0-1.51-0.39-2.45,0.08c0,0-1.49,0.55-2.37,1.23c0,0-1.2,0.87-2.85,0.89
			c0,0-1.6-0.4-2.12-0.81l-0.15-0.08L15.75,42.79z"/>
		<path fill="#111820" d="M53.21,18.44h4.31v17.33c0,1.7,0.13,2.24,0.4,2.91c0.27,0.67,0.73,1.22,1.39,1.63
			c0.69,0.43,1.52,0.73,2.48,0.9c0.96,0.17,2.62,0.25,4.97,0.25h4.06c2.37,0,4.04-0.08,5.01-0.25c0.98-0.17,1.8-0.47,2.5-0.9
			c0.64-0.4,1.09-0.94,1.35-1.61c0.26-0.68,0.39-1.22,0.39-2.93V18.44h4.31v17.68c0,3.37-0.97,5.72-2.93,7.04
			c-1.94,1.33-5.38,2-10.32,2h-4.68c-4.93,0-8.38-0.67-10.32-2c-1.95-1.33-2.92-3.68-2.92-7.04V18.44z"/>
		<path fill="#111820" d="M132.26,45.34v-22.5h3.48v22.5H132.26z M132.26,17.28v-3.76h3.48v3.76H132.26z"/>
		<path fill="#111820" d="M193.6,45.34c-3.68,0-6.25-0.66-7.72-1.99c-1.46-1.32-2.2-3.64-2.2-6.96v-5.37c0-3.34,0.73-5.33,2.19-6.66
			c1.46-1.32,4.02-1.98,7.68-1.98h1.71c3.68,0,6.26,0.66,7.73,1.98c1.47,1.32,2.2,3.32,2.2,6.66v2.77l-17.73,0.02
			c-0.01,0.23-0.02,1.14-0.03,1.41c-0.01,0.28-0.02,0.67-0.02,1.17c0,2.35,0.41,3.58,1.22,4.38c0.81,0.8,2.44,1.2,4.91,1.2h1.71
			c2.2,0,3.72-0.29,4.58-0.88c0.39-0.26,0.71-0.62,0.95-1.06c0.14-0.26,0.26-0.56,0.35-0.88c0.08-0.29,0.14-0.61,0.18-0.95
			c0.01-0.05,0.01-2.77,0.02-2.83h3.81c0,0.04-0.01,3.08-0.01,3.12c-0.02,0.19-0.04,0.38-0.06,0.56c-0.03,0.25-0.08,0.49-0.12,0.73
			c-0.36,1.74-1.16,3.05-2.39,3.92c-1.53,1.1-3.95,1.64-7.27,1.64H193.6z M187.46,30.84h13.94v-0.88c0-2.12-0.41-2.92-1.24-3.68
			c-0.83-0.76-2.47-0.81-4.91-0.81h-1.71c-2.43,0-4.06,0.05-4.87,0.81c-0.81,0.76-1.21,1.55-1.21,3.68V30.84z"/>
		<path fill="#111820" d="M170.79,45.34c-3.83,0-6.51-0.6-8.06-1.81c-1.54-1.2-2.31-3.31-2.31-6.32V22.3h3.67V36.5
			c0,2.36,0.46,3.59,1.37,4.34c0.83,0.68,3.05,1.05,5.33,1.11c2.28-0.06,4.5-0.43,5.33-1.11c0.91-0.75,1.37-1.98,1.37-4.34V22.3
			h3.67v14.92c0,3.01-0.77,5.12-2.31,6.32C177.3,44.74,174.62,45.34,170.79,45.34"/>
		<path fill="#111820" d="M96.41,22.54c-4.03,0-6.85,0.6-8.47,1.79c-1.62,1.19-1.76,3.28-1.76,6.27v14.74h3.55V31.31
			c0-2.35,0.35-3.7,1.3-4.44c0.88-0.68,2.85-1.05,5.26-1.1c2.4,0.05,4.38,0.42,5.26,1.1c0.95,0.74,1.53,2.09,1.53,4.44v14.03h3.56
			V30.6c0-2.99-0.15-5.08-1.76-6.27C103.26,23.14,100.43,22.54,96.41,22.54"/>
		<path fill="#111820" d="M119.79,22.54c-4.03,0-6.85,0.6-8.47,1.79c-1.62,1.19-1.76,3.28-1.76,6.27v14.74h3.55V31.31
			c0-2.35,0.35-3.7,1.3-4.44c0.87-0.68,2.85-1.05,5.26-1.1c2.41,0.05,4.38,0.42,5.26,1.1c0.95,0.74,1.53,2.09,1.53,4.44v14.03h3.55
			V30.6c0-2.99-0.15-5.08-1.76-6.27C126.64,23.14,123.82,22.54,119.79,22.54"/>
		<path fill-rule="evenodd" clip-rule="evenodd" fill="#111820" d="M137.52,31.02v5.74c0,0.71,0.06,1.48,0.17,2.16
			c0.2,1.26,0.56,2.37,1.26,3.4c0.16,0.24,0.35,0.44,0.53,0.64c0.18,0.19,0.41,0.39,0.62,0.55c1.37,1.07,3.52,1.52,5.35,1.7
			c1.98,0.19,4.5,0.16,6.46-0.15c1.01-0.16,2.01-0.42,2.87-0.8l0,9.2h3.82c0.02-0.13,0-4.05,0-4.17V37.82
			c0-0.34,0.03-0.68,0.03-1.02v-5.99c0-1.24-0.24-2.82-0.67-3.96c-0.46-1.21-1.15-2.09-1.97-2.68c-0.44-0.32-0.93-0.59-1.51-0.82
			c-1.78-0.71-4.13-0.95-6.07-0.95c-1.07,0-1.82,0.01-2.91,0.11c-1.25,0.11-2.73,0.38-3.87,0.86c-0.5,0.21-0.73,0.33-1.17,0.6
			c-0.13,0.08-0.23,0.16-0.35,0.24c-0.06,0.04-0.1,0.08-0.16,0.13c-0.06,0.04-0.11,0.08-0.16,0.13c-0.05,0.05-0.09,0.08-0.15,0.14
			c-0.05,0.05-0.1,0.1-0.15,0.15c-0.1,0.09-0.18,0.2-0.27,0.31c-0.08,0.1-0.18,0.22-0.26,0.34c-0.19,0.28-0.28,0.42-0.44,0.73
			C137.79,27.58,137.52,29.36,137.52,31.02 M147.3,25.14c0.38-0.04,1.51,0,1.87,0.02c0.57,0.03,1.18,0.09,1.72,0.2
			c1.13,0.23,2.03,0.56,2.57,1.24c1.16,1.45,1.08,4.65,1.08,6.5c0,0.63,0,1.26,0,1.89c0,1.63,0,3.6-0.6,5.08
			c-0.39,0.98-0.93,1.46-1.98,1.83c-1.03,0.36-2.16,0.45-3.33,0.51c-1.51,0.07-4.75-0.04-5.95-1.23c-0.42-0.42-0.65-0.89-0.85-1.52
			c-0.49-1.52-0.45-3.61-0.45-5.22c0-0.63,0-1.26,0-1.9c0-1.61,0.01-3.61,0.6-5.07c0.29-0.71,0.66-1.19,1.32-1.54
			c1.04-0.55,2.35-0.7,3.53-0.78C146.99,25.15,147.16,25.15,147.3,25.14z"/>
		<path fill="#111820" d="M178.79,53.6c0,0.51-0.19,0.94-0.56,1.3c-0.38,0.36-0.82,0.53-1.34,0.53h-1.85
			c-0.52,0-0.97-0.18-1.35-0.53c-0.38-0.35-0.57-0.79-0.57-1.3v-6.15c0-0.15,0.05-0.27,0.17-0.37c0.11-0.1,0.24-0.15,0.39-0.15
			c0.15,0,0.28,0.05,0.39,0.15c0.11,0.1,0.17,0.22,0.17,0.37v1.86c0.26-0.11,0.53-0.16,0.82-0.16h1.85c0.52,0,0.97,0.18,1.34,0.53
			c0.37,0.36,0.56,0.79,0.56,1.3V53.6z M177.7,53.6v-2.62c0-0.22-0.08-0.4-0.24-0.55c-0.16-0.15-0.35-0.22-0.57-0.22h-1.85
			c-0.22,0-0.42,0.07-0.58,0.22c-0.16,0.15-0.24,0.33-0.24,0.55v2.62c0,0.22,0.08,0.4,0.24,0.55c0.16,0.15,0.35,0.23,0.58,0.23h1.85
			c0.22,0,0.41-0.08,0.57-0.23C177.62,54,177.7,53.81,177.7,53.6z"/>
		<path fill="#111820" d="M180.03,57.84l-0.12-1c0.24,0.06,0.44,0.09,0.62,0.09c0.24,0,0.43-0.04,0.58-0.12
			c0.14-0.08,0.26-0.19,0.36-0.33c0.07-0.11,0.18-0.37,0.33-0.79c0.02-0.06,0.05-0.15,0.1-0.26l-2.42-6.3h1.17l1.33,3.64
			c0.17,0.46,0.33,0.95,0.46,1.46c0.12-0.49,0.27-0.97,0.44-1.43l1.37-3.67h1.08l-2.43,6.4c-0.26,0.69-0.46,1.17-0.61,1.43
			c-0.19,0.35-0.41,0.61-0.66,0.77c-0.25,0.16-0.55,0.25-0.89,0.25C180.51,57.97,180.28,57.93,180.03,57.84"/>
		<path fill="#111820" d="M191.46,54.9c0,0.15-0.05,0.27-0.16,0.37c-0.11,0.1-0.23,0.15-0.38,0.15c-0.39,0-0.72-0.13-1.01-0.39
			c-0.28-0.26-0.42-0.58-0.42-0.96v-6.62c0-0.15,0.06-0.27,0.17-0.37c0.11-0.1,0.24-0.15,0.39-0.15c0.15,0,0.28,0.05,0.39,0.15
			c0.11,0.1,0.16,0.22,0.16,0.37v6.62c0,0.2,0.11,0.3,0.32,0.3c0.15,0,0.28,0.05,0.38,0.16C191.41,54.63,191.46,54.76,191.46,54.9"
			/>
		<path fill="#111820" d="M197.59,53.62c0,0.51-0.19,0.93-0.57,1.28c-0.38,0.35-0.83,0.52-1.35,0.52h-1.85
			c-0.52,0-0.97-0.17-1.34-0.52c-0.39-0.35-0.57-1.3-0.58-1.81c-0.01-1.33,0.82-1.4,2.62-1.41c0.49,0,1.14,0.02,1.96-0.06l0-0.69
			c0-0.21-0.08-0.39-0.24-0.54c-0.16-0.15-0.35-0.22-0.57-0.22h-1.85c-0.22,0-0.41,0.07-0.57,0.22c-0.16,0.15-0.24,0.33-0.24,0.54
			c0,0.15-0.06,0.27-0.17,0.37c-0.11,0.1-0.24,0.16-0.39,0.16c-0.15,0-0.28-0.05-0.39-0.16c-0.11-0.1-0.16-0.23-0.16-0.38
			c0-0.5,0.19-0.93,0.58-1.29c0.37-0.34,0.82-0.51,1.34-0.51h1.85c0.52,0,0.97,0.17,1.35,0.52c0.38,0.35,0.57,0.78,0.57,1.28V53.62z
			 M196.49,53.62l-0.07-1.1c-0.4-0.01-0.8,0.02-1.24,0.01c-0.67-0.02-1.29,0.05-1.66,0.09c-0.53,0.04-0.58,0.51-0.58,0.86
			c0,0.21,0.16,0.54,0.32,0.69c0.16,0.15,0.35,0.22,0.57,0.22h1.85c0.22,0,0.41-0.07,0.57-0.22
			C196.41,54.01,196.49,53.83,196.49,53.62z"/>
		<path fill="#111820" d="M204.2,56.82c0,0.38-0.14,0.7-0.42,0.97c-0.28,0.27-0.61,0.4-1,0.4l-3.17-0.03
			c-0.45,0-0.95-0.69-0.95-1.88c0-0.15,0.12-0.8,0.77-0.43c0.21,0.12,0.03,1.18,0.49,1.34c0.67,0.24,2.89,0.1,2.89,0.1
			c0.22,0,0.29-0.27,0.29-0.48v-1.57c-0.26,0.12-0.53,0.18-0.81,0.18h-1.85c-0.52,0-0.97-0.18-1.35-0.53
			c-0.38-0.36-0.57-0.79-0.57-1.3v-2.62c0-0.51,0.19-0.94,0.57-1.3c0.38-0.36,0.83-0.53,1.35-0.53h1.85c0.52,0,0.97,0.18,1.34,0.53
			c0.38,0.36,0.56,0.79,0.56,1.3V56.82z M203.11,53.6v-2.62c0-0.22-0.08-0.4-0.24-0.55c-0.16-0.15-0.35-0.22-0.57-0.22h-1.85
			c-0.22,0-0.41,0.07-0.57,0.22c-0.16,0.15-0.24,0.33-0.24,0.55v2.62c0,0.22,0.08,0.4,0.24,0.55c0.16,0.15,0.35,0.23,0.57,0.23h1.85
			c0.22,0,0.41-0.08,0.57-0.23C203.03,54,203.11,53.81,203.11,53.6z"/>
	</g>
	<g>
		<path d="M211.18,22.49c0,1.55-1.21,2.76-2.79,2.76c-1.56,0-2.81-1.21-2.81-2.76c0-1.51,1.25-2.73,2.81-2.73
			C209.97,19.76,211.18,20.98,211.18,22.49z M206.28,22.49c0,1.21,0.9,2.18,2.13,2.18c1.2,0,2.08-0.96,2.08-2.16
			c0-1.21-0.88-2.19-2.09-2.19S206.28,21.29,206.28,22.49z M207.96,23.92h-0.63v-2.73c0.25-0.05,0.6-0.08,1.05-0.08
			c0.51,0,0.75,0.08,0.95,0.2c0.15,0.12,0.27,0.33,0.27,0.6c0,0.3-0.23,0.53-0.56,0.63v0.03c0.27,0.1,0.42,0.3,0.5,0.66
			c0.08,0.42,0.13,0.58,0.2,0.68h-0.68c-0.08-0.1-0.13-0.35-0.22-0.66c-0.05-0.3-0.22-0.43-0.56-0.43h-0.3V23.92z M207.97,22.37h0.3
			c0.35,0,0.63-0.12,0.63-0.4c0-0.25-0.18-0.42-0.58-0.42c-0.17,0-0.28,0.02-0.35,0.03V22.37z"/>
	</g>
</g>
<g>
</g>
<g>
</g>
<g>
</g>
<g>
</g>
<g>
</g>
<g>
</g>
<g>
</g>
<g>
</g>
<g>
</g>
<g>
</g>
<g>
</g>
<g>
</g>
<g>
</g>
<g>
</g>
<g>
</g>
</svg>
