<?xml version="1.0" encoding="utf-8"?>
<!-- Generator: Adobe Illustrator 23.0.0, SVG Export Plug-In . SVG Version: 6.00 Build 0)  -->
<svg version="1.1" id="Capa_1" xmlns="http://www.w3.org/2000/svg" xmlns:xlink="http://www.w3.org/1999/xlink" x="0px" y="0px"
	 viewBox="0 0 317.93 175.94" enable-background="new 0 0 317.93 175.94" xml:space="preserve">
<g>
	<g>
		<g>
			<g>
				<path fill="#231F20" d="M161.1,107.59c2.1,0,3.77,0.29,5.74,0.79l-0.75,3.41c-2.72-0.66-3.77-0.66-4.98-0.66
					c-2.56,0-3.93,1.7-3.93,4.98c0,3.28,1.38,5.02,3.93,5.02c1.21,0,2.26,0,4.98-0.66l0.75,3.38c-1.97,0.49-3.64,0.79-5.74,0.79
					c-6.36,0-8.46-3.34-8.46-8.52C152.64,110.97,154.74,107.59,161.1,107.59z"/>
				<path fill="#231F20" d="M171.03,111.76l-0.62-3.41c2.33-0.46,4.79-0.75,6.75-0.75c4.16,0,6.46,1.08,6.46,5.51v11.21h-4.26v-1.64
					c-0.03,0-0.03,0-0.07,0c-1.41,1.44-2.79,1.97-4.85,1.97c-3.28,0-5.08-2.2-5.08-5.05c0-4,3.67-5.11,6.88-5.11h3.11v-1.15
					c0-1.67-1.05-2.2-3.18-2.2C174.86,111.13,173.39,111.26,171.03,111.76z M179.35,117.03h-2.85c-1.93,0-2.88,0.69-2.88,2.2
					c0,1.44,1.15,2.13,2.56,2.13c1.34,0,2.59-0.56,3.18-1.02V117.03z"/>
				<path fill="#231F20" d="M189.35,110.97h-2.2v-2.79l2.2-0.26l0.52-4.59h3.74v4.59h4.1v3.05h-4.1v7.9c0,1.54,0.66,2.36,2.39,2.36
					c0.39,0,0.88-0.03,1.51-0.16l0.36,3.28c-0.92,0.2-2.46,0.29-3.34,0.29c-3.74,0-5.18-1.54-5.18-5.01V110.97z"/>
				<path fill="#231F20" d="M205.08,117.03c0.1,2.46,1.47,4.1,4.49,4.1c1.41,0,2.98-0.07,5.11-0.66l0.49,3.38
					c-2.16,0.62-4.1,0.79-6.23,0.79c-6.29,0-8.52-3.34-8.52-8.52c0-5.15,2.23-8.52,8.46-8.52c4.92,0,6.56,2.46,6.88,5.31
					c0.16,1.25,0.07,2.65-0.13,4.13H205.08z M205.08,114.35h6.36c0.07-0.43,0.1-0.88,0.07-1.28c-0.13-1.25-0.88-2.2-2.88-2.2
					C206.26,110.87,205.24,112.25,205.08,114.35z"/>
				<path fill="#231F20" d="M221.59,123.52c-0.88-0.52-1.31-1.38-1.28-2.26c0-1.21,0.82-2.56,2.49-3.44v-0.07
					c-1.64-0.82-2.66-2.52-2.66-4.59c0-3.77,2.72-5.57,6.92-5.57c0.85,0,1.71,0.13,2.36,0.33h6.06v2.56h-2.62
					c0.62,0.66,0.95,1.61,0.95,2.69c0,3.8-2.85,5.51-6.75,5.51c-1.02,0-1.8-0.23-2.1-0.33c-0.2,0.23-0.33,0.49-0.46,0.72
					c-0.29,0.75-0.26,1.61,0.82,1.67l5.57,0.39c3.34,0.23,5.01,1.51,5.01,4.1c0,4.16-3.15,5.97-9.83,5.97
					c-4.85,0-7.05-1.34-7.05-4.26c0-1.41,0.75-2.46,2.56-3.34V123.52z M226.77,128.41c2.36,0,4.62-0.72,4.62-2.39
					c0-0.75-0.56-1.41-2-1.51l-5.74-0.33c-0.62,0.59-1.12,1.02-1.12,2.03C222.54,127.91,224.51,128.41,226.77,128.41z
					 M229.92,113.17c0-1.84-1.15-2.79-2.85-2.79c-1.84,0-2.92,0.95-2.92,2.79s1.15,2.72,2.92,2.72
					C228.77,115.89,229.92,115,229.92,113.17z"/>
				<path fill="#231F20" d="M238.3,116.11c0-5.15,2.2-8.52,7.96-8.52c5.77,0,7.93,3.38,7.93,8.52c0,5.18-2.16,8.52-7.93,8.52
					C240.5,124.64,238.3,121.29,238.3,116.11z M242.83,116.11c0,3.05,0.75,5.02,3.44,5.02s3.44-1.97,3.44-5.02
					c0-3.01-0.75-4.98-3.44-4.98S242.83,113.1,242.83,116.11z"/>
				<path fill="#231F20" d="M262.55,124.31h-4.26v-16.39h4.26v2.62h0.07c1.05-1.47,3.05-2.95,5.67-2.95v4.03
					c-2.2,0-4.42,0.59-5.74,1.25V124.31z"/>
				<path fill="#231F20" d="M276.31,107.92v16.39h-4.26v-16.39H276.31z M275.43,105.95h-2.29l1.8-3.93h3.51L275.43,105.95z"/>
				<path fill="#231F20" d="M281.92,111.76l-0.62-3.41c2.33-0.46,4.79-0.75,6.75-0.75c4.16,0,6.46,1.08,6.46,5.51v11.21h-4.26v-1.64
					c-0.03,0-0.03,0-0.07,0c-1.41,1.44-2.79,1.97-4.85,1.97c-3.28,0-5.08-2.2-5.08-5.05c0-4,3.67-5.11,6.88-5.11h3.11v-1.15
					c0-1.67-1.05-2.2-3.18-2.2C285.75,111.13,284.28,111.26,281.92,111.76z M290.24,117.03h-2.85c-1.93,0-2.88,0.69-2.88,2.2
					c0,1.44,1.15,2.13,2.56,2.13c1.34,0,2.59-0.56,3.18-1.02V117.03z"/>
				<path fill="#231F20" d="M305.91,124.64c-2.65,0-5.51-0.29-7.47-0.79l0.79-3.38c2.69,0.66,4.95,0.75,6.19,0.75
					c2.1,0,2.69-0.98,2.69-1.57c0-0.82-0.85-1.21-2.82-1.61c-3.7-0.62-6.52-1.84-6.52-5.54c0-3.51,2.52-4.92,6.49-4.92
					c2.66,0,4.92,0.29,6.88,0.79l-0.75,3.41c-2.72-0.66-4.65-0.79-5.9-0.79c-1.97,0-2.46,0.82-2.46,1.38c0,0.79,0.56,1.21,2.66,1.67
					c3.11,0.69,6.69,1.51,6.69,5.31C312.36,122.97,309.87,124.64,305.91,124.64z"/>
				<path fill="#231F20" d="M154.54,150.22h-2.2v-2.79l2.2-0.26l0.52-4.59h3.74v4.59h4.1v3.05h-4.1v7.9c0,1.54,0.66,2.36,2.39,2.36
					c0.39,0,0.88-0.03,1.51-0.16l0.36,3.28c-0.92,0.2-2.46,0.29-3.34,0.29c-3.74,0-5.18-1.54-5.18-5.01V150.22z"/>
				<path fill="#231F20" d="M171.42,163.56h-4.26v-16.39h4.26v2.62h0.07c1.05-1.48,3.05-2.95,5.67-2.95v4.03
					c-2.2,0-4.42,0.59-5.74,1.25V163.56z"/>
				<path fill="#231F20" d="M180.66,151l-0.62-3.41c2.33-0.46,4.79-0.75,6.75-0.75c4.16,0,6.46,1.08,6.46,5.51v11.21h-4.26v-1.64
					c-0.03,0-0.03,0-0.07,0c-1.41,1.44-2.79,1.97-4.85,1.97c-3.28,0-5.08-2.2-5.08-5.05c0-4,3.67-5.11,6.88-5.11h3.11v-1.15
					c0-1.67-1.05-2.2-3.18-2.2C184.5,150.38,183.02,150.51,180.66,151z M188.99,156.28h-2.85c-1.93,0-2.88,0.69-2.88,2.2
					c0,1.44,1.15,2.13,2.56,2.13c1.34,0,2.59-0.56,3.18-1.02V156.28z"/>
				<path fill="#231F20" d="M201.93,148.81H202c1.05-1.15,2.85-1.97,4.62-1.97c4.59,0,5.96,3.87,5.96,8.52
					c0,4.69-1.64,8.52-6.23,8.52c-1.64,0-3.44-0.69-4.59-1.83h-0.06l-0.75,1.64h-3.28v-23.07h4.26V148.81z M204.88,150.38
					c-1.38,0-2.43,0.62-2.95,1.02v7.93c0.52,0.43,1.57,1.05,2.95,1.05c2.52,0,3.21-2.23,3.21-5.02
					C208.09,152.58,207.4,150.38,204.88,150.38z"/>
				<path fill="#231F20" d="M217.85,151l-0.62-3.41c2.33-0.46,4.79-0.75,6.75-0.75c4.16,0,6.46,1.08,6.46,5.51v11.21h-4.26v-1.64
					c-0.03,0-0.03,0-0.07,0c-1.41,1.44-2.79,1.97-4.85,1.97c-3.28,0-5.08-2.2-5.08-5.05c0-4,3.67-5.11,6.88-5.11h3.11v-1.15
					c0-1.67-1.05-2.2-3.18-2.2C221.69,150.38,220.21,150.51,217.85,151z M226.18,156.28h-2.85c-1.93,0-2.88,0.69-2.88,2.2
					c0,1.44,1.15,2.13,2.56,2.13c1.34,0,2.59-0.56,3.18-1.02V156.28z"/>
				<path fill="#231F20" d="M238.86,165.56c0,3.21-1.05,4.88-5.15,4.88c-0.88,0-1.93-0.1-2.88-0.29l0.39-3.28
					c0.59,0.13,1.11,0.16,1.51,0.16c1.38,0,1.87-0.33,1.87-1.77v-18.09h4.26V165.56z M238.86,141.27v4.52h-4.26v-4.52H238.86z"/>
				<path fill="#231F20" d="M244.46,151l-0.62-3.41c2.33-0.46,4.79-0.75,6.75-0.75c4.16,0,6.46,1.08,6.46,5.51v11.21h-4.26v-1.64
					c-0.03,0-0.03,0-0.07,0c-1.41,1.44-2.79,1.97-4.85,1.97c-3.28,0-5.08-2.2-5.08-5.05c0-4,3.67-5.11,6.88-5.11h3.11v-1.15
					c0-1.67-1.05-2.2-3.18-2.2C248.3,150.38,246.82,150.51,244.46,151z M252.79,156.28h-2.85c-1.93,0-2.88,0.69-2.88,2.2
					c0,1.44,1.15,2.13,2.56,2.13c1.34,0,2.59-0.56,3.18-1.02V156.28z"/>
				<path fill="#231F20" d="M271.79,161.92c-0.03,0-0.03,0-0.07,0c-1.02,1.15-2.82,1.97-4.59,1.97c-4.59,0-6-3.83-6-8.52
					c0-4.65,1.64-8.52,6.23-8.52c1.67,0,3.34,0.69,4.36,1.84c0.03,0,0.03,0,0.07,0v-8.06h4.26v22.94h-4.26V161.92z M268.84,160.38
					c1.41,0,2.46-0.62,2.95-1.05v-7.93c-0.49-0.39-1.54-1.02-2.95-1.02c-2.49,0-3.18,2.2-3.18,4.98
					C265.66,158.15,266.35,160.38,268.84,160.38z"/>
				<path fill="#231F20" d="M281.66,151l-0.62-3.41c2.33-0.46,4.79-0.75,6.75-0.75c4.16,0,6.46,1.08,6.46,5.51v11.21h-4.26v-1.64
					c-0.03,0-0.03,0-0.07,0c-1.41,1.44-2.79,1.97-4.85,1.97c-3.28,0-5.08-2.2-5.08-5.05c0-4,3.67-5.11,6.88-5.11h3.11v-1.15
					c0-1.67-1.05-2.2-3.18-2.2C285.49,150.38,284.01,150.51,281.66,151z M289.98,156.28h-2.85c-1.93,0-2.88,0.69-2.88,2.2
					c0,1.44,1.15,2.13,2.56,2.13c1.34,0,2.59-0.56,3.18-1.02V156.28z"/>
				<path fill="#231F20" d="M305.64,163.88c-2.66,0-5.51-0.29-7.47-0.79l0.79-3.38c2.69,0.66,4.95,0.75,6.2,0.75
					c2.1,0,2.69-0.98,2.69-1.57c0-0.82-0.85-1.21-2.82-1.61c-3.7-0.62-6.52-1.83-6.52-5.54c0-3.51,2.52-4.92,6.49-4.92
					c2.66,0,4.92,0.29,6.88,0.79l-0.75,3.41c-2.72-0.66-4.65-0.79-5.9-0.79c-1.97,0-2.46,0.82-2.46,1.38c0,0.79,0.56,1.21,2.65,1.67
					c3.11,0.69,6.69,1.51,6.69,5.31C312.1,162.21,309.61,163.88,305.64,163.88z"/>
			</g>
		</g>
		<g>
			<g>
				<path fill="#231F20" d="M192.54,49.02h13.97v9.86h-13.97v14.06h-9.86V58.88h-14.06v-9.86h14.06V35.05h9.86V49.02z"/>
				<path fill="#231F20" d="M215.91,35.51l-3.01-9.86c7.21-2.74,14.7-6.3,19.26-10.04h8.67v62.54h-11.87V29.57L215.91,35.51z"/>
				<path fill="#231F20" d="M250.78,46.65c0-17.53,4.47-31.5,23.1-31.5s23.01,13.97,23.01,31.5c0,17.71-4.38,32.41-23.01,32.41
					S250.78,64.36,250.78,46.65z M263.38,46.65c0,12.32,2.19,22.64,10.5,22.64s10.5-10.32,10.5-22.64s-2.19-21.64-10.5-21.64
					S263.38,34.32,263.38,46.65z"/>
			</g>
		</g>
	</g>
	<g>
		<g>
			<g>
				<g>
					<path fill="#FAE800" d="M61.51,38.98C30.75,38.98,5.8,63.92,5.8,94.68c0,30.77,24.94,55.71,55.71,55.71
						c30.77,0,55.71-24.94,55.71-55.71C117.22,63.92,92.28,38.98,61.51,38.98z M61.51,128.11c-18.46,0-33.42-14.96-33.42-33.42
						c0-18.46,14.96-33.42,33.42-33.42c18.46,0,33.42,14.96,33.42,33.42C94.94,113.14,79.97,128.11,61.51,128.11z"/>
				</g>
			</g>
		</g>
		<g>
			<g>
				
					<ellipse transform="matrix(0.7071 -0.7071 0.7071 0.7071 -48.9358 71.2276)" fill="#FAE800" cx="61.51" cy="94.68" rx="14.86" ry="14.86"/>
			</g>
		</g>
		<path fill="#4D4D4D" d="M142.08,30.48c-0.43-1.04-1.45-1.72-2.58-1.72h-12.07V16.69c0-1.13-0.68-2.14-1.72-2.57
			c-1.04-0.43-2.24-0.19-3.04,0.6l-18.57,18.57c-0.52,0.52-0.82,1.23-0.82,1.97v13.7l-2.5,2.5C90.4,42.01,76.64,36.19,61.51,36.19
			c-32.25,0-58.49,26.24-58.49,58.49c0,19.81,9.93,37.33,25.04,47.92l-6.24,14.09c-0.62,1.41,0.01,3.05,1.42,3.67
			c0.37,0.16,0.75,0.24,1.13,0.24c1.07,0,2.09-0.62,2.55-1.66l5.9-13.34c8.49,4.8,18.26,7.58,28.69,7.58
			c10.43,0,20.2-2.77,28.69-7.58l5.9,13.34c0.46,1.04,1.48,1.66,2.55,1.66c0.38,0,0.76-0.08,1.13-0.24
			c1.41-0.62,2.04-2.27,1.42-3.67l-6.24-14.09C110.08,132.01,120,114.5,120,94.68c0-15.13-5.82-28.88-15.28-39.28l2.5-2.5h13.7
			c0.74,0,1.45-0.29,1.97-0.82l18.57-18.57C142.27,32.72,142.51,31.52,142.08,30.48z M114.43,94.68c0,29.18-23.74,52.92-52.92,52.92
			c-29.18,0-52.92-23.74-52.92-52.92c0-29.18,23.74-52.92,52.92-52.92c13.59,0,25.96,5.19,35.34,13.64L85.04,67.22
			c-6.34-5.44-14.55-8.74-23.53-8.74c-19.97,0-36.21,16.24-36.21,36.21c0,19.97,16.24,36.21,36.21,36.21
			c19.97,0,36.21-16.24,36.21-36.21c0-8.98-3.31-17.19-8.74-23.53l11.81-11.81C109.24,68.73,114.43,81.09,114.43,94.68z
			 M59.54,96.65c0.54,0.54,1.25,0.82,1.97,0.82c0.71,0,1.43-0.27,1.97-0.82l8.27-8.27c1.14,1.84,1.83,3.99,1.83,6.31
			c0,6.66-5.41,12.07-12.07,12.07c-6.66,0-12.07-5.41-12.07-12.07c0-6.66,5.41-12.07,12.07-12.07c2.32,0,4.46,0.69,6.31,1.83
			l-8.27,8.27C58.45,93.8,58.45,95.57,59.54,96.65z M71.82,80.44c-2.91-2.11-6.45-3.39-10.31-3.39c-9.73,0-17.64,7.91-17.64,17.64
			c0,9.73,7.91,17.64,17.64,17.64c9.73,0,17.64-7.91,17.64-17.64c0-3.86-1.28-7.4-3.39-10.31l9.28-9.28
			c4.43,5.32,7.11,12.15,7.11,19.59c0,16.89-13.75,30.64-30.64,30.64c-16.89,0-30.64-13.75-30.64-30.64
			c0-16.89,13.75-30.64,30.64-30.64c7.45,0,14.28,2.68,19.59,7.11L71.82,80.44z M108.86,36.42l13-13v6.98l-13,13V36.42z
			 M119.78,47.33h-6.98l13-13h6.98L119.78,47.33z"/>
	</g>
</g>
<g>
</g>
<g>
</g>
<g>
</g>
<g>
</g>
<g>
</g>
<g>
</g>
<g>
</g>
<g>
</g>
<g>
</g>
<g>
</g>
<g>
</g>
<g>
</g>
<g>
</g>
<g>
</g>
<g>
</g>
</svg>
