<?xml version="1.0" encoding="utf-8"?>
<!-- Generator: Adobe Illustrator 23.0.0, SVG Export Plug-In . SVG Version: 6.00 Build 0)  -->
<svg version="1.1" id="Capa_1" xmlns="http://www.w3.org/2000/svg" xmlns:xlink="http://www.w3.org/1999/xlink" x="0px" y="0px"
	 viewBox="0 0 339.9 175.9" style="enable-background:new 0 0 339.9 175.9;" xml:space="preserve">
<style type="text/css">
	.st0{fill:#231F20;}
</style>
<g>
	<g>
		<g>
			<path class="st0" d="M97.8,108.3c2.1,0,3.8,0.3,5.7,0.8l-0.8,3.4c-2.7-0.7-3.8-0.7-5-0.7c-2.6,0-3.9,1.7-3.9,5c0,3.3,1.4,5,3.9,5
				c1.2,0,2.3,0,5-0.7l0.8,3.4c-2,0.5-3.6,0.8-5.7,0.8c-6.4,0-8.5-3.3-8.5-8.5C89.4,111.7,91.5,108.3,97.8,108.3z"/>
			<path class="st0" d="M107.7,112.5l-0.6-3.4c2.3-0.5,4.8-0.8,6.8-0.8c4.2,0,6.5,1.1,6.5,5.5V125h-4.3v-1.6c0,0,0,0-0.1,0
				c-1.4,1.4-2.8,2-4.9,2c-3.3,0-5.1-2.2-5.1-5c0-4,3.7-5.1,6.9-5.1h3.1V114c0-1.7-1-2.2-3.2-2.2C111.6,111.8,110.1,112,107.7,112.5
				z M116.1,117.7h-2.9c-1.9,0-2.9,0.7-2.9,2.2c0,1.4,1.1,2.1,2.6,2.1c1.3,0,2.6-0.6,3.2-1V117.7z"/>
			<path class="st0" d="M126.1,111.7h-2.2v-2.8l2.2-0.3l0.5-4.6h3.7v4.6h4.1v3h-4.1v7.9c0,1.5,0.7,2.4,2.4,2.4c0.4,0,0.9,0,1.5-0.2
				l0.4,3.3c-0.9,0.2-2.5,0.3-3.3,0.3c-3.7,0-5.2-1.5-5.2-5V111.7z"/>
			<path class="st0" d="M141.8,117.7c0.1,2.5,1.5,4.1,4.5,4.1c1.4,0,3-0.1,5.1-0.7l0.5,3.4c-2.2,0.6-4.1,0.8-6.2,0.8
				c-6.3,0-8.5-3.3-8.5-8.5c0-5.1,2.2-8.5,8.5-8.5c4.9,0,6.6,2.5,6.9,5.3c0.2,1.2,0.1,2.7-0.1,4.1H141.8z M141.8,115.1h6.4
				c0.1-0.4,0.1-0.9,0.1-1.3c-0.1-1.2-0.9-2.2-2.9-2.2C143,111.6,141.9,113,141.8,115.1z"/>
			<path class="st0" d="M158.3,124.2c-0.9-0.5-1.3-1.4-1.3-2.3c0-1.2,0.8-2.6,2.5-3.4v-0.1c-1.6-0.8-2.7-2.5-2.7-4.6
				c0-3.8,2.7-5.6,6.9-5.6c0.9,0,1.7,0.1,2.4,0.3h6.1v2.6h-2.6c0.6,0.7,1,1.6,1,2.7c0,3.8-2.9,5.5-6.8,5.5c-1,0-1.8-0.2-2.1-0.3
				c-0.2,0.2-0.3,0.5-0.5,0.7c-0.3,0.8-0.3,1.6,0.8,1.7l5.6,0.4c3.3,0.2,5,1.5,5,4.1c0,4.2-3.1,6-9.8,6c-4.9,0-7-1.3-7-4.3
				C155.7,126.2,156.5,125.2,158.3,124.2L158.3,124.2z M163.5,129.1c2.4,0,4.6-0.7,4.6-2.4c0-0.8-0.6-1.4-2-1.5l-5.7-0.3
				c-0.6,0.6-1.1,1-1.1,2C159.3,128.6,161.2,129.1,163.5,129.1z M166.6,113.9c0-1.8-1.1-2.8-2.9-2.8c-1.8,0-2.9,1-2.9,2.8
				s1.1,2.7,2.9,2.7C165.5,116.6,166.6,115.7,166.6,113.9z"/>
			<path class="st0" d="M175,116.8c0-5.1,2.2-8.5,8-8.5s7.9,3.4,7.9,8.5c0,5.2-2.2,8.5-7.9,8.5S175,122,175,116.8z M179.5,116.8
				c0,3,0.8,5,3.4,5s3.4-2,3.4-5c0-3-0.8-5-3.4-5S179.5,113.8,179.5,116.8z"/>
			<path class="st0" d="M199.3,125H195v-16.4h4.3v2.6h0.1c1-1.5,3-3,5.7-3v4c-2.2,0-4.4,0.6-5.7,1.2V125z"/>
			<path class="st0" d="M213,108.6V125h-4.3v-16.4H213z M212.1,106.7h-2.3l1.8-3.9h3.5L212.1,106.7z"/>
			<path class="st0" d="M218.6,112.5l-0.6-3.4c2.3-0.5,4.8-0.8,6.8-0.8c4.2,0,6.5,1.1,6.5,5.5V125H227v-1.6c0,0,0,0-0.1,0
				c-1.4,1.4-2.8,2-4.8,2c-3.3,0-5.1-2.2-5.1-5c0-4,3.7-5.1,6.9-5.1h3.1V114c0-1.7-1-2.2-3.2-2.2C222.5,111.8,221,112,218.6,112.5z
				 M227,117.7h-2.9c-1.9,0-2.9,0.7-2.9,2.2c0,1.4,1.1,2.1,2.6,2.1c1.3,0,2.6-0.6,3.2-1V117.7z"/>
			<path class="st0" d="M242.6,125.4c-2.7,0-5.5-0.3-7.5-0.8l0.8-3.4c2.7,0.7,4.9,0.8,6.2,0.8c2.1,0,2.7-1,2.7-1.6
				c0-0.8-0.9-1.2-2.8-1.6c-3.7-0.6-6.5-1.8-6.5-5.5c0-3.5,2.5-4.9,6.5-4.9c2.7,0,4.9,0.3,6.9,0.8l-0.8,3.4
				c-2.7-0.7-4.7-0.8-5.9-0.8c-2,0-2.5,0.8-2.5,1.4c0,0.8,0.6,1.2,2.7,1.7c3.1,0.7,6.7,1.5,6.7,5.3
				C249.1,123.7,246.6,125.4,242.6,125.4z"/>
			<path class="st0" d="M91.3,150.9h-2.2v-2.8l2.2-0.3l0.5-4.6h3.7v4.6h4.1v3h-4.1v7.9c0,1.5,0.7,2.4,2.4,2.4c0.4,0,0.9,0,1.5-0.2
				l0.4,3.3c-0.9,0.2-2.5,0.3-3.3,0.3c-3.7,0-5.2-1.5-5.2-5V150.9z"/>
			<path class="st0" d="M108.1,164.3h-4.3v-16.4h4.3v2.6h0.1c1-1.5,3-3,5.7-3v4c-2.2,0-4.4,0.6-5.7,1.2V164.3z"/>
			<path class="st0" d="M117.4,151.7l-0.6-3.4c2.3-0.5,4.8-0.8,6.8-0.8c4.2,0,6.5,1.1,6.5,5.5v11.2h-4.3v-1.6c0,0,0,0-0.1,0
				c-1.4,1.4-2.8,2-4.9,2c-3.3,0-5.1-2.2-5.1-5c0-4,3.7-5.1,6.9-5.1h3.1v-1.1c0-1.7-1-2.2-3.2-2.2
				C121.2,151.1,119.7,151.2,117.4,151.7z M125.7,157h-2.9c-1.9,0-2.9,0.7-2.9,2.2c0,1.4,1.1,2.1,2.6,2.1c1.3,0,2.6-0.6,3.2-1V157z"
				/>
			<path class="st0" d="M138.6,149.5L138.6,149.5c1.1-1.1,2.9-2,4.7-2c4.6,0,6,3.9,6,8.5c0,4.7-1.6,8.5-6.2,8.5
				c-1.6,0-3.4-0.7-4.6-1.8h-0.1l-0.8,1.6h-3.3v-23.1h4.3V149.5z M141.6,151.1c-1.4,0-2.4,0.6-3,1v7.9c0.5,0.4,1.6,1,3,1
				c2.5,0,3.2-2.2,3.2-5C144.8,153.3,144.1,151.1,141.6,151.1z"/>
			<path class="st0" d="M154.6,151.7l-0.6-3.4c2.3-0.5,4.8-0.8,6.8-0.8c4.2,0,6.5,1.1,6.5,5.5v11.2h-4.3v-1.6c0,0,0,0-0.1,0
				c-1.4,1.4-2.8,2-4.9,2c-3.3,0-5.1-2.2-5.1-5c0-4,3.7-5.1,6.9-5.1h3.1v-1.1c0-1.7-1-2.2-3.2-2.2
				C158.4,151.1,156.9,151.2,154.6,151.7z M162.9,157H160c-1.9,0-2.9,0.7-2.9,2.2c0,1.4,1.1,2.1,2.6,2.1c1.3,0,2.6-0.6,3.2-1V157z"
				/>
			<path class="st0" d="M175.6,166.3c0,3.2-1,4.9-5.1,4.9c-0.9,0-1.9-0.1-2.9-0.3l0.4-3.3c0.6,0.1,1.1,0.2,1.5,0.2
				c1.4,0,1.9-0.3,1.9-1.8v-18.1h4.3V166.3z M175.6,142v4.5h-4.3V142H175.6z"/>
			<path class="st0" d="M181.2,151.7l-0.6-3.4c2.3-0.5,4.8-0.8,6.8-0.8c4.2,0,6.5,1.1,6.5,5.5v11.2h-4.3v-1.6c0,0,0,0-0.1,0
				c-1.4,1.4-2.8,2-4.8,2c-3.3,0-5.1-2.2-5.1-5c0-4,3.7-5.1,6.9-5.1h3.1v-1.1c0-1.7-1-2.2-3.2-2.2
				C185,151.1,183.5,151.2,181.2,151.7z M189.5,157h-2.9c-1.9,0-2.9,0.7-2.9,2.2c0,1.4,1.1,2.1,2.6,2.1c1.3,0,2.6-0.6,3.2-1V157z"/>
			<path class="st0" d="M208.5,162.6C208.5,162.6,208.5,162.6,208.5,162.6c-1.1,1.1-2.9,2-4.7,2c-4.6,0-6-3.8-6-8.5
				c0-4.7,1.6-8.5,6.2-8.5c1.7,0,3.3,0.7,4.4,1.8c0,0,0,0,0.1,0v-8.1h4.3v22.9h-4.3V162.6z M205.6,161.1c1.4,0,2.5-0.6,3-1v-7.9
				c-0.5-0.4-1.5-1-3-1c-2.5,0-3.2,2.2-3.2,5C202.4,158.9,203.1,161.1,205.6,161.1z"/>
			<path class="st0" d="M218.4,151.7l-0.6-3.4c2.3-0.5,4.8-0.8,6.8-0.8c4.2,0,6.5,1.1,6.5,5.5v11.2h-4.3v-1.6c0,0,0,0-0.1,0
				c-1.4,1.4-2.8,2-4.9,2c-3.3,0-5.1-2.2-5.1-5c0-4,3.7-5.1,6.9-5.1h3.1v-1.1c0-1.7-1-2.2-3.2-2.2
				C222.2,151.1,220.7,151.2,218.4,151.7z M226.7,157h-2.9c-1.9,0-2.9,0.7-2.9,2.2c0,1.4,1.1,2.1,2.6,2.1c1.3,0,2.6-0.6,3.2-1V157z"
				/>
			<path class="st0" d="M242.4,164.6c-2.7,0-5.5-0.3-7.5-0.8l0.8-3.4c2.7,0.7,4.9,0.8,6.2,0.8c2.1,0,2.7-1,2.7-1.6
				c0-0.8-0.9-1.2-2.8-1.6c-3.7-0.6-6.5-1.8-6.5-5.5c0-3.5,2.5-4.9,6.5-4.9c2.7,0,4.9,0.3,6.9,0.8l-0.8,3.4
				c-2.7-0.7-4.7-0.8-5.9-0.8c-2,0-2.5,0.8-2.5,1.4c0,0.8,0.6,1.2,2.7,1.7c3.1,0.7,6.7,1.5,6.7,5.3
				C248.8,162.9,246.3,164.6,242.4,164.6z"/>
		</g>
	</g>
	<g>
		<g>
			<path class="st0" d="M130.7,48.3h13.7v12.8h-13.7v13.7h-12.8V61.1h-13.7V48.3h13.7V34.6h12.8V48.3z"/>
			<path class="st0" d="M152.8,38.2L149,25.4c7.1-2.3,14.4-5.4,18.7-9.1h11.4v62.5h-15.5V34.4L152.8,38.2z"/>
			<path class="st0" d="M187.3,47.4c0-17.8,4.6-31.5,24.2-31.5s24.2,13.7,24.2,31.5s-4.6,32.4-24.2,32.4S187.3,65.2,187.3,47.4z
				 M203.7,47.4c0,11.4,1.8,19.6,7.8,19.6s7.8-8.2,7.8-19.6s-1.8-18.7-7.8-18.7S203.7,35.9,203.7,47.4z"/>
		</g>
	</g>
</g>
</svg>
