<?xml version="1.0" encoding="utf-8"?>
<!-- Generator: Adobe Illustrator 23.0.0, SVG Export Plug-In . SVG Version: 6.00 Build 0)  -->
<svg version="1.1" id="Capa_1" xmlns="http://www.w3.org/2000/svg" xmlns:xlink="http://www.w3.org/1999/xlink" x="0px" y="0px"
	 viewBox="0 0 427.93 173.94" enable-background="new 0 0 427.93 173.94" xml:space="preserve">
<g>
	<g>
		<g>
			<g>
				<path fill="#231F20" d="M189.22,47.09h13.97v9.86h-13.97v14.06h-9.86V56.95H165.3v-9.86h14.06V33.13h9.86V47.09z"/>
				<path fill="#231F20" d="M212.59,33.58l-3.01-9.86c7.21-2.74,14.7-6.3,19.26-10.04h8.67v62.54h-11.87V27.65L212.59,33.58z"/>
				<path fill="#231F20" d="M250.02,88.09l2.28-11.87c-1.55,0-3.2,0-4.84,0V62.98h11.87v13.24l-5.66,11.87H250.02z"/>
				<path fill="#231F20" d="M268.01,44.72c0-17.53,4.47-31.5,23.1-31.5s23.01,13.97,23.01,31.5c0,17.71-4.38,32.41-23.01,32.41
					S268.01,62.43,268.01,44.72z M280.6,44.72c0,12.32,2.19,22.64,10.5,22.64s10.5-10.32,10.5-22.64c0-12.33-2.19-21.64-10.5-21.64
					S280.6,32.4,280.6,44.72z"/>
				<path fill="#231F20" d="M322.78,44.72c0-17.53,4.47-31.5,23.1-31.5c18.62,0,23.01,13.97,23.01,31.5
					c0,17.71-4.38,32.41-23.01,32.41C327.26,77.13,322.78,62.43,322.78,44.72z M335.38,44.72c0,12.32,2.19,22.64,10.5,22.64
					s10.5-10.32,10.5-22.64c0-12.33-2.19-21.64-10.5-21.64S335.38,32.4,335.38,44.72z"/>
				<path fill="#231F20" d="M377.56,44.72c0-17.53,4.47-31.5,23.1-31.5c18.62,0,23.01,13.97,23.01,31.5
					c0,17.71-4.38,32.41-23.01,32.41C382.04,77.13,377.56,62.43,377.56,44.72z M390.16,44.72c0,12.32,2.19,22.64,10.5,22.64
					s10.5-10.32,10.5-22.64c0-12.33-2.19-21.64-10.5-21.64S390.16,32.4,390.16,44.72z"/>
			</g>
		</g>
		<g>
			<g>
				<path fill="#231F20" d="M226.66,108.94c2.1,0,3.77,0.29,5.74,0.79l-0.75,3.41c-2.72-0.66-3.77-0.66-4.98-0.66
					c-2.56,0-3.93,1.71-3.93,4.98s1.38,5.01,3.93,5.01c1.21,0,2.26,0,4.98-0.66l0.75,3.38c-1.97,0.49-3.64,0.79-5.74,0.79
					c-6.36,0-8.46-3.34-8.46-8.52C218.21,112.32,220.3,108.94,226.66,108.94z"/>
				<path fill="#231F20" d="M236.59,113.11l-0.62-3.41c2.33-0.46,4.79-0.75,6.75-0.75c4.16,0,6.46,1.08,6.46,5.51v11.21h-4.26v-1.64
					c-0.03,0-0.03,0-0.07,0c-1.41,1.44-2.79,1.97-4.85,1.97c-3.28,0-5.08-2.2-5.08-5.05c0-4,3.67-5.11,6.88-5.11h3.11v-1.15
					c0-1.67-1.05-2.2-3.18-2.2C240.42,112.48,238.95,112.61,236.59,113.11z M244.91,118.38h-2.85c-1.93,0-2.88,0.69-2.88,2.2
					c0,1.44,1.15,2.13,2.56,2.13c1.34,0,2.59-0.56,3.18-1.02V118.38z"/>
				<path fill="#231F20" d="M257.86,125.66h-4.26v-16.39h4.26v2.13h0.07c1.31-1.44,2.98-2.46,5.11-2.46c2.23,0,3.7,0.98,4.39,2.72
					c1.67-1.87,3.57-2.72,5.67-2.72c3.28,0,4.92,2.13,4.92,5.51v11.21h-4.26v-10.23c0-1.9-0.85-2.95-2.62-2.95
					c-1.25,0-2.39,0.72-3.21,1.28c0,0.56,0.03,1.18,0.03,1.87v10.03h-4.26v-10.42c-0.07-1.74-0.92-2.75-2.62-2.75
					c-1.28,0-2.39,0.72-3.21,1.25V125.66z"/>
				<path fill="#231F20" d="M286.69,110.91h0.07c1.05-1.15,2.85-1.97,4.62-1.97c4.59,0,5.96,3.87,5.96,8.52
					c0,4.69-1.64,8.52-6.23,8.52c-1.64,0-3.31-0.69-4.36-1.84h-0.07v8.06h-4.26v-22.94h4.26V110.91z M289.64,112.48
					c-1.38,0-2.42,0.62-2.95,1.02v7.93c0.52,0.43,1.57,1.05,2.95,1.05c2.52,0,3.21-2.23,3.21-5.01
					C292.85,114.68,292.17,112.48,289.64,112.48z"/>
				<path fill="#231F20" d="M302.62,113.11L302,109.7c2.33-0.46,4.79-0.75,6.75-0.75c4.16,0,6.46,1.08,6.46,5.51v11.21h-4.26v-1.64
					c-0.03,0-0.03,0-0.07,0c-1.41,1.44-2.79,1.97-4.85,1.97c-3.28,0-5.08-2.2-5.08-5.05c0-4,3.67-5.11,6.88-5.11h3.11v-1.15
					c0-1.67-1.05-2.2-3.18-2.2C306.45,112.48,304.98,112.61,302.62,113.11z M310.94,118.38h-2.85c-1.93,0-2.88,0.69-2.88,2.2
					c0,1.44,1.15,2.13,2.56,2.13c1.34,0,2.59-0.56,3.18-1.02V118.38z"/>
				<path fill="#231F20" d="M323.89,125.66h-4.26v-16.39h4.26v2.13h0.07c1.41-1.51,3.21-2.46,5.34-2.46c3.28,0,4.92,2.13,4.92,5.51
					v11.21h-4.26v-10.23c0-1.9-0.72-2.95-2.62-2.95c-1.34,0-2.62,0.72-3.44,1.25V125.66z M322.71,107.53l-1.31-1.05
					c1.11-2.36,2.39-2.98,3.54-2.98c1.61,0,3.21,1.44,4.33,1.44c0.59,0,1.21-0.23,2.13-1.34l1.11,1.28
					c-0.98,1.97-2.06,2.62-3.25,2.62c-1.25,0-2.98-1.34-4.23-1.34C324.35,106.16,323.82,106.35,322.71,107.53z"/>
				<path fill="#231F20" d="M339.81,113.11l-0.62-3.41c2.33-0.46,4.79-0.75,6.75-0.75c4.16,0,6.46,1.08,6.46,5.51v11.21h-4.26v-1.64
					c-0.03,0-0.03,0-0.07,0c-1.41,1.44-2.79,1.97-4.85,1.97c-3.28,0-5.08-2.2-5.08-5.05c0-4,3.67-5.11,6.88-5.11h3.11v-1.15
					c0-1.67-1.05-2.2-3.18-2.2C343.65,112.48,342.17,112.61,339.81,113.11z M348.14,118.38h-2.85c-1.93,0-2.88,0.69-2.88,2.2
					c0,1.44,1.15,2.13,2.56,2.13c1.34,0,2.59-0.56,3.18-1.02V118.38z"/>
				<path fill="#231F20" d="M363.8,125.99c-2.65,0-5.51-0.29-7.47-0.79l0.79-3.38c2.69,0.66,4.95,0.75,6.2,0.75
					c2.1,0,2.69-0.98,2.69-1.57c0-0.82-0.85-1.21-2.82-1.61c-3.7-0.62-6.52-1.84-6.52-5.54c0-3.51,2.52-4.92,6.49-4.92
					c2.66,0,4.92,0.29,6.88,0.79l-0.75,3.41c-2.72-0.66-4.65-0.79-5.9-0.79c-1.97,0-2.46,0.82-2.46,1.38c0,0.79,0.56,1.21,2.65,1.67
					c3.11,0.69,6.69,1.51,6.69,5.31C370.26,124.32,367.76,125.99,363.8,125.99z"/>
				<path fill="#231F20" d="M222.25,164.91h-4.26v-16.39h4.26v2.62h0.07c1.05-1.47,3.05-2.95,5.67-2.95v4.03
					c-2.2,0-4.42,0.59-5.74,1.25V164.91z"/>
				<path fill="#231F20" d="M234.71,157.63c0.1,2.46,1.47,4.1,4.49,4.1c1.41,0,2.98-0.07,5.11-0.66l0.49,3.38
					c-2.16,0.62-4.1,0.79-6.23,0.79c-6.29,0-8.52-3.34-8.52-8.52c0-5.15,2.23-8.52,8.46-8.52c4.92,0,6.55,2.46,6.88,5.31
					c0.16,1.25,0.07,2.66-0.13,4.13H234.71z M234.71,154.94h6.36c0.07-0.43,0.1-0.88,0.07-1.28c-0.13-1.25-0.88-2.2-2.88-2.2
					C235.89,151.47,234.87,152.85,234.71,154.94z"/>
				<path fill="#231F20" d="M250.57,152.35l-0.62-3.41c2.33-0.46,4.79-0.75,6.75-0.75c4.16,0,6.46,1.08,6.46,5.51v11.21h-4.26v-1.64
					c-0.03,0-0.03,0-0.07,0c-1.41,1.44-2.79,1.97-4.85,1.97c-3.28,0-5.08-2.2-5.08-5.05c0-4,3.67-5.11,6.88-5.11h3.11v-1.15
					c0-1.67-1.05-2.2-3.18-2.2C254.4,151.73,252.93,151.86,250.57,152.35z M258.89,157.63h-2.85c-1.93,0-2.88,0.69-2.88,2.2
					c0,1.44,1.15,2.13,2.56,2.13c1.34,0,2.59-0.56,3.18-1.02V157.63z"/>
				<path fill="#231F20" d="M267.57,141.96h4.26v22.94h-4.26V141.96z"/>
				<path fill="#231F20" d="M280.52,142.62v4.52h-4.26v-4.52H280.52z M280.52,148.52v16.39h-4.26v-16.39H280.52z"/>
				<path fill="#231F20" d="M297.95,151.57l-8.26,10v0.07h8.65v3.28h-14.16v-3.02l8.36-10.03v-0.07h-7.87v-3.28h13.27V151.57z"/>
				<path fill="#231F20" d="M303.16,152.35l-0.62-3.41c2.33-0.46,4.79-0.75,6.75-0.75c4.16,0,6.46,1.08,6.46,5.51v11.21h-4.26v-1.64
					c-0.03,0-0.03,0-0.07,0c-1.41,1.44-2.79,1.97-4.85,1.97c-3.28,0-5.08-2.2-5.08-5.05c0-4,3.67-5.11,6.88-5.11h3.11v-1.15
					c0-1.67-1.05-2.2-3.18-2.2C306.99,151.73,305.52,151.86,303.16,152.35z M311.48,157.63h-2.85c-1.93,0-2.88,0.69-2.88,2.2
					c0,1.44,1.15,2.13,2.56,2.13c1.34,0,2.59-0.56,3.18-1.02V157.63z"/>
				<path fill="#231F20" d="M330.49,163.27c-0.03,0-0.03,0-0.07,0c-1.02,1.15-2.82,1.97-4.59,1.97c-4.59,0-6-3.83-6-8.52
					c0-4.65,1.64-8.52,6.23-8.52c1.67,0,3.34,0.69,4.36,1.83c0.03,0,0.03,0,0.07,0v-8.06h4.26v22.94h-4.26V163.27z M327.54,161.73
					c1.41,0,2.46-0.62,2.95-1.05v-7.93c-0.49-0.39-1.54-1.02-2.95-1.02c-2.49,0-3.18,2.2-3.18,4.98
					C324.36,159.5,325.05,161.73,327.54,161.73z"/>
				<path fill="#231F20" d="M340.35,152.35l-0.62-3.41c2.33-0.46,4.79-0.75,6.75-0.75c4.16,0,6.46,1.08,6.46,5.51v11.21h-4.26v-1.64
					c-0.03,0-0.03,0-0.07,0c-1.41,1.44-2.79,1.97-4.85,1.97c-3.28,0-5.08-2.2-5.08-5.05c0-4,3.67-5.11,6.88-5.11h3.11v-1.15
					c0-1.67-1.05-2.2-3.18-2.2C344.19,151.73,342.71,151.86,340.35,152.35z M348.68,157.63h-2.85c-1.93,0-2.88,0.69-2.88,2.2
					c0,1.44,1.15,2.13,2.56,2.13c1.34,0,2.59-0.56,3.18-1.02V157.63z"/>
				<path fill="#231F20" d="M364.34,165.24c-2.66,0-5.51-0.29-7.47-0.79l0.79-3.38c2.69,0.66,4.95,0.75,6.19,0.75
					c2.1,0,2.69-0.98,2.69-1.57c0-0.82-0.85-1.21-2.82-1.61c-3.7-0.62-6.52-1.84-6.52-5.54c0-3.51,2.52-4.92,6.49-4.92
					c2.66,0,4.92,0.29,6.88,0.79l-0.75,3.41c-2.72-0.66-4.65-0.79-5.9-0.79c-1.97,0-2.46,0.82-2.46,1.38c0,0.79,0.56,1.21,2.66,1.67
					c3.11,0.69,6.69,1.51,6.69,5.31C370.8,163.56,368.31,165.24,364.34,165.24z"/>
			</g>
		</g>
	</g>
	<g>
		<g>
			<g>
				<g>
					<path fill="#FAE800" d="M57.99,34.68c-11.16,3.85-19.95,12.94-23.57,24.18c-5.91,18.36,1.14,35.7,14.25,45.24
						c3.9,2.84,6.36,7.19,6.69,11.96H88.8c0.28-4.65,2.51-9,6.33-11.73c10.09-7.2,16.69-18.99,16.69-32.33
						C111.81,45.51,85.87,25.06,57.99,34.68z"/>
				</g>
			</g>
		</g>
		<g>
			<path fill="#4D4D4D" d="M25.29,74.5c0-1.72-1.4-3.12-3.12-3.12H5.55c-1.72,0-3.12,1.4-3.12,3.12c0,1.72,1.4,3.12,3.12,3.12h16.63
				C23.9,77.61,25.29,76.22,25.29,74.5z M33.63,40.12c0.61,0.59,1.39,0.89,2.18,0.89c0.81,0,1.62-0.31,2.23-0.94
				c1.21-1.23,1.18-3.21-0.05-4.41l-9.95-9.72c-1.23-1.2-3.21-1.18-4.41,0.05c-1.21,1.23-1.18,3.21,0.05,4.41L33.63,40.12z
				 M72.03,27.73L72.03,27.73c1.72,0,3.12-1.39,3.12-3.11l0.03-16.63c0-1.72-1.39-3.12-3.11-3.12h0c-1.72,0-3.11,1.39-3.12,3.11
				L68.91,24.6C68.91,26.32,70.3,27.72,72.03,27.73z M25.85,123.51c0.81,0,1.62-0.32,2.24-0.95l9.95-10.25
				c1.2-1.24,1.17-3.21-0.06-4.41c-1.23-1.2-3.2-1.17-4.41,0.06l-9.95,10.25c-1.2,1.24-1.17,3.21,0.06,4.41
				C24.29,123.22,25.07,123.51,25.85,123.51z M108.06,41c0.78,0,1.57-0.29,2.17-0.88l10.02-9.72c1.23-1.2,1.27-3.17,0.06-4.41
				c-1.19-1.23-3.17-1.26-4.41-0.06l-10.02,9.72c-1.23,1.2-1.27,3.17-0.06,4.41C106.43,40.69,107.25,41,108.06,41z M97.01,150.37
				c-1.72,0-3.12,1.4-3.12,3.12v12.47c0,1.72,1.4,3.12,3.12,3.12c1.72,0,3.12-1.4,3.12-3.12v-12.47
				C100.12,151.76,98.73,150.37,97.01,150.37z M110.29,107.96c-1.2-1.23-3.17-1.25-4.41-0.05c-1.23,1.2-1.25,3.18-0.05,4.41
				l10.02,10.25c0.61,0.62,1.42,0.94,2.23,0.94c0.79,0,1.57-0.29,2.18-0.89c1.23-1.2,1.25-3.18,0.05-4.41L110.29,107.96z
				 M77.28,71.38h-4.59l7.3-12.82c0.85-1.5,0.33-3.4-1.17-4.25c-1.5-0.85-3.4-0.33-4.25,1.17l-9.95,17.48
				c-0.55,0.96-0.54,2.15,0.01,3.11c0.56,0.96,1.58,1.55,2.7,1.55h4.59l-7.98,14.01c-0.85,1.5-0.33,3.4,1.17,4.25
				c0.49,0.28,1.01,0.41,1.54,0.41c1.08,0,2.14-0.57,2.71-1.58l10.63-18.67c0.55-0.96,0.54-2.15-0.01-3.11
				C79.42,71.97,78.39,71.38,77.28,71.38z M106.23,133.74H93.97c-1.19,0-2.16-0.97-2.16-2.16v-14.59c0-4.04,1.92-7.82,5.13-10.11
				c11.27-8.04,17.99-21.07,17.99-34.87c0-13.83-6.73-26.89-18.01-34.93c-11.49-8.19-26.04-10.15-39.94-5.35
				C44.94,35.89,35.4,45.67,31.46,57.91c-5.94,18.46,0.09,37.58,15.38,48.72c3.43,2.5,5.48,6.44,5.48,10.53v14.42
				c0,1.19-0.97,2.16-2.16,2.16H37.9c-8.1,0-14.68,6.59-14.68,14.68v17.54c0,1.72,1.4,3.12,3.12,3.12c1.72,0,3.12-1.4,3.12-3.12
				v-17.54c0-4.65,3.79-8.44,8.44-8.44h12.26c1.73,0,3.34-0.53,4.68-1.43c3.27,5.78,9.4,9.74,16.51,9.74h1.44
				c7.1,0,13.24-3.96,16.51-9.74c1.34,0.9,2.95,1.43,4.68,1.43h12.26c4.66,0,8.44,3.79,8.44,8.44v17.54c0,1.72,1.4,3.12,3.12,3.12
				c1.72,0,3.12-1.4,3.12-3.12v-17.54C120.91,140.32,114.33,133.74,106.23,133.74z M72.78,142.05h-1.44
				c-6.23,0-11.42-4.48-12.55-10.39h26.54C84.2,137.57,79.01,142.05,72.78,142.05z M85.57,125.42H58.55v-6.24h27.02V125.42z
				 M86.03,112.95H58.05c-1.04-4.48-3.69-8.55-7.55-11.36c-13.07-9.52-18.22-25.92-13.12-41.77c3.35-10.38,11.42-18.68,21.62-22.19
				c11.96-4.12,24.46-2.47,34.29,4.54c9.64,6.87,15.39,18.03,15.39,29.85c0,11.79-5.75,22.92-15.38,29.79
				C89.57,104.48,87.01,108.48,86.03,112.95z M138.58,71.38h-16.63c-1.72,0-3.12,1.4-3.12,3.12c0,1.72,1.4,3.12,3.12,3.12h16.63
				c1.72,0,3.12-1.4,3.12-3.12C141.7,72.78,140.3,71.38,138.58,71.38z M42.96,150.37c-1.72,0-3.12,1.4-3.12,3.12v12.47
				c0,1.72,1.4,3.12,3.12,3.12c1.72,0,3.12-1.4,3.12-3.12v-12.47C46.08,151.76,44.68,150.37,42.96,150.37z"/>
		</g>
	</g>
</g>
<g>
</g>
<g>
</g>
<g>
</g>
<g>
</g>
<g>
</g>
<g>
</g>
<g>
</g>
<g>
</g>
<g>
</g>
<g>
</g>
<g>
</g>
<g>
</g>
<g>
</g>
<g>
</g>
<g>
</g>
</svg>
