<?xml version="1.0" encoding="utf-8"?>
<!-- Generator: Adobe Illustrator 23.0.0, SVG Export Plug-In . SVG Version: 6.00 Build 0)  -->
<svg version="1.1" id="Capa_1" xmlns="http://www.w3.org/2000/svg" xmlns:xlink="http://www.w3.org/1999/xlink" x="0px" y="0px"
	 viewBox="0 0 339.9 175.9" style="enable-background:new 0 0 339.9 175.9;" xml:space="preserve">
<style type="text/css">
	.st0{fill:#231F20;}
</style>
<g>
	<g>
		<g>
			<g>
				<path class="st0" d="M64.5,46.6h13.7v12.8H64.5v13.7H51.7V59.4H38V46.6h13.7V32.9h12.8V46.6z"/>
				<path class="st0" d="M86.6,36.6l-3.8-12.8c7.1-2.3,14.4-5.4,18.7-9.1h11.4v62.5H97.4V32.8L86.6,36.6z"/>
				<path class="st0" d="M124.8,89.1l2.7-11.9c-2.1,0-4.3,0-6.4,0V62.6h15.5v14.6l-7.3,11.9H124.8z"/>
				<path class="st0" d="M143,45.7c0-17.8,4.6-31.5,24.2-31.5c19.6,0,24.2,13.7,24.2,31.5c0,17.8-4.6,32.4-24.2,32.4
					C147.6,78.1,143,63.5,143,45.7z M159.5,45.7c0,11.4,1.8,19.6,7.8,19.6c5.9,0,7.8-8.2,7.8-19.6c0-11.4-1.8-18.7-7.8-18.7
					C161.3,27,159.5,34.3,159.5,45.7z"/>
				<path class="st0" d="M197.8,45.7c0-17.8,4.6-31.5,24.2-31.5s24.2,13.7,24.2,31.5c0,17.8-4.6,32.4-24.2,32.4
					S197.8,63.5,197.8,45.7z M214.2,45.7c0,11.4,1.8,19.6,7.8,19.6c5.9,0,7.8-8.2,7.8-19.6c0-11.4-1.8-18.7-7.8-18.7
					C216.1,27,214.2,34.3,214.2,45.7z"/>
				<path class="st0" d="M252.6,45.7c0-17.8,4.6-31.5,24.2-31.5S301,27.9,301,45.7c0,17.8-4.6,32.4-24.2,32.4S252.6,63.5,252.6,45.7
					z M269,45.7c0,11.4,1.8,19.6,7.8,19.6c5.9,0,7.8-8.2,7.8-19.6c0-11.4-1.8-18.7-7.8-18.7C270.8,27,269,34.3,269,45.7z"/>
			</g>
		</g>
		<g>
			<g>
				<path class="st0" d="M100.5,109.9c2.1,0,3.8,0.3,5.7,0.8l-0.8,3.4c-2.7-0.7-3.8-0.7-5-0.7c-2.6,0-3.9,1.7-3.9,5s1.4,5,3.9,5
					c1.2,0,2.3,0,5-0.7l0.8,3.4c-2,0.5-3.6,0.8-5.7,0.8c-6.4,0-8.5-3.3-8.5-8.5C92,113.3,94.1,109.9,100.5,109.9z"/>
				<path class="st0" d="M110.4,114.1l-0.6-3.4c2.3-0.5,4.8-0.8,6.8-0.8c4.2,0,6.5,1.1,6.5,5.5v11.2h-4.3V125c0,0,0,0-0.1,0
					c-1.4,1.4-2.8,2-4.9,2c-3.3,0-5.1-2.2-5.1-5c0-4,3.7-5.1,6.9-5.1h3.1v-1.1c0-1.7-1-2.2-3.2-2.2
					C114.3,113.5,112.8,113.6,110.4,114.1z M118.8,119.4h-2.9c-1.9,0-2.9,0.7-2.9,2.2c0,1.4,1.1,2.1,2.6,2.1c1.3,0,2.6-0.6,3.2-1
					V119.4z"/>
				<path class="st0" d="M131.7,126.7h-4.3v-16.4h4.3v2.1h0.1c1.3-1.4,3-2.5,5.1-2.5c2.2,0,3.7,1,4.4,2.7c1.7-1.9,3.6-2.7,5.7-2.7
					c3.3,0,4.9,2.1,4.9,5.5v11.2h-4.3v-10.2c0-1.9-0.9-3-2.6-3c-1.2,0-2.4,0.7-3.2,1.3c0,0.6,0,1.2,0,1.9v10h-4.3v-10.4
					c-0.1-1.7-0.9-2.8-2.6-2.8c-1.3,0-2.4,0.7-3.2,1.2V126.7z"/>
				<path class="st0" d="M160.5,111.9L160.5,111.9c1.1-1.1,2.9-2,4.7-2c4.6,0,6,3.9,6,8.5c0,4.7-1.6,8.5-6.2,8.5
					c-1.6,0-3.3-0.7-4.4-1.8h-0.1v8.1h-4.3v-22.9h4.3V111.9z M163.5,113.5c-1.4,0-2.4,0.6-2.9,1v7.9c0.5,0.4,1.6,1,2.9,1
					c2.5,0,3.2-2.2,3.2-5C166.7,115.7,166,113.5,163.5,113.5z"/>
				<path class="st0" d="M176.5,114.1l-0.6-3.4c2.3-0.5,4.8-0.8,6.8-0.8c4.2,0,6.5,1.1,6.5,5.5v11.2h-4.3V125c0,0,0,0-0.1,0
					c-1.4,1.4-2.8,2-4.9,2c-3.3,0-5.1-2.2-5.1-5c0-4,3.7-5.1,6.9-5.1h3.1v-1.1c0-1.7-1-2.2-3.2-2.2
					C180.3,113.5,178.8,113.6,176.5,114.1z M184.8,119.4h-2.9c-1.9,0-2.9,0.7-2.9,2.2c0,1.4,1.1,2.1,2.6,2.1c1.3,0,2.6-0.6,3.2-1
					V119.4z"/>
				<path class="st0" d="M197.7,126.7h-4.3v-16.4h4.3v2.1h0.1c1.4-1.5,3.2-2.5,5.3-2.5c3.3,0,4.9,2.1,4.9,5.5v11.2h-4.3v-10.2
					c0-1.9-0.7-3-2.6-3c-1.3,0-2.6,0.7-3.4,1.2V126.7z M196.5,108.5l-1.3-1c1.1-2.4,2.4-3,3.5-3c1.6,0,3.2,1.4,4.3,1.4
					c0.6,0,1.2-0.2,2.1-1.3l1.1,1.3c-1,2-2.1,2.6-3.2,2.6c-1.2,0-3-1.3-4.2-1.3C198.2,107.2,197.7,107.4,196.5,108.5z"/>
				<path class="st0" d="M213.6,114.1l-0.6-3.4c2.3-0.5,4.8-0.8,6.8-0.8c4.2,0,6.5,1.1,6.5,5.5v11.2H222V125c0,0,0,0-0.1,0
					c-1.4,1.4-2.8,2-4.9,2c-3.3,0-5.1-2.2-5.1-5c0-4,3.7-5.1,6.9-5.1h3.1v-1.1c0-1.7-1-2.2-3.2-2.2
					C217.5,113.5,216,113.6,213.6,114.1z M222,119.4h-2.9c-1.9,0-2.9,0.7-2.9,2.2c0,1.4,1.1,2.1,2.6,2.1c1.3,0,2.6-0.6,3.2-1V119.4z
					"/>
				<path class="st0" d="M237.6,127c-2.7,0-5.5-0.3-7.5-0.8l0.8-3.4c2.7,0.7,4.9,0.8,6.2,0.8c2.1,0,2.7-1,2.7-1.6
					c0-0.8-0.9-1.2-2.8-1.6c-3.7-0.6-6.5-1.8-6.5-5.5c0-3.5,2.5-4.9,6.5-4.9c2.7,0,4.9,0.3,6.9,0.8l-0.8,3.4
					c-2.7-0.7-4.7-0.8-5.9-0.8c-2,0-2.5,0.8-2.5,1.4c0,0.8,0.6,1.2,2.7,1.7c3.1,0.7,6.7,1.5,6.7,5.3
					C244.1,125.3,241.6,127,237.6,127z"/>
				<path class="st0" d="M96.1,165.9h-4.3v-16.4h4.3v2.6h0.1c1-1.5,3-3,5.7-3v4c-2.2,0-4.4,0.6-5.7,1.2V165.9z"/>
				<path class="st0" d="M108.5,158.6c0.1,2.5,1.5,4.1,4.5,4.1c1.4,0,3-0.1,5.1-0.7l0.5,3.4c-2.2,0.6-4.1,0.8-6.2,0.8
					c-6.3,0-8.5-3.3-8.5-8.5c0-5.1,2.2-8.5,8.5-8.5c4.9,0,6.6,2.5,6.9,5.3c0.2,1.2,0.1,2.7-0.1,4.1H108.5z M108.5,155.9h6.4
					c0.1-0.4,0.1-0.9,0.1-1.3c-0.1-1.2-0.9-2.2-2.9-2.2C109.7,152.5,108.7,153.8,108.5,155.9z"/>
				<path class="st0" d="M124.4,153.4l-0.6-3.4c2.3-0.5,4.8-0.8,6.8-0.8c4.2,0,6.5,1.1,6.5,5.5v11.2h-4.3v-1.6c0,0,0,0-0.1,0
					c-1.4,1.4-2.8,2-4.9,2c-3.3,0-5.1-2.2-5.1-5c0-4,3.7-5.1,6.9-5.1h3.1v-1.1c0-1.7-1-2.2-3.2-2.2
					C128.2,152.7,126.8,152.9,124.4,153.4z M132.7,158.6h-2.9c-1.9,0-2.9,0.7-2.9,2.2c0,1.4,1.1,2.1,2.6,2.1c1.3,0,2.6-0.6,3.2-1
					V158.6z"/>
				<path class="st0" d="M141.4,143h4.3v22.9h-4.3V143z"/>
				<path class="st0" d="M154.4,143.6v4.5h-4.3v-4.5H154.4z M154.4,149.5v16.4h-4.3v-16.4H154.4z"/>
				<path class="st0" d="M171.8,152.6l-8.3,10v0.1h8.7v3.3H158v-3l8.4-10v-0.1h-7.9v-3.3h13.3V152.6z"/>
				<path class="st0" d="M177,153.4l-0.6-3.4c2.3-0.5,4.8-0.8,6.8-0.8c4.2,0,6.5,1.1,6.5,5.5v11.2h-4.3v-1.6c0,0,0,0-0.1,0
					c-1.4,1.4-2.8,2-4.9,2c-3.3,0-5.1-2.2-5.1-5c0-4,3.7-5.1,6.9-5.1h3.1v-1.1c0-1.7-1-2.2-3.2-2.2
					C180.8,152.7,179.4,152.9,177,153.4z M185.3,158.6h-2.9c-1.9,0-2.9,0.7-2.9,2.2c0,1.4,1.1,2.1,2.6,2.1c1.3,0,2.6-0.6,3.2-1
					V158.6z"/>
				<path class="st0" d="M204.3,164.3C204.3,164.3,204.3,164.3,204.3,164.3c-1.1,1.1-2.9,2-4.7,2c-4.6,0-6-3.8-6-8.5
					c0-4.7,1.6-8.5,6.2-8.5c1.7,0,3.3,0.7,4.4,1.8c0,0,0,0,0.1,0V143h4.3v22.9h-4.3V164.3z M201.4,162.7c1.4,0,2.5-0.6,3-1v-7.9
					c-0.5-0.4-1.5-1-3-1c-2.5,0-3.2,2.2-3.2,5C198.2,160.5,198.9,162.7,201.4,162.7z"/>
				<path class="st0" d="M214.2,153.4l-0.6-3.4c2.3-0.5,4.8-0.8,6.8-0.8c4.2,0,6.5,1.1,6.5,5.5v11.2h-4.3v-1.6c0,0,0,0-0.1,0
					c-1.4,1.4-2.8,2-4.9,2c-3.3,0-5.1-2.2-5.1-5c0-4,3.7-5.1,6.9-5.1h3.1v-1.1c0-1.7-1-2.2-3.2-2.2
					C218,152.7,216.5,152.9,214.2,153.4z M222.5,158.6h-2.9c-1.9,0-2.9,0.7-2.9,2.2c0,1.4,1.1,2.1,2.6,2.1c1.3,0,2.6-0.6,3.2-1
					V158.6z"/>
				<path class="st0" d="M238.2,166.2c-2.7,0-5.5-0.3-7.5-0.8l0.8-3.4c2.7,0.7,4.9,0.8,6.2,0.8c2.1,0,2.7-1,2.7-1.6
					c0-0.8-0.9-1.2-2.8-1.6c-3.7-0.6-6.5-1.8-6.5-5.5c0-3.5,2.5-4.9,6.5-4.9c2.7,0,4.9,0.3,6.9,0.8l-0.8,3.4
					c-2.7-0.7-4.7-0.8-5.9-0.8c-2,0-2.5,0.8-2.5,1.4c0,0.8,0.6,1.2,2.7,1.7c3.1,0.7,6.7,1.5,6.7,5.3
					C244.6,164.6,242.1,166.2,238.2,166.2z"/>
			</g>
		</g>
	</g>
</g>
</svg>
