<?xml version="1.0" encoding="utf-8"?>
<!-- Generator: Adobe Illustrator 23.0.0, SVG Export Plug-In . SVG Version: 6.00 Build 0)  -->
<svg version="1.1" id="Capa_1" xmlns="http://www.w3.org/2000/svg" xmlns:xlink="http://www.w3.org/1999/xlink" x="0px" y="0px"
	 viewBox="0 0 339.93 175.94" enable-background="new 0 0 339.93 175.94" xml:space="preserve">
<g>
	<g>
		<g>
			<g>
				<path fill="#231F20" d="M190.38,113.56l-0.62-3.41c2.33-0.46,4.79-0.75,6.75-0.75c4.16,0,6.46,1.08,6.46,5.51v11.21h-4.26v-1.64
					c-0.03,0-0.03,0-0.07,0c-1.41,1.44-2.79,1.97-4.85,1.97c-3.28,0-5.08-2.2-5.08-5.05c0-4,3.67-5.11,6.88-5.11h3.11v-1.15
					c0-1.67-1.05-2.2-3.18-2.2C194.22,112.94,192.74,113.07,190.38,113.56z M198.71,118.84h-2.85c-1.93,0-2.88,0.69-2.88,2.2
					c0,1.44,1.15,2.13,2.56,2.13c1.34,0,2.59-0.56,3.18-1.02V118.84z"/>
				<path fill="#231F20" d="M211.65,126.11h-4.26v-16.39h4.26v2.13h0.07c1.41-1.51,3.21-2.46,5.34-2.46c3.28,0,4.92,2.13,4.92,5.51
					v11.21h-4.26v-10.23c0-1.9-0.72-2.95-2.62-2.95c-1.34,0-2.62,0.72-3.44,1.25V126.11z M210.47,107.99l-1.31-1.05
					c1.11-2.36,2.39-2.98,3.54-2.98c1.61,0,3.21,1.44,4.33,1.44c0.59,0,1.21-0.23,2.13-1.34l1.12,1.28
					c-0.98,1.97-2.07,2.62-3.25,2.62c-1.25,0-2.98-1.34-4.23-1.34C212.11,106.61,211.59,106.81,210.47,107.99z"/>
				<path fill="#231F20" d="M226.07,117.92c0-5.15,2.2-8.52,7.96-8.52s7.93,3.38,7.93,8.52c0,5.18-2.16,8.52-7.93,8.52
					S226.07,123.1,226.07,117.92z M230.59,117.92c0,3.05,0.75,5.02,3.44,5.02s3.44-1.97,3.44-5.02c0-3.01-0.75-4.98-3.44-4.98
					S230.59,114.9,230.59,117.92z"/>
				<path fill="#231F20" d="M253.04,126.44c-2.65,0-5.51-0.29-7.47-0.79l0.79-3.38c2.69,0.66,4.95,0.75,6.19,0.75
					c2.1,0,2.69-0.98,2.69-1.57c0-0.82-0.85-1.21-2.82-1.61c-3.7-0.62-6.52-1.84-6.52-5.54c0-3.51,2.52-4.92,6.49-4.92
					c2.66,0,4.92,0.29,6.88,0.79l-0.75,3.41c-2.72-0.66-4.65-0.79-5.9-0.79c-1.97,0-2.46,0.82-2.46,1.38c0,0.79,0.56,1.21,2.66,1.67
					c3.11,0.69,6.69,1.51,6.69,5.31C259.5,124.77,257,126.44,253.04,126.44z"/>
				<path fill="#231F20" d="M281.29,124.47c-0.03,0-0.03,0-0.07,0c-1.02,1.15-2.82,1.97-4.59,1.97c-4.59,0-6-3.83-6-8.52
					c0-4.65,1.64-8.52,6.23-8.52c1.67,0,3.34,0.69,4.36,1.84c0.03,0,0.03,0,0.07,0v-8.06h4.26v22.94h-4.26V124.47z M278.34,122.93
					c1.41,0,2.46-0.62,2.95-1.05v-7.93c-0.49-0.39-1.54-1.02-2.95-1.02c-2.49,0-3.18,2.2-3.18,4.98
					C275.16,120.71,275.85,122.93,278.34,122.93z"/>
				<path fill="#231F20" d="M294.29,118.84c0.1,2.46,1.47,4.1,4.49,4.1c1.41,0,2.98-0.07,5.11-0.66l0.49,3.38
					c-2.16,0.62-4.1,0.79-6.23,0.79c-6.29,0-8.52-3.34-8.52-8.52c0-5.15,2.23-8.52,8.46-8.52c4.92,0,6.56,2.46,6.88,5.31
					c0.16,1.25,0.07,2.65-0.13,4.13H294.29z M294.29,116.15h6.36c0.07-0.43,0.1-0.88,0.07-1.28c-0.13-1.25-0.88-2.2-2.88-2.2
					C295.47,112.68,294.46,114.05,294.29,116.15z"/>
				<path fill="#231F20" d="M163.27,158.09c0.1,2.46,1.47,4.1,4.49,4.1c1.41,0,2.98-0.07,5.11-0.66l0.49,3.38
					c-2.16,0.62-4.1,0.79-6.23,0.79c-6.29,0-8.52-3.34-8.52-8.52c0-5.15,2.23-8.52,8.46-8.52c4.92,0,6.56,2.46,6.88,5.31
					c0.16,1.25,0.07,2.66-0.13,4.13H163.27z M163.27,155.4h6.36c0.07-0.43,0.1-0.88,0.07-1.28c-0.13-1.25-0.88-2.2-2.88-2.2
					C164.45,151.92,163.43,153.3,163.27,155.4z"/>
				<path fill="#231F20" d="M184.31,159.99h-0.07l-3.31,5.38h-4.56l5.7-8.52l-5.21-7.87h4.92l3.05,4.79h0.07l2.92-4.79h4.42
					l-5.21,7.73l5.74,8.65h-5.01L184.31,159.99z"/>
				<path fill="#231F20" d="M200.79,150.61h0.07c1.05-1.15,2.85-1.97,4.62-1.97c4.59,0,5.97,3.87,5.97,8.52
					c0,4.69-1.64,8.52-6.23,8.52c-1.64,0-3.31-0.69-4.36-1.83h-0.07v8.06h-4.26v-22.94h4.26V150.61z M203.74,152.19
					c-1.38,0-2.43,0.62-2.95,1.02v7.93c0.52,0.43,1.57,1.05,2.95,1.05c2.52,0,3.21-2.23,3.21-5.02
					C206.95,154.38,206.26,152.19,203.74,152.19z"/>
				<path fill="#231F20" d="M219.86,158.09c0.1,2.46,1.47,4.1,4.49,4.1c1.41,0,2.98-0.07,5.11-0.66l0.49,3.38
					c-2.16,0.62-4.1,0.79-6.23,0.79c-6.29,0-8.52-3.34-8.52-8.52c0-5.15,2.23-8.52,8.46-8.52c4.92,0,6.55,2.46,6.88,5.31
					c0.16,1.25,0.07,2.66-0.13,4.13H219.86z M219.86,155.4h6.36c0.06-0.43,0.1-0.88,0.06-1.28c-0.13-1.25-0.88-2.2-2.88-2.2
					C221.04,151.92,220.02,153.3,219.86,155.4z"/>
				<path fill="#231F20" d="M238.8,165.36h-4.26v-16.39h4.26v2.62h0.07c1.05-1.48,3.05-2.95,5.67-2.95v4.03
					c-2.2,0-4.42,0.59-5.74,1.25V165.36z"/>
				<path fill="#231F20" d="M252.56,143.07v4.52h-4.26v-4.52H252.56z M252.56,148.97v16.39h-4.26v-16.39H252.56z"/>
				<path fill="#231F20" d="M261.31,158.09c0.1,2.46,1.47,4.1,4.49,4.1c1.41,0,2.98-0.07,5.11-0.66l0.49,3.38
					c-2.16,0.62-4.1,0.79-6.23,0.79c-6.29,0-8.52-3.34-8.52-8.52c0-5.15,2.23-8.52,8.46-8.52c4.92,0,6.56,2.46,6.88,5.31
					c0.16,1.25,0.07,2.66-0.13,4.13H261.31z M261.31,155.4h6.36c0.07-0.43,0.1-0.88,0.07-1.28c-0.13-1.25-0.88-2.2-2.88-2.2
					C262.49,151.92,261.48,153.3,261.31,155.4z"/>
				<path fill="#231F20" d="M280.25,165.36h-4.26v-16.39h4.26v2.13h0.07c1.41-1.51,3.21-2.46,5.34-2.46c3.28,0,4.92,2.13,4.92,5.51
					v11.21h-4.26v-10.23c0-1.9-0.72-2.95-2.62-2.95c-1.34,0-2.62,0.72-3.44,1.25V165.36z"/>
				<path fill="#231F20" d="M303.13,148.65c2.1,0,3.77,0.29,5.74,0.79l-0.75,3.41c-2.72-0.66-3.77-0.66-4.98-0.66
					c-2.56,0-3.93,1.7-3.93,4.98s1.38,5.02,3.93,5.02c1.21,0,2.26,0,4.98-0.66l0.75,3.38c-1.97,0.49-3.64,0.79-5.74,0.79
					c-6.36,0-8.46-3.34-8.46-8.52C294.67,152.02,296.77,148.65,303.13,148.65z"/>
				<path fill="#231F20" d="M316.63,143.07v4.52h-4.26v-4.52H316.63z M316.63,148.97v16.39h-4.26v-16.39H316.63z"/>
				<path fill="#231F20" d="M322.23,152.81l-0.62-3.41c2.33-0.46,4.79-0.75,6.75-0.75c4.16,0,6.46,1.08,6.46,5.51v11.21h-4.26v-1.64
					c-0.03,0-0.03,0-0.07,0c-1.41,1.44-2.79,1.97-4.85,1.97c-3.28,0-5.08-2.2-5.08-5.05c0-4,3.67-5.11,6.88-5.11h3.11v-1.15
					c0-1.67-1.05-2.2-3.18-2.2C326.06,152.19,324.59,152.32,322.23,152.81z M330.55,158.09h-2.85c-1.93,0-2.88,0.69-2.88,2.2
					c0,1.44,1.15,2.13,2.56,2.13c1.34,0,2.59-0.56,3.18-1.02V158.09z"/>
			</g>
		</g>
		<g>
			<g>
				<path fill="#231F20" d="M206.99,48.64h13.97v9.86h-13.97v14.06h-9.86V58.5h-14.06v-9.86h14.06V34.67h9.86V48.64z"/>
				<path fill="#231F20" d="M230.37,35.13l-3.01-9.86c7.21-2.74,14.7-6.3,19.26-10.04h8.67v62.54h-11.87V29.19L230.37,35.13z"/>
				<path fill="#231F20" d="M298.75,45.17c8.03,3.83,12.6,8.58,12.6,15.79c0,12.23-10.59,17.71-23.37,17.71
					c-12.14,0-22.73-4.84-22.73-16.43c0-7.49,4.84-12.32,12.51-15.43v-0.18c-6.48-3.2-10.68-7.94-10.68-15.25
					c0-11.14,10.41-16.62,21.64-16.62c10.59,0,20.82,5.48,20.82,15.98c0,6.94-4.02,10.86-10.77,14.24V45.17z M288.7,69.91
					c7.76,0,10.5-3.74,10.5-7.85c0-6.48-7.3-8.67-12.69-10.86c-4.66,1.83-9.04,4.84-9.04,9.77
					C277.47,65.44,280.58,69.91,288.7,69.91z M278.93,31.11c0,5.29,5.39,8.31,10.86,9.68c4.29-1.55,7.85-4.56,7.85-9.04
					c0-5.29-4.47-8.22-9.68-8.22C283.41,23.53,278.93,26.27,278.93,31.11z"/>
			</g>
		</g>
	</g>
	<g>
		<g>
			<g>
				
					<ellipse transform="matrix(0.2298 -0.9732 0.9732 0.2298 -30.3814 137.5494)" fill="#FAE800" cx="71.71" cy="87.97" rx="64.78" ry="64.78"/>
			</g>
		</g>
		<g>
			<path fill="#4D4D4D" d="M71.71,18.33c-38.4,0-69.63,31.24-69.63,69.63c0,38.4,31.24,69.63,69.63,69.63s69.63-31.24,69.63-69.63
				C141.34,49.57,110.11,18.33,71.71,18.33z M71.71,147.89c-33.04,0-59.92-26.88-59.92-59.92c0-33.04,26.88-59.92,59.92-59.92
				s59.92,26.88,59.92,59.92C131.63,121.01,104.75,147.89,71.71,147.89z M76.57,70.91V42.63c0-2.68-2.18-4.86-4.86-4.86
				c-2.68,0-4.86,2.18-4.86,4.86v28.29C59.4,73.04,53.9,79.84,53.9,87.97c0,3.65,1.11,7.04,3,9.87L39.02,115.2
				c-1.92,1.87-1.97,4.94-0.1,6.87c0.96,0.98,2.22,1.47,3.49,1.47c1.22,0,2.44-0.46,3.38-1.37l18.56-18.02
				c2.25,1.03,4.73,1.64,7.36,1.64c9.82,0,17.81-7.99,17.81-17.81C89.52,79.84,84.02,73.04,76.57,70.91z M71.71,96.07
				c-4.47,0-8.1-3.63-8.1-8.1c0-4.47,3.63-8.1,8.1-8.1c4.47,0,8.1,3.63,8.1,8.1C79.81,92.44,76.18,96.07,71.71,96.07z"/>
		</g>
	</g>
</g>
<g>
</g>
<g>
</g>
<g>
</g>
<g>
</g>
<g>
</g>
<g>
</g>
<g>
</g>
<g>
</g>
<g>
</g>
<g>
</g>
<g>
</g>
<g>
</g>
<g>
</g>
<g>
</g>
<g>
</g>
</svg>
