<?xml version="1.0" encoding="utf-8"?>
<!-- Generator: Adobe Illustrator 23.0.0, SVG Export Plug-In . SVG Version: 6.00 Build 0)  -->
<svg version="1.1" id="Capa_1" xmlns="http://www.w3.org/2000/svg" xmlns:xlink="http://www.w3.org/1999/xlink" x="0px" y="0px"
	 viewBox="0 0 364.93 209.94" enable-background="new 0 0 364.93 209.94" xml:space="preserve">
<g>
	<g>
		<g>
			<g>
				<polygon fill="#FAE800" points="109.02,17.67 81.47,45.22 70.48,34.24 61.63,43.1 81.47,62.93 117.88,26.52 				"/>
			</g>
		</g>
		<g>
			<g>
				<polygon fill="#FAE800" points="3.99,134.57 22.96,115.88 80.66,173.58 61.97,192.27 				"/>
			</g>
		</g>
		<g>
			<g>
				<path fill="#4D4D4D" d="M79.26,65.14c0.61,0.61,1.4,0.91,2.2,0.91c0.8,0,1.6-0.3,2.2-0.91l36.41-36.41
					c0.58-0.58,0.91-1.38,0.91-2.2c0-0.83-0.33-1.62-0.91-2.2l-8.86-8.86c-1.22-1.22-3.19-1.22-4.41,0L81.47,40.81l-8.78-8.78
					c-1.22-1.22-3.19-1.22-4.41,0l-8.86,8.86c-0.58,0.58-0.91,1.38-0.91,2.2s0.33,1.62,0.91,2.2L79.26,65.14z M70.48,38.65
					l8.78,8.78c1.22,1.22,3.19,1.22,4.41,0l25.35-25.35l4.45,4.45l-32,32L66.03,43.09L70.48,38.65z M137.11,105.66
					c-1.84-1.85-4.31-2.82-6.96-2.95c0.49-3.34-0.51-6.86-3.07-9.43c-2.23-2.23-5.34-3.23-8.4-3.08c0-2.82-1.08-5.64-3.23-7.79
					c-1.21-1.21-2.69-2.02-4.27-2.53l13.25-13.25c4.3-4.31,4.3-11.31,0-15.62c-4.16-4.17-11.45-4.18-15.62,0L80.21,79.62
					c-0.2-4.76-2.09-9.22-5.48-12.61c-1.22-1.22-3.19-1.22-4.41,0l-34.36,34.36c-3.95,3.95-7.11,8.65-9.32,13.76l-1.47-1.47
					c-1.21-1.21-3.17-1.22-4.39-0.02L1.8,132.35c-0.59,0.58-0.93,1.38-0.93,2.21c0,0.83,0.33,1.63,0.92,2.22l57.98,57.7
					c0.61,0.6,1.4,0.91,2.2,0.91c0.8,0,1.6-0.3,2.2-0.91l18.7-18.69c0.58-0.58,0.91-1.38,0.91-2.2c0-0.81-0.32-1.59-0.89-2.17
					c4.79-2.12,9.14-5.05,12.91-8.83l28.12-28.12c0,0,0.01,0,0.01-0.01l12.41-12.42c2.24-2.24,3.58-5.13,3.77-8.15
					C140.32,110.72,139.25,107.8,137.11,105.66z M115.87,97.69c0.91-0.91,2.12-1.41,3.4-1.41c1.28,0,2.49,0.5,3.4,1.41
					c1.87,1.88,1.87,4.92,0,6.8l-17.13,17.13c-1.88,1.87-4.92,1.87-6.8,0c-0.91-0.91-1.41-2.12-1.41-3.4c0-1.28,0.5-2.49,1.41-3.4
					L115.87,97.69z M111.04,93.62l-19.86,19.86c-1.82,1.81-4.98,1.82-6.8,0c-1.87-1.88-1.87-4.92,0-6.8l19.86-19.86
					c0.91-0.91,2.11-1.41,3.4-1.41c1.29,0,2.49,0.5,3.4,1.41C112.91,88.7,112.91,91.75,111.04,93.62z M61.97,187.87L8.42,134.58
					l14.52-14.31l53.31,53.31L61.97,187.87z M91.4,158.17c-3.81,3.81-8.29,6.62-13.29,8.44l-46.64-46.64
					c1.89-5.31,4.9-10.2,8.89-14.19L72.25,73.9c1.17,1.95,1.79,4.19,1.79,6.53c0,3.4-1.33,6.6-3.74,9.01l-15.52,15.62
					c-1.19,1.2-1.21,3.14-0.03,4.36l9.59,9.95c5.57,5.79,5.49,15.12-0.19,20.8c-1.22,1.22-1.22,3.19,0,4.41
					c0.61,0.61,1.4,0.91,2.2,0.91c0.8,0,1.6-0.3,2.2-0.91c8.07-8.07,8.19-21.32,0.28-29.54l-7.47-7.75L74.27,94.3
					c0.07-0.06,0.16-0.08,0.22-0.15l38.73-38.73c1.82-1.82,4.99-1.81,6.8,0c1.87,1.87,1.87,4.93,0,6.8l-40.05,40.05
					c-4.3,4.3-4.3,11.31,0,15.62c2.08,2.09,4.86,3.24,7.81,3.24c1.24,0,2.42-0.24,3.56-0.63c0.43,2.08,1.45,4,2.99,5.53
					c2.15,2.15,4.98,3.23,7.81,3.23c0.84,0,1.67-0.13,2.49-0.32c0.25,2.34,1.19,4.56,2.92,6.28c1.22,1.22,2.71,2.03,4.29,2.51
					L91.4,158.17z M131.94,117.63l-10.07,10.07c0,0,0,0-0.01,0l-2.35,2.35c-2.3,2.29-5.69,2.64-7.56,0.76
					c-1.88-1.88-1.53-5.27,0.77-7.57l12.41-12.42c1.17-1.16,2.63-1.86,4.14-1.95c0.12-0.01,0.23-0.01,0.35-0.01
					c1.22,0,2.3,0.42,3.08,1.2c0.86,0.85,1.28,2.07,1.19,3.42C133.8,115,133.11,116.47,131.94,117.63z"/>
			</g>
		</g>
	</g>
	<g>
		<g>
			<g>
				<path fill="#231F20" d="M209.25,105.14c2.1,0,3.77,0.29,5.74,0.79l-0.75,3.41c-2.72-0.66-3.77-0.66-4.98-0.66
					c-2.56,0-3.93,1.71-3.93,4.98s1.38,5.01,3.93,5.01c1.21,0,2.26,0,4.98-0.66l0.75,3.38c-1.97,0.49-3.64,0.79-5.74,0.79
					c-6.36,0-8.46-3.34-8.46-8.52C200.79,108.51,202.89,105.14,209.25,105.14z"/>
				<path fill="#231F20" d="M218.48,98.91h4.26v22.94h-4.26V98.91z"/>
				<path fill="#231F20" d="M231.43,99.56v4.52h-4.26v-4.52H231.43z M231.43,105.46v16.39h-4.26v-16.39H231.43z"/>
				<path fill="#231F20" d="M240.18,114.58c0.1,2.46,1.47,4.1,4.49,4.1c1.41,0,2.98-0.07,5.11-0.66l0.49,3.38
					c-2.16,0.62-4.1,0.79-6.23,0.79c-6.29,0-8.52-3.34-8.52-8.52c0-5.15,2.23-8.52,8.46-8.52c4.92,0,6.56,2.46,6.88,5.31
					c0.16,1.25,0.07,2.66-0.13,4.13H240.18z M240.18,111.89h6.36c0.07-0.43,0.1-0.88,0.07-1.28c-0.13-1.25-0.88-2.2-2.88-2.2
					C241.36,108.41,240.34,109.79,240.18,111.89z"/>
				<path fill="#231F20" d="M259.12,121.85h-4.26v-16.39h4.26v2.13h0.07c1.41-1.51,3.21-2.46,5.34-2.46c3.28,0,4.92,2.13,4.92,5.51
					v11.21h-4.26v-10.23c0-1.9-0.72-2.95-2.62-2.95c-1.34,0-2.62,0.72-3.44,1.25V121.85z"/>
				<path fill="#231F20" d="M275.18,108.51h-2.2v-2.79l2.2-0.26l0.52-4.59h3.74v4.59h4.1v3.05h-4.1v7.9c0,1.54,0.65,2.36,2.39,2.36
					c0.39,0,0.88-0.03,1.51-0.16l0.36,3.28c-0.92,0.2-2.46,0.29-3.34,0.29c-3.74,0-5.18-1.54-5.18-5.01V108.51z"/>
				<path fill="#231F20" d="M290.91,114.58c0.1,2.46,1.47,4.1,4.49,4.1c1.41,0,2.98-0.07,5.11-0.66l0.49,3.38
					c-2.16,0.62-4.1,0.79-6.23,0.79c-6.29,0-8.52-3.34-8.52-8.52c0-5.15,2.23-8.52,8.46-8.52c4.92,0,6.56,2.46,6.88,5.31
					c0.16,1.25,0.06,2.66-0.13,4.13H290.91z M290.91,111.89h6.36c0.07-0.43,0.1-0.88,0.07-1.28c-0.13-1.25-0.88-2.2-2.88-2.2
					C292.09,108.41,291.07,109.79,290.91,111.89z"/>
				<path fill="#231F20" d="M312.57,122.18c-2.66,0-5.51-0.29-7.47-0.79l0.79-3.38c2.69,0.66,4.95,0.75,6.2,0.75
					c2.1,0,2.69-0.98,2.69-1.57c0-0.82-0.85-1.21-2.82-1.61c-3.71-0.62-6.52-1.84-6.52-5.54c0-3.51,2.52-4.92,6.49-4.92
					c2.65,0,4.92,0.29,6.88,0.79l-0.75,3.41c-2.72-0.66-4.65-0.79-5.9-0.79c-1.97,0-2.46,0.82-2.46,1.38c0,0.79,0.56,1.21,2.65,1.67
					c3.11,0.69,6.69,1.51,6.69,5.31C319.02,120.51,316.53,122.18,312.57,122.18z"/>
				<path fill="#231F20" d="M166.76,144.38c2.1,0,3.77,0.29,5.74,0.79l-0.75,3.41c-2.72-0.66-3.77-0.66-4.98-0.66
					c-2.56,0-3.93,1.7-3.93,4.98c0,3.28,1.38,5.01,3.93,5.01c1.21,0,2.26,0,4.98-0.66l0.75,3.38c-1.97,0.49-3.64,0.79-5.74,0.79
					c-6.36,0-8.46-3.34-8.46-8.52C158.3,147.76,160.4,144.38,166.76,144.38z"/>
				<path fill="#231F20" d="M174.79,152.91c0-5.15,2.2-8.52,7.96-8.52c5.77,0,7.93,3.38,7.93,8.52c0,5.18-2.16,8.52-7.93,8.52
					C176.98,161.43,174.79,158.08,174.79,152.91z M179.31,152.91c0,3.05,0.75,5.01,3.44,5.01c2.69,0,3.44-1.97,3.44-5.01
					c0-3.02-0.75-4.98-3.44-4.98C180.06,147.92,179.31,149.89,179.31,152.91z"/>
				<path fill="#231F20" d="M199.04,161.1h-4.26v-16.39h4.26v2.13h0.07c1.41-1.51,3.21-2.46,5.34-2.46c3.28,0,4.92,2.13,4.92,5.51
					v11.21h-4.26v-10.23c0-1.9-0.72-2.95-2.62-2.95c-1.34,0-2.62,0.72-3.44,1.25V161.1z"/>
				<path fill="#231F20" d="M220.99,152.91c0-5.15,2.2-8.52,7.96-8.52c5.77,0,7.93,3.38,7.93,8.52c0,5.18-2.16,8.52-7.93,8.52
					C223.19,161.43,220.99,158.08,220.99,152.91z M225.51,152.91c0,3.05,0.75,5.01,3.44,5.01s3.44-1.97,3.44-5.01
					c0-3.02-0.75-4.98-3.44-4.98S225.51,149.89,225.51,152.91z"/>
				<path fill="#231F20" d="M245.24,146.35h0.07c1.05-1.15,2.85-1.97,4.62-1.97c4.59,0,5.97,3.87,5.97,8.52
					c0,4.69-1.64,8.52-6.23,8.52c-1.64,0-3.44-0.69-4.59-1.84h-0.07l-0.75,1.64h-3.28v-23.07h4.26V146.35z M248.19,147.92
					c-1.38,0-2.43,0.62-2.95,1.02v7.93c0.52,0.43,1.57,1.05,2.95,1.05c2.52,0,3.21-2.23,3.21-5.01
					C251.4,150.12,250.71,147.92,248.19,147.92z"/>
				<path fill="#231F20" d="M263.89,163.1c0,3.21-1.05,4.88-5.15,4.88c-0.88,0-1.93-0.1-2.88-0.29l0.39-3.28
					c0.59,0.13,1.11,0.16,1.51,0.16c1.38,0,1.87-0.33,1.87-1.77v-18.09h4.26V163.1z M263.89,138.81v4.52h-4.26v-4.52H263.89z"/>
				<path fill="#231F20" d="M272.64,153.82c0.1,2.46,1.47,4.1,4.49,4.1c1.41,0,2.98-0.07,5.11-0.66l0.49,3.38
					c-2.16,0.62-4.1,0.79-6.23,0.79c-6.29,0-8.52-3.34-8.52-8.52c0-5.15,2.23-8.52,8.46-8.52c4.92,0,6.55,2.46,6.88,5.31
					c0.16,1.25,0.07,2.66-0.13,4.13H272.64z M272.64,151.14H279c0.06-0.43,0.1-0.88,0.06-1.28c-0.13-1.25-0.88-2.2-2.88-2.2
					C273.82,147.66,272.8,149.04,272.64,151.14z"/>
				<path fill="#231F20" d="M288.63,147.76h-2.2v-2.79l2.2-0.26l0.53-4.59h3.74v4.59h4.1v3.05h-4.1v7.9c0,1.54,0.66,2.36,2.39,2.36
					c0.39,0,0.88-0.03,1.51-0.16l0.36,3.28c-0.92,0.2-2.46,0.29-3.34,0.29c-3.74,0-5.18-1.54-5.18-5.02V147.76z"/>
				<path fill="#231F20" d="M305.5,138.81v4.52h-4.26v-4.52H305.5z M305.5,144.71v16.39h-4.26v-16.39H305.5z"/>
				<path fill="#231F20" d="M315.1,161.26l-5.74-16.55h4.75l3.67,11.86h0.07l3.7-11.86h4.52l-5.8,16.55H315.1z"/>
				<path fill="#231F20" d="M328.08,152.91c0-5.15,2.2-8.52,7.96-8.52s7.93,3.38,7.93,8.52c0,5.18-2.16,8.52-7.93,8.52
					S328.08,158.08,328.08,152.91z M332.6,152.91c0,3.05,0.75,5.01,3.44,5.01c2.69,0,3.44-1.97,3.44-5.01
					c0-3.02-0.75-4.98-3.44-4.98C333.36,147.92,332.6,149.89,332.6,152.91z"/>
				<path fill="#231F20" d="M355.05,161.43c-2.66,0-5.51-0.29-7.47-0.79l0.79-3.38c2.69,0.66,4.95,0.75,6.2,0.75
					c2.1,0,2.69-0.98,2.69-1.57c0-0.82-0.85-1.21-2.82-1.61c-3.71-0.62-6.52-1.84-6.52-5.54c0-3.51,2.52-4.92,6.49-4.92
					c2.65,0,4.92,0.29,6.88,0.79l-0.75,3.41c-2.72-0.66-4.65-0.79-5.9-0.79c-1.97,0-2.46,0.82-2.46,1.38c0,0.79,0.56,1.21,2.65,1.67
					c3.11,0.69,6.69,1.51,6.69,5.31C361.51,159.76,359.02,161.43,355.05,161.43z"/>
				<path fill="#231F20" d="M191.35,183.63c2.1,0,3.77,0.3,5.74,0.79l-0.75,3.41c-2.72-0.65-3.77-0.65-4.98-0.65
					c-2.56,0-3.93,1.7-3.93,4.98c0,3.28,1.38,5.01,3.93,5.01c1.21,0,2.26,0,4.98-0.66l0.75,3.38c-1.97,0.49-3.64,0.79-5.74,0.79
					c-6.36,0-8.46-3.34-8.46-8.52C182.9,187.01,185,183.63,191.35,183.63z"/>
				<path fill="#231F20" d="M210.92,183.96h4.26v16.39h-4.26v-2.13h-0.07c-1.41,1.51-3.21,2.46-5.34,2.46
					c-3.28,0-4.92-2.13-4.92-5.47v-11.24h4.26v10.26c0,1.87,0.88,2.95,2.62,2.95c1.38,0,2.62-0.75,3.44-1.28V183.96z"/>
				<path fill="#231F20" d="M223.86,200.35h-4.26v-16.39h4.26v2.13h0.06c1.31-1.44,2.98-2.46,5.11-2.46c2.23,0,3.7,0.98,4.39,2.72
					c1.67-1.87,3.57-2.72,5.67-2.72c3.28,0,4.92,2.13,4.92,5.51v11.21h-4.26v-10.23c0-1.9-0.85-2.95-2.62-2.95
					c-1.25,0-2.39,0.72-3.21,1.28c0,0.56,0.03,1.18,0.03,1.87v10.03h-4.26v-10.42c-0.07-1.74-0.92-2.75-2.62-2.75
					c-1.28,0-2.39,0.72-3.21,1.25V200.35z"/>
				<path fill="#231F20" d="M252.7,185.6h0.07c1.05-1.15,2.85-1.97,4.62-1.97c4.59,0,5.97,3.87,5.97,8.52
					c0,4.69-1.64,8.52-6.23,8.52c-1.64,0-3.31-0.69-4.36-1.83h-0.07v8.06h-4.26v-22.94h4.26V185.6z M255.65,187.17
					c-1.38,0-2.43,0.62-2.95,1.02v7.93c0.52,0.43,1.57,1.05,2.95,1.05c2.52,0,3.21-2.23,3.21-5.01S258.17,187.17,255.65,187.17z"/>
				<path fill="#231F20" d="M267.44,177.4h4.26v22.94h-4.26V177.4z"/>
				<path fill="#231F20" d="M280.39,178.06v4.52h-4.26v-4.52H280.39z M280.39,183.96v16.39h-4.26v-16.39H280.39z"/>
				<path fill="#231F20" d="M295.13,198.71c-0.03,0-0.03,0-0.07,0c-1.02,1.15-2.82,1.97-4.59,1.97c-4.59,0-6-3.83-6-8.52
					c0-4.65,1.64-8.52,6.23-8.52c1.67,0,3.34,0.69,4.36,1.84c0.03,0,0.03,0,0.07,0v-8.06h4.26v22.94h-4.26V198.71z M292.18,197.17
					c1.41,0,2.46-0.62,2.95-1.05v-7.93c-0.49-0.39-1.54-1.02-2.95-1.02c-2.49,0-3.18,2.2-3.18,4.98S289.69,197.17,292.18,197.17z"/>
				<path fill="#231F20" d="M303.49,192.15c0-5.15,2.2-8.52,7.96-8.52c5.77,0,7.93,3.38,7.93,8.52c0,5.18-2.16,8.52-7.93,8.52
					C305.68,200.67,303.49,197.33,303.49,192.15z M308.01,192.15c0,3.05,0.75,5.01,3.44,5.01s3.44-1.97,3.44-5.01
					c0-3.02-0.75-4.98-3.44-4.98S308.01,189.14,308.01,192.15z"/>
				<path fill="#231F20" d="M330.46,200.67c-2.66,0-5.51-0.29-7.47-0.79l0.79-3.38c2.69,0.66,4.95,0.75,6.2,0.75
					c2.1,0,2.69-0.98,2.69-1.57c0-0.82-0.85-1.21-2.82-1.61c-3.7-0.62-6.52-1.83-6.52-5.54c0-3.51,2.52-4.92,6.49-4.92
					c2.65,0,4.92,0.3,6.88,0.79l-0.75,3.41c-2.72-0.65-4.65-0.79-5.9-0.79c-1.97,0-2.46,0.82-2.46,1.38c0,0.79,0.56,1.21,2.65,1.67
					c3.11,0.69,6.69,1.51,6.69,5.31C336.92,199,334.42,200.67,330.46,200.67z"/>
			</g>
		</g>
		<g>
			<g>
				<path fill="#231F20" d="M210.35,47.65h13.97v9.86h-13.97v14.06h-9.86V57.51h-14.06v-9.86h14.06V33.69h9.86V47.65z"/>
				<path fill="#231F20" d="M272.07,14.7v37.89h7.94v9.86h-7.94v14.33H260.2V62.44h-28.12v-9.86
					c10.04-10.96,18.81-23.28,25.29-37.89H272.07z M260.2,52.58V30.13h-0.18c-5.02,9.13-9.49,15.06-15.79,22.46H260.2z"/>
				<path fill="#231F20" d="M287.78,45.28c0-17.53,4.47-31.5,23.1-31.5c18.62,0,23.01,13.97,23.01,31.5
					c0,17.71-4.38,32.41-23.01,32.41C292.25,77.69,287.78,62.99,287.78,45.28z M300.37,45.28c0,12.32,2.19,22.64,10.5,22.64
					c8.31,0,10.5-10.32,10.5-22.64c0-12.33-2.19-21.64-10.5-21.64C302.57,23.64,300.37,32.96,300.37,45.28z"/>
			</g>
		</g>
	</g>
</g>
<g>
</g>
<g>
</g>
<g>
</g>
<g>
</g>
<g>
</g>
<g>
</g>
<g>
</g>
<g>
</g>
<g>
</g>
<g>
</g>
<g>
</g>
<g>
</g>
<g>
</g>
<g>
</g>
<g>
</g>
</svg>
