<?xml version="1.0" encoding="utf-8"?>
<!-- Generator: Adobe Illustrator 23.0.0, SVG Export Plug-In . SVG Version: 6.00 Build 0)  -->
<svg version="1.1" id="Capa_1" xmlns="http://www.w3.org/2000/svg" xmlns:xlink="http://www.w3.org/1999/xlink" x="0px" y="0px"
	 viewBox="0 0 339.9 175.9" style="enable-background:new 0 0 339.9 175.9;" xml:space="preserve">
<style type="text/css">
	.st0{fill:#231F20;}
</style>
<g>
	<g>
		<g>
			<path class="st0" d="M25.7,107.8c2.1,0,3.8,0.3,5.7,0.8l-0.8,3.4c-2.7-0.7-3.8-0.7-5-0.7c-2.6,0-3.9,1.7-3.9,5c0,3.3,1.4,5,3.9,5
				c1.2,0,2.3,0,5-0.7l0.8,3.4c-2,0.5-3.6,0.8-5.7,0.8c-6.4,0-8.5-3.3-8.5-8.5C17.2,111.1,19.3,107.8,25.7,107.8z"/>
			<path class="st0" d="M34.9,101.5h4.3v22.9h-4.3V101.5z"/>
			<path class="st0" d="M47.8,102.2v4.5h-4.3v-4.5H47.8z M47.8,108.1v16.4h-4.3v-16.4H47.8z"/>
			<path class="st0" d="M56.6,117.2c0.1,2.5,1.5,4.1,4.5,4.1c1.4,0,3-0.1,5.1-0.7l0.5,3.4c-2.2,0.6-4.1,0.8-6.2,0.8
				c-6.3,0-8.5-3.3-8.5-8.5c0-5.1,2.2-8.5,8.5-8.5c4.9,0,6.6,2.5,6.9,5.3c0.2,1.2,0.1,2.7-0.1,4.1H56.6z M56.6,114.5h6.4
				c0.1-0.4,0.1-0.9,0.1-1.3c-0.1-1.2-0.9-2.2-2.9-2.2C57.8,111,56.7,112.4,56.6,114.5z"/>
			<path class="st0" d="M75.5,124.5h-4.3v-16.4h4.3v2.1h0.1c1.4-1.5,3.2-2.5,5.3-2.5c3.3,0,4.9,2.1,4.9,5.5v11.2h-4.3v-10.2
				c0-1.9-0.7-3-2.6-3c-1.3,0-2.6,0.7-3.4,1.2V124.5z"/>
			<path class="st0" d="M91.6,111.1h-2.2v-2.8l2.2-0.3l0.5-4.6h3.7v4.6h4.1v3h-4.1v7.9c0,1.5,0.7,2.4,2.4,2.4c0.4,0,0.9,0,1.5-0.2
				l0.4,3.3c-0.9,0.2-2.5,0.3-3.3,0.3c-3.7,0-5.2-1.5-5.2-5V111.1z"/>
			<path class="st0" d="M107.3,117.2c0.1,2.5,1.5,4.1,4.5,4.1c1.4,0,3-0.1,5.1-0.7l0.5,3.4c-2.2,0.6-4.1,0.8-6.2,0.8
				c-6.3,0-8.5-3.3-8.5-8.5c0-5.1,2.2-8.5,8.5-8.5c4.9,0,6.6,2.5,6.9,5.3c0.2,1.2,0.1,2.7-0.1,4.1H107.3z M107.3,114.5h6.4
				c0.1-0.4,0.1-0.9,0.1-1.3c-0.1-1.2-0.9-2.2-2.9-2.2C108.5,111,107.5,112.4,107.3,114.5z"/>
			<path class="st0" d="M129,124.8c-2.7,0-5.5-0.3-7.5-0.8l0.8-3.4c2.7,0.7,4.9,0.8,6.2,0.8c2.1,0,2.7-1,2.7-1.6
				c0-0.8-0.9-1.2-2.8-1.6c-3.7-0.6-6.5-1.8-6.5-5.5c0-3.5,2.5-4.9,6.5-4.9c2.7,0,4.9,0.3,6.9,0.8l-0.8,3.4
				c-2.7-0.7-4.7-0.8-5.9-0.8c-2,0-2.5,0.8-2.5,1.4c0,0.8,0.6,1.2,2.7,1.7c3.1,0.7,6.7,1.5,6.7,5.3
				C135.4,123.1,132.9,124.8,129,124.8z"/>
			<path class="st0" d="M155,107.8c2.1,0,3.8,0.3,5.7,0.8L160,112c-2.7-0.7-3.8-0.7-5-0.7c-2.6,0-3.9,1.7-3.9,5c0,3.3,1.4,5,3.9,5
				c1.2,0,2.3,0,5-0.7l0.8,3.4c-2,0.5-3.6,0.8-5.7,0.8c-6.4,0-8.5-3.3-8.5-8.5C146.6,111.1,148.7,107.8,155,107.8z"/>
			<path class="st0" d="M174.6,108.1h4.3v16.4h-4.3v-2.1h-0.1c-1.4,1.5-3.2,2.5-5.3,2.5c-3.3,0-4.9-2.1-4.9-5.5v-11.2h4.3v10.3
				c0,1.9,0.9,3,2.6,3c1.4,0,2.6-0.8,3.4-1.3V108.1z"/>
			<path class="st0" d="M187.5,124.5h-4.3v-16.4h4.3v2.1h0.1c1.3-1.4,3-2.5,5.1-2.5c2.2,0,3.7,1,4.4,2.7c1.7-1.9,3.6-2.7,5.7-2.7
				c3.3,0,4.9,2.1,4.9,5.5v11.2h-4.3v-10.2c0-1.9-0.9-3-2.6-3c-1.2,0-2.4,0.7-3.2,1.3c0,0.6,0,1.2,0,1.9v10h-4.3v-10.4
				c-0.1-1.7-0.9-2.8-2.6-2.8c-1.3,0-2.4,0.7-3.2,1.2V124.5z"/>
			<path class="st0" d="M216.4,109.7L216.4,109.7c1.1-1.1,2.9-2,4.7-2c4.6,0,6,3.9,6,8.5c0,4.7-1.6,8.5-6.2,8.5
				c-1.6,0-3.3-0.7-4.4-1.8h-0.1v8.1h-4.3v-22.9h4.3V109.7z M219.3,111.3c-1.4,0-2.4,0.6-3,1v7.9c0.5,0.4,1.6,1,3,1
				c2.5,0,3.2-2.2,3.2-5C222.5,113.5,221.8,111.3,219.3,111.3z"/>
			<path class="st0" d="M231.1,101.5h4.3v22.9h-4.3V101.5z"/>
			<path class="st0" d="M244.1,102.2v4.5h-4.3v-4.5H244.1z M244.1,108.1v16.4h-4.3v-16.4H244.1z"/>
			<path class="st0" d="M252.8,117.2c0.1,2.5,1.5,4.1,4.5,4.1c1.4,0,3-0.1,5.1-0.7l0.5,3.4c-2.2,0.6-4.1,0.8-6.2,0.8
				c-6.3,0-8.5-3.3-8.5-8.5c0-5.1,2.2-8.5,8.5-8.5c4.9,0,6.6,2.5,6.9,5.3c0.2,1.2,0.1,2.7-0.1,4.1H252.8z M252.8,114.5h6.4
				c0.1-0.4,0.1-0.9,0.1-1.3c-0.1-1.2-0.9-2.2-2.9-2.2C254,111,253,112.4,252.8,114.5z"/>
			<path class="st0" d="M271.7,124.5h-4.3v-16.4h4.3v2.1h0.1c1.4-1.5,3.2-2.5,5.3-2.5c3.3,0,4.9,2.1,4.9,5.5v11.2h-4.3v-10.2
				c0-1.9-0.7-3-2.6-3c-1.3,0-2.6,0.7-3.4,1.2V124.5z"/>
			<path class="st0" d="M296.8,122.8C296.8,122.8,296.8,122.8,296.8,122.8c-1.1,1.1-2.9,2-4.7,2c-4.6,0-6-3.8-6-8.5
				c0-4.7,1.6-8.5,6.2-8.5c1.7,0,3.3,0.7,4.4,1.8c0,0,0,0,0.1,0v-8.1h4.3v22.9h-4.3V122.8z M293.9,121.3c1.4,0,2.5-0.6,3-1v-7.9
				c-0.5-0.4-1.5-1-3-1c-2.5,0-3.2,2.2-3.2,5C290.7,119.1,291.4,121.3,293.9,121.3z"/>
			<path class="st0" d="M305.2,116.3c0-5.1,2.2-8.5,8-8.5s7.9,3.4,7.9,8.5c0,5.2-2.2,8.5-7.9,8.5S305.2,121.5,305.2,116.3z
				 M309.7,116.3c0,3,0.8,5,3.4,5c2.7,0,3.4-2,3.4-5c0-3-0.8-5-3.4-5C310.4,111.3,309.7,113.3,309.7,116.3z"/>
			<path class="st0" d="M99,155.5c0-5.1,2.2-8.5,8-8.5s7.9,3.4,7.9,8.5c0,5.2-2.2,8.5-7.9,8.5S99,160.7,99,155.5z M103.5,155.5
				c0,3,0.8,5,3.4,5c2.7,0,3.4-2,3.4-5c0-3-0.8-5-3.4-5C104.2,150.5,103.5,152.5,103.5,155.5z"/>
			<path class="st0" d="M123.2,149L123.2,149c1.1-1.1,2.9-2,4.7-2c4.6,0,6,3.9,6,8.5c0,4.7-1.6,8.5-6.2,8.5c-1.6,0-3.4-0.7-4.6-1.8
				H123l-0.8,1.6h-3.3v-23.1h4.3V149z M126.2,150.5c-1.4,0-2.4,0.6-2.9,1v7.9c0.5,0.4,1.6,1,2.9,1c2.5,0,3.2-2.2,3.2-5
				C129.4,152.7,128.7,150.5,126.2,150.5z"/>
			<path class="st0" d="M141.9,165.7c0,3.2-1,4.9-5.1,4.9c-0.9,0-1.9-0.1-2.9-0.3l0.4-3.3c0.6,0.1,1.1,0.2,1.5,0.2
				c1.4,0,1.9-0.3,1.9-1.8v-18.1h4.3V165.7z M141.9,141.4v4.5h-4.3v-4.5H141.9z"/>
			<path class="st0" d="M150.6,156.4c0.1,2.5,1.5,4.1,4.5,4.1c1.4,0,3-0.1,5.1-0.7l0.5,3.4c-2.2,0.6-4.1,0.8-6.2,0.8
				c-6.3,0-8.5-3.3-8.5-8.5c0-5.1,2.2-8.5,8.5-8.5c4.9,0,6.6,2.5,6.9,5.3c0.2,1.2,0.1,2.7-0.1,4.1H150.6z M150.6,153.8h6.4
				c0.1-0.4,0.1-0.9,0.1-1.3c-0.1-1.2-0.9-2.2-2.9-2.2C151.8,150.3,150.8,151.7,150.6,153.8z"/>
			<path class="st0" d="M166.6,150.4h-2.2v-2.8l2.2-0.3l0.5-4.6h3.7v4.6h4.1v3h-4.1v7.9c0,1.5,0.7,2.4,2.4,2.4c0.4,0,0.9,0,1.5-0.2
				l0.4,3.3c-0.9,0.2-2.5,0.3-3.3,0.3c-3.7,0-5.2-1.5-5.2-5V150.4z"/>
			<path class="st0" d="M183.5,141.4v4.5h-4.3v-4.5H183.5z M183.5,147.3v16.4h-4.3v-16.4H183.5z"/>
			<path class="st0" d="M193.1,163.9l-5.7-16.6h4.8l3.7,11.9h0.1l3.7-11.9h4.5l-5.8,16.6H193.1z"/>
			<path class="st0" d="M206,155.5c0-5.1,2.2-8.5,8-8.5s7.9,3.4,7.9,8.5c0,5.2-2.2,8.5-7.9,8.5S206,160.7,206,155.5z M210.6,155.5
				c0,3,0.8,5,3.4,5s3.4-2,3.4-5c0-3-0.8-5-3.4-5S210.6,152.5,210.6,155.5z"/>
			<path class="st0" d="M233,164.1c-2.7,0-5.5-0.3-7.5-0.8l0.8-3.4c2.7,0.7,4.9,0.8,6.2,0.8c2.1,0,2.7-1,2.7-1.6
				c0-0.8-0.9-1.2-2.8-1.6c-3.7-0.6-6.5-1.8-6.5-5.5c0-3.5,2.5-4.9,6.5-4.9c2.7,0,4.9,0.3,6.9,0.8l-0.8,3.4
				c-2.7-0.7-4.7-0.8-5.9-0.8c-2,0-2.5,0.8-2.5,1.4c0,0.8,0.6,1.2,2.7,1.7c3.1,0.7,6.7,1.5,6.7,5.3C239.5,162.4,237,164.1,233,164.1
				z"/>
		</g>
	</g>
	<g>
		<g>
			<path class="st0" d="M121.1,48.8h13.7v12.8h-13.7v13.7h-12.8V61.6H94.6V48.8h13.7V35.1h12.8V48.8z"/>
			<path class="st0" d="M183.2,17.3v36.5h7.3v12.8h-7.3v12.8h-15.5V66.6h-27.4V53.8c10-11,17.3-21.9,23.7-36.5H183.2z M167.7,53.8
				V37.4h-0.2c-4.4,7.5-6.7,10.5-11.4,16.4H167.7z"/>
			<path class="st0" d="M196,47.9c0-17.8,4.6-31.5,24.2-31.5s24.2,13.7,24.2,31.5c0,17.8-4.6,32.4-24.2,32.4S196,65.7,196,47.9z
				 M212.4,47.9c0,11.4,1.8,19.6,7.8,19.6c5.9,0,7.8-8.2,7.8-19.6c0-11.4-1.8-18.7-7.8-18.7C214.2,29.2,212.4,36.5,212.4,47.9z"/>
		</g>
	</g>
</g>
</svg>
