<?xml version="1.0" encoding="utf-8"?>
<!-- Generator: Adobe Illustrator 23.0.0, SVG Export Plug-In . SVG Version: 6.00 Build 0)  -->
<svg version="1.1" id="Capa_1" xmlns="http://www.w3.org/2000/svg" xmlns:xlink="http://www.w3.org/1999/xlink" x="0px" y="0px"
	 viewBox="0 0 356.21 23.8" enable-background="new 0 0 356.21 23.8" xml:space="preserve">
<g>
	<g>
		<path fill="#231F20" d="M12.35,2.88c0,0.98-0.2,1.76-0.59,2.34c-0.39,0.57-0.94,0.97-1.64,1.18c0.36,0.39,0.63,0.86,0.82,1.4
			c0.19,0.54,0.28,1.13,0.28,1.78c0,0.71-0.11,1.36-0.33,1.93c-0.22,0.58-0.55,1.07-0.98,1.48c-0.43,0.41-0.96,0.73-1.6,0.95
			c-0.64,0.22-1.38,0.33-2.21,0.33H4.79c-0.28,0-0.51,0.08-0.69,0.25c-0.18,0.16-0.26,0.36-0.26,0.6c0,0.24,0.07,0.44,0.23,0.58
			c0.15,0.15,0.34,0.22,0.58,0.22h4.79c0.44,0,0.84,0.09,1.23,0.25c0.38,0.17,0.71,0.41,1,0.72c0.29,0.32,0.51,0.7,0.68,1.14
			c0.17,0.44,0.25,0.94,0.25,1.49c0,0.64-0.12,1.22-0.35,1.75c-0.24,0.52-0.55,0.98-0.96,1.35c-0.4,0.37-0.88,0.66-1.42,0.86
			c-0.55,0.2-1.12,0.3-1.74,0.3H3.04c-0.42,0-0.81-0.08-1.18-0.23c-0.37-0.15-0.69-0.37-0.97-0.66c-0.28-0.28-0.5-0.62-0.65-1
			C0.08,21.52,0,21.09,0,20.62c0-0.68,0.17-1.26,0.5-1.71c0.33-0.46,0.75-0.82,1.26-1.1c-0.34-0.22-0.61-0.5-0.81-0.84
			c-0.2-0.34-0.3-0.76-0.3-1.24c0-0.3,0.05-0.57,0.16-0.83c0.11-0.25,0.25-0.48,0.44-0.68c0.18-0.21,0.4-0.38,0.65-0.54
			c0.25-0.15,0.51-0.27,0.78-0.37c-0.56-0.41-0.98-0.93-1.26-1.56C1.14,11.13,1,10.4,1,9.58c0-0.71,0.11-1.36,0.33-1.93
			C1.55,7.07,1.87,6.57,2.3,6.16C2.74,5.75,3.27,5.43,3.9,5.2c0.63-0.22,1.37-0.34,2.2-0.34c0.44,0,0.85,0.03,1.24,0.1
			c0.39,0.06,0.75,0.16,1.07,0.3c0.27-0.19,0.48-0.4,0.65-0.62c0.17-0.22,0.31-0.45,0.41-0.67c0.1-0.22,0.18-0.43,0.22-0.62
			C9.74,3.15,9.76,3,9.76,2.88H12.35z M4.44,18.86c-0.18,0-0.35,0.03-0.49,0.1c-0.15,0.07-0.28,0.16-0.4,0.28
			c-0.12,0.11-0.21,0.25-0.27,0.39c-0.06,0.15-0.1,0.31-0.1,0.49c0,0.39,0.12,0.7,0.36,0.94c0.24,0.23,0.54,0.35,0.9,0.35h3.54
			c0.4,0,0.74-0.12,1.01-0.35c0.27-0.23,0.41-0.54,0.41-0.94c0-0.39-0.12-0.7-0.37-0.92c-0.25-0.22-0.55-0.34-0.91-0.34H4.44z
			 M6.1,7.2c-0.64,0-1.13,0.21-1.46,0.63c-0.33,0.42-0.49,1-0.49,1.75c0,0.74,0.16,1.32,0.49,1.73c0.33,0.42,0.82,0.63,1.46,0.63
			c0.66,0,1.15-0.21,1.48-0.63c0.33-0.42,0.49-1,0.49-1.73c0-0.74-0.17-1.33-0.49-1.75C7.25,7.41,6.76,7.2,6.1,7.2z"/>
		<path fill="#231F20" d="M20.54,4.87c0.2,0,0.38,0.01,0.54,0.04c0.16,0.03,0.3,0.05,0.42,0.08c0.14,0.03,0.25,0.07,0.35,0.1v3.04
			h-1.13c-0.34,0-0.67,0.05-0.98,0.15c-0.31,0.1-0.59,0.28-0.82,0.52c-0.24,0.25-0.42,0.57-0.57,0.98
			c-0.14,0.41-0.21,0.92-0.21,1.53v7.7h-3.15V5.19h2.62l0.37,2.01h0.15c0.09-0.29,0.21-0.57,0.33-0.85
			c0.13-0.28,0.29-0.53,0.48-0.75c0.19-0.22,0.42-0.39,0.67-0.53C19.88,4.94,20.18,4.87,20.54,4.87z"/>
		<path fill="#231F20" d="M34.43,19.01h-2.62l-0.32-1.71h-0.15c-0.18,0.27-0.39,0.53-0.62,0.78c-0.23,0.25-0.49,0.46-0.78,0.64
			c-0.29,0.18-0.61,0.33-0.96,0.44c-0.35,0.11-0.73,0.17-1.14,0.17c-0.53,0-1.02-0.08-1.47-0.24c-0.45-0.16-0.84-0.41-1.16-0.76
			c-0.33-0.35-0.58-0.81-0.76-1.38c-0.18-0.57-0.28-1.26-0.28-2.07V5.19h3.15v8.83c0,0.89,0.16,1.52,0.47,1.89
			c0.31,0.37,0.76,0.55,1.35,0.55c0.31,0,0.59-0.07,0.85-0.21c0.26-0.14,0.49-0.33,0.68-0.56c0.19-0.24,0.34-0.53,0.46-0.86
			c0.11-0.34,0.17-0.7,0.17-1.08V5.19h3.15V19.01z"/>
		<path fill="#231F20" d="M44.33,4.87c0.68,0,1.3,0.14,1.85,0.43c0.55,0.29,1.01,0.72,1.4,1.32c0.39,0.59,0.68,1.34,0.89,2.25
			c0.21,0.91,0.31,1.99,0.31,3.25c0,1.26-0.11,2.34-0.33,3.25c-0.22,0.91-0.52,1.66-0.9,2.25c-0.38,0.59-0.83,1.03-1.35,1.3
			c-0.52,0.28-1.09,0.42-1.71,0.42c-0.69,0-1.32-0.15-1.87-0.45c-0.55-0.31-0.95-0.74-1.2-1.29h-0.14v5.97h-3.15V5.19h2.62
			l0.32,1.71h0.13c0.35-0.67,0.8-1.18,1.34-1.52C43.07,5.04,43.67,4.87,44.33,4.87z M43.38,7.73c-0.76,0-1.3,0.33-1.62,1
			c-0.32,0.67-0.48,1.62-0.48,2.86v0.95c0,1.25,0.16,2.21,0.48,2.9c0.32,0.68,0.86,1.02,1.62,1.02c0.76,0,1.3-0.33,1.62-1
			c0.32-0.66,0.48-1.62,0.48-2.87v-1c0-1.24-0.16-2.2-0.48-2.86C44.68,8.06,44.14,7.73,43.38,7.73z"/>
		<path fill="#231F20" d="M57.23,4.87c1.84,0,3.22,0.58,4.14,1.75c0.92,1.17,1.38,2.99,1.38,5.48s-0.46,4.31-1.38,5.48
			c-0.92,1.18-2.3,1.76-4.14,1.76c-1.84,0-3.22-0.58-4.14-1.76c-0.92-1.17-1.38-3-1.38-5.48s0.46-4.31,1.38-5.48
			C54.01,5.45,55.39,4.87,57.23,4.87z M57.23,7.52c-0.81,0-1.39,0.35-1.73,1.05C55.17,9.27,55,10.28,55,11.6v1
			c0,1.33,0.17,2.34,0.51,3.04c0.34,0.7,0.91,1.05,1.73,1.05c0.81,0,1.39-0.35,1.73-1.05c0.34-0.7,0.51-1.71,0.51-3.04v-1
			c0-1.32-0.17-2.33-0.51-3.02C58.62,7.87,58.05,7.52,57.23,7.52z"/>
		<path fill="#231F20" d="M76.17,5.19h1.99v2.66h-1.99v7.7c0,0.75,0.37,1.13,1.1,1.13h0.89v2.33c-0.11,0.05-0.24,0.08-0.4,0.12
			c-0.15,0.03-0.32,0.07-0.49,0.1c-0.17,0.03-0.34,0.06-0.51,0.08c-0.17,0.02-0.33,0.03-0.49,0.03c-0.63,0-1.16-0.11-1.58-0.32
			c-0.42-0.21-0.75-0.5-1-0.84c-0.25-0.35-0.42-0.75-0.53-1.19c-0.1-0.44-0.15-0.9-0.15-1.36V7.85h-1.4V5.19h1.4l0.48-3.89h2.68
			V5.19z"/>
		<path fill="#231F20" d="M85.47,4.87c1.67,0,2.92,0.58,3.75,1.75s1.25,2.99,1.25,5.48v0.8h-7.02c0.01,0.62,0.05,1.16,0.14,1.64
			c0.08,0.48,0.21,0.88,0.37,1.22c0.17,0.33,0.38,0.58,0.65,0.75c0.27,0.17,0.59,0.26,0.98,0.26c0.54,0,0.97-0.23,1.29-0.69
			c0.32-0.46,0.48-1.11,0.48-1.94h3.12c0,0.89-0.12,1.66-0.37,2.32c-0.25,0.66-0.58,1.2-1.02,1.63c-0.44,0.43-0.95,0.75-1.55,0.95
			c-0.6,0.21-1.25,0.32-1.95,0.32c-1.77,0-3.12-0.58-4.04-1.76c-0.92-1.17-1.38-3-1.38-5.48s0.46-4.31,1.37-5.48
			C82.45,5.45,83.76,4.87,85.47,4.87z M85.47,7.45c-0.67,0-1.15,0.27-1.46,0.82c-0.31,0.55-0.48,1.33-0.53,2.34h3.67
			c0-1.01-0.13-1.79-0.41-2.34C86.48,7.72,86.05,7.45,85.47,7.45z"/>
		<path fill="#231F20" d="M100.18,4.87c0.53,0,1.02,0.08,1.47,0.23c0.45,0.16,0.84,0.42,1.16,0.76c0.33,0.35,0.58,0.81,0.76,1.38
			c0.18,0.56,0.28,1.26,0.28,2.07v9.71h-3.15v-8.83c0-0.89-0.16-1.52-0.49-1.89c-0.33-0.37-0.77-0.56-1.34-0.56
			c-0.31,0-0.6,0.07-0.86,0.21c-0.27,0.14-0.49,0.34-0.69,0.59c-0.19,0.25-0.34,0.55-0.45,0.88c-0.11,0.34-0.16,0.7-0.16,1.08v8.53
			h-3.15V5.19h2.62l0.32,1.71h0.15c0.18-0.26,0.38-0.52,0.62-0.77c0.23-0.25,0.49-0.46,0.78-0.64c0.29-0.19,0.61-0.33,0.96-0.45
			S99.77,4.87,100.18,4.87z"/>
		<path fill="#231F20" d="M117.81,19.01h-2.62l-0.32-1.71h-0.13c-0.34,0.67-0.79,1.17-1.33,1.51c-0.54,0.34-1.14,0.51-1.8,0.51
			c-0.68,0-1.3-0.15-1.85-0.43c-0.55-0.29-1.01-0.72-1.4-1.32c-0.39-0.59-0.68-1.35-0.89-2.26c-0.21-0.91-0.31-1.99-0.31-3.25
			c0-1.26,0.11-2.34,0.33-3.25c0.22-0.91,0.52-1.65,0.9-2.24c0.38-0.58,0.83-1.02,1.35-1.3c0.52-0.28,1.09-0.42,1.71-0.42
			c0.69,0,1.32,0.15,1.87,0.45c0.55,0.3,0.95,0.73,1.2,1.28h0.14V0h3.15V19.01z M112.56,7.73c-0.76,0-1.3,0.33-1.62,1
			c-0.32,0.67-0.48,1.62-0.48,2.86v1c0,1.25,0.16,2.21,0.48,2.87c0.32,0.66,0.86,1,1.62,1c0.76,0,1.3-0.33,1.62-1
			c0.32-0.66,0.48-1.62,0.48-2.87v-0.94c0-0.62-0.04-1.18-0.12-1.67c-0.08-0.49-0.2-0.9-0.37-1.23c-0.17-0.33-0.38-0.59-0.65-0.76
			C113.27,7.82,112.95,7.73,112.56,7.73z"/>
		<path fill="#231F20" d="M126.18,4.87c1.67,0,2.92,0.58,3.75,1.75c0.83,1.17,1.25,2.99,1.25,5.48v0.8h-7.02
			c0.01,0.62,0.05,1.16,0.14,1.64c0.08,0.48,0.21,0.88,0.37,1.22c0.17,0.33,0.38,0.58,0.65,0.75c0.27,0.17,0.59,0.26,0.98,0.26
			c0.54,0,0.97-0.23,1.29-0.69c0.32-0.46,0.48-1.11,0.48-1.94h3.12c0,0.89-0.12,1.66-0.37,2.32c-0.25,0.66-0.58,1.2-1.02,1.63
			c-0.44,0.43-0.95,0.75-1.55,0.95c-0.6,0.21-1.25,0.32-1.95,0.32c-1.77,0-3.12-0.58-4.04-1.76c-0.92-1.17-1.38-3-1.38-5.48
			s0.46-4.31,1.37-5.48C123.15,5.45,124.46,4.87,126.18,4.87z M126.18,7.45c-0.67,0-1.15,0.27-1.46,0.82
			c-0.31,0.55-0.48,1.33-0.53,2.34h3.67c0-1.01-0.13-1.79-0.4-2.34C127.18,7.72,126.76,7.45,126.18,7.45z"/>
		<path fill="#231F20" d="M140.88,4.87c0.53,0,1.02,0.08,1.47,0.23c0.45,0.16,0.84,0.42,1.16,0.76c0.33,0.35,0.58,0.81,0.76,1.38
			c0.18,0.56,0.27,1.26,0.27,2.07v9.71h-3.14v-8.83c0-0.89-0.17-1.52-0.49-1.89c-0.33-0.37-0.77-0.56-1.34-0.56
			c-0.31,0-0.59,0.07-0.86,0.21c-0.27,0.14-0.5,0.34-0.69,0.59c-0.19,0.25-0.34,0.55-0.45,0.88c-0.11,0.34-0.16,0.7-0.16,1.08v8.53
			h-3.15V5.19h2.62l0.32,1.71h0.15c0.18-0.26,0.39-0.52,0.62-0.77c0.23-0.25,0.49-0.46,0.78-0.64c0.29-0.19,0.61-0.33,0.96-0.45
			C140.09,4.92,140.47,4.87,140.88,4.87z"/>
		<path fill="#231F20" d="M156.91,6.5l-5.38,9.86h5.57v2.66h-9.84v-1.34l5.37-9.83h-5.06V5.19h9.34V6.5z"/>
		<path fill="#231F20" d="M164.49,4.87c1.67,0,2.92,0.58,3.75,1.75c0.83,1.17,1.25,2.99,1.25,5.48v0.8h-7.02
			c0.01,0.62,0.05,1.16,0.13,1.64c0.08,0.48,0.21,0.88,0.37,1.22c0.17,0.33,0.38,0.58,0.65,0.75c0.27,0.17,0.59,0.26,0.98,0.26
			c0.54,0,0.97-0.23,1.29-0.69c0.32-0.46,0.48-1.11,0.48-1.94h3.12c0,0.89-0.12,1.66-0.37,2.32c-0.25,0.66-0.58,1.2-1.02,1.63
			c-0.44,0.43-0.96,0.75-1.56,0.95c-0.6,0.21-1.25,0.32-1.95,0.32c-1.77,0-3.12-0.58-4.04-1.76c-0.92-1.17-1.38-3-1.38-5.48
			s0.46-4.31,1.37-5.48C161.47,5.45,162.78,4.87,164.49,4.87z M164.49,7.45c-0.67,0-1.15,0.27-1.45,0.82
			c-0.31,0.55-0.48,1.33-0.53,2.34h3.67c0-1.01-0.13-1.79-0.41-2.34C165.5,7.72,165.07,7.45,164.49,7.45z"/>
		<path fill="#231F20" d="M184.14,4.87c0.73,0,1.4,0.11,2,0.32c0.6,0.21,1.11,0.55,1.53,0.99c0.42,0.45,0.74,1.02,0.97,1.72
			c0.23,0.69,0.34,1.52,0.34,2.49h-3.24c0-0.98-0.13-1.69-0.4-2.16c-0.27-0.47-0.67-0.7-1.2-0.7c-0.67,0-1.14,0.35-1.42,1.04
			c-0.28,0.69-0.42,1.7-0.42,3.03v1c0,1.33,0.15,2.34,0.44,3.04c0.3,0.7,0.8,1.05,1.51,1.05c0.56,0,0.97-0.24,1.22-0.72
			c0.25-0.48,0.37-1.2,0.37-2.16h3.13c0,0.96-0.11,1.8-0.33,2.49c-0.22,0.7-0.54,1.27-0.95,1.72c-0.41,0.45-0.91,0.78-1.49,0.99
			c-0.58,0.22-1.23,0.32-1.95,0.32c-0.9,0-1.68-0.15-2.34-0.43c-0.66-0.29-1.2-0.72-1.64-1.32c-0.43-0.59-0.75-1.35-0.96-2.26
			c-0.21-0.91-0.31-1.99-0.31-3.23c0-2.48,0.43-4.31,1.28-5.48C181.14,5.45,182.42,4.87,184.14,4.87z"/>
		<path fill="#231F20" d="M197.31,4.87c1.84,0,3.22,0.58,4.14,1.75c0.92,1.17,1.38,2.99,1.38,5.48s-0.46,4.31-1.38,5.48
			c-0.92,1.18-2.3,1.76-4.14,1.76c-1.84,0-3.22-0.58-4.14-1.76c-0.92-1.17-1.38-3-1.38-5.48s0.46-4.31,1.38-5.48
			C194.09,5.45,195.47,4.87,197.31,4.87z M197.31,7.52c-0.81,0-1.39,0.35-1.73,1.05c-0.34,0.7-0.51,1.71-0.51,3.02v1
			c0,1.33,0.17,2.34,0.51,3.04c0.34,0.7,0.91,1.05,1.73,1.05c0.81,0,1.39-0.35,1.73-1.05c0.34-0.7,0.51-1.71,0.51-3.04v-1
			c0-1.32-0.17-2.33-0.51-3.02C198.7,7.87,198.13,7.52,197.31,7.52z"/>
		<path fill="#231F20" d="M219.05,4.87c0.5,0,0.95,0.07,1.37,0.22c0.42,0.15,0.78,0.4,1.08,0.75c0.31,0.34,0.54,0.8,0.71,1.37
			c0.17,0.57,0.26,1.27,0.26,2.1v9.71h-3.15v-8.83c0-0.89-0.13-1.52-0.38-1.89c-0.26-0.37-0.65-0.56-1.17-0.56
			c-0.26,0-0.5,0.06-0.73,0.19c-0.23,0.13-0.44,0.3-0.62,0.52c-0.18,0.22-0.32,0.49-0.43,0.8c-0.1,0.31-0.15,0.66-0.15,1.04v8.73
			h-3.1v-8.83c0-0.89-0.13-1.52-0.4-1.89c-0.27-0.37-0.66-0.56-1.18-0.56c-0.27,0-0.53,0.07-0.76,0.2c-0.23,0.14-0.43,0.33-0.6,0.56
			c-0.17,0.25-0.3,0.54-0.4,0.87c-0.1,0.34-0.15,0.71-0.15,1.12v8.53h-3.15V5.19h2.62l0.32,1.71h0.15c0.16-0.26,0.35-0.52,0.58-0.77
			c0.22-0.25,0.47-0.46,0.74-0.64c0.27-0.19,0.58-0.33,0.91-0.45c0.33-0.11,0.68-0.17,1.06-0.17c0.69,0,1.3,0.15,1.8,0.47
			c0.51,0.31,0.9,0.83,1.18,1.56c0.18-0.26,0.39-0.52,0.62-0.77c0.24-0.25,0.5-0.46,0.8-0.64c0.3-0.19,0.63-0.33,0.99-0.45
			C218.26,4.92,218.64,4.87,219.05,4.87z"/>
		<path fill="#231F20" d="M236.35,19.01h-2.62l-0.32-1.71h-0.15c-0.18,0.27-0.39,0.53-0.62,0.78c-0.23,0.25-0.49,0.46-0.78,0.64
			c-0.29,0.18-0.61,0.33-0.96,0.44c-0.35,0.11-0.73,0.17-1.14,0.17c-0.53,0-1.02-0.08-1.47-0.24c-0.45-0.16-0.84-0.41-1.16-0.76
			c-0.33-0.35-0.58-0.81-0.76-1.38c-0.18-0.57-0.28-1.26-0.28-2.07V5.19h3.15v8.83c0,0.89,0.16,1.52,0.47,1.89
			c0.31,0.37,0.76,0.55,1.36,0.55c0.31,0,0.59-0.07,0.85-0.21c0.26-0.14,0.49-0.33,0.68-0.56c0.19-0.24,0.34-0.53,0.46-0.86
			c0.11-0.34,0.17-0.7,0.17-1.08V5.19h3.14V19.01z"/>
		<path fill="#231F20" d="M246.64,4.87c0.53,0,1.02,0.08,1.47,0.23c0.45,0.16,0.84,0.42,1.16,0.76c0.33,0.35,0.58,0.81,0.76,1.38
			c0.18,0.56,0.27,1.26,0.27,2.07v9.71h-3.14v-8.83c0-0.89-0.16-1.52-0.49-1.89c-0.33-0.37-0.77-0.56-1.34-0.56
			c-0.31,0-0.6,0.07-0.86,0.21c-0.27,0.14-0.5,0.34-0.69,0.59c-0.19,0.25-0.34,0.55-0.45,0.88c-0.11,0.34-0.16,0.7-0.16,1.08v8.53
			h-3.15V5.19h2.62l0.32,1.71h0.15c0.18-0.26,0.39-0.52,0.62-0.77c0.23-0.25,0.49-0.46,0.78-0.64c0.29-0.19,0.61-0.33,0.96-0.45
			C245.85,4.92,246.23,4.87,246.64,4.87z"/>
		<path fill="#231F20" d="M257.13,2.88h-3.14V0h3.14V2.88z M257.13,19.01h-3.14V5.19h3.14V19.01z"/>
		<path fill="#231F20" d="M265.54,4.87c0.73,0,1.4,0.11,2,0.32c0.6,0.21,1.11,0.55,1.53,0.99c0.42,0.45,0.74,1.02,0.97,1.72
			c0.23,0.69,0.34,1.52,0.34,2.49h-3.24c0-0.98-0.13-1.69-0.4-2.16c-0.27-0.47-0.67-0.7-1.2-0.7c-0.67,0-1.14,0.35-1.42,1.04
			c-0.28,0.69-0.42,1.7-0.42,3.03v1c0,1.33,0.15,2.34,0.44,3.04c0.3,0.7,0.8,1.05,1.51,1.05c0.56,0,0.97-0.24,1.22-0.72
			c0.25-0.48,0.37-1.2,0.37-2.16h3.13c0,0.96-0.11,1.8-0.33,2.49c-0.22,0.7-0.54,1.27-0.95,1.72c-0.41,0.45-0.91,0.78-1.49,0.99
			c-0.58,0.22-1.23,0.32-1.95,0.32c-0.9,0-1.68-0.15-2.34-0.43c-0.66-0.29-1.2-0.72-1.64-1.32c-0.43-0.59-0.75-1.35-0.96-2.26
			c-0.21-0.91-0.31-1.99-0.31-3.23c0-2.48,0.43-4.31,1.28-5.48C262.55,5.45,263.83,4.87,265.54,4.87z"/>
		<path fill="#231F20" d="M277.82,4.87c1.6,0,2.78,0.36,3.55,1.07c0.77,0.71,1.16,1.72,1.16,3.01v6.81c0,0.33,0.07,0.56,0.23,0.71
			c0.15,0.15,0.32,0.22,0.5,0.22h0.64v2.23c-0.17,0.1-0.41,0.19-0.7,0.29c-0.3,0.09-0.69,0.14-1.17,0.14c-0.63,0-1.16-0.17-1.58-0.5
			c-0.42-0.34-0.7-0.78-0.86-1.32h-0.14c-0.2,0.27-0.41,0.52-0.62,0.75c-0.22,0.23-0.46,0.42-0.73,0.58
			c-0.27,0.16-0.58,0.28-0.93,0.37c-0.35,0.09-0.75,0.13-1.21,0.13c-0.33,0-0.69-0.05-1.09-0.16c-0.4-0.11-0.77-0.3-1.13-0.59
			c-0.35-0.29-0.65-0.68-0.89-1.19c-0.24-0.51-0.36-1.16-0.36-1.97c0-0.93,0.17-1.71,0.51-2.33c0.34-0.62,0.81-1.11,1.41-1.48
			c0.6-0.37,1.33-0.63,2.17-0.79c0.84-0.15,1.76-0.23,2.77-0.23V9.15c0-0.24-0.02-0.46-0.06-0.67c-0.04-0.21-0.11-0.38-0.21-0.54
			c-0.1-0.15-0.25-0.28-0.44-0.37c-0.19-0.09-0.43-0.14-0.73-0.14c-0.33,0-0.6,0.05-0.81,0.14c-0.21,0.09-0.38,0.2-0.51,0.34
			c-0.12,0.14-0.21,0.3-0.26,0.47c-0.05,0.18-0.08,0.35-0.08,0.51v0.39h-3.08c-0.02-0.08-0.03-0.17-0.03-0.26V8.7
			c0-0.57,0.11-1.1,0.33-1.57c0.22-0.47,0.54-0.88,0.94-1.22c0.41-0.33,0.9-0.59,1.47-0.78C276.47,4.96,277.11,4.87,277.82,4.87z
			 M279.35,12.89c-0.46,0-0.91,0.03-1.34,0.1c-0.43,0.07-0.82,0.19-1.16,0.36c-0.34,0.17-0.61,0.4-0.82,0.69
			c-0.21,0.29-0.31,0.66-0.31,1.1c0,0.48,0.12,0.86,0.37,1.14c0.24,0.28,0.64,0.42,1.17,0.42c0.38,0,0.7-0.08,0.96-0.24
			c0.26-0.16,0.47-0.38,0.64-0.66c0.17-0.28,0.29-0.6,0.37-0.96c0.08-0.37,0.12-0.75,0.12-1.16V12.89z"/>
		<path fill="#231F20" d="M291.11,4.87c0.73,0,1.4,0.11,2,0.32c0.6,0.21,1.11,0.55,1.53,0.99c0.42,0.45,0.74,1.02,0.97,1.72
			c0.23,0.69,0.34,1.52,0.34,2.49h-3.24c0-0.98-0.13-1.69-0.4-2.16c-0.27-0.47-0.67-0.7-1.2-0.7c-0.67,0-1.14,0.35-1.42,1.04
			c-0.28,0.69-0.42,1.7-0.42,3.03v1c0,1.33,0.15,2.34,0.44,3.04c0.3,0.7,0.8,1.05,1.51,1.05c0.56,0,0.97-0.24,1.22-0.72
			c0.25-0.48,0.37-1.2,0.37-2.16h3.13c0,0.96-0.11,1.8-0.33,2.49c-0.22,0.7-0.54,1.27-0.95,1.72c-0.41,0.45-0.91,0.78-1.49,0.99
			c-0.58,0.22-1.23,0.32-1.95,0.32c-0.9,0-1.68-0.15-2.34-0.43c-0.66-0.29-1.2-0.72-1.64-1.32c-0.43-0.59-0.75-1.35-0.96-2.26
			c-0.21-0.91-0.31-1.99-0.31-3.23c0-2.48,0.43-4.31,1.28-5.48C288.11,5.45,289.39,4.87,291.11,4.87z"/>
		<path fill="#231F20" d="M302.26,2.88h-3.14V0h3.14V2.88z M302.26,19.01h-3.14V5.19h3.14V19.01z"/>
		<path fill="#231F20" d="M311.07,4.87c1.84,0,3.22,0.58,4.14,1.75c0.92,1.17,1.38,2.99,1.38,5.48s-0.46,4.31-1.38,5.48
			c-0.92,1.18-2.3,1.76-4.14,1.76c-1.84,0-3.22-0.58-4.14-1.76c-0.92-1.17-1.38-3-1.38-5.48s0.46-4.31,1.38-5.48
			C307.84,5.45,309.23,4.87,311.07,4.87z M311.07,7.52c-0.81,0-1.39,0.35-1.73,1.05c-0.34,0.7-0.51,1.71-0.51,3.02v1
			c0,1.33,0.17,2.34,0.51,3.04c0.34,0.7,0.91,1.05,1.73,1.05c0.81,0,1.39-0.35,1.73-1.05c0.34-0.7,0.51-1.71,0.51-3.04v-1
			c0-1.32-0.17-2.33-0.51-3.02C312.46,7.87,311.88,7.52,311.07,7.52z"/>
		<path fill="#231F20" d="M326.48,4.87c0.53,0,1.02,0.08,1.47,0.23c0.45,0.16,0.84,0.42,1.16,0.76c0.33,0.35,0.58,0.81,0.76,1.38
			c0.18,0.56,0.27,1.26,0.27,2.07v9.71H327v-8.83c0-0.89-0.16-1.52-0.49-1.89c-0.33-0.37-0.77-0.56-1.34-0.56
			c-0.31,0-0.6,0.07-0.86,0.21c-0.27,0.14-0.5,0.34-0.69,0.59c-0.19,0.25-0.34,0.55-0.45,0.88c-0.11,0.34-0.16,0.7-0.16,1.08v8.53
			h-3.15V5.19h2.62l0.32,1.71h0.15c0.18-0.26,0.39-0.52,0.62-0.77c0.23-0.25,0.49-0.46,0.78-0.64c0.29-0.19,0.61-0.33,0.96-0.45
			C325.69,4.92,326.07,4.87,326.48,4.87z"/>
		<path fill="#231F20" d="M338.51,4.87c1.67,0,2.92,0.58,3.75,1.75c0.83,1.17,1.25,2.99,1.25,5.48v0.8h-7.02
			c0.01,0.62,0.05,1.16,0.13,1.64c0.08,0.48,0.21,0.88,0.37,1.22c0.17,0.33,0.38,0.58,0.65,0.75c0.27,0.17,0.59,0.26,0.98,0.26
			c0.54,0,0.97-0.23,1.29-0.69c0.32-0.46,0.48-1.11,0.48-1.94h3.12c0,0.89-0.12,1.66-0.37,2.32c-0.25,0.66-0.58,1.2-1.02,1.63
			c-0.44,0.43-0.96,0.75-1.55,0.95c-0.6,0.21-1.25,0.32-1.95,0.32c-1.77,0-3.12-0.58-4.04-1.76c-0.92-1.17-1.38-3-1.38-5.48
			s0.46-4.31,1.37-5.48C335.49,5.45,336.8,4.87,338.51,4.87z M338.51,7.45c-0.67,0-1.15,0.27-1.46,0.82
			c-0.31,0.55-0.48,1.33-0.53,2.34h3.67c0-1.01-0.13-1.79-0.4-2.34C339.52,7.72,339.1,7.45,338.51,7.45z"/>
		<path fill="#231F20" d="M351.19,4.87c0.66,0,1.28,0.09,1.84,0.26c0.57,0.17,1.07,0.42,1.49,0.74c0.43,0.32,0.76,0.72,1,1.18
			c0.24,0.47,0.36,1,0.36,1.59c0,0.15-0.01,0.28-0.02,0.4c-0.01,0.12-0.02,0.19-0.02,0.21h-3.2c0-0.62-0.14-1.07-0.42-1.36
			c-0.28-0.29-0.66-0.43-1.14-0.43c-0.49,0-0.88,0.12-1.18,0.37c-0.3,0.25-0.45,0.58-0.45,1c0,0.33,0.1,0.6,0.29,0.8
			c0.19,0.2,0.45,0.37,0.76,0.5c0.32,0.13,0.68,0.25,1.08,0.35c0.41,0.1,0.82,0.21,1.24,0.33c0.42,0.13,0.83,0.28,1.24,0.46
			c0.41,0.18,0.77,0.42,1.08,0.73c0.32,0.31,0.57,0.7,0.76,1.16c0.19,0.46,0.29,1.03,0.29,1.72c0,0.85-0.13,1.56-0.39,2.13
			c-0.26,0.57-0.62,1.03-1.08,1.38c-0.46,0.35-1,0.6-1.63,0.75c-0.63,0.15-1.31,0.23-2.05,0.23c-0.8,0-1.51-0.11-2.13-0.32
			c-0.62-0.21-1.15-0.5-1.58-0.89c-0.43-0.38-0.76-0.85-0.98-1.39c-0.22-0.54-0.33-1.14-0.33-1.8v-0.1c0-0.04,0-0.08,0.01-0.11
			c0-0.03,0.01-0.07,0.01-0.1h3.2v0.18c0.01,0.37,0.07,0.68,0.19,0.92c0.11,0.25,0.26,0.45,0.44,0.6c0.18,0.15,0.38,0.26,0.6,0.33
			c0.22,0.07,0.44,0.1,0.67,0.1c0.21,0,0.42-0.02,0.63-0.07c0.22-0.05,0.42-0.14,0.6-0.25c0.18-0.11,0.32-0.27,0.43-0.46
			c0.11-0.19,0.17-0.43,0.17-0.71c0-0.37-0.1-0.66-0.29-0.88c-0.19-0.22-0.45-0.41-0.76-0.56c-0.32-0.15-0.68-0.28-1.08-0.39
			c-0.41-0.1-0.82-0.22-1.24-0.35c-0.42-0.13-0.83-0.28-1.24-0.46c-0.41-0.18-0.77-0.42-1.08-0.72c-0.32-0.3-0.57-0.68-0.76-1.13
			c-0.19-0.45-0.29-1.01-0.29-1.68c0-0.7,0.13-1.32,0.39-1.84c0.26-0.53,0.61-0.96,1.05-1.32c0.45-0.35,0.97-0.61,1.57-0.79
			C349.85,4.95,350.5,4.87,351.19,4.87z"/>
	</g>
</g>
<g>
</g>
<g>
</g>
<g>
</g>
<g>
</g>
<g>
</g>
<g>
</g>
<g>
</g>
<g>
</g>
<g>
</g>
<g>
</g>
<g>
</g>
<g>
</g>
<g>
</g>
<g>
</g>
<g>
</g>
</svg>
