<?xml version="1.0" encoding="utf-8"?>
<!-- Generator: Adobe Illustrator 23.0.0, SVG Export Plug-In . SVG Version: 6.00 Build 0)  -->
<svg version="1.1" id="Capa_1" xmlns="http://www.w3.org/2000/svg" xmlns:xlink="http://www.w3.org/1999/xlink" x="0px" y="0px"
	 viewBox="0 0 340.97 58.95" enable-background="new 0 0 340.97 58.95" xml:space="preserve">
<g>
	<g>
		<polygon fill="#FAE800" points="0,16.26 0,45.75 21.84,45.75 34.23,58.95 34.56,45.75 44.99,45.75 44.99,3.31 0,0 0,8.69 		"/>
		<g>
			<g>
				<path fill="#231F20" d="M63.48,15.37h-4.51v21.07h-3.4V15.37h-4.51v-4.21h12.42V15.37z"/>
				<path fill="#231F20" d="M66.03,36.44V11.15h11.6v4.21h-8.21v6.03h7.04v4.21h-7.04v6.64h8.36v4.19H66.03z"/>
				<path fill="#231F20" d="M90.58,36.44l-5.63-13.93c-0.05-0.13-0.12-0.33-0.21-0.59c-0.09-0.26-0.18-0.52-0.28-0.78
					c-0.1-0.31-0.22-0.64-0.34-0.99l-0.1,0.11c0.01,0.28,0.02,0.55,0.03,0.81c0.01,0.23,0.02,0.46,0.02,0.69
					c0,0.23,0.01,0.44,0.01,0.6v14.07h-2.99V11.15h2.99l5.63,13.93c0.07,0.17,0.15,0.38,0.25,0.65c0.1,0.26,0.19,0.52,0.28,0.77
					c0.09,0.3,0.19,0.61,0.3,0.94l0.08-0.11c-0.01-0.32-0.01-0.62-0.01-0.9c-0.01-0.24-0.01-0.47-0.01-0.7c0-0.23,0-0.4,0-0.5V11.15
					h3.03v25.29H90.58z"/>
				<path fill="#231F20" d="M97.32,36.44V11.15h5.92c1.13,0,2.15,0.26,3.05,0.77c0.9,0.52,1.67,1.29,2.29,2.31
					c0.63,1.03,1.11,2.3,1.45,3.83c0.34,1.53,0.51,3.31,0.51,5.35c0,2.16-0.17,4.05-0.51,5.68c-0.34,1.63-0.82,2.98-1.45,4.07
					c-0.63,1.09-1.39,1.9-2.29,2.45c-0.9,0.55-1.92,0.82-3.05,0.82H97.32z M100.72,15.37v16.88h2.2c0.63,0,1.2-0.17,1.71-0.49
					c0.51-0.33,0.94-0.82,1.3-1.48c0.36-0.65,0.63-1.48,0.82-2.47c0.19-0.99,0.28-2.14,0.28-3.46v-1.84c0-1.19-0.09-2.23-0.28-3.12
					c-0.19-0.89-0.47-1.64-0.82-2.23c-0.36-0.59-0.79-1.04-1.3-1.34c-0.51-0.3-1.07-0.45-1.71-0.45H100.72z"/>
				<path fill="#231F20" d="M113.57,36.44V11.15h11.6v4.21h-8.21v6.03H124v4.21h-7.04v6.64h8.36v4.19H113.57z"/>
				<path fill="#231F20" d="M138.12,36.44l-5.63-13.93c-0.05-0.13-0.12-0.33-0.21-0.59c-0.09-0.26-0.18-0.52-0.28-0.78
					c-0.1-0.31-0.22-0.64-0.34-0.99l-0.1,0.11c0.01,0.28,0.02,0.55,0.03,0.81c0.01,0.23,0.02,0.46,0.02,0.69
					c0,0.23,0.01,0.44,0.01,0.6v14.07h-2.99V11.15h2.99l5.63,13.93c0.07,0.17,0.15,0.38,0.25,0.65c0.1,0.26,0.19,0.52,0.28,0.77
					c0.09,0.3,0.19,0.61,0.3,0.94l0.08-0.11c-0.01-0.32-0.01-0.62-0.01-0.9c-0.01-0.24-0.01-0.47-0.01-0.7c0-0.23,0-0.4,0-0.5V11.15
					h3.03v25.29H138.12z"/>
				<path fill="#231F20" d="M155.83,12.99l-7.49,19.26h7.67v4.19h-12.31v-1.8l7.48-19.27h-6.92v-4.21h11.58V12.99z"/>
				<path fill="#231F20" d="M158.69,36.44V11.15h11.6v4.21h-8.21v6.03h7.04v4.21h-7.04v6.64h8.36v4.19H158.69z"/>
			</g>
		</g>
	</g>
	<g>
		<g>
			<polygon fill="#D51673" points="213.42,16.26 213.42,45.75 235.27,45.75 247.65,58.95 247.98,45.75 258.42,45.75 258.42,3.31 
				213.42,0 213.42,8.69 			"/>
			<g>
				<path fill="#FFFFFF" d="M234.87,37.03h-3.66l-1.18-5.24h-7.08l-1.15,5.24h-3.47l6.19-26.67h4.17L234.87,37.03z M226.44,14.83
					c-0.05,0.47-0.11,0.92-0.18,1.35c-0.05,0.37-0.11,0.76-0.18,1.18c-0.06,0.42-0.13,0.78-0.21,1.08l-1.96,8.9h5.11l-1.93-8.9
					c-0.07-0.35-0.15-0.74-0.22-1.16c-0.07-0.42-0.13-0.81-0.18-1.18c-0.06-0.42-0.12-0.84-0.16-1.27H226.44z"/>
				<path fill="#FFFFFF" d="M237.13,37.03V10.35h6.25c1.19,0,2.27,0.27,3.22,0.82c0.95,0.54,1.76,1.36,2.42,2.44
					c0.66,1.08,1.17,2.43,1.52,4.04c0.36,1.61,0.53,3.5,0.53,5.65c0,2.28-0.18,4.27-0.53,5.99c-0.36,1.71-0.86,3.15-1.52,4.29
					c-0.66,1.15-1.47,2.01-2.42,2.58c-0.95,0.58-2.03,0.86-3.22,0.86H237.13z M240.72,14.8V32.6h2.32c0.67,0,1.26-0.17,1.8-0.52
					c0.53-0.35,0.99-0.87,1.37-1.56c0.38-0.69,0.67-1.56,0.87-2.6c0.2-1.04,0.3-2.26,0.3-3.65v-1.94c0-1.25-0.1-2.35-0.3-3.29
					c-0.2-0.94-0.49-1.73-0.87-2.35c-0.38-0.63-0.83-1.1-1.37-1.41c-0.53-0.32-1.13-0.48-1.8-0.48H240.72z"/>
			</g>
		</g>
		<g>
			<path fill="#231F20" d="M267.91,25.93v10.4h-3.35V11.39h7.52c0.9,0,1.7,0.18,2.39,0.53c0.69,0.35,1.26,0.85,1.72,1.48
				c0.46,0.63,0.81,1.39,1.04,2.26c0.23,0.87,0.35,1.82,0.35,2.85c0,0.76-0.07,1.47-0.21,2.13s-0.34,1.27-0.6,1.81
				c-0.26,0.54-0.58,1.03-0.95,1.45c-0.37,0.42-0.79,0.76-1.26,1.02l3.47,11.42h-3.64l-2.99-10.4H267.91z M267.91,15.55v6.28h3.7
				c0.82,0,1.42-0.29,1.79-0.88c0.37-0.59,0.56-1.4,0.56-2.44c0-0.91-0.18-1.63-0.53-2.17c-0.35-0.53-0.92-0.8-1.69-0.8H267.91z"/>
			<path fill="#231F20" d="M280.59,36.34V11.39h11.45v4.15h-8.1v5.95h6.94v4.15h-6.94v6.55h8.25v4.14H280.59z"/>
			<path fill="#231F20" d="M306.56,15.55h-4.45v20.79h-3.35V15.55h-4.45v-4.15h12.25V15.55z"/>
			<path fill="#231F20" d="M321.41,36.34h-3.43l-1.1-4.9h-6.62l-1.07,4.9h-3.25l5.79-24.95h3.9L321.41,36.34z M313.53,15.58
				c-0.05,0.44-0.11,0.86-0.17,1.26c-0.05,0.34-0.11,0.71-0.17,1.1c-0.06,0.39-0.12,0.73-0.19,1.01l-1.83,8.33h4.78l-1.8-8.33
				c-0.07-0.33-0.14-0.69-0.2-1.08c-0.07-0.39-0.12-0.76-0.17-1.1c-0.06-0.39-0.11-0.79-0.15-1.19H313.53z"/>
			<path fill="#231F20" d="M326.62,36.34h-3.36V11.39h3.36V36.34z"/>
			<path fill="#231F20" d="M330.02,11.39h3.35v20.58h7.6v4.37h-10.95V11.39z"/>
		</g>
	</g>
</g>
<g>
</g>
<g>
</g>
<g>
</g>
<g>
</g>
<g>
</g>
<g>
</g>
<g>
</g>
<g>
</g>
<g>
</g>
<g>
</g>
<g>
</g>
<g>
</g>
<g>
</g>
<g>
</g>
<g>
</g>
</svg>
