<?xml version="1.0" encoding="utf-8"?>
<!-- Generator: Adobe Illustrator 23.0.0, SVG Export Plug-In . SVG Version: 6.00 Build 0)  -->
<svg version="1.1" id="Capa_1" xmlns="http://www.w3.org/2000/svg" xmlns:xlink="http://www.w3.org/1999/xlink" x="0px" y="0px"
	 viewBox="0 0 724.3 949" style="enable-background:new 0 0 724.3 949;" xml:space="preserve">
<style type="text/css">
	.st0{fill:#231F20;}
	.st1{fill:#FFFFFF;}
</style>
<g>
	<g>
		<g>
			<g>
				<g>
					<polygon class="st0" points="6,265.3 6,732.1 351.8,732.1 547.9,941.1 553.1,732.1 718.3,732.1 718.3,60.3 6,7.9 6,145.5 					
						"/>
				</g>
			</g>
		</g>
	</g>
	<g>
		<g>
			<g>
				<path class="st1" d="M90.6,104.3l0.8,1.6c-1.9,1.3-3.4,2.5-4.6,3.7c-2.1,2.1-3.1,4-3.1,5.7c0,1,0.5,1.6,1.4,1.6h1.6
					c1.3,0,2.4,0.4,3.3,1.1c1.3,1,1.9,2.5,1.9,4.5c0,1.8-0.5,3.2-1.6,4.2c-1.1,1-2.5,1.5-4.2,1.5c-2.4,0-4.2-0.8-5.4-2.5
					s-1.8-3.5-1.8-5.7c0-3.8,1.5-7.3,4.5-10.4C84.9,107.9,87.4,106.2,90.6,104.3z M109.8,104.3l0.8,1.6c-1.9,1.3-3.4,2.5-4.6,3.7
					c-2.1,2.1-3.1,4-3.1,5.7c0,1,0.5,1.6,1.4,1.6h1.6c1.3,0,2.4,0.4,3.3,1.1c1.3,1,1.9,2.5,1.9,4.5c0,1.8-0.5,3.2-1.6,4.2
					c-1.1,1-2.5,1.5-4.2,1.5c-2.4,0-4.2-0.8-5.5-2.5c-1.2-1.6-1.8-3.5-1.8-5.7c0-3.8,1.5-7.3,4.5-10.4
					C104.2,107.9,106.6,106.2,109.8,104.3z"/>
				<path class="st1" d="M115.4,153.6v-1.8c1.8-0.3,2.8-0.5,3.2-0.6c0.4-0.1,0.7-0.2,1-0.4c0.8-0.6,1.3-1.3,1.5-2.1
					c0.2-0.8,0.4-2,0.4-3.5v-31.5c0-2.7-0.5-4.5-1.6-5.3c-0.7-0.6-2.2-1-4.4-1.2v-1.8h22.9c4.7,0,8.5,0.7,11.5,2
					c4.8,2.1,7.2,5.8,7.2,11.1c0,1.8-0.4,3.5-1.1,5.1c-1.1,2.4-2.9,4.3-5.4,5.7c-2.1,1.2-4.3,1.9-6.7,2.2c-2.4,0.3-6,0.5-10.9,0.5
					v13.3c0,2.7,0.4,4.4,1.3,5.2c0.6,0.6,2.3,1,5,1.4v1.8H115.4z M132.9,110.4v19.1c4.5,0,7.5-0.7,9.1-2.1c1.8-1.5,2.7-4.4,2.7-8.7
					c0-4-0.7-6.8-2-8.4c-1.3-1.6-3.5-2.4-6.4-2.4C134,107.9,132.9,108.8,132.9,110.4z"/>
				<path class="st1" d="M160.2,137.3c0-4.8,1.5-8.9,4.5-12.3c3-3.4,6.8-5.1,11.6-5.1c4.7,0,8.5,1.7,11.5,5c3,3.3,4.5,7.5,4.5,12.5
					c0,4.9-1.5,9-4.5,12.3c-3,3.4-6.8,5-11.6,5c-4.8,0-8.7-1.7-11.7-5C161.7,146.3,160.2,142.2,160.2,137.3z M170.7,137.3
					c0,5,0.2,8.5,0.7,10.4c0.8,3.1,2.5,4.7,5,4.7c2.2,0,3.8-1.4,4.6-4.1c0.6-2.1,0.9-5.8,0.9-11c0-5.6-0.4-9.6-1.2-11.8
					c-0.8-2.3-2.2-3.4-4.4-3.4c-2.4,0-4,1.5-4.8,4.5C171,128.7,170.7,132.3,170.7,137.3z"/>
				<path class="st1" d="M217.2,151.8v1.8h-18.9v-1.7c1.4-0.3,2.4-0.6,2.8-0.9c0.7-0.6,1.1-1.7,1.1-3.3v-20.9c0-1.7-0.4-2.8-1.1-3.3
					c-0.5-0.4-1.4-0.7-2.8-0.9v-1.7h13.5v5.6c1.4-1.9,2.6-3.2,3.6-4.1c1.9-1.6,3.9-2.4,5.9-2.4c2.1,0,3.7,0.7,4.8,2.1
					c0.8,1,1.1,2.1,1.1,3.4c0,1.2-0.3,2.2-0.9,3.1c-0.8,1.1-2,1.7-3.6,1.7c-1.5,0-3-0.9-4.3-2.8c-0.7-0.9-1.3-1.4-2-1.4
					c-1.2,0-2.2,0.8-3.1,2.3c-0.7,1.2-1.1,2.7-1.1,4.5v13.4c0,2.2,0.3,3.7,1,4.5C213.7,151.4,215.1,151.8,217.2,151.8z"/>
				<path class="st1" d="M288.1,166.4v1.7h-19v-1.8c2.2-0.4,3.5-0.8,4.1-1.3c0.8-0.7,1.1-2.2,1.1-4.5v-9.9c-1.3,1.5-2.8,2.6-4.6,3.3
					c-1.3,0.5-2.6,0.8-3.9,0.8c-3.9,0-7-1.4-9.4-4.1c-2.7-3.1-4.1-7.5-4.1-13.3c0-4.6,1.4-8.6,4.1-11.8c3-3.7,7.1-5.5,12.1-5.5
					c1.7,0,3.3,0.4,4.9,1.1c1.2,0.6,2.6,1.6,4.1,2.9l5.6-4.1h1.1v42.4c0,1.5,0.3,2.6,1,3.1C285.6,165.8,286.6,166.1,288.1,166.4z
					 M274.3,146.7v-18.8c0-1.6-0.4-2.9-1.2-4c-0.8-1.1-2-1.7-3.6-1.7c-2.6,0-4.5,1.7-5.6,5c-0.8,2.4-1.2,5.6-1.2,9.5
					c0,9.4,2.2,14.1,6.7,14.1c1.6,0,2.8-0.7,3.8-2.1C273.6,148.3,273.9,147.6,274.3,146.7z"/>
				<path class="st1" d="M329.9,150.5v1.7c-4,0.4-6.4,0.7-7.2,0.8c-2.2,0.3-4.5,0.8-6.7,1.6v-4.8c-1.7,1.4-3,2.5-4,3
					c-2,1.2-4,1.7-6.1,1.7c-3.4,0-5.9-1-7.5-3.1c-1.4-1.8-2.1-4.1-2.1-6.9v-18c0-1.5-0.2-2.5-0.6-3c-0.4-0.5-1.4-0.9-2.8-1.2v-1.7
					h13.4V145c0,1.5,0.2,2.6,0.5,3.3c0.6,1.2,1.7,1.8,3.5,1.8c1.2,0,2.3-0.4,3.4-1.1c0.7-0.4,1.5-1.1,2.4-2.1v-20.2
					c0-1.8-0.4-2.9-1.3-3.5c-0.5-0.3-1.5-0.6-3.1-0.7v-1.7h14.3v25.6c0,1.4,0.3,2.5,0.9,3.1C327.4,150.2,328.4,150.5,329.9,150.5z"
					/>
				<path class="st1" d="M362.1,144.7l1.7,1c-2.1,3.3-4.3,5.6-6.4,7c-2.2,1.3-4.7,2-7.7,2c-3.9,0-7.2-1.4-9.9-4.1
					c-3-3.2-4.6-7.6-4.6-13.3c0-5.1,1.4-9.3,4.2-12.5c2.8-3.2,6.3-4.8,10.5-4.8c4.2,0,7.4,1.4,9.7,4.1c2.6,3,3.8,7.1,3.8,12.2h-18
					c0,3.7,0.6,6.7,1.7,9c1.5,3,3.8,4.4,6.8,4.4c1.4,0,2.7-0.3,4-1C359.2,147.8,360.5,146.5,362.1,144.7z M358.1,109.7l-10.1,6.2h-4
					l9.8-11.1c0.7-0.8,1.4-1.3,2-1.6c0.6-0.3,1.2-0.4,1.7-0.4c0.9,0,1.6,0.2,2.2,0.6c0.9,0.6,1.3,1.4,1.3,2.6c0,0.9-0.2,1.6-0.7,2.1
					C359.8,108.5,359.1,109.1,358.1,109.7z M345.1,133.5h9.5c0-1.9,0-3.4-0.1-4.6s-0.2-2.3-0.5-3.4c-0.3-1-0.7-1.8-1.1-2.4
					c-0.7-0.7-1.6-1.1-2.7-1.1c-1.6,0-2.7,0.7-3.5,2C345.6,125.9,345.1,129,345.1,133.5z"/>
				<path class="st1" d="M100.5,209.5h-1.8c-0.8-2.5-1.9-4.5-3.4-5.9c-1.5-1.4-3.3-2.1-5.4-2.1c-1.2,0-2.3,0.4-3.2,1.2
					c-0.9,0.8-1.4,1.8-1.4,2.9c0,2,2.8,4.4,8.3,7c5.6,2.6,8.3,6.1,8.3,10.4c0,3.4-1,6.1-3,8.1c-2,2-4.7,2.9-8.1,2.9
					c-1.1,0-2.5-0.2-4.2-0.7c-1.6-0.5-3.2-1-4.8-1.5c-0.6,0-1.3,0.7-1.9,2.1h-1.8v-11.8h2c0.7,3.1,1.8,5.4,3.5,7
					c1.7,1.6,3.8,2.4,6.5,2.4c1.6,0,2.9-0.5,3.7-1.4c0.8-1,1.3-2,1.3-3.3c0-1.8-1.4-3.4-4.3-4.9c-5.3-2.8-8-4.2-8.2-4.4
					c-2.9-2.1-4.4-4.8-4.4-7.9c0-3.1,1.1-5.6,3.2-7.6c2.1-2,4.8-2.9,8.1-2.9c1.2,0,2.5,0.1,3.7,0.4c1.2,0.3,2.5,0.6,3.9,1
					c0.8,0,1.4-0.5,1.8-1.4h1.6V209.5z"/>
				<path class="st1" d="M108.1,216.6c0-4.8,1.5-8.9,4.5-12.3c3-3.4,6.8-5.1,11.6-5.1c4.7,0,8.5,1.7,11.5,5c3,3.3,4.5,7.5,4.5,12.5
					c0,4.9-1.5,9-4.5,12.3c-3,3.4-6.8,5-11.6,5c-4.8,0-8.7-1.7-11.7-5C109.6,225.6,108.1,221.5,108.1,216.6z M118.6,216.6
					c0,5,0.2,8.5,0.7,10.4c0.8,3.1,2.5,4.7,5,4.7c2.2,0,3.8-1.4,4.6-4.1c0.6-2.1,0.9-5.8,0.9-11c0-5.6-0.4-9.6-1.2-11.8
					c-0.8-2.3-2.2-3.4-4.4-3.4c-2.4,0-4,1.5-4.8,4.5C118.9,208,118.6,211.6,118.6,216.6z"/>
				<path class="st1" d="M162.2,231.1v1.8h-17v-1.8c1.2,0,2.2-0.5,2.8-1.5c0.5-0.8,0.8-1.7,0.8-2.8v-36.2c0-1.3-0.3-2.3-1-3
					c-0.6-0.7-1.5-1.1-2.7-1.1v-1.8h13.5v42.1c0,1.3,0.3,2.3,0.7,3.1C160,230.7,160.9,231.1,162.2,231.1z"/>
				<path class="st1" d="M167.8,216.6c0-4.8,1.5-8.9,4.5-12.3c3-3.4,6.8-5.1,11.6-5.1c4.7,0,8.5,1.7,11.5,5c3,3.3,4.5,7.5,4.5,12.5
					c0,4.9-1.5,9-4.5,12.3c-3,3.4-6.8,5-11.6,5c-4.8,0-8.7-1.7-11.7-5C169.3,225.6,167.8,221.5,167.8,216.6z M178.3,216.6
					c0,5,0.2,8.5,0.7,10.4c0.8,3.1,2.5,4.7,5,4.7c2.2,0,3.8-1.4,4.6-4.1c0.6-2.1,0.9-5.8,0.9-11c0-5.6-0.4-9.6-1.2-11.8
					c-0.8-2.3-2.2-3.4-4.4-3.4c-2.4,0-4,1.5-4.8,4.5C178.6,208,178.3,211.6,178.3,216.6z"/>
				<path class="st1" d="M247.8,209.5H246c-0.8-2.5-1.9-4.5-3.4-5.9c-1.5-1.4-3.3-2.1-5.4-2.1c-1.2,0-2.3,0.4-3.2,1.2
					c-0.9,0.8-1.4,1.8-1.4,2.9c0,2,2.8,4.4,8.3,7c5.6,2.6,8.3,6.1,8.3,10.4c0,3.4-1,6.1-3,8.1c-2,2-4.7,2.9-8.1,2.9
					c-1.1,0-2.5-0.2-4.2-0.7c-1.6-0.5-3.2-1-4.8-1.5c-0.6,0-1.3,0.7-1.9,2.1h-1.8v-11.8h2c0.7,3.1,1.8,5.4,3.5,7
					c1.7,1.6,3.8,2.4,6.5,2.4c1.6,0,2.9-0.5,3.7-1.4c0.8-1,1.3-2,1.3-3.3c0-1.8-1.4-3.4-4.3-4.9c-5.3-2.8-8-4.2-8.2-4.4
					c-2.9-2.1-4.4-4.8-4.4-7.9c0-3.1,1.1-5.6,3.2-7.6c2.1-2,4.8-2.9,8.1-2.9c1.2,0,2.5,0.1,3.7,0.4c1.2,0.3,2.5,0.6,3.9,1
					c0.8,0,1.4-0.5,1.8-1.4h1.6V209.5z"/>
				<path class="st1" d="M282.2,224l1.7,1c-2.1,3.3-4.3,5.6-6.4,7s-4.7,2-7.7,2c-3.9,0-7.2-1.4-9.9-4.1c-3-3.2-4.6-7.6-4.6-13.3
					c0-5.1,1.4-9.3,4.2-12.5c2.8-3.2,6.3-4.8,10.5-4.8c4.2,0,7.4,1.4,9.7,4.1c2.6,3,3.8,7.1,3.8,12.2h-18c0,3.7,0.6,6.7,1.7,9
					c1.5,3,3.8,4.4,6.8,4.4c1.4,0,2.7-0.3,4-1C279.3,227.1,280.7,225.8,282.2,224z M265.2,212.8h9.5c0-1.9,0-3.4-0.1-4.6
					s-0.3-2.3-0.5-3.4c-0.3-1-0.7-1.8-1.1-2.4c-0.7-0.7-1.6-1.1-2.7-1.1c-1.6,0-2.7,0.7-3.5,2C265.8,205.2,265.2,208.3,265.2,212.8z
					"/>
				<path class="st1" d="M321.7,204.5h-5.8c0.7,0.7,1.3,1.4,1.6,2.1c0.8,1.5,1.2,3.1,1.2,4.9c0,2.3-0.6,4.3-1.9,5.9
					c-1.2,1.7-3.1,2.9-5.6,3.7c-1.1,0.3-2.3,0.5-3.7,0.6c-1.4,0-3.1,0.1-5.2,0.1c-0.8,0-1.7,0.3-2.6,1c-0.9,0.7-1.4,1.5-1.4,2.6
					c0,1.2,0.5,1.9,1.4,2.2c0.9,0.3,2.8,0.4,5.8,0.4h4.6c2.8,0,5.2,0.5,7.1,1.4c3,1.4,4.6,3.9,4.6,7.3c0,4-1.9,6.9-5.8,8.7
					c-3,1.4-7.2,2.1-12.5,2.1c-4.4,0-7.9-0.6-10.4-1.7c-2.5-1.1-3.7-2.7-3.7-4.8c0-1.4,0.6-2.6,1.8-3.6c1.2-1,2.8-1.6,4.8-1.7
					c-2-0.8-3.4-1.5-4-2.1c-1-0.9-1.6-2.3-1.6-4c0-2,1-3.8,3-5.4c1.6-1.2,3.3-2.1,5.3-2.7c-2.8-1.1-4.9-2.6-6.4-4.4
					c-1.5-1.9-2.3-4.1-2.3-6.6c0-3,1.2-5.6,3.6-7.8c2.7-2.4,6.4-3.6,11-3.6c1.3,0,2.6,0.1,3.9,0.4c1.3,0.2,2.6,0.6,4,1.2h9.3V204.5z
					 M310.4,236.6h-12.3c-1.7,1.3-2.5,2.7-2.5,4c0,1.9,1.3,3.3,3.8,4.1c1.4,0.4,3,0.6,4.8,0.6c3.1,0,5.4-0.2,7-0.6
					c3.2-0.8,4.8-2.3,4.8-4.5C316.1,237.8,314.2,236.6,310.4,236.6z M299.7,210.7c0,3,0.2,5.2,0.7,6.4c0.7,1.9,2,2.8,4,2.8
					c1.9,0,3.3-1,4-3.1c0.5-1.4,0.7-3.4,0.7-6.1c0-2.6-0.2-4.6-0.6-5.8c-0.7-2.3-2.1-3.5-4.1-3.5c-1.9,0-3.3,1-4,3
					C300,205.7,299.7,207.8,299.7,210.7z"/>
				<path class="st1" d="M363.3,229.8v1.7c-4,0.4-6.4,0.7-7.2,0.8c-2.2,0.3-4.5,0.8-6.7,1.6v-4.8c-1.7,1.4-3,2.5-4,3
					c-2,1.2-4,1.7-6.1,1.7c-3.4,0-5.9-1-7.5-3.1c-1.4-1.8-2.1-4.1-2.1-6.9v-18c0-1.5-0.2-2.5-0.6-3c-0.4-0.5-1.4-0.9-2.8-1.2V200
					h13.4v24.2c0,1.5,0.2,2.6,0.5,3.3c0.6,1.2,1.7,1.8,3.5,1.8c1.2,0,2.3-0.4,3.4-1.1c0.7-0.4,1.5-1.1,2.4-2.1V206
					c0-1.8-0.4-2.9-1.3-3.5c-0.5-0.3-1.5-0.6-3.1-0.7V200h14.3v25.6c0,1.4,0.3,2.5,0.9,3.1C360.8,229.5,361.8,229.8,363.3,229.8z"/>
				<path class="st1" d="M385,231.2v1.7h-17v-1.7c1.5-0.4,2.5-0.7,2.8-1.1c0.6-0.6,0.9-1.6,0.9-3.2V206c0-1.5-0.3-2.5-0.7-3
					c-0.5-0.5-1.5-0.9-3-1.2V200h13.7v27.1c0,1.3,0.2,2.2,0.6,2.9C382.7,230.6,383.6,231,385,231.2z M371.1,189.2
					c0-1.5,0.5-2.8,1.6-3.9c1-1.1,2.4-1.6,4-1.6c1.5,0,2.8,0.5,3.9,1.6c1.1,1.1,1.6,2.4,1.6,4c0,1.6-0.5,2.9-1.6,3.9
					c-1,1-2.4,1.6-3.9,1.6c-1.6,0-2.9-0.5-4-1.6C371.6,192.1,371.1,190.8,371.1,189.2z"/>
				<path class="st1" d="M409.8,231.1v1.8h-18.9v-1.7c1.4-0.3,2.4-0.6,2.8-0.9c0.7-0.6,1.1-1.7,1.1-3.3V206c0-1.7-0.4-2.8-1.1-3.3
					c-0.5-0.4-1.4-0.7-2.8-0.9V200h13.5v5.6c1.4-1.9,2.6-3.2,3.6-4.1c1.9-1.6,3.9-2.4,5.9-2.4c2.1,0,3.7,0.7,4.8,2.1
					c0.8,1,1.1,2.1,1.1,3.4c0,1.2-0.3,2.2-0.9,3.1c-0.8,1.1-2,1.7-3.6,1.7c-1.5,0-3-0.9-4.3-2.8c-0.7-0.9-1.3-1.4-2-1.4
					c-1.2,0-2.2,0.8-3.1,2.3c-0.7,1.2-1.1,2.7-1.1,4.5v13.4c0,2.2,0.3,3.7,1,4.5C406.3,230.7,407.7,231.1,409.8,231.1z"/>
				<path class="st1" d="M94.6,310.4v1.8h-17v-1.8c1.2,0,2.2-0.5,2.8-1.5c0.5-0.8,0.8-1.7,0.8-2.8v-36.2c0-1.3-0.3-2.3-1-3
					c-0.6-0.7-1.5-1.1-2.7-1.1V264h13.5v42.1c0,1.3,0.3,2.3,0.7,3.1C92.4,310,93.3,310.4,94.6,310.4z"/>
				<path class="st1" d="M132.1,307.6l1.1,1.5c-1.1,1.3-2.3,2.3-3.6,3c-1.3,0.7-2.7,1.1-4.3,1.1c-2.2,0-3.8-0.6-4.7-1.7
					c-0.5-0.6-1-1.7-1.3-3.3c-2,2-4.3,3.4-6.8,4.3c-1.6,0.5-3.1,0.8-4.6,0.8c-2,0-3.7-0.6-5.2-1.8c-1.8-1.4-2.6-3.4-2.6-5.9
					c0-3.3,1.9-6.1,5.8-8.3c2.5-1.4,6.9-3.1,13.4-5.1V287c0-2-0.4-3.5-1.1-4.5c-1-1.2-2.7-1.8-5.1-1.8c-1.2,0-2.2,0.3-3,0.8
					c-0.8,0.5-1.2,1.1-1.2,1.7c0,0.4,0.4,1,1.1,1.9c0.7,0.9,1.1,1.9,1.1,2.9c0,1.2-0.5,2.3-1.6,3.1c-0.8,0.6-1.9,0.9-3.2,0.9
					c-1.5,0-2.7-0.4-3.5-1.2c-0.8-0.8-1.2-2-1.2-3.6c0-2.4,1.1-4.5,3.3-6.1c2.4-1.8,5.7-2.7,10-2.7c4.2,0,7.7,0.8,10.3,2.5
					s4,4.1,4,7.3v18.6c0,0.5,0.1,0.9,0.2,1.2c0.2,0.4,0.6,0.5,1.3,0.5c0.3,0,0.5-0.1,0.7-0.3L132.1,307.6z M119.4,305.1v-10.3
					c-2.6,0.6-4.8,1.6-6.4,3.2c-1.6,1.5-2.4,3.4-2.4,5.4c0,1.2,0.3,2.3,0.9,3.3c0.6,1,1.5,1.5,2.7,1.5c1.1,0,2.1-0.4,3.1-1.1
					C117.8,306.7,118.5,306,119.4,305.1z"/>
				<path class="st1" d="M160.2,288.8h-1.8c-0.8-2.5-1.9-4.5-3.4-5.9c-1.5-1.4-3.3-2.1-5.4-2.1c-1.2,0-2.3,0.4-3.2,1.2
					c-0.9,0.8-1.4,1.8-1.4,2.9c0,2,2.8,4.4,8.3,7c5.6,2.6,8.3,6.1,8.3,10.4c0,3.4-1,6.1-3,8.1s-4.7,2.9-8.1,2.9
					c-1.1,0-2.5-0.2-4.2-0.7c-1.6-0.5-3.2-1-4.8-1.5c-0.6,0-1.3,0.7-1.9,2.1h-1.8v-11.8h2c0.7,3.1,1.8,5.4,3.5,7
					c1.7,1.6,3.8,2.4,6.5,2.4c1.6,0,2.9-0.5,3.7-1.4c0.8-1,1.3-2,1.3-3.3c0-1.8-1.4-3.4-4.3-4.9c-5.3-2.8-8-4.2-8.2-4.4
					c-2.9-2.1-4.4-4.8-4.4-7.9c0-3.1,1.1-5.6,3.2-7.6c2.1-2,4.8-2.9,8.1-2.9c1.2,0,2.5,0.1,3.7,0.4c1.2,0.3,2.5,0.6,3.9,1
					c0.8,0,1.4-0.5,1.8-1.4h1.6V288.8z"/>
				<path class="st1" d="M207.7,279.3v3.1H201v21.4c0,1.1,0.1,1.9,0.3,2.4c0.4,1.1,1.3,1.6,2.5,1.6c0.8,0,1.4-0.2,2-0.7
					c0.6-0.5,1.3-1.5,2.1-3l1.8,0.8c-1.1,2.3-2.3,4-3.3,5.1c-1.9,1.9-4.3,2.8-7.1,2.8c-3.3,0-5.6-1-6.9-3.1
					c-0.8-1.2-1.1-2.7-1.1-4.3v-23.1h-3.7v-1.9c2.1-1.8,4-3.5,5.5-5.2c1.9-2.1,4.1-4.8,6.3-8h1.8v12H207.7z"/>
				<path class="st1" d="M240.5,303.3l1.7,1c-2.1,3.3-4.3,5.6-6.4,7c-2.2,1.3-4.7,2-7.7,2c-3.9,0-7.2-1.4-9.9-4.1
					c-3-3.2-4.6-7.6-4.6-13.3c0-5.1,1.4-9.3,4.2-12.5c2.8-3.2,6.3-4.8,10.5-4.8c4.2,0,7.4,1.4,9.7,4.1c2.6,3,3.8,7.1,3.8,12.2h-18
					c0,3.7,0.6,6.7,1.7,9c1.5,3,3.8,4.4,6.8,4.4c1.4,0,2.7-0.3,4-1C237.6,306.4,238.9,305.1,240.5,303.3z M223.5,292.1h9.5
					c0-1.9,0-3.4-0.1-4.6c-0.1-1.2-0.3-2.3-0.5-3.4c-0.3-1-0.7-1.8-1.1-2.4c-0.7-0.7-1.6-1.1-2.7-1.1c-1.6,0-2.7,0.7-3.5,2
					C224,284.5,223.5,287.6,223.5,292.1z"/>
				<path class="st1" d="M284,310.4v1.8h-16.7v-1.7c2.2-0.2,3.3-1.5,3.3-4.1v-17.2c0-1.7-0.2-2.9-0.5-3.7c-0.6-1.5-1.8-2.2-3.4-2.2
					c-1.2,0-2.5,0.6-3.9,1.7c-1.4,1.1-2,1.9-2,2.4v19c0,1.1,0.2,1.9,0.5,2.5c0.5,0.9,1.5,1.4,3,1.6v1.8h-17.2v-1.7
					c1.5-0.3,2.4-0.6,2.8-1c0.6-0.6,0.9-1.7,0.9-3.3v-20.9c0-1.6-0.2-2.6-0.7-3.1c-0.5-0.5-1.5-0.9-3-1.1v-1.7h13.7v5.1
					c1-1.5,2.1-2.7,3.3-3.6c2-1.6,4.4-2.4,7-2.4c2.4,0,4.5,0.7,6.2,2.1c2.2,1.8,3.3,4.5,3.3,8v17.8c0,1.2,0.1,2.1,0.4,2.6
					C281.4,309.9,282.5,310.4,284,310.4z"/>
				<path class="st1" d="M325.4,309.3v1.6c-4.4,0.5-7.3,0.9-8.8,1.1c-1.4,0.2-3.1,0.6-5.1,1.2v-4.8c-1.6,1.7-2.8,2.8-3.8,3.4
					c-1.6,0.9-3.6,1.4-6.1,1.4c-3.2,0-6.1-1.4-8.5-4.3c-2.7-3.1-4-7.1-4-12.1c0-5.9,1.4-10.5,4.3-13.8c2.6-3,5.7-4.5,9.4-4.5
					c1.5,0,2.9,0.3,4.1,0.9c1.2,0.6,2.6,1.8,4.3,3.6v-13c0-1.8-0.4-2.9-1.1-3.4c-0.7-0.5-2.2-0.7-4.3-0.7V264h15.3v41.1
					c0,1.3,0.2,2.2,0.6,2.8C322.4,308.8,323.6,309.3,325.4,309.3z M311.3,304.3v-17.4c-0.5-1-0.9-1.7-1.3-2.2
					c-1.2-1.5-2.6-2.2-4.3-2.2c-2.3,0-4,1.4-4.9,4.1c-0.8,2.1-1.1,5.2-1.1,9.3c0,3.6,0.2,6.3,0.7,8.2c0.9,3.5,2.5,5.2,5,5.2
					c1.4,0,2.8-0.7,4.2-2.2C310.7,305.8,311.3,304.9,311.3,304.3z"/>
				<path class="st1" d="M357.7,303.3l1.7,1c-2.1,3.3-4.3,5.6-6.4,7c-2.2,1.3-4.7,2-7.7,2c-3.9,0-7.2-1.4-9.9-4.1
					c-3-3.2-4.6-7.6-4.6-13.3c0-5.1,1.4-9.3,4.2-12.5c2.8-3.2,6.3-4.8,10.5-4.8c4.2,0,7.4,1.4,9.7,4.1c2.6,3,3.8,7.1,3.8,12.2h-18
					c0,3.7,0.6,6.7,1.7,9c1.5,3,3.8,4.4,6.8,4.4c1.4,0,2.7-0.3,4-1C354.8,306.4,356.2,305.1,357.7,303.3z M340.8,292.1h9.5
					c0-1.9,0-3.4-0.1-4.6c-0.1-1.2-0.2-2.3-0.5-3.4c-0.3-1-0.7-1.8-1.1-2.4c-0.7-0.7-1.6-1.1-2.7-1.1c-1.6,0-2.7,0.7-3.5,2
					C341.3,284.5,340.8,287.6,340.8,292.1z"/>
				<path class="st1" d="M401.2,310.4v1.8h-16.7v-1.7c2.2-0.2,3.3-1.5,3.3-4.1v-17.2c0-1.7-0.2-2.9-0.5-3.7
					c-0.6-1.5-1.8-2.2-3.4-2.2c-1.2,0-2.5,0.6-3.9,1.7c-1.4,1.1-2,1.9-2,2.4v19c0,1.1,0.2,1.9,0.5,2.5c0.5,0.9,1.5,1.4,3,1.6v1.8
					h-17.2v-1.7c1.5-0.3,2.4-0.6,2.8-1c0.6-0.6,0.9-1.7,0.9-3.3v-20.9c0-1.6-0.2-2.6-0.7-3.1c-0.5-0.5-1.5-0.9-3-1.1v-1.7H378v5.1
					c1-1.5,2.1-2.7,3.3-3.6c2-1.6,4.4-2.4,7-2.4c2.4,0,4.5,0.7,6.2,2.1c2.2,1.8,3.3,4.5,3.3,8v17.8c0,1.2,0.1,2.1,0.4,2.6
					C398.7,309.9,399.7,310.4,401.2,310.4z"/>
				<path class="st1" d="M433.9,304.4l1.3,1.3c-1.7,2.4-3.7,4.2-6,5.6c-2.3,1.3-4.8,2-7.6,2c-4.5,0-8.1-1.6-11-4.8
					c-2.8-3.2-4.3-7-4.3-11.6c0-6.4,1.9-11.2,5.8-14.5c3.1-2.6,6.7-3.9,11-3.9c2.8,0,5.3,0.6,7.4,1.9c2.4,1.5,3.6,3.4,3.6,5.8
					c0,1.5-0.5,2.7-1.4,3.4c-0.9,0.8-2.1,1.1-3.5,1.1c-1.4,0-2.4-0.4-3-1.3c-0.6-0.9-1-2.9-1-6c0-0.9-0.3-1.6-0.9-2.1
					c-0.6-0.5-1.3-0.7-2-0.7c-1.9,0-3.3,1-4.4,3.1c-1.1,2-1.6,5-1.6,8.9c0,4.9,0.9,8.7,2.8,11.5c1.9,2.8,4.2,4.2,7.1,4.2
					c1.8,0,3.4-0.4,4.7-1.3C431.8,306.6,432.8,305.7,433.9,304.4z"/>
				<path class="st1" d="M456.5,310.5v1.7h-17v-1.7c1.5-0.4,2.5-0.7,2.8-1.1c0.6-0.6,0.9-1.6,0.9-3.2v-20.9c0-1.5-0.2-2.5-0.7-3
					c-0.5-0.5-1.5-0.9-3-1.2v-1.7h13.7v27.1c0,1.3,0.2,2.2,0.6,2.9C454.2,309.9,455.1,310.3,456.5,310.5z M442.6,268.5
					c0-1.5,0.5-2.8,1.6-3.9c1-1.1,2.4-1.6,4-1.6c1.5,0,2.8,0.5,3.9,1.6c1.1,1.1,1.6,2.4,1.6,4c0,1.6-0.5,2.9-1.6,3.9
					c-1,1-2.4,1.6-3.9,1.6c-1.6,0-2.9-0.5-4-1.6C443.1,271.4,442.6,270.1,442.6,268.5z"/>
				<path class="st1" d="M494,307.6l1.1,1.5c-1.1,1.3-2.3,2.3-3.6,3c-1.3,0.7-2.7,1.1-4.3,1.1c-2.2,0-3.8-0.6-4.7-1.7
					c-0.5-0.6-1-1.7-1.3-3.3c-2,2-4.3,3.4-6.8,4.3c-1.6,0.5-3.1,0.8-4.6,0.8c-2,0-3.7-0.6-5.2-1.8c-1.8-1.4-2.6-3.4-2.6-5.9
					c0-3.3,1.9-6.1,5.8-8.3c2.5-1.4,6.9-3.1,13.4-5.1V287c0-2-0.4-3.5-1.1-4.5c-1-1.2-2.7-1.8-5.1-1.8c-1.2,0-2.2,0.3-3,0.8
					c-0.8,0.5-1.2,1.1-1.2,1.7c0,0.4,0.4,1,1.1,1.9c0.7,0.9,1.1,1.9,1.1,2.9c0,1.2-0.5,2.3-1.6,3.1c-0.8,0.6-1.9,0.9-3.2,0.9
					c-1.5,0-2.7-0.4-3.5-1.2c-0.8-0.8-1.2-2-1.2-3.6c0-2.4,1.1-4.5,3.3-6.1c2.4-1.8,5.7-2.7,10-2.7c4.2,0,7.7,0.8,10.3,2.5
					s4,4.1,4,7.3v18.6c0,0.5,0.1,0.9,0.2,1.2c0.2,0.4,0.6,0.5,1.3,0.5c0.3,0,0.5-0.1,0.7-0.3L494,307.6z M481.2,305.1v-10.3
					c-2.6,0.6-4.8,1.6-6.4,3.2c-1.6,1.5-2.4,3.4-2.4,5.4c0,1.2,0.3,2.3,0.9,3.3c0.6,1,1.5,1.5,2.7,1.5c1.1,0,2.1-0.4,3.1-1.1
					C479.7,306.7,480.4,306,481.2,305.1z"/>
				<path class="st1" d="M522.1,288.8h-1.8c-0.8-2.5-1.9-4.5-3.4-5.9c-1.5-1.4-3.3-2.1-5.4-2.1c-1.2,0-2.3,0.4-3.2,1.2
					c-0.9,0.8-1.4,1.8-1.4,2.9c0,2,2.8,4.4,8.3,7c5.6,2.6,8.3,6.1,8.3,10.4c0,3.4-1,6.1-3,8.1s-4.7,2.9-8.1,2.9
					c-1.1,0-2.5-0.2-4.2-0.7c-1.6-0.5-3.2-1-4.8-1.5c-0.6,0-1.3,0.7-1.9,2.1h-1.8v-11.8h2c0.7,3.1,1.8,5.4,3.5,7
					c1.7,1.6,3.8,2.4,6.5,2.4c1.6,0,2.9-0.5,3.7-1.4c0.8-1,1.3-2,1.3-3.3c0-1.8-1.4-3.4-4.3-4.9c-5.3-2.8-8-4.2-8.2-4.4
					c-2.9-2.1-4.4-4.8-4.4-7.9c0-3.1,1.1-5.6,3.2-7.6c2.1-2,4.8-2.9,8.1-2.9c1.2,0,2.5,0.1,3.7,0.4c1.2,0.3,2.5,0.6,3.9,1
					c0.8,0,1.4-0.5,1.8-1.4h1.6V288.8z"/>
				<path class="st1" d="M532,325l-0.8-1.6c1.9-1.3,3.4-2.5,4.6-3.7c2.1-2.1,3.1-4,3.1-5.7c0-1-0.5-1.6-1.4-1.6h-1.6
					c-1.3,0-2.4-0.4-3.3-1.1c-1.3-1-1.9-2.5-1.9-4.5c0-1.8,0.5-3.2,1.6-4.2s2.5-1.5,4.2-1.5c2.4,0,4.3,0.9,5.6,2.6
					c1.1,1.5,1.7,3.3,1.7,5.5c0,3.8-1.5,7.3-4.5,10.4C537.6,321.4,535.1,323.2,532,325z"/>
				<path class="st1" d="M100.5,368.1h-1.8c-0.8-2.5-1.9-4.5-3.4-5.9c-1.5-1.4-3.3-2.1-5.4-2.1c-1.2,0-2.3,0.4-3.2,1.2
					c-0.9,0.8-1.4,1.8-1.4,2.9c0,2,2.8,4.4,8.3,7c5.6,2.6,8.3,6.1,8.3,10.4c0,3.4-1,6.1-3,8.1s-4.7,2.9-8.1,2.9
					c-1.1,0-2.5-0.2-4.2-0.7c-1.6-0.5-3.2-1-4.8-1.5c-0.6,0-1.3,0.7-1.9,2.1h-1.8v-11.8h2c0.7,3.1,1.8,5.4,3.5,7
					c1.7,1.6,3.8,2.4,6.5,2.4c1.6,0,2.9-0.5,3.7-1.4c0.8-1,1.3-2,1.3-3.3c0-1.8-1.4-3.4-4.3-4.9c-5.3-2.8-8-4.2-8.2-4.4
					c-2.9-2.1-4.4-4.8-4.4-7.9c0-3.1,1.1-5.6,3.2-7.6c2.1-2,4.8-2.9,8.1-2.9c1.2,0,2.5,0.1,3.7,0.4c1.2,0.3,2.5,0.6,3.9,1
					c0.8,0,1.4-0.5,1.8-1.4h1.6V368.1z"/>
				<path class="st1" d="M124.5,389.8v1.7h-17v-1.7c1.5-0.4,2.5-0.7,2.8-1.1c0.6-0.6,0.9-1.6,0.9-3.2v-20.9c0-1.5-0.2-2.5-0.7-3
					c-0.5-0.5-1.5-0.9-3-1.2v-1.7h13.7v27.1c0,1.3,0.2,2.2,0.6,2.9C122.2,389.2,123.1,389.6,124.5,389.8z M110.6,347.8
					c0-1.5,0.5-2.8,1.6-3.9c1-1.1,2.4-1.6,4-1.6c1.5,0,2.8,0.5,3.9,1.6c1.1,1.1,1.6,2.4,1.6,4s-0.5,2.9-1.6,3.9
					c-1,1-2.4,1.6-3.9,1.6c-1.6,0-2.9-0.5-4-1.6C111.1,350.7,110.6,349.4,110.6,347.8z"/>
				<path class="st1" d="M181.9,386.9l1.1,1.5c-1.1,1.3-2.3,2.3-3.6,3c-1.3,0.7-2.7,1.1-4.3,1.1c-2.2,0-3.8-0.6-4.7-1.7
					c-0.5-0.6-1-1.7-1.3-3.3c-2,2-4.3,3.4-6.8,4.3c-1.6,0.5-3.1,0.8-4.6,0.8c-2,0-3.7-0.6-5.2-1.8c-1.8-1.4-2.6-3.4-2.6-5.9
					c0-3.3,1.9-6.1,5.8-8.3c2.5-1.4,6.9-3.1,13.4-5.1v-5.2c0-2-0.4-3.5-1.1-4.5c-1-1.2-2.7-1.8-5.1-1.8c-1.2,0-2.2,0.3-3,0.8
					c-0.8,0.5-1.2,1.1-1.2,1.7c0,0.4,0.4,1,1.1,1.9c0.7,0.9,1.1,1.9,1.1,2.9c0,1.2-0.5,2.3-1.6,3.1c-0.8,0.6-1.9,0.9-3.2,0.9
					c-1.5,0-2.7-0.4-3.5-1.2c-0.8-0.8-1.2-2-1.2-3.6c0-2.4,1.1-4.5,3.3-6.1c2.4-1.8,5.7-2.7,10-2.7c4.2,0,7.7,0.8,10.3,2.5
					c2.6,1.6,4,4.1,4,7.3v18.6c0,0.5,0.1,0.9,0.3,1.2c0.2,0.4,0.6,0.5,1.3,0.5c0.3,0,0.5-0.1,0.7-0.3L181.9,386.9z M169.2,384.3V374
					c-2.6,0.6-4.8,1.6-6.4,3.2c-1.6,1.5-2.4,3.4-2.4,5.4c0,1.2,0.3,2.3,0.9,3.3c0.6,1,1.5,1.5,2.7,1.5c1.1,0,2.1-0.4,3.1-1.1
					C167.6,386,168.3,385.3,169.2,384.3z"/>
				<path class="st1" d="M224,388.5v1.6c-4.4,0.5-7.3,0.9-8.8,1.1c-1.4,0.2-3.1,0.6-5.1,1.2v-4.8c-1.6,1.7-2.8,2.8-3.8,3.4
					c-1.6,0.9-3.6,1.4-6.1,1.4c-3.2,0-6.1-1.4-8.5-4.3c-2.7-3.1-4-7.1-4-12.1c0-5.9,1.4-10.5,4.3-13.8c2.6-3,5.7-4.5,9.4-4.5
					c1.5,0,2.9,0.3,4.1,0.9s2.6,1.8,4.3,3.6v-13c0-1.8-0.4-2.9-1.1-3.4c-0.7-0.5-2.2-0.7-4.3-0.7v-1.8h15.3v41.1
					c0,1.3,0.2,2.2,0.6,2.8C221,388.1,222.2,388.5,224,388.5z M209.9,383.5v-17.4c-0.5-1-0.9-1.7-1.3-2.2c-1.2-1.5-2.6-2.2-4.3-2.2
					c-2.3,0-4,1.4-4.9,4.1c-0.8,2.1-1.1,5.2-1.1,9.3c0,3.6,0.2,6.3,0.7,8.2c0.9,3.5,2.5,5.2,5,5.2c1.4,0,2.8-0.7,4.2-2.2
					C209.3,385.1,209.9,384.2,209.9,383.5z"/>
				<path class="st1" d="M256.3,382.6l1.7,1c-2.1,3.3-4.3,5.6-6.4,7c-2.2,1.3-4.7,2-7.7,2c-3.9,0-7.2-1.4-9.9-4.1
					c-3-3.2-4.6-7.6-4.6-13.3c0-5.1,1.4-9.3,4.2-12.5c2.8-3.2,6.3-4.8,10.5-4.8c4.2,0,7.4,1.4,9.7,4.1c2.6,3,3.8,7.1,3.8,12.2h-18
					c0,3.7,0.6,6.7,1.7,9c1.5,3,3.8,4.4,6.8,4.4c1.4,0,2.7-0.3,4-1C253.5,385.7,254.8,384.4,256.3,382.6z M239.4,371.4h9.5
					c0-1.9,0-3.4-0.1-4.6c-0.1-1.2-0.2-2.3-0.5-3.4c-0.3-1-0.7-1.8-1.1-2.4c-0.7-0.7-1.6-1.1-2.7-1.1c-1.6,0-2.7,0.7-3.5,2
					C239.9,363.8,239.4,366.9,239.4,371.4z"/>
				<path class="st1" d="M319.5,389.7v1.8h-17v-1.8c1.6,0,2.6-0.4,3.1-1.4c0.3-0.5,0.4-1.4,0.4-2.7v-17.2c0-1.8-0.1-3.1-0.4-3.8
					c-0.6-1.4-1.7-2.1-3.4-2.1c-1.3,0-2.7,0.6-4.1,1.8c-1.2,1-1.9,1.8-1.9,2.3v19c0,1.3,0.3,2.3,0.7,3c0.5,0.7,1.4,1.1,2.6,1.1v1.8
					h-16.7v-1.8c1.5,0,2.5-0.5,3-1.4c0.3-0.5,0.4-1.4,0.4-2.6v-17.2c0-1.8-0.1-3.1-0.4-3.8c-0.6-1.4-1.7-2.1-3.5-2.1
					c-1.3,0-2.7,0.6-4.1,1.8c-1.2,1-1.8,1.8-1.8,2.3v19c0,1.3,0.2,2.2,0.6,2.9c0.4,0.6,1.3,1,2.6,1.2v1.8h-17.1v-1.7
					c1.5-0.3,2.4-0.6,2.8-0.9c0.7-0.6,1.1-1.7,1.1-3.3v-20.9c0-1.7-0.4-2.8-1.1-3.3c-0.5-0.4-1.4-0.7-2.8-0.9v-1.7h13.6v5.1
					c1-1.5,2.1-2.7,3.3-3.6c2-1.6,4.4-2.4,7-2.4c2.8,0,5.1,0.7,6.7,2.2c0.9,0.8,1.8,2.1,2.6,4c1.6-2.1,3.2-3.6,5-4.7
					c1.7-1,3.6-1.5,5.6-1.5c2.4,0,4.5,0.7,6.2,2.1c2.2,1.8,3.3,4.5,3.3,8v17.8c0,1.3,0.1,2.2,0.4,2.7
					C316.8,389.2,317.8,389.7,319.5,389.7z"/>
				<path class="st1" d="M356.6,386.9l1.1,1.5c-1.1,1.3-2.3,2.3-3.6,3c-1.3,0.7-2.7,1.1-4.3,1.1c-2.2,0-3.8-0.6-4.7-1.7
					c-0.5-0.6-1-1.7-1.3-3.3c-2,2-4.3,3.4-6.8,4.3c-1.6,0.5-3.1,0.8-4.6,0.8c-2,0-3.7-0.6-5.2-1.8c-1.8-1.4-2.6-3.4-2.6-5.9
					c0-3.3,1.9-6.1,5.8-8.3c2.5-1.4,6.9-3.1,13.4-5.1v-5.2c0-2-0.4-3.5-1.1-4.5c-1-1.2-2.7-1.8-5.1-1.8c-1.2,0-2.2,0.3-3,0.8
					c-0.8,0.5-1.2,1.1-1.2,1.7c0,0.4,0.4,1,1.1,1.9c0.7,0.9,1.1,1.9,1.1,2.9c0,1.2-0.5,2.3-1.6,3.1c-0.8,0.6-1.9,0.9-3.2,0.9
					c-1.5,0-2.7-0.4-3.5-1.2c-0.8-0.8-1.2-2-1.2-3.6c0-2.4,1.1-4.5,3.3-6.1c2.4-1.8,5.7-2.7,10-2.7c4.2,0,7.7,0.8,10.3,2.5
					c2.6,1.6,4,4.1,4,7.3v18.6c0,0.5,0.1,0.9,0.2,1.2c0.2,0.4,0.6,0.5,1.3,0.5c0.3,0,0.5-0.1,0.7-0.3L356.6,386.9z M348.7,347.5
					l-10.1,6.2h-4l9.8-11.1c0.7-0.8,1.4-1.3,2-1.6c0.6-0.3,1.2-0.4,1.7-0.4c0.9,0,1.6,0.2,2.2,0.6c0.9,0.6,1.3,1.4,1.3,2.6
					c0,0.9-0.2,1.6-0.7,2.1C350.4,346.4,349.7,346.9,348.7,347.5z M343.9,384.3V374c-2.6,0.6-4.8,1.6-6.4,3.2
					c-1.6,1.5-2.4,3.4-2.4,5.4c0,1.2,0.3,2.3,0.9,3.3c0.6,1,1.5,1.5,2.7,1.5c1.1,0,2.1-0.4,3.1-1.1C342.4,386,343,385.3,343.9,384.3
					z"/>
				<path class="st1" d="M384.8,368.1H383c-0.8-2.5-1.9-4.5-3.4-5.9c-1.5-1.4-3.3-2.1-5.4-2.1c-1.2,0-2.3,0.4-3.2,1.2
					c-0.9,0.8-1.4,1.8-1.4,2.9c0,2,2.8,4.4,8.3,7c5.6,2.6,8.3,6.1,8.3,10.4c0,3.4-1,6.1-3,8.1s-4.7,2.9-8.1,2.9
					c-1.1,0-2.5-0.2-4.2-0.7c-1.6-0.5-3.2-1-4.8-1.5c-0.6,0-1.3,0.7-1.9,2.1h-1.8v-11.8h2c0.7,3.1,1.8,5.4,3.5,7
					c1.7,1.6,3.8,2.4,6.5,2.4c1.6,0,2.9-0.5,3.7-1.4c0.8-1,1.3-2,1.3-3.3c0-1.8-1.4-3.4-4.3-4.9c-5.3-2.8-8-4.2-8.2-4.4
					c-2.9-2.1-4.4-4.8-4.4-7.9c0-3.1,1.1-5.6,3.2-7.6c2.1-2,4.8-2.9,8.1-2.9c1.2,0,2.5,0.1,3.7,0.4c1.2,0.3,2.5,0.6,3.9,1
					c0.8,0,1.4-0.5,1.8-1.4h1.6V368.1z"/>
				<path class="st1" d="M394.6,404.3l-0.8-1.6c1.9-1.3,3.4-2.5,4.6-3.7c2.1-2.1,3.1-4,3.1-5.7c0-1-0.5-1.6-1.4-1.6h-1.6
					c-1.3,0-2.4-0.4-3.3-1.1c-1.3-1-1.9-2.5-1.9-4.5c0-1.8,0.5-3.2,1.6-4.2c1.1-1,2.5-1.5,4.2-1.5c2.4,0,4.3,0.9,5.6,2.6
					c1.1,1.5,1.7,3.3,1.7,5.5c0,3.8-1.5,7.3-4.5,10.4C400.2,400.7,397.8,402.5,394.6,404.3z"/>
				<path class="st1" d="M94.6,469v1.8h-17V469c1.2,0,2.2-0.5,2.8-1.5c0.5-0.8,0.8-1.7,0.8-2.8v-36.2c0-1.3-0.3-2.3-1-3
					c-0.6-0.7-1.5-1.1-2.7-1.1v-1.8h13.5v42.1c0,1.3,0.3,2.3,0.7,3.1C92.4,468.6,93.3,469,94.6,469z"/>
				<path class="st1" d="M132.1,466.2l1.1,1.5c-1.1,1.3-2.3,2.3-3.6,3c-1.3,0.7-2.7,1.1-4.3,1.1c-2.2,0-3.8-0.6-4.7-1.7
					c-0.5-0.6-1-1.7-1.3-3.3c-2,2-4.3,3.4-6.8,4.3c-1.6,0.5-3.1,0.8-4.6,0.8c-2,0-3.7-0.6-5.2-1.8c-1.8-1.4-2.6-3.4-2.6-5.9
					c0-3.3,1.9-6.1,5.8-8.3c2.5-1.4,6.9-3.1,13.4-5.1v-5.2c0-2-0.4-3.5-1.1-4.5c-1-1.2-2.7-1.8-5.1-1.8c-1.2,0-2.2,0.3-3,0.8
					c-0.8,0.5-1.2,1.1-1.2,1.7c0,0.4,0.4,1,1.1,1.9c0.7,0.9,1.1,1.9,1.1,2.9c0,1.2-0.5,2.3-1.6,3.1c-0.8,0.6-1.9,0.9-3.2,0.9
					c-1.5,0-2.7-0.4-3.5-1.2c-0.8-0.8-1.2-2-1.2-3.6c0-2.4,1.1-4.5,3.3-6.1c2.4-1.8,5.7-2.7,10-2.7c4.2,0,7.7,0.8,10.3,2.5
					c2.6,1.6,4,4.1,4,7.3v18.6c0,0.5,0.1,0.9,0.2,1.2c0.2,0.4,0.6,0.5,1.3,0.5c0.3,0,0.5-0.1,0.7-0.3L132.1,466.2z M119.4,463.6
					v-10.3c-2.6,0.6-4.8,1.6-6.4,3.2c-1.6,1.5-2.4,3.4-2.4,5.4c0,1.2,0.3,2.3,0.9,3.3c0.6,1,1.5,1.5,2.7,1.5c1.1,0,2.1-0.4,3.1-1.1
					C117.8,465.3,118.5,464.6,119.4,463.6z"/>
				<path class="st1" d="M160.2,447.4h-1.8c-0.8-2.5-1.9-4.5-3.4-5.9c-1.5-1.4-3.3-2.1-5.4-2.1c-1.2,0-2.3,0.4-3.2,1.2
					c-0.9,0.8-1.4,1.8-1.4,2.9c0,2,2.8,4.4,8.3,7c5.6,2.6,8.3,6.1,8.3,10.4c0,3.4-1,6.1-3,8.1s-4.7,2.9-8.1,2.9
					c-1.1,0-2.5-0.2-4.2-0.7c-1.6-0.5-3.2-1-4.8-1.5c-0.6,0-1.3,0.7-1.9,2.1h-1.8v-11.8h2c0.7,3.1,1.8,5.4,3.5,7
					c1.7,1.6,3.8,2.4,6.5,2.4c1.6,0,2.9-0.5,3.7-1.4c0.8-1,1.3-2,1.3-3.3c0-1.8-1.4-3.4-4.3-4.9c-5.3-2.8-8-4.2-8.2-4.4
					c-2.9-2.1-4.4-4.8-4.4-7.9c0-3.1,1.1-5.6,3.2-7.6c2.1-2,4.8-2.9,8.1-2.9c1.2,0,2.5,0.1,3.7,0.4c1.2,0.3,2.5,0.6,3.9,1
					c0.8,0,1.4-0.5,1.8-1.4h1.6V447.4z"/>
				<path class="st1" d="M206.8,483.8v1.5h-19.4v-1.7c1.6-0.2,2.7-0.6,3.2-1.1c0.5-0.5,0.8-1.5,0.8-3v-35.6c0-1.4-0.2-2.4-0.7-3
					c-0.5-0.6-1.5-1-3.1-1.2v-1.7h13.7v4.7c0.9-1.6,1.9-2.8,2.9-3.6c1.7-1.3,3.7-1.9,6.2-1.9c3.4,0,6.3,1.3,8.7,3.8
					c2.8,3,4.2,7.2,4.2,12.6c0,5.7-1.3,10.1-4,13.3c-2.6,3.2-5.9,4.8-9.7,4.8c-1.4,0-2.6-0.2-3.8-0.7c-1.2-0.5-2.7-1.7-4.6-3.5v10
					c0,2.6,0.5,4.3,1.5,5.2C203.5,483.4,204.9,483.8,206.8,483.8z M201.2,446.1v17.3c0.4,1,0.8,1.7,1.2,2.1c1.2,1.5,2.6,2.2,4.3,2.2
					c2.5,0,4.3-1.6,5.2-4.9c0.6-2,0.9-4.7,0.9-8c0-4.2-0.3-7.2-0.8-9.1c-0.9-3.1-2.4-4.6-4.8-4.6c-1.4,0-2.8,0.7-4.2,2.1
					C201.8,444.4,201.2,445.4,201.2,446.1z"/>
				<path class="st1" d="M229.5,454.5c0-4.8,1.5-8.9,4.5-12.3c3-3.4,6.8-5.1,11.6-5.1c4.7,0,8.5,1.7,11.5,5c3,3.3,4.5,7.5,4.5,12.5
					c0,4.9-1.5,9-4.5,12.3c-3,3.4-6.8,5-11.6,5c-4.8,0-8.7-1.7-11.7-5C231,463.4,229.5,459.3,229.5,454.5z M240,454.5
					c0,5,0.2,8.5,0.7,10.4c0.8,3.1,2.5,4.7,5,4.7c2.2,0,3.8-1.4,4.6-4.1c0.6-2.1,0.9-5.8,0.9-11c0-5.6-0.4-9.6-1.2-11.8
					c-0.8-2.3-2.2-3.4-4.4-3.4c-2.4,0-4,1.5-4.8,4.5C240.2,445.9,240,449.5,240,454.5z"/>
				<path class="st1" d="M303.5,467.8v1.6c-4.4,0.5-7.3,0.9-8.8,1.1c-1.4,0.2-3.1,0.6-5.1,1.2v-4.8c-1.6,1.7-2.8,2.8-3.8,3.4
					c-1.6,0.9-3.6,1.4-6.1,1.4c-3.2,0-6.1-1.4-8.5-4.3c-2.7-3.1-4-7.1-4-12.1c0-5.9,1.4-10.5,4.3-13.8c2.6-3,5.7-4.5,9.4-4.5
					c1.5,0,2.9,0.3,4.1,0.9s2.6,1.8,4.3,3.6v-13c0-1.8-0.4-2.9-1.1-3.4c-0.7-0.5-2.2-0.7-4.3-0.7v-1.8h15.3v41.1
					c0,1.3,0.2,2.2,0.6,2.8C300.5,467.4,301.7,467.8,303.5,467.8z M289.4,462.8v-17.4c-0.5-1-0.9-1.7-1.3-2.2
					c-1.2-1.5-2.6-2.2-4.3-2.2c-2.3,0-4,1.4-4.9,4.1c-0.8,2.1-1.1,5.2-1.1,9.3c0,3.6,0.2,6.3,0.7,8.2c0.9,3.5,2.5,5.2,5,5.2
					c1.4,0,2.8-0.7,4.2-2.2C288.8,464.4,289.4,463.5,289.4,462.8z"/>
				<path class="st1" d="M335.8,461.9l1.7,1c-2.1,3.3-4.3,5.6-6.4,7c-2.2,1.3-4.7,2-7.7,2c-3.9,0-7.2-1.4-9.9-4.1
					c-3-3.2-4.6-7.6-4.6-13.3c0-5.1,1.4-9.3,4.2-12.5c2.8-3.2,6.3-4.8,10.5-4.8c4.2,0,7.4,1.4,9.7,4.1c2.6,3,3.8,7.1,3.8,12.2h-18
					c0,3.7,0.6,6.7,1.7,9c1.5,3,3.8,4.4,6.8,4.4c1.4,0,2.7-0.3,4-1C333,465,334.3,463.7,335.8,461.9z M318.9,450.7h9.5
					c0-1.9,0-3.4-0.1-4.6s-0.2-2.3-0.5-3.4c-0.3-1-0.7-1.8-1.1-2.4c-0.7-0.7-1.6-1.1-2.7-1.1c-1.6,0-2.7,0.7-3.5,2
					C319.4,443.1,318.9,446.2,318.9,450.7z"/>
				<path class="st1" d="M399,469v1.8h-17V469c1.6,0,2.6-0.4,3.1-1.4c0.3-0.5,0.4-1.4,0.4-2.7v-17.2c0-1.8-0.1-3.1-0.4-3.8
					c-0.6-1.4-1.7-2.1-3.4-2.1c-1.3,0-2.7,0.6-4.1,1.8c-1.2,1-1.9,1.8-1.9,2.3v19c0,1.3,0.2,2.3,0.7,3s1.4,1.1,2.6,1.1v1.8h-16.7
					V469c1.5,0,2.5-0.5,3-1.4c0.3-0.5,0.4-1.4,0.4-2.6v-17.2c0-1.8-0.1-3.1-0.4-3.8c-0.6-1.4-1.7-2.1-3.5-2.1
					c-1.3,0-2.7,0.6-4.1,1.8c-1.2,1-1.8,1.8-1.8,2.3v19c0,1.3,0.2,2.2,0.6,2.9c0.4,0.6,1.3,1,2.6,1.2v1.8h-17.1V469
					c1.5-0.3,2.4-0.6,2.8-0.9c0.7-0.6,1.1-1.7,1.1-3.3v-20.9c0-1.7-0.4-2.8-1.1-3.3c-0.5-0.4-1.4-0.7-2.8-0.9v-1.7h13.6v5.1
					c1-1.5,2.1-2.7,3.3-3.6c2-1.6,4.4-2.4,7-2.4c2.8,0,5.1,0.7,6.7,2.2c0.9,0.8,1.8,2.1,2.6,4c1.6-2.1,3.2-3.6,5-4.7
					c1.7-1,3.6-1.5,5.6-1.5c2.4,0,4.5,0.7,6.2,2.1c2.2,1.8,3.3,4.5,3.3,8v17.8c0,1.3,0.1,2.2,0.4,2.7C396.3,468.5,397.3,469,399,469
					z"/>
				<path class="st1" d="M404.2,454.5c0-4.8,1.5-8.9,4.5-12.3c3-3.4,6.8-5.1,11.6-5.1c4.7,0,8.5,1.7,11.5,5c3,3.3,4.5,7.5,4.5,12.5
					c0,4.9-1.5,9-4.5,12.3c-3,3.4-6.8,5-11.6,5c-4.8,0-8.7-1.7-11.7-5C405.7,463.4,404.2,459.3,404.2,454.5z M414.7,454.5
					c0,5,0.2,8.5,0.7,10.4c0.8,3.1,2.5,4.7,5,4.7c2.2,0,3.8-1.4,4.6-4.1c0.6-2.1,0.9-5.8,0.9-11c0-5.6-0.4-9.6-1.2-11.8
					c-0.8-2.3-2.2-3.4-4.4-3.4c-2.4,0-4,1.5-4.8,4.5C415,445.9,414.7,449.5,414.7,454.5z"/>
				<path class="st1" d="M464.3,447.4h-1.8c-0.8-2.5-1.9-4.5-3.4-5.9c-1.5-1.4-3.3-2.1-5.4-2.1c-1.2,0-2.3,0.4-3.2,1.2
					c-0.9,0.8-1.4,1.8-1.4,2.9c0,2,2.8,4.4,8.3,7c5.6,2.6,8.3,6.1,8.3,10.4c0,3.4-1,6.1-3,8.1s-4.7,2.9-8.1,2.9
					c-1.1,0-2.5-0.2-4.2-0.7c-1.6-0.5-3.2-1-4.8-1.5c-0.6,0-1.3,0.7-1.9,2.1H442v-11.8h2c0.7,3.1,1.8,5.4,3.5,7
					c1.7,1.6,3.8,2.4,6.5,2.4c1.6,0,2.9-0.5,3.7-1.4c0.8-1,1.3-2,1.3-3.3c0-1.8-1.4-3.4-4.3-4.9c-5.3-2.8-8-4.2-8.2-4.4
					c-2.9-2.1-4.4-4.8-4.4-7.9c0-3.1,1.1-5.6,3.2-7.6c2.1-2,4.8-2.9,8.1-2.9c1.2,0,2.5,0.1,3.7,0.4c1.2,0.3,2.5,0.6,3.9,1
					c0.8,0,1.4-0.5,1.8-1.4h1.6V447.4z"/>
				<path class="st1" d="M105.8,542.3l1.3,1.3c-1.7,2.4-3.7,4.3-6,5.6c-2.3,1.3-4.8,2-7.6,2c-4.5,0-8.1-1.6-11-4.8
					c-2.8-3.2-4.3-7-4.3-11.6c0-6.4,1.9-11.2,5.8-14.5c3.1-2.6,6.7-3.9,11-3.9c2.8,0,5.3,0.6,7.4,1.9c2.4,1.5,3.6,3.4,3.6,5.8
					c0,1.5-0.5,2.7-1.4,3.4c-0.9,0.8-2.1,1.1-3.5,1.1c-1.4,0-2.4-0.4-3-1.3c-0.6-0.9-1-2.9-1-6c0-0.9-0.3-1.6-0.9-2.1
					c-0.6-0.5-1.3-0.7-2-0.7c-1.9,0-3.3,1-4.4,3.1c-1.1,2-1.6,5-1.6,8.9c0,4.9,0.9,8.7,2.8,11.5c1.9,2.8,4.2,4.3,7.1,4.3
					c1.8,0,3.4-0.4,4.7-1.3C103.7,544.5,104.7,543.6,105.8,542.3z"/>
				<path class="st1" d="M131.3,548.3v1.8h-18.9v-1.7c1.4-0.3,2.4-0.6,2.8-0.9c0.7-0.6,1.1-1.7,1.1-3.3v-20.9c0-1.7-0.4-2.8-1.1-3.3
					c-0.5-0.4-1.4-0.7-2.8-0.9v-1.7h13.5v5.6c1.4-1.9,2.6-3.2,3.6-4.1c1.9-1.6,3.9-2.4,5.9-2.4c2.1,0,3.7,0.7,4.8,2.1
					c0.8,1,1.1,2.1,1.1,3.4c0,1.2-0.3,2.2-0.9,3.1c-0.8,1.1-2,1.7-3.6,1.7c-1.5,0-3-0.9-4.3-2.8c-0.7-0.9-1.3-1.4-2-1.4
					c-1.2,0-2.2,0.8-3.1,2.3c-0.7,1.2-1.1,2.7-1.1,4.5v13.4c0,2.2,0.3,3.7,1,4.5C127.7,547.9,129.1,548.3,131.3,548.3z"/>
				<path class="st1" d="M171.4,541.1l1.7,1c-2.1,3.3-4.3,5.6-6.4,7c-2.2,1.3-4.7,2-7.7,2c-3.9,0-7.2-1.4-9.9-4.1
					c-3-3.2-4.6-7.6-4.6-13.3c0-5.1,1.4-9.3,4.2-12.5c2.8-3.2,6.3-4.8,10.5-4.8c4.2,0,7.4,1.4,9.7,4.1c2.6,3,3.8,7.1,3.8,12.2h-18
					c0,3.7,0.6,6.7,1.7,9c1.5,3,3.8,4.4,6.8,4.4c1.4,0,2.7-0.3,4-1S169.8,543,171.4,541.1z M154.4,530h9.5c0-1.9,0-3.4-0.1-4.6
					c-0.1-1.2-0.3-2.3-0.5-3.4c-0.3-1-0.7-1.8-1.1-2.4c-0.7-0.7-1.6-1.1-2.7-1.1c-1.6,0-2.7,0.7-3.5,2
					C154.9,522.4,154.4,525.5,154.4,530z"/>
				<path class="st1" d="M210.2,545.5l1.1,1.5c-1.1,1.3-2.3,2.3-3.6,3c-1.3,0.7-2.7,1.1-4.3,1.1c-2.2,0-3.8-0.6-4.7-1.7
					c-0.5-0.6-1-1.7-1.3-3.3c-2,2-4.3,3.4-6.8,4.3c-1.6,0.5-3.1,0.8-4.6,0.8c-2,0-3.7-0.6-5.2-1.8c-1.8-1.4-2.6-3.4-2.6-5.9
					c0-3.3,1.9-6.1,5.8-8.3c2.5-1.4,6.9-3.1,13.4-5.1v-5.2c0-2-0.4-3.5-1.1-4.5c-1-1.2-2.7-1.8-5.1-1.8c-1.2,0-2.2,0.3-3,0.8
					c-0.8,0.5-1.2,1.1-1.2,1.7c0,0.4,0.4,1,1.1,1.9c0.7,0.9,1.1,1.9,1.1,2.9c0,1.2-0.5,2.3-1.6,3.1c-0.8,0.6-1.9,0.9-3.2,0.9
					c-1.5,0-2.7-0.4-3.5-1.2c-0.8-0.8-1.2-2-1.2-3.6c0-2.4,1.1-4.5,3.3-6.1c2.4-1.8,5.7-2.7,10-2.7c4.2,0,7.7,0.8,10.3,2.5
					c2.6,1.6,4,4.1,4,7.3v18.6c0,0.5,0.1,0.9,0.3,1.2c0.2,0.4,0.6,0.5,1.3,0.5c0.3,0,0.5-0.1,0.7-0.3L210.2,545.5z M197.4,542.9
					v-10.3c-2.6,0.6-4.8,1.6-6.4,3.2c-1.6,1.5-2.4,3.4-2.4,5.4c0,1.2,0.3,2.3,0.9,3.3c0.6,1,1.5,1.5,2.7,1.5c1.1,0,2.1-0.4,3.1-1.1
					C195.9,544.6,196.6,543.9,197.4,542.9z"/>
				<path class="st1" d="M235.3,548.3v1.8h-18.9v-1.7c1.4-0.3,2.4-0.6,2.8-0.9c0.7-0.6,1.1-1.7,1.1-3.3v-20.9c0-1.7-0.4-2.8-1.1-3.3
					c-0.5-0.4-1.4-0.7-2.8-0.9v-1.7h13.5v5.6c1.4-1.9,2.6-3.2,3.6-4.1c1.9-1.6,3.9-2.4,5.9-2.4c2.1,0,3.7,0.7,4.8,2.1
					c0.8,1,1.1,2.1,1.1,3.4c0,1.2-0.3,2.2-0.9,3.1c-0.8,1.1-2,1.7-3.6,1.7c-1.5,0-3-0.9-4.3-2.8c-0.7-0.9-1.3-1.4-2-1.4
					c-1.2,0-2.2,0.8-3.1,2.3c-0.7,1.2-1.1,2.7-1.1,4.5v13.4c0,2.2,0.3,3.7,1,4.5C231.7,547.9,233.1,548.3,235.3,548.3z"/>
				<path class="st1" d="M243.8,545c0-1.6,0.6-3,1.7-4.2c1.2-1.2,2.6-1.8,4.2-1.8c1.7,0,3.1,0.6,4.3,1.8c1.2,1.2,1.8,2.6,1.8,4.2
					c0,1.7-0.6,3.1-1.8,4.2c-1.2,1.1-2.6,1.7-4.3,1.7c-1.7,0-3.1-0.6-4.3-1.7C244.4,548.1,243.8,546.7,243.8,545z"/>
				<path class="st1" d="M259.2,524.7l-0.8-1.6c1.9-1.3,3.4-2.5,4.6-3.7c2.1-2.1,3.1-4,3.1-5.7c0-1-0.5-1.6-1.4-1.6h-1.6
					c-1.3,0-2.4-0.4-3.3-1.1c-1.3-1-1.9-2.5-1.9-4.5c0-1.8,0.5-3.2,1.6-4.2c1.1-1,2.5-1.5,4.2-1.5c2.4,0,4.3,0.9,5.6,2.6
					c1.1,1.5,1.7,3.3,1.7,5.5c0,3.8-1.5,7.3-4.5,10.4C264.8,521.1,262.4,522.9,259.2,524.7z M278.4,524.7l-0.8-1.6
					c1.9-1.3,3.4-2.5,4.6-3.7c2.1-2.1,3.1-4,3.1-5.7c0-1-0.5-1.6-1.4-1.6h-1.6c-1.3,0-2.4-0.4-3.3-1.1c-1.3-1-1.9-2.5-1.9-4.5
					c0-1.8,0.5-3.2,1.6-4.2c1.1-1,2.5-1.5,4.2-1.5c2.4,0,4.3,0.9,5.6,2.6c1.1,1.5,1.7,3.3,1.7,5.5c0,3.8-1.5,7.3-4.5,10.4
					C284.1,521.1,281.6,522.9,278.4,524.7z"/>
			</g>
		</g>
		<g>
			<g>
				<path class="st1" d="M465,662.8v1.8h-9.6v-1.8H465z"/>
				<path class="st1" d="M475.1,669.5c-0.7-0.4-1-1-0.9-1.7c0-0.8,0.6-1.8,1.6-2.4v0c-1.2-0.6-2-1.8-2-3.4c0-2.7,1.9-4.2,5-4.2
					c0.7,0,1.2,0.1,1.7,0.2h4.4v1.4h-2.4c1,0.7,1.2,1.7,1.2,2.6c0,2.8-2.1,4.1-4.9,4.1c-0.7,0-1.4-0.1-1.8-0.3
					c-0.2,0.2-0.4,0.5-0.5,0.7c-0.4,0.7-0.3,1.6,0.7,1.6l4.4,0.3c2.5,0.2,3.6,1.2,3.6,2.8c0,2.8-2.2,4.3-7.1,4.3
					c-3.3,0-5.1-1-5.1-3.2C473,671.1,473.6,670.3,475.1,669.5L475.1,669.5z M478.5,674c2.4,0,4.4-0.8,4.4-2.4c0-0.7-0.5-1.4-2-1.5
					l-4.6-0.2c-0.8,0.6-1.4,1.1-1.4,2C474.8,673.2,476.1,674,478.5,674z M481.6,661.9c0-1.7-1.1-2.7-2.8-2.7c-1.9,0-2.9,1.1-2.9,2.7
					c0,1.7,1.1,2.6,2.9,2.6C480.5,664.5,481.6,663.5,481.6,661.9z"/>
				<path class="st1" d="M490.2,670.3H488v-12.3h2.2v2h0c1-1.1,2.7-2.2,4.6-2.2v2.1c-1.8,0-3.7,0.8-4.7,1.4V670.3z"/>
				<path class="st1" d="M506,657.9h2.2v12.3H506v-1.7h0c-1.2,1.2-2.7,2-4.4,2c-2.5,0-3.7-1.5-3.7-4.1v-8.5h2.2v8
					c0,1.6,0.7,2.7,2.5,2.7c1.4,0,2.7-0.9,3.4-1.4V657.9z"/>
				<path class="st1" d="M513.9,659.2L513.9,659.2c0.9-0.9,2.3-1.5,3.8-1.5c3.5,0,4.6,2.8,4.6,6.4s-1.2,6.4-4.7,6.4
					c-1.4,0-2.8-0.5-3.6-1.4h0v6.1h-2.2v-17.3h2.2V659.2z M516.9,659.5c-1.4,0-2.5,0.6-3,1.1v7c0.5,0.4,1.6,1,3,1
					c2.4,0,3.1-2.1,3.1-4.6C519.9,661.6,519.3,659.5,516.9,659.5z"/>
				<path class="st1" d="M525.3,664.1c0-3.8,1.5-6.4,5.7-6.4c4.1,0,5.7,2.6,5.7,6.4c0,3.8-1.6,6.4-5.7,6.4
					C526.8,670.5,525.3,667.9,525.3,664.1z M527.6,664.1c0,2.6,0.7,4.6,3.3,4.6c2.6,0,3.3-2,3.3-4.6c0-2.6-0.8-4.6-3.3-4.6
					C528.3,659.5,527.6,661.5,527.6,664.1z"/>
				<path class="st1" d="M546,659.5h-1.8v-1.5l1.8-0.1l0.3-3.5h1.9v3.5h3.4v1.6h-3.4v6.8c0,1.6,0.5,2.4,2.1,2.4c0.3,0,0.7,0,1.3-0.1
					l0.2,1.7c-0.7,0.1-1.6,0.2-2.2,0.2c-2.5,0-3.6-1-3.6-3.8V659.5z"/>
				<path class="st1" d="M555.9,664.5c0.1,2.5,1.2,4.2,4.1,4.2c1.2,0,2.4,0,3.8-0.5l0.3,1.8c-1.6,0.4-2.8,0.5-4.4,0.5
					c-4.6,0-6.2-2.6-6.2-6.4c0-3.8,1.6-6.4,6-6.4c3.8,0,4.8,2.2,4.9,4.3c0.1,0.8,0,1.7-0.1,2.5H555.9z M555.9,663.1h6.3
					c0.1-0.4,0.1-0.9,0.1-1.3c-0.1-1.3-0.8-2.3-2.8-2.3C556.9,659.4,556.1,661,555.9,663.1z"/>
				<path class="st1" d="M569.8,670.3h-2.2v-12.3h2.2v1.7h0c1.2-1.2,2.7-2,4.4-2c2.5,0,3.7,1.5,3.7,4.1v8.5h-2.2v-8
					c0-1.6-0.6-2.7-2.5-2.7c-1.4,0-2.7,0.9-3.5,1.4V670.3z"/>
				<path class="st1" d="M589.5,669C589.5,669,589.5,669,589.5,669c-0.9,0.9-2.4,1.5-3.8,1.5c-3.5,0-4.6-2.8-4.6-6.4
					s1.2-6.4,4.7-6.4c1.4,0,2.8,0.6,3.6,1.4c0,0,0,0,0,0V653h2.2v17.3h-2.2V669z M586.5,668.7c1.4,0,2.4-0.6,3-1v-7
					c-0.5-0.4-1.6-1.1-3-1.1c-2.4,0-3.1,2.1-3.1,4.6C583.4,666.6,584.1,668.7,586.5,668.7z"/>
				<path class="st1" d="M597.3,664.5c0.1,2.5,1.2,4.2,4.1,4.2c1.2,0,2.4,0,3.8-0.5l0.3,1.8c-1.6,0.4-2.8,0.5-4.4,0.5
					c-4.6,0-6.2-2.6-6.2-6.4c0-3.8,1.6-6.4,6-6.4c3.8,0,4.8,2.2,4.9,4.3c0.1,0.8,0,1.7-0.1,2.5H597.3z M597.3,663.1h6.3
					c0.1-0.4,0.1-0.9,0.1-1.3c-0.1-1.3-0.8-2.3-2.8-2.3C598.4,659.4,597.5,661,597.3,663.1z"/>
				<path class="st1" d="M611.2,670.3H609v-12.3h2.2v1.7h0c1.2-1.2,2.7-2,4.4-2c2.5,0,3.7,1.5,3.7,4.1v8.5h-2.2v-8
					c0-1.6-0.6-2.7-2.5-2.7c-1.4,0-2.7,0.9-3.5,1.4V670.3z"/>
				<path class="st1" d="M632.1,659.5l-7.1,8.9v0h7.3v1.7h-10.2v-1.6l7.1-8.9v0h-6.8v-1.7h9.6V659.5z"/>
				<path class="st1" d="M637.2,664.5c0.1,2.5,1.2,4.2,4.1,4.2c1.2,0,2.4,0,3.8-0.5l0.3,1.8c-1.6,0.4-2.8,0.5-4.4,0.5
					c-4.6,0-6.2-2.6-6.2-6.4c0-3.8,1.6-6.4,6-6.4c3.8,0,4.8,2.2,4.9,4.3c0.1,0.8,0,1.7-0.1,2.5H637.2z M637.2,663.1h6.3
					c0.1-0.4,0.1-0.9,0.1-1.3c-0.1-1.3-0.8-2.3-2.8-2.3C638.3,659.4,637.4,661,637.2,663.1z"/>
			</g>
		</g>
	</g>
</g>
</svg>
