<?xml version="1.0" encoding="utf-8"?>
<!-- Generator: Adobe Illustrator 23.0.0, SVG Export Plug-In . SVG Version: 6.00 Build 0)  -->
<svg version="1.1" id="Capa_1" xmlns="http://www.w3.org/2000/svg" xmlns:xlink="http://www.w3.org/1999/xlink" x="0px" y="0px"
	 viewBox="0 0 712.29 933.2" enable-background="new 0 0 712.29 933.2" xml:space="preserve">
<g>
	<g>
		<g>
			<g>
				<g>
					<polygon fill="#231F20" points="16.62,267.21 16.62,712.21 346.25,712.21 533.22,911.43 538.18,712.21 695.67,712.21 
						695.67,71.76 16.62,21.77 16.62,152.95 					"/>
				</g>
			</g>
		</g>
	</g>
	<g>
		<g>
			<g>
				<path fill="#FFFFFF" d="M84.87,160.67v-1.7c1.67-0.27,2.68-0.45,3.02-0.54c0.34-0.09,0.65-0.23,0.92-0.41
					c0.72-0.54,1.2-1.21,1.43-2c0.23-0.79,0.34-1.89,0.34-3.29v-30.02c0-2.58-0.5-4.28-1.49-5.09c-0.68-0.59-2.08-0.97-4.21-1.15
					v-1.7h21.87c4.44,0,8.08,0.63,10.93,1.9c4.57,2.04,6.86,5.57,6.86,10.59c0,1.72-0.34,3.33-1.02,4.82
					c-1.04,2.26-2.76,4.07-5.16,5.43c-1.99,1.13-4.11,1.85-6.35,2.14c-2.24,0.29-5.72,0.44-10.42,0.44v12.63
					c0,2.58,0.41,4.23,1.22,4.96c0.59,0.54,2.17,0.97,4.75,1.29v1.7H84.87z M101.57,119.52v18.2c4.25,0,7.15-0.66,8.69-1.97
					c1.72-1.45,2.58-4.21,2.58-8.29c0-3.8-0.62-6.47-1.87-8.01c-1.25-1.54-3.29-2.31-6.15-2.31
					C102.66,117.14,101.57,117.93,101.57,119.52z"/>
				<path fill="#FFFFFF" d="M127.65,145.16c0-4.54,1.41-8.44,4.24-11.7c2.83-3.27,6.53-4.9,11.1-4.9c4.44,0,8.09,1.58,10.97,4.73
					c2.87,3.15,4.31,7.11,4.31,11.88c0,4.63-1.42,8.54-4.24,11.74c-2.83,3.2-6.51,4.8-11.04,4.8c-4.62,0-8.33-1.6-11.14-4.8
					C129.05,153.7,127.65,149.78,127.65,145.16z M137.63,145.16c0,4.81,0.23,8.12,0.68,9.94c0.77,3,2.35,4.49,4.75,4.49
					c2.13,0,3.58-1.32,4.35-3.95c0.59-2.04,0.88-5.54,0.88-10.48c0-5.35-0.37-9.11-1.12-11.27c-0.75-2.16-2.14-3.23-4.18-3.23
					c-2.26,0-3.78,1.43-4.55,4.29C137.91,136.99,137.63,140.39,137.63,145.16z"/>
				<path fill="#FFFFFF" d="M181.98,158.98v1.7h-18.06v-1.63c1.36-0.27,2.24-0.57,2.65-0.88c0.68-0.59,1.02-1.65,1.02-3.19V135
					c0-1.58-0.34-2.65-1.02-3.19c-0.45-0.36-1.34-0.63-2.65-0.81v-1.63h12.84v5.37c1.31-1.77,2.44-3.06,3.4-3.87
					c1.81-1.54,3.69-2.31,5.64-2.31c2.04,0,3.55,0.68,4.55,2.04c0.72,0.95,1.09,2.04,1.09,3.26c0,1.13-0.29,2.11-0.88,2.92
					c-0.77,1.09-1.92,1.63-3.46,1.63c-1.45,0-2.83-0.91-4.14-2.72c-0.63-0.86-1.27-1.29-1.9-1.29c-1.13,0-2.13,0.72-2.99,2.17
					c-0.68,1.17-1.02,2.6-1.02,4.27v12.8c0,2.12,0.32,3.55,0.95,4.27C178.61,158.62,179.94,158.98,181.98,158.98z"/>
				<path fill="#FFFFFF" d="M249.55,172.9v1.63h-18.13v-1.69c2.08-0.36,3.37-0.79,3.87-1.28c0.72-0.68,1.09-2.12,1.09-4.33v-9.4
					c-1.27,1.43-2.72,2.47-4.35,3.11c-1.27,0.51-2.51,0.76-3.74,0.76c-3.71,0-6.7-1.29-8.96-3.88c-2.58-2.95-3.87-7.19-3.87-12.73
					c0-4.4,1.29-8.17,3.87-11.3c2.9-3.49,6.75-5.24,11.54-5.24c1.63,0,3.19,0.36,4.69,1.09c1.18,0.59,2.49,1.52,3.94,2.78l5.3-3.87
					h1.02v40.41c0,1.45,0.32,2.44,0.95,2.99C247.18,172.31,248.1,172.63,249.55,172.9z M236.38,154.08v-17.91
					c0-1.5-0.38-2.78-1.15-3.85c-0.77-1.07-1.9-1.6-3.4-1.6c-2.49,0-4.26,1.59-5.3,4.77c-0.77,2.32-1.15,5.33-1.15,9.05
					c0,8.99,2.13,13.48,6.38,13.48c1.49,0,2.72-0.66,3.67-1.98C235.7,155.64,236.02,154.98,236.38,154.08z"/>
				<path fill="#FFFFFF" d="M289.42,157.75v1.62c-3.82,0.42-6.1,0.68-6.83,0.77c-2.14,0.28-4.28,0.8-6.42,1.55v-4.55
					c-1.58,1.38-2.84,2.34-3.79,2.9c-1.9,1.1-3.83,1.65-5.82,1.65c-3.2,0-5.59-0.98-7.17-2.93c-1.35-1.68-2.03-3.88-2.03-6.6v-17.15
					c0-1.41-0.2-2.37-0.61-2.89c-0.41-0.52-1.31-0.9-2.72-1.12v-1.63h12.77v23.08c0,1.45,0.16,2.5,0.48,3.13
					c0.54,1.14,1.65,1.7,3.33,1.7c1.13,0,2.22-0.34,3.26-1.02c0.63-0.41,1.4-1.07,2.31-1.97v-19.27c0-1.68-0.41-2.79-1.22-3.34
					c-0.45-0.32-1.45-0.54-2.99-0.68v-1.63h13.65v24.45c0,1.36,0.27,2.35,0.81,2.99C286.97,157.44,287.97,157.75,289.42,157.75z"/>
				<path fill="#FFFFFF" d="M320.05,152.18l1.63,0.96c-2.04,3.15-4.09,5.36-6.15,6.64c-2.06,1.28-4.49,1.92-7.3,1.92
					c-3.76,0-6.91-1.32-9.44-3.95c-2.9-3.04-4.35-7.28-4.35-12.73c0-4.9,1.33-8.87,4.01-11.91c2.67-3.04,6-4.56,9.98-4.56
					c3.98,0,7.06,1.29,9.24,3.87c2.44,2.9,3.67,6.77,3.67,11.61h-17.11c0,3.5,0.54,6.35,1.63,8.53c1.4,2.82,3.58,4.23,6.52,4.23
					c1.36,0,2.61-0.33,3.77-1C317.3,155.14,318.6,153.93,320.05,152.18z M316.24,118.8l-9.64,5.94h-3.8l9.3-10.6
					c0.68-0.77,1.3-1.27,1.87-1.52c0.57-0.25,1.12-0.37,1.66-0.37c0.86,0,1.56,0.18,2.11,0.54c0.81,0.54,1.22,1.35,1.22,2.43
					c0,0.85-0.22,1.52-0.65,1.99C317.89,117.69,317.2,118.22,316.24,118.8z M303.88,141.52h9.1c0-1.77-0.03-3.23-0.1-4.38
					c-0.07-1.15-0.24-2.23-0.51-3.23c-0.27-1-0.63-1.74-1.09-2.24c-0.63-0.68-1.49-1.02-2.58-1.02c-1.49,0-2.6,0.63-3.33,1.9
					C304.38,134.28,303.88,137.27,303.88,141.52z"/>
				<path fill="#FFFFFF" d="M106.73,213.99h-1.7c-0.72-2.4-1.81-4.27-3.26-5.6c-1.45-1.33-3.17-2-5.16-2c-1.18,0-2.2,0.39-3.06,1.16
					c-0.86,0.77-1.29,1.68-1.29,2.72c0,1.95,2.65,4.17,7.95,6.67c5.3,2.5,7.95,5.79,7.95,9.87c0,3.27-0.97,5.83-2.9,7.69
					c-1.94,1.86-4.5,2.79-7.7,2.79c-1.04,0-2.36-0.21-3.98-0.63c-1.53-0.47-3.06-0.94-4.59-1.4c-0.59,0-1.19,0.68-1.82,2.04h-1.69
					v-11.21h1.89c0.63,2.92,1.74,5.13,3.33,6.64c1.59,1.51,3.65,2.26,6.16,2.26c1.57,0,2.76-0.45,3.57-1.36
					c0.81-0.91,1.21-1.95,1.21-3.13c0-1.68-1.38-3.25-4.14-4.7c-5.03-2.63-7.63-4.02-7.81-4.15c-2.81-2.04-4.21-4.54-4.21-7.49
					c0-2.95,1.02-5.35,3.06-7.21c2.04-1.86,4.62-2.79,7.74-2.79c1.18,0,2.35,0.14,3.53,0.41c1.18,0.27,2.42,0.59,3.74,0.95
					c0.77,0,1.33-0.45,1.7-1.36h1.49V213.99z"/>
				<path fill="#FFFFFF" d="M113.93,220.75c0-4.54,1.41-8.44,4.24-11.7c2.83-3.27,6.53-4.9,11.1-4.9c4.44,0,8.09,1.58,10.97,4.73
					c2.87,3.15,4.31,7.11,4.31,11.88c0,4.63-1.42,8.54-4.24,11.74c-2.83,3.2-6.51,4.8-11.04,4.8c-4.62,0-8.33-1.6-11.14-4.8
					C115.33,229.29,113.93,225.38,113.93,220.75z M123.92,220.75c0,4.81,0.23,8.12,0.68,9.94c0.77,3,2.35,4.49,4.75,4.49
					c2.13,0,3.58-1.32,4.35-3.95c0.59-2.04,0.88-5.54,0.88-10.48c0-5.35-0.37-9.11-1.12-11.27c-0.75-2.16-2.14-3.23-4.18-3.23
					c-2.26,0-3.78,1.43-4.55,4.29C124.19,212.58,123.92,215.98,123.92,220.75z"/>
				<path fill="#FFFFFF" d="M165.55,234.57v1.7h-16.23v-1.7c1.18,0,2.08-0.47,2.72-1.42c0.5-0.77,0.75-1.65,0.75-2.64v-34.53
					c0-1.22-0.31-2.18-0.92-2.88c-0.61-0.7-1.46-1.05-2.55-1.05v-1.7h12.9v40.14c0,1.22,0.24,2.2,0.71,2.95
					C163.41,234.2,164.28,234.57,165.55,234.57z"/>
				<path fill="#FFFFFF" d="M170.84,220.75c0-4.54,1.41-8.44,4.24-11.7c2.83-3.27,6.53-4.9,11.1-4.9c4.44,0,8.09,1.58,10.97,4.73
					c2.87,3.15,4.31,7.11,4.31,11.88c0,4.63-1.42,8.54-4.24,11.74c-2.83,3.2-6.51,4.8-11.04,4.8c-4.62,0-8.33-1.6-11.14-4.8
					C172.25,229.29,170.84,225.38,170.84,220.75z M180.83,220.75c0,4.81,0.23,8.12,0.68,9.94c0.77,3,2.35,4.49,4.75,4.49
					c2.13,0,3.58-1.32,4.35-3.95c0.59-2.04,0.88-5.54,0.88-10.48c0-5.35-0.37-9.11-1.12-11.27c-0.75-2.16-2.14-3.23-4.18-3.23
					c-2.26,0-3.78,1.43-4.55,4.29C181.1,212.58,180.83,215.98,180.83,220.75z"/>
				<path fill="#FFFFFF" d="M247.11,213.99h-1.7c-0.72-2.4-1.81-4.27-3.26-5.6c-1.45-1.33-3.17-2-5.16-2c-1.18,0-2.2,0.39-3.06,1.16
					c-0.86,0.77-1.29,1.68-1.29,2.72c0,1.95,2.65,4.17,7.95,6.67c5.3,2.5,7.95,5.79,7.95,9.87c0,3.27-0.97,5.83-2.9,7.69
					c-1.94,1.86-4.5,2.79-7.7,2.79c-1.04,0-2.36-0.21-3.98-0.63c-1.53-0.47-3.06-0.94-4.59-1.4c-0.59,0-1.19,0.68-1.82,2.04h-1.69
					v-11.21h1.89c0.63,2.92,1.74,5.13,3.33,6.64c1.59,1.51,3.65,2.26,6.16,2.26c1.57,0,2.76-0.45,3.57-1.36
					c0.81-0.91,1.21-1.95,1.21-3.13c0-1.68-1.38-3.25-4.14-4.7c-5.03-2.63-7.63-4.02-7.81-4.15c-2.81-2.04-4.21-4.54-4.21-7.49
					c0-2.95,1.02-5.35,3.06-7.21c2.04-1.86,4.62-2.79,7.74-2.79c1.18,0,2.35,0.14,3.53,0.41c1.18,0.27,2.42,0.59,3.74,0.95
					c0.77,0,1.33-0.45,1.7-1.36h1.49V213.99z"/>
				<path fill="#FFFFFF" d="M279.91,227.78l1.63,0.96c-2.04,3.15-4.09,5.36-6.15,6.64c-2.06,1.28-4.49,1.92-7.3,1.92
					c-3.76,0-6.91-1.32-9.44-3.95c-2.9-3.04-4.35-7.28-4.35-12.73c0-4.9,1.33-8.87,4.01-11.91c2.67-3.04,6-4.56,9.98-4.56
					c3.98,0,7.06,1.29,9.24,3.87c2.44,2.9,3.67,6.77,3.67,11.61h-17.11c0,3.5,0.54,6.35,1.63,8.53c1.4,2.82,3.58,4.23,6.52,4.23
					c1.36,0,2.61-0.33,3.77-1C277.16,230.73,278.46,229.52,279.91,227.78z M263.75,217.11h9.1c0-1.77-0.03-3.23-0.1-4.38
					c-0.07-1.15-0.24-2.23-0.51-3.23c-0.27-1-0.63-1.74-1.09-2.24c-0.63-0.68-1.49-1.02-2.58-1.02c-1.49,0-2.6,0.63-3.33,1.9
					C264.25,209.87,263.75,212.86,263.75,217.11z"/>
				<path fill="#FFFFFF" d="M317.6,209.24h-5.57c0.68,0.68,1.2,1.36,1.56,2.04c0.77,1.4,1.15,2.97,1.15,4.69
					c0,2.17-0.59,4.06-1.77,5.67c-1.18,1.61-2.97,2.8-5.37,3.57c-1.04,0.32-2.23,0.5-3.57,0.54c-1.34,0.05-3,0.07-4.99,0.07
					c-0.77,0-1.6,0.33-2.48,1c-0.88,0.66-1.32,1.48-1.32,2.44c0,1.1,0.43,1.79,1.29,2.06c0.86,0.27,2.69,0.41,5.5,0.41h4.41
					c2.72,0,4.98,0.43,6.79,1.29c2.9,1.36,4.35,3.69,4.35,7c0,3.85-1.83,6.61-5.5,8.29c-2.85,1.31-6.84,1.97-11.95,1.97
					c-4.21,0-7.5-0.54-9.88-1.63c-2.38-1.09-3.57-2.6-3.57-4.55c0-1.36,0.57-2.5,1.7-3.43c1.13-0.93,2.65-1.48,4.55-1.66
					c-1.95-0.77-3.22-1.43-3.8-1.97c-1-0.91-1.49-2.17-1.49-3.8c0-1.9,0.95-3.62,2.85-5.16c1.49-1.18,3.19-2.04,5.09-2.58
					c-2.63-1.04-4.66-2.44-6.11-4.21c-1.45-1.77-2.17-3.87-2.17-6.32c0-2.9,1.16-5.37,3.47-7.4c2.59-2.26,6.08-3.4,10.48-3.4
					c1.22,0,2.45,0.11,3.68,0.34c1.22,0.23,2.5,0.61,3.81,1.15h8.85V209.24z M306.8,239.8h-11.75c-1.59,1.27-2.38,2.54-2.38,3.8
					c0,1.86,1.22,3.15,3.67,3.87c1.36,0.41,2.9,0.61,4.62,0.61c2.94,0,5.16-0.18,6.66-0.54c3.08-0.72,4.62-2.15,4.62-4.28
					C312.24,240.95,310.43,239.8,306.8,239.8z M296.62,215.15c0,2.9,0.23,4.94,0.68,6.11c0.68,1.77,1.95,2.65,3.8,2.65
					c1.86,0,3.12-0.97,3.8-2.92c0.45-1.31,0.68-3.26,0.68-5.84c0-2.49-0.18-4.35-0.54-5.57c-0.68-2.22-1.99-3.33-3.94-3.33
					c-1.86,0-3.12,0.95-3.8,2.85C296.84,210.37,296.62,212.38,296.62,215.15z"/>
				<path fill="#FFFFFF" d="M357.26,233.35v1.62c-3.82,0.42-6.1,0.68-6.83,0.77c-2.14,0.28-4.28,0.8-6.42,1.55v-4.55
					c-1.58,1.38-2.84,2.34-3.79,2.9c-1.9,1.1-3.83,1.65-5.82,1.65c-3.2,0-5.59-0.98-7.17-2.93c-1.35-1.68-2.03-3.88-2.03-6.6v-17.15
					c0-1.41-0.2-2.37-0.61-2.89c-0.41-0.52-1.31-0.9-2.72-1.12v-1.63h12.77v23.08c0,1.45,0.16,2.5,0.48,3.13
					c0.54,1.14,1.65,1.7,3.33,1.7c1.13,0,2.22-0.34,3.26-1.02c0.63-0.41,1.4-1.07,2.31-1.97v-19.27c0-1.68-0.41-2.79-1.22-3.34
					c-0.45-0.32-1.45-0.54-2.99-0.68v-1.63h13.65v24.45c0,1.36,0.27,2.35,0.81,2.99C354.82,233.03,355.81,233.35,357.26,233.35z"/>
				<path fill="#FFFFFF" d="M377.91,234.64v1.63h-16.23v-1.63c1.45-0.36,2.35-0.7,2.72-1.02c0.59-0.54,0.88-1.56,0.88-3.06v-19.97
					c0-1.45-0.24-2.41-0.71-2.89c-0.48-0.48-1.44-0.85-2.89-1.12v-1.63h13.04v25.81c0,1.22,0.2,2.14,0.61,2.75
					S376.59,234.5,377.91,234.64z M364.67,194.64c0-1.45,0.5-2.69,1.49-3.74c1-1.04,2.26-1.56,3.8-1.56c1.45,0,2.68,0.51,3.7,1.53
					s1.53,2.27,1.53,3.77s-0.5,2.74-1.49,3.74c-1,1-2.24,1.49-3.74,1.49c-1.54,0-2.81-0.5-3.8-1.49
					C365.16,197.38,364.67,196.13,364.67,194.64z"/>
				<path fill="#FFFFFF" d="M401.54,234.57v1.7h-18.06v-1.63c1.36-0.27,2.24-0.57,2.65-0.88c0.68-0.59,1.02-1.65,1.02-3.19v-19.97
					c0-1.58-0.34-2.65-1.02-3.19c-0.45-0.36-1.34-0.63-2.65-0.81v-1.63h12.83v5.37c1.31-1.77,2.45-3.06,3.4-3.87
					c1.81-1.54,3.69-2.31,5.64-2.31c2.04,0,3.55,0.68,4.55,2.04c0.72,0.95,1.09,2.04,1.09,3.26c0,1.13-0.29,2.11-0.88,2.92
					c-0.77,1.09-1.92,1.63-3.46,1.63c-1.45,0-2.83-0.91-4.14-2.72c-0.63-0.86-1.27-1.29-1.9-1.29c-1.13,0-2.13,0.72-2.99,2.17
					c-0.68,1.17-1.02,2.6-1.02,4.27v12.8c0,2.12,0.32,3.55,0.95,4.27C398.17,234.21,399.5,234.57,401.54,234.57z"/>
				<path fill="#FFFFFF" d="M101.1,310.16v1.7H84.87v-1.7c1.18,0,2.08-0.47,2.72-1.42c0.5-0.77,0.75-1.65,0.75-2.64v-34.53
					c0-1.22-0.31-2.18-0.92-2.88c-0.61-0.7-1.46-1.05-2.55-1.05v-1.7h12.9v40.14c0,1.22,0.24,2.2,0.71,2.95
					C98.96,309.79,99.83,310.16,101.1,310.16z"/>
				<path fill="#FFFFFF" d="M136.82,307.51l1.02,1.44c-1.04,1.24-2.17,2.2-3.4,2.89c-1.22,0.69-2.58,1.03-4.07,1.03
					c-2.08,0-3.58-0.55-4.48-1.65c-0.5-0.6-0.91-1.65-1.22-3.17c-1.9,1.93-4.05,3.28-6.45,4.06c-1.54,0.5-2.99,0.76-4.35,0.76
					c-1.9,0-3.56-0.57-4.96-1.7c-1.68-1.36-2.51-3.22-2.51-5.58c0-3.18,1.83-5.81,5.5-7.89c2.35-1.36,6.61-2.97,12.77-4.83v-4.97
					c0-1.95-0.36-3.38-1.09-4.29c-0.91-1.13-2.54-1.7-4.89-1.7c-1.13,0-2.08,0.26-2.85,0.78c-0.77,0.52-1.15,1.08-1.15,1.66
					c0,0.36,0.34,0.97,1.02,1.83c0.68,0.86,1.02,1.79,1.02,2.78c0,1.18-0.5,2.15-1.49,2.92c-0.77,0.59-1.79,0.88-3.06,0.88
					c-1.45,0-2.56-0.38-3.33-1.15c-0.77-0.77-1.15-1.92-1.15-3.46c0-2.31,1.06-4.26,3.19-5.84c2.31-1.72,5.48-2.58,9.51-2.58
					c4.03,0,7.3,0.78,9.81,2.34s3.77,3.88,3.77,6.96v17.73c0,0.45,0.08,0.85,0.24,1.19c0.16,0.34,0.58,0.51,1.26,0.51
					c0.27,0,0.5-0.09,0.68-0.27L136.82,307.51z M124.66,305.07v-9.85c-2.51,0.54-4.53,1.55-6.06,3.02c-1.53,1.47-2.29,3.2-2.29,5.2
					c0,1.18,0.3,2.23,0.89,3.16c0.59,0.93,1.46,1.39,2.6,1.39c1.05,0,2.03-0.34,2.94-1.02C123.2,306.65,123.84,306.02,124.66,305.07
					z"/>
				<path fill="#FFFFFF" d="M163.64,289.58h-1.7c-0.72-2.4-1.81-4.27-3.26-5.6c-1.45-1.33-3.17-2-5.16-2c-1.18,0-2.2,0.39-3.06,1.16
					c-0.86,0.77-1.29,1.68-1.29,2.72c0,1.95,2.65,4.17,7.95,6.67c5.3,2.5,7.95,5.79,7.95,9.87c0,3.27-0.97,5.83-2.9,7.69
					c-1.94,1.86-4.5,2.79-7.7,2.79c-1.04,0-2.36-0.21-3.98-0.63c-1.53-0.47-3.06-0.94-4.59-1.4c-0.59,0-1.19,0.68-1.82,2.04h-1.69
					v-11.21h1.89c0.63,2.92,1.74,5.13,3.33,6.64c1.59,1.51,3.65,2.26,6.16,2.26c1.57,0,2.76-0.45,3.57-1.36
					c0.81-0.91,1.21-1.95,1.21-3.13c0-1.68-1.38-3.25-4.14-4.7c-5.03-2.63-7.63-4.02-7.81-4.15c-2.81-2.04-4.21-4.54-4.21-7.49
					c0-2.95,1.02-5.35,3.06-7.21c2.04-1.86,4.62-2.79,7.74-2.79c1.18,0,2.35,0.14,3.53,0.41c1.18,0.27,2.42,0.59,3.74,0.95
					c0.77,0,1.33-0.45,1.7-1.36h1.49V289.58z"/>
				<path fill="#FFFFFF" d="M208.87,280.55v2.99h-6.38v20.44c0,1.09,0.09,1.86,0.27,2.31c0.41,1.04,1.2,1.56,2.38,1.56
					c0.72,0,1.36-0.23,1.9-0.68c0.54-0.45,1.2-1.4,1.97-2.85l1.7,0.75c-1.09,2.22-2.15,3.85-3.19,4.89
					c-1.81,1.81-4.08,2.72-6.79,2.72c-3.12,0-5.32-1-6.59-2.99c-0.73-1.18-1.09-2.56-1.09-4.14v-22h-3.53v-1.83
					c2.04-1.72,3.78-3.37,5.23-4.96c1.86-2.04,3.87-4.59,6.04-7.67h1.7v11.48H208.87z"/>
				<path fill="#FFFFFF" d="M240.11,303.37l1.63,0.96c-2.04,3.15-4.09,5.36-6.15,6.64c-2.06,1.28-4.49,1.92-7.3,1.92
					c-3.76,0-6.91-1.32-9.44-3.95c-2.9-3.04-4.35-7.28-4.35-12.73c0-4.9,1.33-8.87,4.01-11.91c2.67-3.04,6-4.56,9.98-4.56
					c3.98,0,7.06,1.29,9.24,3.87c2.44,2.9,3.67,6.77,3.67,11.61h-17.11c0,3.5,0.54,6.35,1.63,8.53c1.4,2.82,3.58,4.23,6.52,4.23
					c1.36,0,2.61-0.33,3.77-1C237.36,306.32,238.66,305.12,240.11,303.37z M223.95,292.71h9.1c0-1.77-0.03-3.23-0.1-4.38
					c-0.07-1.15-0.24-2.23-0.51-3.23c-0.27-1-0.63-1.74-1.09-2.24c-0.63-0.68-1.49-1.02-2.58-1.02c-1.49,0-2.6,0.63-3.33,1.9
					C224.45,285.46,223.95,288.45,223.95,292.71z"/>
				<path fill="#FFFFFF" d="M281.61,310.16v1.7h-15.96v-1.63c2.13-0.18,3.19-1.47,3.19-3.87v-16.44c0-1.58-0.16-2.76-0.48-3.53
					c-0.59-1.4-1.68-2.11-3.26-2.11c-1.18,0-2.41,0.54-3.7,1.63c-1.29,1.08-1.94,1.85-1.94,2.3v18.09c0,1.04,0.16,1.83,0.48,2.37
					c0.5,0.86,1.45,1.35,2.85,1.49v1.7h-16.37v-1.63c1.4-0.27,2.31-0.59,2.72-0.95c0.59-0.54,0.88-1.58,0.88-3.12v-19.97
					c0-1.49-0.24-2.48-0.71-2.95c-0.48-0.48-1.44-0.83-2.89-1.05v-1.63h13.04v4.89c0.95-1.45,1.98-2.6,3.11-3.46
					c1.94-1.49,4.15-2.24,6.63-2.24c2.3,0,4.26,0.66,5.89,1.97c2.12,1.72,3.18,4.25,3.18,7.59v17.01c0,1.17,0.14,2.01,0.41,2.51
					C279.19,309.71,280.16,310.16,281.61,310.16z"/>
				<path fill="#FFFFFF" d="M321.07,309.07v1.56c-4.21,0.5-7,0.86-8.35,1.09c-1.36,0.23-2.99,0.61-4.89,1.15v-4.55
					c-1.49,1.61-2.72,2.69-3.67,3.24c-1.49,0.87-3.42,1.31-5.77,1.31c-3.08,0-5.77-1.36-8.08-4.08c-2.54-2.95-3.8-6.8-3.8-11.57
					c0-5.58,1.38-9.98,4.14-13.2c2.45-2.86,5.43-4.29,8.96-4.29c1.45,0,2.75,0.27,3.9,0.81c1.15,0.54,2.52,1.68,4.11,3.4v-12.38
					c0-1.71-0.35-2.79-1.05-3.25c-0.7-0.45-2.07-0.68-4.11-0.68v-1.7h14.6v39.17c0,1.23,0.18,2.11,0.54,2.66
					C318.19,308.64,319.34,309.07,321.07,309.07z M307.62,304.31v-16.55c-0.45-0.95-0.86-1.66-1.22-2.11
					c-1.13-1.41-2.49-2.11-4.07-2.11c-2.22,0-3.78,1.29-4.69,3.88c-0.72,2.04-1.09,4.99-1.09,8.85c0,3.41,0.23,6.02,0.68,7.83
					c0.81,3.31,2.4,4.97,4.75,4.97c1.36,0,2.69-0.7,4.01-2.11C307.08,305.78,307.62,304.9,307.62,304.31z"/>
				<path fill="#FFFFFF" d="M351.9,303.37l1.63,0.96c-2.04,3.15-4.09,5.36-6.15,6.64c-2.06,1.28-4.49,1.92-7.3,1.92
					c-3.76,0-6.91-1.32-9.44-3.95c-2.9-3.04-4.35-7.28-4.35-12.73c0-4.9,1.33-8.87,4.01-11.91c2.67-3.04,6-4.56,9.98-4.56
					c3.98,0,7.06,1.29,9.24,3.87c2.44,2.9,3.67,6.77,3.67,11.61h-17.11c0,3.5,0.54,6.35,1.63,8.53c1.4,2.82,3.58,4.23,6.52,4.23
					c1.36,0,2.61-0.33,3.77-1C349.15,306.32,350.45,305.12,351.9,303.37z M335.73,292.71h9.1c0-1.77-0.03-3.23-0.1-4.38
					c-0.07-1.15-0.24-2.23-0.51-3.23c-0.27-1-0.63-1.74-1.09-2.24c-0.63-0.68-1.49-1.02-2.58-1.02c-1.49,0-2.6,0.63-3.33,1.9
					C336.23,285.46,335.73,288.45,335.73,292.71z"/>
				<path fill="#FFFFFF" d="M393.39,310.16v1.7h-15.96v-1.63c2.13-0.18,3.19-1.47,3.19-3.87v-16.44c0-1.58-0.16-2.76-0.48-3.53
					c-0.59-1.4-1.68-2.11-3.26-2.11c-1.18,0-2.41,0.54-3.7,1.63c-1.29,1.08-1.94,1.85-1.94,2.3v18.09c0,1.04,0.16,1.83,0.47,2.37
					c0.5,0.86,1.45,1.35,2.85,1.49v1.7h-16.37v-1.63c1.4-0.27,2.31-0.59,2.72-0.95c0.59-0.54,0.88-1.58,0.88-3.12v-19.97
					c0-1.49-0.24-2.48-0.71-2.95c-0.48-0.48-1.44-0.83-2.89-1.05v-1.63h13.04v4.89c0.95-1.45,1.98-2.6,3.11-3.46
					c1.94-1.49,4.15-2.24,6.63-2.24c2.3,0,4.26,0.66,5.89,1.97c2.12,1.72,3.18,4.25,3.18,7.59v17.01c0,1.17,0.14,2.01,0.41,2.51
					C390.97,309.71,391.94,310.16,393.39,310.16z"/>
				<path fill="#FFFFFF" d="M424.56,304.46l1.22,1.23c-1.63,2.28-3.54,4.05-5.74,5.31c-2.2,1.25-4.61,1.88-7.23,1.88
					c-4.26,0-7.74-1.52-10.46-4.56c-2.72-3.04-4.07-6.71-4.07-11.02c0-6.08,1.86-10.68,5.57-13.81c2.94-2.49,6.43-3.74,10.46-3.74
					c2.67,0,5.03,0.61,7.06,1.83c2.31,1.4,3.46,3.26,3.46,5.57c0,1.45-0.43,2.54-1.29,3.26c-0.86,0.72-1.97,1.09-3.33,1.09
					c-1.31,0-2.28-0.42-2.89-1.26c-0.61-0.84-0.92-2.75-0.92-5.74c0-0.9-0.3-1.57-0.88-2c-0.59-0.43-1.22-0.65-1.9-0.65
					c-1.77,0-3.17,0.98-4.21,2.93c-1.04,1.95-1.56,4.79-1.56,8.51c0,4.63,0.88,8.29,2.65,11c1.77,2.7,4.03,4.05,6.79,4.05
					c1.72,0,3.21-0.42,4.48-1.25C422.55,306.58,423.48,305.7,424.56,304.46z"/>
				<path fill="#FFFFFF" d="M446.09,310.23v1.63h-16.23v-1.63c1.45-0.36,2.35-0.7,2.72-1.02c0.59-0.54,0.88-1.56,0.88-3.06v-19.97
					c0-1.45-0.24-2.41-0.71-2.89c-0.48-0.48-1.44-0.85-2.89-1.12v-1.63h13.04v25.81c0,1.22,0.2,2.14,0.61,2.75
					S444.78,310.09,446.09,310.23z M432.85,270.23c0-1.45,0.5-2.69,1.49-3.74c1-1.04,2.26-1.56,3.8-1.56c1.45,0,2.68,0.51,3.7,1.53
					s1.53,2.27,1.53,3.77s-0.5,2.74-1.49,3.74c-1,1-2.24,1.49-3.74,1.49c-1.54,0-2.81-0.5-3.8-1.49
					C433.35,272.97,432.85,271.72,432.85,270.23z"/>
				<path fill="#FFFFFF" d="M481.81,307.51l1.02,1.44c-1.04,1.24-2.17,2.2-3.4,2.89c-1.22,0.69-2.58,1.03-4.08,1.03
					c-2.08,0-3.58-0.55-4.48-1.65c-0.5-0.6-0.91-1.65-1.22-3.17c-1.9,1.93-4.05,3.28-6.45,4.06c-1.54,0.5-2.99,0.76-4.35,0.76
					c-1.9,0-3.55-0.57-4.96-1.7c-1.68-1.36-2.51-3.22-2.51-5.58c0-3.18,1.83-5.81,5.5-7.89c2.35-1.36,6.61-2.97,12.77-4.83v-4.97
					c0-1.95-0.36-3.38-1.09-4.29c-0.91-1.13-2.54-1.7-4.89-1.7c-1.13,0-2.08,0.26-2.85,0.78c-0.77,0.52-1.15,1.08-1.15,1.66
					c0,0.36,0.34,0.97,1.02,1.83c0.68,0.86,1.02,1.79,1.02,2.78c0,1.18-0.5,2.15-1.49,2.92c-0.77,0.59-1.79,0.88-3.06,0.88
					c-1.45,0-2.56-0.38-3.33-1.15c-0.77-0.77-1.15-1.92-1.15-3.46c0-2.31,1.06-4.26,3.19-5.84c2.31-1.72,5.48-2.58,9.51-2.58
					s7.3,0.78,9.81,2.34c2.51,1.56,3.77,3.88,3.77,6.96v17.73c0,0.45,0.08,0.85,0.24,1.19c0.16,0.34,0.58,0.51,1.26,0.51
					c0.27,0,0.5-0.09,0.68-0.27L481.81,307.51z M469.66,305.07v-9.85c-2.51,0.54-4.53,1.55-6.06,3.02c-1.53,1.47-2.29,3.2-2.29,5.2
					c0,1.18,0.3,2.23,0.89,3.16c0.59,0.93,1.46,1.39,2.6,1.39c1.05,0,2.03-0.34,2.94-1.02C468.2,306.65,468.84,306.02,469.66,305.07
					z"/>
				<path fill="#FFFFFF" d="M508.64,289.58h-1.7c-0.72-2.4-1.81-4.27-3.26-5.6c-1.45-1.33-3.17-2-5.16-2c-1.18,0-2.2,0.39-3.06,1.16
					c-0.86,0.77-1.29,1.68-1.29,2.72c0,1.95,2.65,4.17,7.95,6.67c5.3,2.5,7.95,5.79,7.95,9.87c0,3.27-0.97,5.83-2.9,7.69
					c-1.94,1.86-4.5,2.79-7.7,2.79c-1.04,0-2.36-0.21-3.98-0.63c-1.53-0.47-3.06-0.94-4.59-1.4c-0.59,0-1.19,0.68-1.82,2.04h-1.69
					v-11.21h1.88c0.63,2.92,1.74,5.13,3.33,6.64c1.59,1.51,3.65,2.26,6.16,2.26c1.57,0,2.76-0.45,3.57-1.36
					c0.81-0.91,1.21-1.95,1.21-3.13c0-1.68-1.38-3.25-4.14-4.7c-5.03-2.63-7.63-4.02-7.81-4.15c-2.81-2.04-4.21-4.54-4.21-7.49
					c0-2.95,1.02-5.35,3.06-7.21c2.04-1.86,4.62-2.79,7.74-2.79c1.18,0,2.35,0.14,3.53,0.41c1.18,0.27,2.42,0.59,3.74,0.95
					c0.77,0,1.33-0.45,1.7-1.36h1.49V289.58z"/>
				<path fill="#FFFFFF" d="M518.01,324.07l-0.75-1.49c1.81-1.22,3.28-2.4,4.41-3.53c1.99-1.99,2.99-3.8,2.99-5.43
					c0-1-0.45-1.49-1.36-1.49h-1.49c-1.27,0-2.33-0.33-3.19-1.01c-1.22-0.94-1.83-2.37-1.83-4.29c0-1.7,0.52-3.04,1.56-4.02
					c1.04-0.98,2.38-1.48,4.01-1.48c2.31,0,4.07,0.84,5.3,2.51c1.09,1.45,1.63,3.19,1.63,5.23c0,3.66-1.43,6.97-4.28,9.91
					C523.38,320.65,521.04,322.35,518.01,324.07z"/>
				<path fill="#FFFFFF" d="M106.73,365.17h-1.7c-0.72-2.4-1.81-4.27-3.26-5.6c-1.45-1.33-3.17-2-5.16-2c-1.18,0-2.2,0.39-3.06,1.16
					c-0.86,0.77-1.29,1.68-1.29,2.72c0,1.95,2.65,4.17,7.95,6.67c5.3,2.5,7.95,5.79,7.95,9.87c0,3.27-0.97,5.83-2.9,7.69
					c-1.94,1.86-4.5,2.79-7.7,2.79c-1.04,0-2.36-0.21-3.98-0.63c-1.53-0.47-3.06-0.94-4.59-1.4c-0.59,0-1.19,0.68-1.82,2.04h-1.69
					v-11.21h1.89c0.63,2.92,1.74,5.13,3.33,6.64c1.59,1.51,3.65,2.26,6.16,2.26c1.57,0,2.76-0.45,3.57-1.36
					c0.81-0.91,1.21-1.95,1.21-3.13c0-1.68-1.38-3.25-4.14-4.7c-5.03-2.63-7.63-4.02-7.81-4.15c-2.81-2.04-4.21-4.54-4.21-7.49
					c0-2.95,1.02-5.35,3.06-7.21c2.04-1.86,4.62-2.79,7.74-2.79c1.18,0,2.35,0.14,3.53,0.41c1.18,0.27,2.42,0.59,3.74,0.95
					c0.77,0,1.33-0.45,1.7-1.36h1.49V365.17z"/>
				<path fill="#FFFFFF" d="M129.55,385.82v1.63h-16.23v-1.63c1.45-0.36,2.35-0.7,2.72-1.02c0.59-0.54,0.88-1.56,0.88-3.06v-19.97
					c0-1.45-0.24-2.41-0.71-2.89c-0.48-0.48-1.44-0.85-2.89-1.12v-1.63h13.04v25.81c0,1.22,0.2,2.14,0.61,2.75
					C127.38,385.31,128.24,385.68,129.55,385.82z M116.31,345.82c0-1.45,0.5-2.69,1.49-3.74c1-1.04,2.26-1.56,3.8-1.56
					c1.45,0,2.68,0.51,3.7,1.53s1.53,2.27,1.53,3.77s-0.5,2.74-1.49,3.74c-1,1-2.24,1.49-3.74,1.49c-1.54,0-2.81-0.5-3.8-1.49
					C116.81,348.56,116.31,347.31,116.31,345.82z"/>
				<path fill="#FFFFFF" d="M184.29,383.1l1.02,1.44c-1.04,1.24-2.17,2.2-3.4,2.89c-1.22,0.69-2.58,1.03-4.07,1.03
					c-2.08,0-3.58-0.55-4.48-1.65c-0.5-0.6-0.91-1.65-1.22-3.17c-1.9,1.93-4.05,3.28-6.45,4.06c-1.54,0.5-2.99,0.76-4.35,0.76
					c-1.9,0-3.56-0.57-4.96-1.7c-1.68-1.36-2.51-3.22-2.51-5.58c0-3.18,1.83-5.81,5.5-7.89c2.35-1.36,6.61-2.97,12.77-4.83v-4.97
					c0-1.95-0.36-3.38-1.09-4.29c-0.91-1.13-2.54-1.7-4.89-1.7c-1.13,0-2.08,0.26-2.85,0.78c-0.77,0.52-1.15,1.08-1.15,1.66
					c0,0.36,0.34,0.97,1.02,1.83c0.68,0.86,1.02,1.79,1.02,2.78c0,1.18-0.5,2.15-1.49,2.92c-0.77,0.59-1.79,0.88-3.06,0.88
					c-1.45,0-2.56-0.38-3.33-1.15c-0.77-0.77-1.15-1.92-1.15-3.46c0-2.31,1.06-4.26,3.19-5.84c2.31-1.72,5.48-2.58,9.51-2.58
					c4.03,0,7.3,0.78,9.81,2.34s3.77,3.88,3.77,6.96v17.73c0,0.45,0.08,0.85,0.24,1.19c0.16,0.34,0.58,0.51,1.26,0.51
					c0.27,0,0.5-0.09,0.68-0.27L184.29,383.1z M172.13,380.66v-9.85c-2.51,0.54-4.53,1.55-6.06,3.02c-1.53,1.47-2.29,3.2-2.29,5.2
					c0,1.18,0.3,2.23,0.89,3.16c0.59,0.93,1.46,1.39,2.6,1.39c1.05,0,2.03-0.34,2.94-1.02
					C170.67,382.24,171.31,381.61,172.13,380.66z"/>
				<path fill="#FFFFFF" d="M224.43,384.67v1.56c-4.21,0.5-7,0.86-8.35,1.09c-1.36,0.23-2.99,0.61-4.89,1.15v-4.55
					c-1.49,1.61-2.72,2.69-3.67,3.24c-1.49,0.87-3.42,1.31-5.77,1.31c-3.08,0-5.77-1.36-8.08-4.08c-2.54-2.95-3.8-6.8-3.8-11.57
					c0-5.58,1.38-9.98,4.14-13.2c2.45-2.86,5.43-4.29,8.96-4.29c1.45,0,2.75,0.27,3.9,0.81c1.15,0.54,2.52,1.68,4.11,3.4v-12.38
					c0-1.71-0.35-2.79-1.05-3.25c-0.7-0.45-2.07-0.68-4.11-0.68v-1.7h14.6v39.17c0,1.23,0.18,2.11,0.54,2.66
					C221.55,384.23,222.71,384.67,224.43,384.67z M210.98,379.9v-16.55c-0.45-0.95-0.86-1.66-1.22-2.11
					c-1.13-1.41-2.49-2.11-4.07-2.11c-2.22,0-3.78,1.29-4.69,3.88c-0.72,2.04-1.09,4.99-1.09,8.85c0,3.41,0.23,6.02,0.68,7.83
					c0.81,3.31,2.4,4.97,4.75,4.97c1.36,0,2.69-0.7,4.01-2.11C210.44,381.38,210.98,380.49,210.98,379.9z"/>
				<path fill="#FFFFFF" d="M255.26,378.96l1.63,0.96c-2.04,3.15-4.09,5.36-6.15,6.64c-2.06,1.28-4.49,1.92-7.3,1.92
					c-3.76,0-6.91-1.32-9.44-3.95c-2.9-3.04-4.35-7.28-4.35-12.73c0-4.9,1.33-8.87,4.01-11.91c2.67-3.04,6-4.56,9.98-4.56
					c3.98,0,7.06,1.29,9.24,3.87c2.44,2.9,3.67,6.77,3.67,11.61h-17.11c0,3.5,0.54,6.35,1.63,8.53c1.4,2.82,3.58,4.23,6.52,4.23
					c1.36,0,2.61-0.33,3.77-1C252.51,381.91,253.81,380.71,255.26,378.96z M239.1,368.3h9.1c0-1.77-0.03-3.23-0.1-4.38
					c-0.07-1.15-0.24-2.23-0.51-3.23c-0.27-1-0.63-1.74-1.09-2.24c-0.63-0.68-1.49-1.02-2.58-1.02c-1.49,0-2.6,0.63-3.33,1.9
					C239.59,361.06,239.1,364.04,239.1,368.3z"/>
				<path fill="#FFFFFF" d="M315.43,385.75v1.7h-16.16v-1.7c1.49,0,2.47-0.43,2.92-1.29c0.27-0.5,0.41-1.35,0.41-2.57V365.5
					c0-1.72-0.14-2.91-0.41-3.59c-0.54-1.35-1.63-2.03-3.26-2.03c-1.27,0-2.58,0.59-3.94,1.76c-1.18,0.99-1.77,1.72-1.77,2.17v18.09
					c0,1.22,0.24,2.17,0.71,2.84c0.48,0.68,1.3,1.02,2.48,1.02v1.7h-15.89v-1.7c1.4,0,2.35-0.45,2.85-1.35
					c0.27-0.5,0.41-1.33,0.41-2.51V365.5c0-1.72-0.14-2.91-0.41-3.59c-0.54-1.35-1.65-2.03-3.33-2.03c-1.27,0-2.58,0.59-3.94,1.76
					c-1.13,0.99-1.7,1.72-1.7,2.17v18.09c0,1.22,0.2,2.13,0.61,2.74c0.41,0.61,1.24,0.98,2.51,1.12v1.7h-16.3v-1.63
					c1.4-0.27,2.31-0.57,2.72-0.88c0.68-0.54,1.02-1.61,1.02-3.19v-19.97c0-1.58-0.36-2.65-1.09-3.19
					c-0.45-0.36-1.34-0.63-2.65-0.81v-1.63h12.97v4.89c0.95-1.45,1.99-2.6,3.12-3.46c1.95-1.49,4.17-2.24,6.66-2.24
					c2.72,0,4.84,0.7,6.38,2.11c0.86,0.77,1.7,2.04,2.51,3.8c1.49-1.99,3.07-3.47,4.72-4.45c1.65-0.97,3.43-1.46,5.33-1.46
					c2.31,0,4.28,0.66,5.91,1.97c2.13,1.72,3.19,4.25,3.19,7.59v17.01c0,1.22,0.14,2.08,0.41,2.58
					C312.89,385.32,313.89,385.75,315.43,385.75z"/>
				<path fill="#FFFFFF" d="M350.88,383.1l1.02,1.44c-1.04,1.24-2.17,2.2-3.4,2.89c-1.22,0.69-2.58,1.03-4.07,1.03
					c-2.08,0-3.58-0.55-4.48-1.65c-0.5-0.6-0.91-1.65-1.22-3.17c-1.9,1.93-4.05,3.28-6.45,4.06c-1.54,0.5-2.99,0.76-4.35,0.76
					c-1.9,0-3.56-0.57-4.96-1.7c-1.68-1.36-2.51-3.22-2.51-5.58c0-3.18,1.83-5.81,5.5-7.89c2.35-1.36,6.61-2.97,12.77-4.83v-4.97
					c0-1.95-0.36-3.38-1.09-4.29c-0.91-1.13-2.54-1.7-4.89-1.7c-1.13,0-2.08,0.26-2.85,0.78c-0.77,0.52-1.15,1.08-1.15,1.66
					c0,0.36,0.34,0.97,1.02,1.83c0.68,0.86,1.02,1.79,1.02,2.78c0,1.18-0.5,2.15-1.49,2.92c-0.77,0.59-1.79,0.88-3.06,0.88
					c-1.45,0-2.56-0.38-3.33-1.15c-0.77-0.77-1.15-1.92-1.15-3.46c0-2.31,1.06-4.26,3.19-5.84c2.31-1.72,5.48-2.58,9.51-2.58
					c4.03,0,7.3,0.78,9.81,2.34s3.77,3.88,3.77,6.96v17.73c0,0.45,0.08,0.85,0.24,1.19c0.16,0.34,0.58,0.51,1.26,0.51
					c0.27,0,0.5-0.09,0.68-0.27L350.88,383.1z M343.27,345.58l-9.64,5.94h-3.8l9.3-10.6c0.68-0.77,1.3-1.27,1.87-1.52
					c0.57-0.25,1.12-0.37,1.66-0.37c0.86,0,1.56,0.18,2.11,0.54c0.81,0.54,1.22,1.35,1.22,2.43c0,0.85-0.22,1.52-0.65,1.99
					C344.91,344.47,344.22,345,343.27,345.58z M338.72,380.66v-9.85c-2.51,0.54-4.53,1.55-6.06,3.02c-1.53,1.47-2.29,3.2-2.29,5.2
					c0,1.18,0.3,2.23,0.89,3.16c0.59,0.93,1.46,1.39,2.6,1.39c1.05,0,2.03-0.34,2.94-1.02C337.26,382.24,337.9,381.61,338.72,380.66
					z"/>
				<path fill="#FFFFFF" d="M377.71,365.17h-1.7c-0.72-2.4-1.81-4.27-3.26-5.6c-1.45-1.33-3.17-2-5.16-2c-1.18,0-2.2,0.39-3.06,1.16
					c-0.86,0.77-1.29,1.68-1.29,2.72c0,1.95,2.65,4.17,7.95,6.67c5.3,2.5,7.95,5.79,7.95,9.87c0,3.27-0.97,5.83-2.9,7.69
					c-1.94,1.86-4.5,2.79-7.7,2.79c-1.04,0-2.36-0.21-3.98-0.63c-1.53-0.47-3.06-0.94-4.59-1.4c-0.59,0-1.19,0.68-1.82,2.04h-1.69
					v-11.21h1.89c0.63,2.92,1.74,5.13,3.33,6.64c1.59,1.51,3.65,2.26,6.16,2.26c1.57,0,2.76-0.45,3.57-1.36
					c0.81-0.91,1.21-1.95,1.21-3.13c0-1.68-1.38-3.25-4.14-4.7c-5.03-2.63-7.63-4.02-7.81-4.15c-2.81-2.04-4.21-4.54-4.21-7.49
					c0-2.95,1.02-5.35,3.06-7.21c2.04-1.86,4.62-2.79,7.74-2.79c1.18,0,2.35,0.14,3.53,0.41c1.18,0.27,2.42,0.59,3.74,0.95
					c0.77,0,1.33-0.45,1.7-1.36h1.49V365.17z"/>
				<path fill="#FFFFFF" d="M387.08,399.66l-0.75-1.49c1.81-1.22,3.28-2.4,4.41-3.53c1.99-1.99,2.99-3.8,2.99-5.43
					c0-1-0.45-1.49-1.36-1.49h-1.49c-1.27,0-2.33-0.33-3.19-1.01c-1.22-0.94-1.83-2.37-1.83-4.29c0-1.7,0.52-3.04,1.56-4.02
					c1.04-0.98,2.38-1.48,4.01-1.48c2.31,0,4.07,0.84,5.3,2.51c1.09,1.45,1.63,3.19,1.63,5.23c0,3.66-1.43,6.97-4.28,9.91
					C392.44,396.24,390.11,397.94,387.08,399.66z"/>
				<path fill="#FFFFFF" d="M101.1,461.34v1.7H84.87v-1.7c1.18,0,2.08-0.47,2.72-1.42c0.5-0.77,0.75-1.65,0.75-2.64v-34.53
					c0-1.22-0.31-2.18-0.92-2.88c-0.61-0.7-1.46-1.05-2.55-1.05v-1.7h12.9v40.14c0,1.22,0.24,2.2,0.71,2.95
					C98.96,460.97,99.83,461.34,101.1,461.34z"/>
				<path fill="#FFFFFF" d="M136.82,458.7l1.02,1.44c-1.04,1.24-2.17,2.2-3.4,2.89c-1.22,0.69-2.58,1.03-4.07,1.03
					c-2.08,0-3.58-0.55-4.48-1.65c-0.5-0.6-0.91-1.65-1.22-3.17c-1.9,1.93-4.05,3.28-6.45,4.06c-1.54,0.5-2.99,0.76-4.35,0.76
					c-1.9,0-3.56-0.57-4.96-1.7c-1.68-1.36-2.51-3.22-2.51-5.58c0-3.18,1.83-5.81,5.5-7.89c2.35-1.36,6.61-2.97,12.77-4.83v-4.97
					c0-1.95-0.36-3.38-1.09-4.29c-0.91-1.13-2.54-1.7-4.89-1.7c-1.13,0-2.08,0.26-2.85,0.78c-0.77,0.52-1.15,1.08-1.15,1.66
					c0,0.36,0.34,0.97,1.02,1.83c0.68,0.86,1.02,1.79,1.02,2.78c0,1.18-0.5,2.15-1.49,2.92c-0.77,0.59-1.79,0.88-3.06,0.88
					c-1.45,0-2.56-0.38-3.33-1.15c-0.77-0.77-1.15-1.92-1.15-3.46c0-2.31,1.06-4.26,3.19-5.84c2.31-1.72,5.48-2.58,9.51-2.58
					c4.03,0,7.3,0.78,9.81,2.34s3.77,3.88,3.77,6.96v17.73c0,0.45,0.08,0.85,0.24,1.19c0.16,0.34,0.58,0.51,1.26,0.51
					c0.27,0,0.5-0.09,0.68-0.27L136.82,458.7z M124.66,456.25v-9.85c-2.51,0.54-4.53,1.55-6.06,3.02c-1.53,1.47-2.29,3.2-2.29,5.2
					c0,1.18,0.3,2.23,0.89,3.16c0.59,0.93,1.46,1.39,2.6,1.39c1.05,0,2.03-0.34,2.94-1.02C123.2,457.84,123.84,457.2,124.66,456.25z
					"/>
				<path fill="#FFFFFF" d="M163.64,440.77h-1.7c-0.72-2.4-1.81-4.27-3.26-5.6c-1.45-1.33-3.17-2-5.16-2c-1.18,0-2.2,0.39-3.06,1.16
					c-0.86,0.77-1.29,1.68-1.29,2.72c0,1.95,2.65,4.17,7.95,6.67c5.3,2.5,7.95,5.79,7.95,9.87c0,3.27-0.97,5.83-2.9,7.69
					c-1.94,1.86-4.5,2.79-7.7,2.79c-1.04,0-2.36-0.21-3.98-0.63c-1.53-0.47-3.06-0.94-4.59-1.4c-0.59,0-1.19,0.68-1.82,2.04h-1.69
					v-11.21h1.89c0.63,2.92,1.74,5.13,3.33,6.64c1.59,1.51,3.65,2.26,6.16,2.26c1.57,0,2.76-0.45,3.57-1.36
					c0.81-0.91,1.21-1.95,1.21-3.13c0-1.68-1.38-3.25-4.14-4.7c-5.03-2.63-7.63-4.02-7.81-4.15c-2.81-2.04-4.21-4.54-4.21-7.49
					c0-2.95,1.02-5.35,3.06-7.21c2.04-1.86,4.62-2.79,7.74-2.79c1.18,0,2.35,0.14,3.53,0.41c1.18,0.27,2.42,0.59,3.74,0.95
					c0.77,0,1.33-0.45,1.7-1.36h1.49V440.77z"/>
				<path fill="#FFFFFF" d="M207.99,475.47v1.43h-18.54v-1.63c1.54-0.23,2.56-0.59,3.06-1.09c0.5-0.5,0.75-1.45,0.75-2.85v-33.97
					c0-1.36-0.23-2.32-0.68-2.88c-0.45-0.56-1.45-0.94-2.99-1.12v-1.63h13.11v4.48c0.9-1.54,1.82-2.69,2.77-3.46
					c1.57-1.22,3.55-1.83,5.94-1.83c3.24,0,6.01,1.22,8.3,3.67c2.7,2.9,4.05,6.9,4.05,12.02c0,5.39-1.26,9.62-3.77,12.7
					c-2.51,3.08-5.6,4.62-9.27,4.62c-1.31,0-2.52-0.24-3.63-0.71c-1.11-0.48-2.57-1.6-4.38-3.36v9.53c0,2.48,0.48,4.15,1.43,5
					C204.89,475.11,206.18,475.47,207.99,475.47z M202.69,439.54v16.5c0.41,0.91,0.79,1.59,1.15,2.04c1.13,1.4,2.49,2.1,4.07,2.1
					c2.4,0,4.05-1.56,4.96-4.69c0.54-1.9,0.81-4.44,0.81-7.61c0-3.98-0.25-6.88-0.75-8.69c-0.81-2.94-2.33-4.41-4.55-4.41
					c-1.36,0-2.69,0.66-4.01,1.97C203.26,437.89,202.69,438.82,202.69,439.54z"/>
				<path fill="#FFFFFF" d="M229.66,447.52c0-4.54,1.41-8.44,4.24-11.7c2.83-3.27,6.53-4.9,11.1-4.9c4.44,0,8.09,1.58,10.97,4.73
					c2.87,3.15,4.31,7.11,4.31,11.88c0,4.63-1.42,8.54-4.24,11.74c-2.83,3.2-6.51,4.8-11.04,4.8c-4.62,0-8.33-1.6-11.14-4.8
					C231.06,456.07,229.66,452.15,229.66,447.52z M239.64,447.52c0,4.81,0.23,8.12,0.68,9.94c0.77,3,2.35,4.49,4.75,4.49
					c2.13,0,3.58-1.32,4.35-3.95c0.59-2.04,0.88-5.54,0.88-10.48c0-5.35-0.37-9.11-1.12-11.27c-0.75-2.16-2.14-3.23-4.18-3.23
					c-2.26,0-3.78,1.43-4.55,4.29C239.91,439.36,239.64,442.76,239.64,447.52z"/>
				<path fill="#FFFFFF" d="M300.22,460.26v1.56c-4.21,0.5-7,0.86-8.35,1.09c-1.36,0.23-2.99,0.61-4.89,1.15v-4.55
					c-1.49,1.61-2.72,2.69-3.67,3.24c-1.49,0.87-3.42,1.31-5.77,1.31c-3.08,0-5.77-1.36-8.08-4.08c-2.54-2.95-3.8-6.8-3.8-11.57
					c0-5.58,1.38-9.98,4.14-13.2c2.45-2.86,5.43-4.29,8.96-4.29c1.45,0,2.75,0.27,3.9,0.81c1.15,0.54,2.52,1.68,4.11,3.4v-12.38
					c0-1.71-0.35-2.79-1.05-3.25c-0.7-0.45-2.07-0.68-4.11-0.68v-1.7h14.6v39.17c0,1.23,0.18,2.11,0.54,2.66
					C297.34,459.83,298.5,460.26,300.22,460.26z M286.77,455.49v-16.55c-0.45-0.95-0.86-1.66-1.22-2.11
					c-1.13-1.41-2.49-2.11-4.07-2.11c-2.22,0-3.78,1.29-4.69,3.88c-0.72,2.04-1.09,4.99-1.09,8.85c0,3.41,0.23,6.02,0.68,7.83
					c0.81,3.31,2.4,4.97,4.75,4.97c1.36,0,2.69-0.7,4.01-2.11C286.23,456.97,286.77,456.08,286.77,455.49z"/>
				<path fill="#FFFFFF" d="M331.05,454.55l1.63,0.96c-2.04,3.15-4.09,5.36-6.15,6.64c-2.06,1.28-4.49,1.92-7.3,1.92
					c-3.76,0-6.91-1.32-9.44-3.95c-2.9-3.04-4.35-7.28-4.35-12.73c0-4.9,1.33-8.87,4.01-11.91c2.67-3.04,6-4.56,9.98-4.56
					c3.98,0,7.06,1.29,9.24,3.87c2.44,2.9,3.67,6.77,3.67,11.61h-17.11c0,3.5,0.54,6.35,1.63,8.53c1.4,2.82,3.58,4.23,6.52,4.23
					c1.36,0,2.61-0.33,3.77-1C328.3,457.51,329.6,456.3,331.05,454.55z M314.89,443.89h9.1c0-1.77-0.03-3.23-0.1-4.38
					c-0.07-1.15-0.24-2.23-0.51-3.23c-0.27-1-0.63-1.74-1.09-2.24c-0.63-0.68-1.49-1.02-2.58-1.02c-1.49,0-2.6,0.63-3.33,1.9
					C315.38,436.65,314.89,439.64,314.89,443.89z"/>
				<path fill="#FFFFFF" d="M391.22,461.34v1.7h-16.16v-1.7c1.49,0,2.47-0.43,2.92-1.29c0.27-0.5,0.41-1.35,0.41-2.57v-16.39
					c0-1.72-0.13-2.91-0.41-3.59c-0.54-1.35-1.63-2.03-3.26-2.03c-1.27,0-2.58,0.59-3.94,1.76c-1.18,0.99-1.77,1.72-1.77,2.17v18.09
					c0,1.22,0.24,2.17,0.71,2.84c0.47,0.68,1.3,1.02,2.48,1.02v1.7h-15.89v-1.7c1.4,0,2.35-0.45,2.85-1.35
					c0.27-0.5,0.41-1.33,0.41-2.51v-16.39c0-1.72-0.14-2.91-0.41-3.59c-0.54-1.35-1.65-2.03-3.33-2.03c-1.27,0-2.58,0.59-3.94,1.76
					c-1.13,0.99-1.7,1.72-1.7,2.17v18.09c0,1.22,0.2,2.13,0.61,2.74c0.41,0.61,1.24,0.98,2.51,1.12v1.7h-16.3v-1.63
					c1.4-0.27,2.31-0.57,2.72-0.88c0.68-0.54,1.02-1.61,1.02-3.19v-19.97c0-1.58-0.36-2.65-1.09-3.19
					c-0.45-0.36-1.34-0.63-2.65-0.81v-1.63H350v4.89c0.95-1.45,1.99-2.6,3.12-3.46c1.95-1.49,4.17-2.24,6.66-2.24
					c2.72,0,4.84,0.7,6.38,2.11c0.86,0.77,1.7,2.04,2.51,3.8c1.49-1.99,3.07-3.47,4.72-4.45c1.65-0.97,3.43-1.46,5.33-1.46
					c2.31,0,4.28,0.66,5.91,1.97c2.13,1.72,3.19,4.25,3.19,7.59v17.01c0,1.22,0.13,2.08,0.41,2.58
					C388.68,460.92,389.68,461.34,391.22,461.34z"/>
				<path fill="#FFFFFF" d="M396.25,447.52c0-4.54,1.41-8.44,4.24-11.7c2.83-3.27,6.53-4.9,11.1-4.9c4.44,0,8.09,1.58,10.97,4.73
					c2.87,3.15,4.31,7.11,4.31,11.88c0,4.63-1.42,8.54-4.25,11.74c-2.83,3.2-6.51,4.8-11.04,4.8c-4.62,0-8.33-1.6-11.14-4.8
					C397.65,456.07,396.25,452.15,396.25,447.52z M406.23,447.52c0,4.81,0.23,8.12,0.68,9.94c0.77,3,2.35,4.49,4.75,4.49
					c2.13,0,3.58-1.32,4.35-3.95c0.59-2.04,0.88-5.54,0.88-10.48c0-5.35-0.37-9.11-1.12-11.27c-0.75-2.16-2.14-3.23-4.18-3.23
					c-2.26,0-3.78,1.43-4.55,4.29C406.5,439.36,406.23,442.76,406.23,447.52z"/>
				<path fill="#FFFFFF" d="M453.5,440.77h-1.7c-0.72-2.4-1.81-4.27-3.26-5.6c-1.45-1.33-3.17-2-5.16-2c-1.18,0-2.2,0.39-3.06,1.16
					c-0.86,0.77-1.29,1.68-1.29,2.72c0,1.95,2.65,4.17,7.95,6.67c5.3,2.5,7.95,5.79,7.95,9.87c0,3.27-0.97,5.83-2.9,7.69
					c-1.94,1.86-4.5,2.79-7.7,2.79c-1.04,0-2.36-0.21-3.98-0.63c-1.53-0.47-3.06-0.94-4.59-1.4c-0.59,0-1.19,0.68-1.82,2.04h-1.69
					v-11.21h1.88c0.63,2.92,1.74,5.13,3.33,6.64c1.59,1.51,3.65,2.26,6.16,2.26c1.57,0,2.76-0.45,3.57-1.36
					c0.81-0.91,1.21-1.95,1.21-3.13c0-1.68-1.38-3.25-4.14-4.7c-5.03-2.63-7.63-4.02-7.81-4.15c-2.81-2.04-4.21-4.54-4.21-7.49
					c0-2.95,1.02-5.35,3.06-7.21c2.04-1.86,4.62-2.79,7.74-2.79c1.18,0,2.35,0.14,3.53,0.41c1.18,0.27,2.42,0.59,3.74,0.95
					c0.77,0,1.33-0.45,1.7-1.36h1.49V440.77z"/>
				<path fill="#FFFFFF" d="M111.76,531.23l1.22,1.23c-1.63,2.28-3.54,4.05-5.74,5.31c-2.2,1.25-4.61,1.88-7.23,1.88
					c-4.26,0-7.74-1.52-10.46-4.56c-2.72-3.04-4.07-6.71-4.07-11.02c0-6.08,1.86-10.68,5.57-13.81c2.94-2.5,6.43-3.74,10.46-3.74
					c2.67,0,5.03,0.61,7.06,1.83c2.31,1.4,3.46,3.26,3.46,5.57c0,1.45-0.43,2.54-1.29,3.26c-0.86,0.73-1.97,1.09-3.33,1.09
					c-1.31,0-2.27-0.42-2.89-1.26s-0.92-2.75-0.92-5.74c0-0.91-0.29-1.57-0.88-2c-0.59-0.43-1.22-0.65-1.9-0.65
					c-1.77,0-3.17,0.98-4.21,2.93c-1.04,1.95-1.56,4.79-1.56,8.51c0,4.63,0.88,8.29,2.65,11c1.77,2.7,4.03,4.05,6.79,4.05
					c1.72,0,3.21-0.42,4.48-1.25C109.74,533.35,110.67,532.48,111.76,531.23z"/>
				<path fill="#FFFFFF" d="M136,536.94v1.7h-18.06V537c1.36-0.27,2.24-0.57,2.65-0.88c0.68-0.59,1.02-1.65,1.02-3.19v-19.97
					c0-1.58-0.34-2.65-1.02-3.19c-0.45-0.36-1.34-0.63-2.65-0.81v-1.63h12.84v5.37c1.31-1.77,2.44-3.06,3.4-3.87
					c1.81-1.54,3.69-2.31,5.64-2.31c2.04,0,3.55,0.68,4.55,2.04c0.72,0.95,1.09,2.04,1.09,3.26c0,1.13-0.29,2.11-0.88,2.92
					c-0.77,1.09-1.92,1.63-3.46,1.63c-1.45,0-2.83-0.91-4.14-2.72c-0.63-0.86-1.27-1.29-1.9-1.29c-1.13,0-2.13,0.72-2.99,2.17
					c-0.68,1.17-1.02,2.6-1.02,4.27v12.8c0,2.12,0.32,3.54,0.95,4.27C132.63,536.58,133.97,536.94,136,536.94z"/>
				<path fill="#FFFFFF" d="M174.24,530.15l1.63,0.96c-2.04,3.15-4.09,5.36-6.15,6.64c-2.06,1.28-4.49,1.92-7.3,1.92
					c-3.76,0-6.91-1.32-9.44-3.95c-2.9-3.04-4.35-7.28-4.35-12.73c0-4.9,1.33-8.87,4.01-11.91c2.67-3.04,6-4.56,9.98-4.56
					c3.98,0,7.06,1.29,9.24,3.87c2.44,2.9,3.67,6.77,3.67,11.61h-17.11c0,3.5,0.54,6.35,1.63,8.54c1.4,2.82,3.58,4.23,6.52,4.23
					c1.36,0,2.61-0.33,3.77-1C171.49,533.1,172.79,531.89,174.24,530.15z M158.07,519.48h9.1c0-1.77-0.03-3.23-0.1-4.38
					c-0.07-1.15-0.24-2.23-0.51-3.23c-0.27-1-0.63-1.74-1.09-2.24c-0.63-0.68-1.49-1.02-2.58-1.02c-1.49,0-2.6,0.63-3.33,1.9
					C158.57,512.24,158.07,515.23,158.07,519.48z"/>
				<path fill="#FFFFFF" d="M211.25,534.29l1.02,1.44c-1.04,1.24-2.17,2.2-3.4,2.89c-1.22,0.69-2.58,1.03-4.07,1.03
					c-2.08,0-3.58-0.55-4.48-1.65c-0.5-0.6-0.91-1.65-1.22-3.17c-1.9,1.93-4.05,3.28-6.45,4.06c-1.54,0.51-2.99,0.76-4.35,0.76
					c-1.9,0-3.56-0.57-4.96-1.7c-1.68-1.36-2.51-3.22-2.51-5.58c0-3.18,1.83-5.81,5.5-7.9c2.35-1.36,6.61-2.97,12.77-4.83v-4.97
					c0-1.95-0.36-3.38-1.09-4.29c-0.91-1.13-2.54-1.7-4.89-1.7c-1.13,0-2.08,0.26-2.85,0.78c-0.77,0.52-1.15,1.08-1.15,1.66
					c0,0.36,0.34,0.97,1.02,1.83c0.68,0.86,1.02,1.79,1.02,2.78c0,1.18-0.5,2.15-1.49,2.92c-0.77,0.59-1.79,0.88-3.06,0.88
					c-1.45,0-2.56-0.38-3.33-1.15c-0.77-0.77-1.15-1.92-1.15-3.46c0-2.31,1.06-4.25,3.19-5.84c2.31-1.72,5.48-2.58,9.51-2.58
					c4.03,0,7.3,0.78,9.81,2.34c2.51,1.56,3.77,3.88,3.77,6.96v17.72c0,0.45,0.08,0.85,0.24,1.19c0.16,0.34,0.58,0.51,1.26,0.51
					c0.27,0,0.5-0.09,0.68-0.27L211.25,534.29z M199.09,531.84V522c-2.51,0.54-4.53,1.55-6.06,3.02c-1.53,1.47-2.29,3.2-2.29,5.2
					c0,1.18,0.3,2.23,0.89,3.16c0.59,0.93,1.46,1.39,2.6,1.39c1.05,0,2.03-0.34,2.94-1.02
					C197.63,533.43,198.27,532.79,199.09,531.84z"/>
				<path fill="#FFFFFF" d="M235.15,536.94v1.7h-18.06V537c1.36-0.27,2.24-0.57,2.65-0.88c0.68-0.59,1.02-1.65,1.02-3.19v-19.97
					c0-1.58-0.34-2.65-1.02-3.19c-0.45-0.36-1.34-0.63-2.65-0.81v-1.63h12.84v5.37c1.31-1.77,2.44-3.06,3.4-3.87
					c1.81-1.54,3.69-2.31,5.64-2.31c2.04,0,3.55,0.68,4.55,2.04c0.72,0.95,1.09,2.04,1.09,3.26c0,1.13-0.29,2.11-0.88,2.92
					c-0.77,1.09-1.92,1.63-3.46,1.63c-1.45,0-2.83-0.91-4.14-2.72c-0.63-0.86-1.27-1.29-1.9-1.29c-1.13,0-2.13,0.72-2.99,2.17
					c-0.68,1.17-1.02,2.6-1.02,4.27v12.8c0,2.12,0.32,3.54,0.95,4.27C231.78,536.58,233.12,536.94,235.15,536.94z"/>
				<path fill="#FFFFFF" d="M243.3,533.85c0-1.53,0.55-2.87,1.66-4.02c1.11-1.15,2.46-1.72,4.04-1.72c1.58,0,2.94,0.56,4.07,1.69
					c1.13,1.12,1.7,2.48,1.7,4.05c0,1.62-0.57,2.97-1.7,4.05c-1.13,1.08-2.49,1.62-4.07,1.62c-1.63,0-2.99-0.54-4.07-1.62
					C243.85,536.82,243.3,535.47,243.3,533.85z"/>
			</g>
		</g>
		<g>
			<g>
				<path fill="#FFFFFF" d="M454.16,646.14v1.76H445v-1.76H454.16z"/>
				<path fill="#FFFFFF" d="M463.82,652.46c-0.66-0.35-0.92-0.94-0.87-1.6c0.02-0.8,0.56-1.67,1.55-2.28v-0.05
					c-1.17-0.59-1.95-1.76-1.95-3.29c0-2.58,1.83-4,4.77-4c0.63,0,1.17,0.12,1.6,0.24h4.16v1.29h-2.28
					c0.92,0.66,1.15,1.65,1.15,2.47c0,2.63-2,3.88-4.63,3.88c-0.68,0-1.36-0.14-1.72-0.26c-0.19,0.19-0.35,0.45-0.47,0.68
					c-0.35,0.71-0.28,1.5,0.63,1.55l4.23,0.26c2.42,0.16,3.43,1.1,3.43,2.7c0,2.7-2.14,4.11-6.81,4.11c-3.17,0-4.82-0.96-4.82-3.05
					c0-1.06,0.61-1.88,2.02-2.61V652.46z M467.02,656.76c2.26,0,4.18-0.73,4.18-2.3c0-0.71-0.47-1.32-1.95-1.39l-4.35-0.24
					c-0.75,0.54-1.34,1.01-1.34,1.93C463.56,656.06,464.76,656.76,467.02,656.76z M470.02,645.25c0-1.57-1.08-2.58-2.7-2.58
					c-1.83,0-2.77,1.01-2.77,2.58c0,1.6,1.06,2.47,2.77,2.47C468.97,647.72,470.02,646.8,470.02,645.25z"/>
				<path fill="#FFFFFF" d="M478.25,653.24h-2.12v-11.75h2.12v1.88h0.05c0.94-1.06,2.54-2.12,4.42-2.12v2
					c-1.76,0-3.52,0.75-4.46,1.36V653.24z"/>
				<path fill="#FFFFFF" d="M493.29,641.49h2.12v11.75h-2.12v-1.64h-0.05c-1.13,1.13-2.54,1.88-4.18,1.88
					c-2.35,0-3.53-1.41-3.53-3.88v-8.11h2.12v7.64c0,1.53,0.63,2.58,2.35,2.58c1.34,0,2.58-0.82,3.29-1.34V641.49z"/>
				<path fill="#FFFFFF" d="M500.81,642.67h0.05c0.82-0.82,2.19-1.41,3.6-1.41c3.29,0,4.35,2.7,4.35,6.11s-1.17,6.11-4.46,6.11
					c-1.34,0-2.66-0.52-3.48-1.34h-0.05v5.8h-2.12v-16.45h2.12V642.67z M503.63,643.02c-1.29,0-2.35,0.61-2.82,1.01v6.7
					c0.47,0.38,1.53,0.99,2.82,0.99c2.28,0,2.94-2,2.94-4.35C506.56,645.02,505.91,643.02,503.63,643.02z"/>
				<path fill="#FFFFFF" d="M511.62,647.36c0-3.64,1.46-6.11,5.4-6.11c3.92,0,5.41,2.47,5.41,6.11c0,3.64-1.48,6.11-5.41,6.11
					C513.07,653.48,511.62,651.01,511.62,647.36z M513.85,647.36c0,2.47,0.71,4.35,3.17,4.35c2.44,0,3.17-1.88,3.17-4.35
					c0-2.47-0.73-4.35-3.17-4.35C514.55,643.02,513.85,644.9,513.85,647.36z"/>
				<path fill="#FFFFFF" d="M531.36,643.02h-1.76v-1.39l1.76-0.14l0.26-3.29h1.86v3.29h3.29v1.53h-3.29v6.46c0,1.5,0.47,2.3,2,2.3
					c0.33,0,0.71-0.05,1.2-0.12l0.21,1.64c-0.63,0.09-1.55,0.17-2.12,0.17c-2.42,0-3.41-0.99-3.41-3.64V643.02z"/>
				<path fill="#FFFFFF" d="M540.83,647.72c0.07,2.35,1.1,4,3.88,4c1.15,0,2.3-0.05,3.67-0.47l0.28,1.71
					c-1.48,0.4-2.7,0.52-4.23,0.52c-4.35,0-5.87-2.47-5.87-6.11c0-3.64,1.53-6.11,5.76-6.11c3.6,0,4.58,2.09,4.7,4.09
					c0.07,0.75-0.02,1.57-0.14,2.37H540.83z M540.83,646.38h5.97c0.07-0.42,0.12-0.85,0.07-1.25c-0.09-1.2-0.8-2.23-2.68-2.23
					C541.84,642.9,540.99,644.4,540.83,646.38z"/>
				<path fill="#FFFFFF" d="M554.05,653.24h-2.12v-11.75h2.12v1.64h0.05c1.13-1.1,2.54-1.88,4.18-1.88c2.35,0,3.53,1.41,3.53,3.88
					v8.11h-2.12v-7.64c0-1.53-0.59-2.58-2.35-2.58c-1.36,0-2.58,0.82-3.29,1.36V653.24z"/>
				<path fill="#FFFFFF" d="M572.85,652.07c-0.02,0-0.02,0-0.05,0c-0.85,0.82-2.21,1.41-3.6,1.41c-3.29,0-4.35-2.7-4.35-6.11
					s1.17-6.11,4.46-6.11c1.34,0,2.63,0.54,3.48,1.36c0.02,0,0.02,0,0.05,0v-5.83h2.12v16.45h-2.12V652.07z M570.04,651.71
					c1.29,0,2.33-0.61,2.82-0.99v-6.7c-0.49-0.4-1.53-1.01-2.82-1.01c-2.3,0-2.94,2-2.94,4.35
					C567.1,649.72,567.73,651.71,570.04,651.71z"/>
				<path fill="#FFFFFF" d="M580.3,647.72c0.07,2.35,1.1,4,3.88,4c1.15,0,2.3-0.05,3.67-0.47l0.28,1.71
					c-1.48,0.4-2.7,0.52-4.23,0.52c-4.35,0-5.87-2.47-5.87-6.11c0-3.64,1.53-6.11,5.76-6.11c3.6,0,4.58,2.09,4.7,4.09
					c0.07,0.75-0.02,1.57-0.14,2.37H580.3z M580.3,646.38h5.97c0.07-0.42,0.12-0.85,0.07-1.25c-0.09-1.2-0.8-2.23-2.68-2.23
					C581.31,642.9,580.47,644.4,580.3,646.38z"/>
				<path fill="#FFFFFF" d="M593.53,653.24h-2.12v-11.75h2.12v1.64h0.05c1.13-1.1,2.54-1.88,4.18-1.88c2.35,0,3.53,1.41,3.53,3.88
					v8.11h-2.12v-7.64c0-1.53-0.59-2.58-2.35-2.58c-1.36,0-2.58,0.82-3.29,1.36V653.24z"/>
				<path fill="#FFFFFF" d="M613.44,643.02l-6.74,8.53v0.05h6.98v1.64h-9.75v-1.53l6.81-8.53v-0.05h-6.46v-1.64h9.16V643.02z"/>
				<path fill="#FFFFFF" d="M618.37,647.72c0.07,2.35,1.1,4,3.88,4c1.15,0,2.3-0.05,3.67-0.47l0.28,1.71
					c-1.48,0.4-2.7,0.52-4.23,0.52c-4.35,0-5.87-2.47-5.87-6.11c0-3.64,1.53-6.11,5.76-6.11c3.6,0,4.58,2.09,4.7,4.09
					c0.07,0.75-0.02,1.57-0.14,2.37H618.37z M618.37,646.38h5.97c0.07-0.42,0.12-0.85,0.07-1.25c-0.09-1.2-0.8-2.23-2.68-2.23
					C619.38,642.9,618.54,644.4,618.37,646.38z"/>
			</g>
		</g>
	</g>
</g>
<g>
</g>
<g>
</g>
<g>
</g>
<g>
</g>
<g>
</g>
<g>
</g>
<g>
</g>
<g>
</g>
<g>
</g>
<g>
</g>
<g>
</g>
<g>
</g>
<g>
</g>
<g>
</g>
<g>
</g>
</svg>
